<svg xmlns="http://www.w3.org/2000/svg" xmlns:xlink="http://www.w3.org/1999/xlink" width="500" zoomAndPan="magnify" viewBox="0 0 375 374.999991" height="500" preserveAspectRatio="xMidYMid meet" version="1.0"><defs><clipPath id="d9adf7bee5"><path d="M 145 32.105469 L 225 32.105469 L 225 342.480469 L 145 342.480469 Z M 145 32.105469 " clip-rule="nonzero"/></clipPath></defs><path fill="#000000" d="M 159.609375 90.660156 C 156.351562 87.558594 151.402344 91.347656 145.730469 94.214844 C 145.714844 82.28125 150.414062 75.792969 144.855469 72.722656 C 141.3125 70.78125 137.867188 74.527344 133.75 78.363281 C 127.136719 70.03125 126.167969 63.042969 120.324219 64.296875 C 114.089844 65.628906 117.347656 77.582031 113.273438 85.351562 C 106.085938 82.890625 102.058594 80.148438 98.878906 83.972656 C 94.945312 88.671875 103.96875 95.6875 106.101562 103.851562 C 99.160156 106.011719 94.523438 106.324219 94.242188 111.148438 C 93.851562 117.808594 107.414062 117.539062 113.507812 124.386719 C 116.15625 127.378906 120.074219 125.089844 122.875 121.347656 C 123.128906 121.488281 123.378906 121.628906 123.613281 121.753906 L 156.664062 327.417969 C 157.574219 331.628906 172.25 332.070312 176.464844 331.175781 C 180.695312 330.28125 193.917969 323.875 193.023438 319.664062 L 139.683594 120.015625 C 140.734375 119.089844 141.644531 118.027344 142.378906 116.851562 C 147.46875 118.746094 153.59375 118.277344 154.628906 113.5 C 157.386719 100.621094 164.464844 95.25 159.609375 90.660156 " fill-opacity="1" fill-rule="nonzero"/><path fill="#000000" d="M 227.941406 90.660156 C 231.199219 87.558594 236.132812 91.347656 241.820312 94.214844 C 241.835938 82.28125 237.136719 75.792969 242.695312 72.722656 C 246.234375 70.78125 249.683594 74.527344 253.800781 78.363281 C 260.414062 70.03125 261.382812 63.042969 267.210938 64.296875 C 273.460938 65.628906 270.203125 77.582031 274.261719 85.351562 C 281.464844 82.890625 285.492188 80.148438 288.671875 83.972656 C 292.605469 88.671875 283.582031 95.6875 281.449219 103.851562 C 288.390625 106.011719 293.027344 106.324219 293.308594 111.148438 C 293.699219 117.808594 280.132812 117.539062 274.042969 124.386719 C 271.394531 127.378906 267.460938 125.089844 264.671875 121.347656 C 264.421875 121.488281 264.1875 121.628906 263.9375 121.753906 L 230.886719 327.417969 C 229.976562 331.628906 215.296875 332.070312 211.070312 331.175781 C 206.855469 330.28125 193.632812 323.875 194.527344 319.664062 L 247.867188 120.015625 C 246.816406 119.089844 245.90625 118.027344 245.1875 116.851562 C 240.078125 118.746094 233.957031 118.277344 232.921875 113.5 C 230.164062 100.621094 223.097656 95.25 227.941406 90.660156 " fill-opacity="1" fill-rule="nonzero"/><path fill="#000000" d="M 270.40625 101.96875 C 268.433594 97.742188 262.214844 99.511719 255.636719 100.121094 C 260.164062 88.578125 267.164062 84.097656 262.949219 79.019531 C 260.273438 75.792969 255.523438 78.113281 250.089844 80.242188 C 246.847656 69.683594 248.570312 62.558594 242.460938 61.554688 C 235.914062 60.457031 234.519531 73.257812 227.640625 79.226562 C 221.613281 74.117188 218.761719 69.9375 214.234375 72.410156 C 208.65625 75.480469 214.703125 85.679688 213.652344 94.386719 C 206.132812 93.824219 201.527344 92.367188 199.429688 96.925781 C 196.515625 103.222656 209.738281 108.125 213.011719 117.039062 C 214.453125 120.941406 219.105469 120.21875 223.242188 117.667969 C 223.414062 117.902344 223.601562 118.121094 223.789062 118.355469 L 177.59375 329.703125 C 176.855469 334.121094 190.878906 340.136719 195.292969 340.871094 C 199.710938 341.609375 214.9375 340.433594 215.660156 336.015625 L 239.984375 122.773438 C 241.347656 122.273438 242.632812 121.582031 243.777344 120.722656 C 247.992188 124.511719 254.085938 126.375 256.902344 122.144531 C 264.453125 110.757812 273.335938 108.25 270.40625 101.96875 " fill-opacity="1" fill-rule="nonzero"/><path fill="#000000" d="M 187.492188 86.996094 C 184.40625 83.484375 178.941406 86.917969 172.800781 89.359375 C 173.914062 77 179.378906 70.75 173.929688 67.054688 C 170.449219 64.6875 166.535156 68.242188 161.914062 71.816406 C 155.851562 62.574219 155.523438 55.257812 149.367188 55.996094 C 142.769531 56.777344 145.011719 69.464844 140.078125 77.09375 C 132.855469 73.882812 128.953125 70.671875 125.304688 74.304688 C 120.792969 78.800781 129.457031 86.902344 130.882812 95.5625 C 123.488281 97.128906 118.679688 97.019531 117.925781 101.984375 C 116.894531 108.832031 130.960938 109.847656 136.597656 117.492188 C 139.058594 120.847656 143.335938 118.855469 146.578125 115.253906 C 146.8125 115.425781 147.0625 115.582031 147.296875 115.738281 L 161.960938 331.597656 C 162.492188 336.046875 177.640625 337.894531 182.089844 337.363281 C 186.539062 336.832031 200.824219 331.472656 200.292969 327.023438 L 164.089844 115.457031 C 165.265625 114.613281 166.300781 113.59375 167.160156 112.449219 C 172.253906 114.910156 178.644531 115.003906 180.164062 110.132812 C 184.234375 97.097656 192.066406 92.210938 187.492188 86.996094 " fill-opacity="1" fill-rule="nonzero"/><path fill="#000000" d="M 187.492188 86.996094 C 190.5625 83.484375 196.046875 86.917969 202.1875 89.359375 C 201.074219 77 195.609375 70.75 201.058594 67.054688 C 204.519531 64.6875 208.453125 68.242188 213.074219 71.816406 C 219.136719 62.574219 219.464844 55.257812 225.621094 55.996094 C 232.199219 56.777344 229.976562 69.464844 234.910156 77.09375 C 242.117188 73.882812 246.03125 70.671875 249.683594 74.304688 C 254.195312 78.800781 245.53125 86.902344 244.105469 95.5625 C 251.484375 97.128906 256.308594 97.019531 257.058594 101.984375 C 258.09375 108.832031 244.027344 109.847656 238.386719 117.492188 C 235.929688 120.847656 231.652344 118.855469 228.394531 115.253906 C 228.160156 115.425781 227.925781 115.582031 227.671875 115.738281 L 213.027344 331.597656 C 212.496094 336.046875 197.347656 337.894531 192.898438 337.363281 C 188.449219 336.832031 174.164062 331.472656 174.695312 327.023438 L 210.898438 115.457031 C 209.722656 114.613281 208.6875 113.59375 207.8125 112.449219 C 202.71875 114.910156 196.34375 115.003906 194.824219 110.132812 C 190.75 97.097656 182.917969 92.210938 187.492188 86.996094 " fill-opacity="1" fill-rule="nonzero"/><g clip-path="url(#d9adf7bee5)"><path fill="#000000" d="M 223.164062 70.8125 C 220.265625 66.597656 213.839844 69.636719 206.839844 71.488281 C 209.660156 58.171875 216.441406 52.0625 210.960938 47.316406 C 207.496094 44.308594 202.75 47.675781 197.253906 50.949219 C 191.863281 40.09375 192.445312 32.089844 185.644531 32.089844 C 178.359375 32.089844 179.160156 46.1875 172.785156 53.878906 C 165.34375 49.429688 161.507812 45.421875 157.058594 48.914062 C 151.542969 53.238281 159.941406 63.183594 160.363281 72.800781 C 152.121094 73.554688 146.875 72.800781 145.417969 78.113281 C 143.398438 85.445312 158.59375 88.375 163.746094 97.441406 C 165.984375 101.40625 170.90625 99.792969 174.914062 96.285156 C 175.148438 96.519531 175.402344 96.707031 175.636719 96.925781 L 163.574219 334.011719 C 163.574219 338.929688 179.832031 342.910156 184.753906 342.910156 C 189.671875 342.910156 205.929688 338.929688 205.929688 334.011719 L 193.964844 98.804688 C 195.355469 98.023438 196.609375 97.050781 197.707031 95.90625 C 202.9375 99.246094 209.878906 100.183594 212.164062 95.078125 C 218.304688 81.402344 227.46875 77.09375 223.164062 70.8125 " fill-opacity="1" fill-rule="nonzero"/></g><path fill="#ffffff" d="M 183.09375 308.539062 C 183.09375 313.019531 181.023438 316.65625 178.472656 316.65625 C 175.917969 316.65625 173.851562 313.019531 173.851562 308.539062 C 173.851562 304.042969 175.917969 300.410156 178.472656 300.410156 C 181.023438 300.410156 183.09375 304.042969 183.09375 308.539062 " fill-opacity="1" fill-rule="nonzero"/><path fill="#ffffff" d="M 192.050781 322.417969 C 192.050781 325.613281 190.578125 328.199219 188.761719 328.199219 C 186.960938 328.199219 185.488281 325.613281 185.488281 322.417969 C 185.488281 319.238281 186.960938 316.65625 188.761719 316.65625 C 190.578125 316.65625 192.050781 319.238281 192.050781 322.417969 " fill-opacity="1" fill-rule="nonzero"/><path fill="#ffffff" d="M 195.65625 304.53125 C 195.65625 307.222656 194.417969 309.417969 192.867188 309.417969 C 191.332031 309.417969 190.09375 307.222656 190.09375 304.53125 C 190.09375 301.835938 191.332031 299.644531 192.867188 299.644531 C 194.417969 299.644531 195.65625 301.835938 195.65625 304.53125 " fill-opacity="1" fill-rule="nonzero"/><path fill="#000000" d="M 187.75 375.5 C 84.023438 375.5 0 290.894531 0 187.75 C 0 84.601562 84.023438 0 187.75 0 C 291.476562 0 375.5 84.023438 375.5 187.75 C 375.5 291.476562 290.894531 375.5 187.75 375.5 Z M 187.75 11.589844 C 90.398438 11.589844 11.589844 90.398438 11.589844 187.75 C 11.589844 285.101562 90.398438 363.910156 187.75 363.910156 C 285.101562 363.910156 363.910156 285.101562 363.910156 187.75 C 363.910156 90.398438 284.523438 11.589844 187.75 11.589844 Z M 187.75 11.589844 " fill-opacity="1" fill-rule="nonzero"/></svg>