<svg xmlns="http://www.w3.org/2000/svg" xmlns:xlink="http://www.w3.org/1999/xlink" width="500" zoomAndPan="magnify" viewBox="0 0 375 374.999991" height="500" preserveAspectRatio="xMidYMid meet" version="1.0"><defs><clipPath id="58664d576b"><path d="M 120.144531 124 L 168 124 L 168 154 L 120.144531 154 Z M 120.144531 124 " clip-rule="nonzero"/></clipPath><clipPath id="24f9405ce9"><path d="M 154 84.878906 L 176 84.878906 L 176 137 L 154 137 Z M 154 84.878906 " clip-rule="nonzero"/></clipPath><clipPath id="4ee680ca67"><path d="M 120.144531 126 L 168 126 L 168 154 L 120.144531 154 Z M 120.144531 126 " clip-rule="nonzero"/></clipPath></defs><g clip-path="url(#58664d576b)"><path fill="#000000" d="M 167.316406 151.792969 C 148.582031 157.414062 130.828125 143.378906 120.125 126.136719 C 137.042969 122.769531 152.605469 125.609375 164.273438 145.902344 C 165.316406 147.722656 166.332031 149.683594 167.316406 151.792969 Z M 167.316406 151.792969 " fill-opacity="1" fill-rule="nonzero"/></g><path fill="#000000" d="M 168.867188 159.585938 C 168.792969 157.964844 168.761719 156.378906 168.773438 154.828125 C 168.894531 133.902344 176.605469 120.042969 193.769531 116.621094 C 194.773438 134.515625 188.324219 157.601562 168.867188 159.585938 Z M 168.867188 159.585938 " fill-opacity="1" fill-rule="nonzero"/><path fill="#000000" d="M 178.246094 193.710938 C 178.054688 191.300781 177.976562 189.023438 178.015625 186.882812 C 178.390625 166.207031 189.269531 157.3125 203.777344 150.128906 C 207.800781 170.363281 197.703125 191.726562 178.246094 193.710938 Z M 178.246094 193.710938 " fill-opacity="1" fill-rule="nonzero"/><path fill="#000000" d="M 193.238281 231.015625 C 192.855469 228.792969 192.578125 226.65625 192.402344 224.613281 C 190.523438 203.378906 199.320312 191.625 215.558594 182.335938 C 221.371094 202.136719 212.441406 227.316406 193.238281 231.015625 Z M 193.238281 231.015625 " fill-opacity="1" fill-rule="nonzero"/><path fill="#000000" d="M 212.019531 259.273438 C 211.167969 257.347656 210.421875 255.382812 209.792969 253.375 C 203.519531 233.398438 213.523438 221.085938 225.359375 209.195312 C 225.359375 209.199219 225.359375 209.203125 225.363281 209.210938 C 235.8125 226.996094 229.738281 251.007812 212.019531 259.273438 Z M 212.019531 259.273438 " fill-opacity="1" fill-rule="nonzero"/><path fill="#000000" d="M 235.984375 284.070312 C 235.179688 282.855469 234.445312 281.660156 233.785156 280.480469 C 222.746094 260.878906 230.796875 246.449219 241.507812 233.695312 L 241.511719 233.703125 C 254.808594 249.480469 252.066406 272.933594 235.984375 284.070312 Z M 235.984375 284.070312 " fill-opacity="1" fill-rule="nonzero"/><path fill="#000000" d="M 168.867188 159.585938 C 168.792969 157.964844 168.761719 156.378906 168.773438 154.828125 C 188.867188 145.429688 193.769531 116.621094 193.769531 116.621094 C 194.773438 134.515625 188.324219 157.601562 168.867188 159.585938 Z M 168.867188 159.585938 " fill-opacity="1" fill-rule="nonzero"/><path fill="#000000" d="M 178.246094 193.710938 C 178.054688 191.300781 177.976562 189.023438 178.015625 186.882812 C 200.710938 180.964844 203.777344 150.128906 203.777344 150.128906 C 207.800781 170.363281 197.703125 191.726562 178.246094 193.710938 Z M 178.246094 193.710938 " fill-opacity="1" fill-rule="nonzero"/><path fill="#000000" d="M 193.238281 231.015625 C 192.855469 228.792969 192.578125 226.65625 192.402344 224.613281 C 217.46875 213.976562 215.558594 182.335938 215.558594 182.335938 C 221.371094 202.136719 212.441406 227.316406 193.238281 231.015625 Z M 193.238281 231.015625 " fill-opacity="1" fill-rule="nonzero"/><path fill="#000000" d="M 212.019531 259.273438 C 211.167969 257.347656 210.421875 255.382812 209.792969 253.375 C 233.632812 240.125 225.578125 209.988281 225.363281 209.210938 C 235.8125 226.996094 229.738281 251.007812 212.019531 259.273438 Z M 212.019531 259.273438 " fill-opacity="1" fill-rule="nonzero"/><path fill="#000000" d="M 235.984375 284.070312 C 235.179688 282.855469 234.445312 281.660156 233.785156 280.480469 C 254.285156 263.527344 241.730469 234.210938 241.511719 233.703125 C 254.808594 249.480469 252.066406 272.933594 235.984375 284.070312 Z M 235.984375 284.070312 " fill-opacity="1" fill-rule="nonzero"/><g clip-path="url(#24f9405ce9)"><path fill="#000000" d="M 166.546875 133.355469 C 165.773438 134.480469 164.941406 135.617188 164.054688 136.761719 C 148.714844 117.679688 154.648438 100.800781 167.039062 85 C 167.046875 84.988281 167.054688 84.976562 167.0625 84.96875 C 177.601562 99.582031 179.378906 114.800781 166.546875 133.355469 Z M 166.546875 133.355469 " fill-opacity="1" fill-rule="nonzero"/></g><path fill="#000000" d="M 175.410156 184.15625 C 157.09375 191 140.738281 179.632812 128.929688 163.144531 L 128.917969 163.136719 C 145.734375 158.617188 159.625 159.242188 172.386719 179.058594 C 173.402344 180.632812 174.410156 182.332031 175.410156 184.15625 Z M 175.410156 184.15625 " fill-opacity="1" fill-rule="nonzero"/><path fill="#000000" d="M 175.410156 184.15625 C 157.09375 191 140.738281 179.632812 128.929688 163.144531 C 129.511719 163.707031 150.171875 183.488281 172.386719 179.058594 C 173.402344 180.632812 174.410156 182.332031 175.410156 184.15625 Z M 175.410156 184.15625 " fill-opacity="1" fill-rule="nonzero"/><path fill="#000000" d="M 189.203125 222.714844 C 170.886719 229.5625 154.53125 218.195312 142.722656 201.703125 L 142.710938 201.691406 C 159.457031 197.195312 173.304688 197.796875 186.023438 217.375 C 187.089844 219.019531 188.152344 220.792969 189.203125 222.714844 Z M 189.203125 222.714844 " fill-opacity="1" fill-rule="nonzero"/><path fill="#000000" d="M 206.59375 252.3125 C 189.421875 261.664062 173.828125 251.621094 159.816406 236.953125 L 159.804688 236.941406 C 175.589844 230.207031 187.417969 229.722656 202.253906 246.894531 C 203.671875 248.535156 205.117188 250.34375 206.59375 252.3125 Z M 206.59375 252.3125 " fill-opacity="1" fill-rule="nonzero"/><path fill="#000000" d="M 229.195312 277.976562 C 213.785156 290.011719 195.421875 283.714844 179.191406 271.53125 C 179.1875 271.53125 179.183594 271.527344 179.179688 271.527344 C 193.6875 262.265625 206.4375 258.984375 224.15625 273.496094 C 225.789062 274.832031 227.46875 276.324219 229.195312 277.976562 Z M 229.195312 277.976562 " fill-opacity="1" fill-rule="nonzero"/><path fill="#000000" d="M 189.203125 222.714844 C 170.886719 229.5625 154.53125 218.195312 142.722656 201.703125 C 143.308594 202.273438 164.613281 222.746094 186.023438 217.375 C 187.089844 219.019531 188.152344 220.792969 189.203125 222.714844 Z M 189.203125 222.714844 " fill-opacity="1" fill-rule="nonzero"/><path fill="#000000" d="M 206.59375 252.3125 C 189.421875 261.664062 173.828125 251.621094 159.816406 236.953125 C 160.382812 237.410156 182.769531 255.457031 202.253906 246.894531 C 203.671875 248.535156 205.117188 250.34375 206.59375 252.3125 Z M 206.59375 252.3125 " fill-opacity="1" fill-rule="nonzero"/><path fill="#000000" d="M 229.195312 277.976562 C 213.785156 290.011719 195.421875 283.714844 179.191406 271.53125 C 179.816406 271.816406 208.480469 284.765625 224.15625 273.496094 C 225.789062 274.832031 227.46875 276.324219 229.195312 277.976562 Z M 229.195312 277.976562 " fill-opacity="1" fill-rule="nonzero"/><path fill="#000000" d="M 239.324219 288.605469 C 239.085938 288.605469 238.878906 288.523438 238.703125 288.363281 C 211.246094 262.761719 199.914062 246.246094 191.351562 229.328125 C 180.695312 208.289062 172.527344 181.523438 163.167969 136.945312 C 163.125 136.703125 163.167969 136.480469 163.304688 136.277344 C 163.445312 136.070312 163.632812 135.945312 163.875 135.894531 C 164.113281 135.84375 164.339844 135.882812 164.546875 136.015625 C 164.753906 136.148438 164.886719 136.332031 164.941406 136.574219 C 182.242188 218.9375 195.558594 245.65625 239.9375 287.035156 C 240.074219 287.160156 240.164062 287.316406 240.207031 287.496094 C 240.246094 287.679688 240.234375 287.855469 240.167969 288.03125 C 240.097656 288.203125 239.988281 288.34375 239.832031 288.449219 C 239.679688 288.554688 239.507812 288.605469 239.324219 288.605469 Z M 239.324219 288.605469 " fill-opacity="1" fill-rule="nonzero"/><path fill="#000000" d="M 166.546875 133.355469 C 165.773438 134.480469 164.941406 135.617188 164.054688 136.761719 C 148.714844 117.679688 154.648438 100.800781 167.039062 85 C 166.449219 86.003906 152.503906 110.0625 166.546875 133.355469 Z M 166.546875 133.355469 " fill-opacity="1" fill-rule="nonzero"/><g clip-path="url(#4ee680ca67)"><path fill="#000000" d="M 167.316406 151.792969 C 148.582031 157.414062 130.828125 143.378906 120.125 126.136719 C 120.125 126.136719 142.046875 149.722656 164.273438 145.902344 C 165.316406 147.722656 166.332031 149.683594 167.316406 151.792969 Z M 167.316406 151.792969 " fill-opacity="1" fill-rule="nonzero"/></g><path fill="#000000" d="M 187.5 375 C 83.910156 375 0 290.507812 0 187.5 C 0 84.492188 83.910156 0 187.5 0 C 291.089844 0 375 83.910156 375 187.5 C 375 291.089844 290.507812 375 187.5 375 Z M 187.5 11.574219 C 90.277344 11.574219 11.574219 90.277344 11.574219 187.5 C 11.574219 284.722656 90.277344 363.425781 187.5 363.425781 C 284.722656 363.425781 363.425781 284.722656 363.425781 187.5 C 363.425781 90.277344 284.144531 11.574219 187.5 11.574219 Z M 187.5 11.574219 " fill-opacity="1" fill-rule="nonzero"/></svg>