<svg xmlns="http://www.w3.org/2000/svg" xmlns:xlink="http://www.w3.org/1999/xlink" width="500" zoomAndPan="magnify" viewBox="0 0 375 374.999991" height="500" preserveAspectRatio="xMidYMid meet" version="1.0"><defs><clipPath id="077032b69d"><path d="M 130.050781 83.679688 L 245.621094 83.679688 L 245.621094 335 L 130.050781 335 Z M 130.050781 83.679688 " clip-rule="nonzero"/></clipPath><clipPath id="540a07338d"><path d="M 147.300781 83.679688 L 228.371094 83.679688 C 232.945312 83.679688 237.335938 85.496094 240.570312 88.730469 C 243.804688 91.964844 245.621094 96.355469 245.621094 100.929688 L 245.621094 317.691406 C 245.621094 322.265625 243.804688 326.652344 240.570312 329.890625 C 237.335938 333.125 232.945312 334.941406 228.371094 334.941406 L 147.300781 334.941406 C 142.726562 334.941406 138.339844 333.125 135.105469 329.890625 C 131.871094 326.652344 130.050781 322.265625 130.050781 317.691406 L 130.050781 100.929688 C 130.050781 96.355469 131.871094 91.964844 135.105469 88.730469 C 138.339844 85.496094 142.726562 83.679688 147.300781 83.679688 Z M 147.300781 83.679688 " clip-rule="nonzero"/></clipPath><clipPath id="2294ba3faa"><path d="M 106 69 L 152 69 L 152 163 L 106 163 Z M 106 69 " clip-rule="nonzero"/></clipPath><clipPath id="5fd9b087f6"><path d="M 122.441406 64.6875 L 160.652344 74.84375 L 135.9375 167.832031 L 97.726562 157.675781 Z M 122.441406 64.6875 " clip-rule="nonzero"/></clipPath><clipPath id="d3ff3d46e7"><path d="M 141.546875 69.765625 C 130.996094 66.960938 116.914062 85.488281 110.09375 111.144531 C 103.273438 136.800781 106.300781 159.875 116.851562 162.679688 C 127.402344 165.484375 141.484375 146.957031 148.304688 121.300781 C 155.125 95.644531 152.097656 72.570312 141.546875 69.765625 Z M 141.546875 69.765625 " clip-rule="nonzero"/></clipPath><clipPath id="e2f9d80e2f"><path d="M 222 69 L 269 69 L 269 163 L 222 163 Z M 222 69 " clip-rule="nonzero"/></clipPath><clipPath id="f289a7a768"><path d="M 213.992188 74.953125 L 252.160156 64.632812 L 277.273438 157.515625 L 239.105469 167.835938 Z M 213.992188 74.953125 " clip-rule="nonzero"/></clipPath><clipPath id="4aa1f1b151"><path d="M 233.074219 69.792969 C 222.535156 72.644531 219.609375 95.726562 226.539062 121.355469 C 233.46875 146.980469 247.628906 165.445312 258.167969 162.59375 C 268.707031 159.746094 271.636719 136.660156 264.707031 111.035156 C 257.777344 85.40625 243.617188 66.941406 233.074219 69.792969 Z M 233.074219 69.792969 " clip-rule="nonzero"/></clipPath><clipPath id="7f5a16255a"><path d="M 141.238281 40 L 233.71875 40 L 233.71875 76.878906 L 141.238281 76.878906 Z M 141.238281 40 " clip-rule="nonzero"/></clipPath><clipPath id="023e7eea22"><path d="M 158.628906 40.058594 L 216.371094 40.058594 C 220.945312 40.058594 225.332031 41.875 228.566406 45.109375 C 231.800781 48.347656 233.621094 52.734375 233.621094 57.308594 L 233.621094 59.628906 C 233.621094 64.203125 231.800781 68.589844 228.566406 71.824219 C 225.332031 75.0625 220.945312 76.878906 216.371094 76.878906 L 158.628906 76.878906 C 154.054688 76.878906 149.667969 75.0625 146.433594 71.824219 C 143.199219 68.589844 141.378906 64.203125 141.378906 59.628906 L 141.378906 57.308594 C 141.378906 52.734375 143.199219 48.347656 146.433594 45.109375 C 149.667969 41.875 154.054688 40.058594 158.628906 40.058594 Z M 158.628906 40.058594 " clip-rule="nonzero"/></clipPath><clipPath id="3412e8eac7"><path d="M 153.179688 80.550781 L 221.824219 80.550781 L 221.824219 87.039062 L 153.179688 87.039062 Z M 153.179688 80.550781 " clip-rule="nonzero"/></clipPath><clipPath id="da00d15594"><path d="M 156.421875 80.550781 L 218.578125 80.550781 C 219.4375 80.550781 220.261719 80.890625 220.871094 81.5 C 221.480469 82.109375 221.820312 82.933594 221.820312 83.792969 C 221.820312 84.65625 221.480469 85.480469 220.871094 86.089844 C 220.261719 86.695312 219.4375 87.039062 218.578125 87.039062 L 156.421875 87.039062 C 155.5625 87.039062 154.738281 86.695312 154.128906 86.089844 C 153.519531 85.480469 153.179688 84.65625 153.179688 83.792969 C 153.179688 82.933594 153.519531 82.109375 154.128906 81.5 C 154.738281 80.890625 155.5625 80.550781 156.421875 80.550781 Z M 156.421875 80.550781 " clip-rule="nonzero"/></clipPath><clipPath id="faafe95696"><path d="M 141.375 158.617188 L 233.242188 158.617188 L 233.242188 315.800781 L 141.375 315.800781 Z M 141.375 158.617188 " clip-rule="nonzero"/></clipPath><clipPath id="12cd1f8807"><path d="M 233.242188 283.3125 C 233.242188 301.152344 212.675781 315.613281 187.308594 315.613281 C 161.9375 315.613281 141.375 301.152344 141.375 283.3125 L 141.375 190.917969 C 141.375 173.078125 161.9375 158.617188 187.308594 158.617188 C 212.675781 158.617188 233.242188 173.078125 233.242188 190.917969 Z M 233.242188 283.3125 " clip-rule="nonzero"/></clipPath><clipPath id="55c661fd03"><path d="M 141.46875 158.621094 L 233.242188 158.621094 L 233.242188 315.542969 L 141.46875 315.542969 Z M 141.46875 158.621094 " clip-rule="nonzero"/></clipPath><clipPath id="af785654ec"><path d="M 233.242188 283.304688 C 233.242188 301.140625 212.679688 315.601562 187.3125 315.601562 C 161.945312 315.601562 141.382812 301.140625 141.382812 283.304688 L 141.382812 190.921875 C 141.382812 173.082031 161.945312 158.621094 187.3125 158.621094 C 212.679688 158.621094 233.242188 173.082031 233.242188 190.921875 Z M 233.242188 283.304688 " clip-rule="nonzero"/></clipPath><clipPath id="27173d79b6"><path d="M 159.902344 187.5 L 215.121094 187.5 L 215.121094 197.253906 L 159.902344 197.253906 Z M 159.902344 187.5 " clip-rule="nonzero"/></clipPath><clipPath id="a5cb8cc30a"><path d="M 164.777344 187.5 L 210.222656 187.5 C 212.914062 187.5 215.097656 189.683594 215.097656 192.378906 C 215.097656 195.070312 212.914062 197.253906 210.222656 197.253906 L 164.777344 197.253906 C 162.085938 197.253906 159.902344 195.070312 159.902344 192.378906 C 159.902344 189.683594 162.085938 187.5 164.777344 187.5 Z M 164.777344 187.5 " clip-rule="nonzero"/></clipPath><clipPath id="b19b1f041d"><path d="M 159.902344 212.378906 L 215.121094 212.378906 L 215.121094 222.136719 L 159.902344 222.136719 Z M 159.902344 212.378906 " clip-rule="nonzero"/></clipPath><clipPath id="85dd79861c"><path d="M 164.777344 212.378906 L 210.222656 212.378906 C 212.914062 212.378906 215.097656 214.5625 215.097656 217.257812 C 215.097656 219.953125 212.914062 222.136719 210.222656 222.136719 L 164.777344 222.136719 C 162.085938 222.136719 159.902344 219.953125 159.902344 217.257812 C 159.902344 214.5625 162.085938 212.378906 164.777344 212.378906 Z M 164.777344 212.378906 " clip-rule="nonzero"/></clipPath><clipPath id="cf4f3efc62"><path d="M 159.902344 237.117188 L 215.121094 237.117188 L 215.121094 246.871094 L 159.902344 246.871094 Z M 159.902344 237.117188 " clip-rule="nonzero"/></clipPath><clipPath id="aa6ae3adca"><path d="M 164.777344 237.117188 L 210.222656 237.117188 C 212.914062 237.117188 215.097656 239.300781 215.097656 241.996094 C 215.097656 244.6875 212.914062 246.871094 210.222656 246.871094 L 164.777344 246.871094 C 162.085938 246.871094 159.902344 244.6875 159.902344 241.996094 C 159.902344 239.300781 162.085938 237.117188 164.777344 237.117188 Z M 164.777344 237.117188 " clip-rule="nonzero"/></clipPath><clipPath id="09b0102f66"><path d="M 159.902344 261.855469 L 215.121094 261.855469 L 215.121094 271.609375 L 159.902344 271.609375 Z M 159.902344 261.855469 " clip-rule="nonzero"/></clipPath><clipPath id="15ea7a1cfc"><path d="M 164.777344 261.855469 L 210.222656 261.855469 C 212.914062 261.855469 215.097656 264.039062 215.097656 266.730469 C 215.097656 269.425781 212.914062 271.609375 210.222656 271.609375 L 164.777344 271.609375 C 162.085938 271.609375 159.902344 269.425781 159.902344 266.730469 C 159.902344 264.039062 162.085938 261.855469 164.777344 261.855469 Z M 164.777344 261.855469 " clip-rule="nonzero"/></clipPath><clipPath id="36d40cffed"><path d="M 0 0 L 374.796875 0 L 374.796875 374.796875 L 0 374.796875 Z M 0 0 " clip-rule="nonzero"/></clipPath></defs><g clip-path="url(#077032b69d)"><g clip-path="url(#540a07338d)"><path fill="#000000" d="M 130.050781 83.679688 L 245.621094 83.679688 L 245.621094 335.132812 L 130.050781 335.132812 Z M 130.050781 83.679688 " fill-opacity="1" fill-rule="nonzero"/></g></g><g clip-path="url(#2294ba3faa)"><g clip-path="url(#5fd9b087f6)"><g clip-path="url(#d3ff3d46e7)"><path fill="#ffffff" d="M 122.441406 64.6875 L 160.652344 74.84375 L 135.976562 167.683594 L 97.765625 157.527344 Z M 122.441406 64.6875 " fill-opacity="1" fill-rule="nonzero"/></g></g></g><g clip-path="url(#e2f9d80e2f)"><g clip-path="url(#f289a7a768)"><g clip-path="url(#4aa1f1b151)"><path fill="#ffffff" d="M 213.992188 74.953125 L 252.160156 64.632812 L 277.234375 157.367188 L 239.066406 167.6875 Z M 213.992188 74.953125 " fill-opacity="1" fill-rule="nonzero"/></g></g></g><g clip-path="url(#7f5a16255a)"><g clip-path="url(#023e7eea22)"><path fill="#000000" d="M 141.378906 40.058594 L 233.574219 40.058594 L 233.574219 76.878906 L 141.378906 76.878906 Z M 141.378906 40.058594 " fill-opacity="1" fill-rule="nonzero"/></g></g><g clip-path="url(#3412e8eac7)"><g clip-path="url(#da00d15594)"><path fill="#ffffff" d="M 153.179688 80.550781 L 221.824219 80.550781 L 221.824219 87.039062 L 153.179688 87.039062 Z M 153.179688 80.550781 " fill-opacity="1" fill-rule="nonzero"/></g></g><g clip-path="url(#faafe95696)"><g clip-path="url(#12cd1f8807)"><path fill="#000000" d="M 233.242188 158.617188 L 233.242188 315.441406 L 141.375 315.441406 L 141.375 158.617188 Z M 233.242188 158.617188 " fill-opacity="1" fill-rule="nonzero"/></g></g><g clip-path="url(#55c661fd03)"><g clip-path="url(#af785654ec)"><path stroke-linecap="butt" transform="matrix(0, 0.700551, -0.700551, 0, 233.242225, 158.622748)" fill="none" stroke-linejoin="miter" d="M 177.976847 0.0000537916 C 203.4367 0.0000537916 224.078921 29.35193 224.078921 65.562243 C 224.078921 101.772556 203.4367 131.124433 177.976847 131.124433 L 46.105288 131.124433 C 20.639859 131.124433 -0.00236133 101.772556 -0.00236133 65.562243 C -0.00236133 29.35193 20.639859 0.0000537916 46.105288 0.0000537916 Z M 177.976847 0.0000537916 " stroke="#ffffff" stroke-width="19.270531" stroke-opacity="1" stroke-miterlimit="4"/></g></g><g clip-path="url(#27173d79b6)"><g clip-path="url(#a5cb8cc30a)"><path fill="#ffffff" d="M 159.902344 187.5 L 215.082031 187.5 L 215.082031 197.253906 L 159.902344 197.253906 Z M 159.902344 187.5 " fill-opacity="1" fill-rule="nonzero"/></g></g><g clip-path="url(#b19b1f041d)"><g clip-path="url(#85dd79861c)"><path fill="#ffffff" d="M 159.902344 212.378906 L 215.082031 212.378906 L 215.082031 222.136719 L 159.902344 222.136719 Z M 159.902344 212.378906 " fill-opacity="1" fill-rule="nonzero"/></g></g><g clip-path="url(#cf4f3efc62)"><g clip-path="url(#aa6ae3adca)"><path fill="#ffffff" d="M 159.902344 237.117188 L 215.082031 237.117188 L 215.082031 246.871094 L 159.902344 246.871094 Z M 159.902344 237.117188 " fill-opacity="1" fill-rule="nonzero"/></g></g><g clip-path="url(#09b0102f66)"><g clip-path="url(#15ea7a1cfc)"><path fill="#ffffff" d="M 159.902344 261.855469 L 215.082031 261.855469 L 215.082031 271.609375 L 159.902344 271.609375 Z M 159.902344 261.855469 " fill-opacity="1" fill-rule="nonzero"/></g></g><g clip-path="url(#36d40cffed)"><path fill="#000000" d="M 187.398438 374.796875 C 83.867188 374.796875 0 290.351562 0 187.398438 C 0 84.445312 83.867188 0 187.398438 0 C 290.929688 0 374.796875 83.867188 374.796875 187.398438 C 374.796875 290.929688 290.351562 374.796875 187.398438 374.796875 Z M 187.398438 11.566406 C 90.226562 11.566406 11.566406 90.226562 11.566406 187.398438 C 11.566406 284.566406 90.226562 363.226562 187.398438 363.226562 C 284.566406 363.226562 363.226562 284.566406 363.226562 187.398438 C 363.226562 90.226562 283.988281 11.566406 187.398438 11.566406 Z M 187.398438 11.566406 " fill-opacity="1" fill-rule="nonzero"/></g></svg>