<svg xmlns="http://www.w3.org/2000/svg" xmlns:xlink="http://www.w3.org/1999/xlink" width="500" zoomAndPan="magnify" viewBox="0 0 375 374.999991" height="500" preserveAspectRatio="xMidYMid meet" version="1.0"><defs><clipPath id="9b5be351d6"><path d="M 50.84375 0 L 325.34375 0 L 325.34375 375 L 50.84375 375 Z M 50.84375 0 " clip-rule="nonzero"/></clipPath><clipPath id="a0e30da8a7"><path d="M 0 0 L 115.488281 0 L 115.488281 375 L 0 375 Z M 0 0 " clip-rule="nonzero"/></clipPath><clipPath id="69001092f4"><path d="M 267.953125 0 L 375 0 L 375 375 L 267.953125 375 Z M 267.953125 0 " clip-rule="nonzero"/></clipPath><clipPath id="31e7aca53d"><path d="M 0 0 L 375 0 L 375 49.921875 L 0 49.921875 Z M 0 0 " clip-rule="nonzero"/></clipPath><clipPath id="cc85ce29e6"><path d="M 0 342.902344 L 375 342.902344 L 375 375 L 0 375 Z M 0 342.902344 " clip-rule="nonzero"/></clipPath><clipPath id="7337b587e7"><path d="M 4.601562 9.433594 L 372.101562 9.433594 L 372.101562 375 L 4.601562 375 Z M 4.601562 9.433594 " clip-rule="nonzero"/></clipPath></defs><g clip-path="url(#9b5be351d6)"><path fill="#ffffff" d="M 50.84375 242.207031 L 50.84375 128.960938 C 50.84375 53.082031 112.355469 -8.433594 188.238281 -8.433594 C 264.117188 -8.433594 325.628906 53.082031 325.628906 128.960938 L 325.628906 242.207031 C 325.628906 318.085938 264.117188 379.601562 188.238281 379.601562 C 112.355469 379.601562 50.84375 318.085938 50.84375 242.207031 " fill-opacity="1" fill-rule="nonzero"/></g><path fill="#000000" d="M 103.640625 338.847656 L 101.96875 340.707031 C 97.605469 336.78125 93.472656 332.527344 89.6875 328.050781 L 91.589844 326.4375 C 95.308594 330.824219 99.359375 335 103.640625 338.847656 Z M 122.394531 15.429688 C 117.359375 18.425781 112.476562 21.796875 107.886719 25.453125 L 109.441406 27.40625 C 113.945312 23.820312 118.734375 20.515625 123.671875 17.578125 Z M 96.039062 36.144531 C 91.933594 40.332031 88.074219 44.847656 84.578125 49.554688 L 86.582031 51.042969 C 90.015625 46.425781 93.796875 42.003906 97.824219 37.894531 Z M 114.472656 350.632812 C 119.292969 353.992188 124.382812 357.046875 129.601562 359.714844 L 130.738281 357.488281 C 125.617188 354.875 120.628906 351.878906 115.902344 348.582031 Z M 71.527344 299.882812 C 74.03125 305.175781 76.929688 310.347656 80.144531 315.257812 L 82.234375 313.890625 C 79.085938 309.078125 76.242188 304 73.78125 298.8125 Z M 177.21875 370.800781 L 177.003906 373.289062 C 180.714844 373.609375 184.496094 373.769531 188.238281 373.769531 C 190.363281 373.769531 192.515625 373.71875 194.636719 373.613281 L 194.515625 371.121094 C 188.765625 371.398438 182.925781 371.292969 177.21875 370.800781 Z M 144.246094 366.078125 C 149.765625 368.082031 155.476562 369.714844 161.21875 370.941406 L 161.738281 368.496094 C 156.109375 367.296875 150.507812 365.695312 145.097656 363.734375 Z M 61.667969 160.605469 L 59.171875 160.605469 L 59.171875 178.089844 L 61.667969 178.089844 Z M 61.667969 127.296875 L 59.171875 127.296875 L 59.171875 144.78125 L 61.667969 144.78125 Z M 210.070312 369.398438 L 210.5 371.859375 C 216.285156 370.851562 222.050781 369.4375 227.628906 367.648438 L 226.871094 365.269531 C 221.394531 367.019531 215.746094 368.410156 210.070312 369.398438 Z M 65.699219 94.65625 L 63.28125 94.03125 C 61.8125 99.703125 60.722656 105.535156 60.042969 111.371094 L 62.527344 111.660156 C 63.191406 105.9375 64.257812 100.21875 65.699219 94.65625 Z M 61.667969 193.910156 L 59.171875 193.910156 L 59.171875 211.398438 L 61.667969 211.398438 Z M 61.261719 267.960938 C 62.3125 273.734375 63.773438 279.484375 65.605469 285.054688 L 67.976562 284.277344 C 66.183594 278.816406 64.75 273.175781 63.71875 267.511719 Z M 61.667969 244.703125 L 61.667969 227.21875 L 59.171875 227.21875 L 59.171875 244.703125 C 59.171875 247.164062 59.242188 249.660156 59.378906 252.113281 L 61.875 251.96875 C 61.738281 249.5625 61.667969 247.117188 61.667969 244.703125 Z M 75.863281 62.933594 C 72.96875 68.042969 70.402344 73.398438 68.238281 78.847656 L 70.558594 79.769531 C 72.683594 74.425781 75.199219 69.175781 78.039062 64.164062 Z M 312.210938 90.449219 C 310.578125 84.816406 308.535156 79.242188 306.144531 73.886719 L 303.863281 74.90625 C 306.207031 80.160156 308.210938 85.621094 309.8125 91.144531 Z M 306.921875 288.773438 L 309.265625 289.644531 C 311.308594 284.140625 312.988281 278.441406 314.257812 272.710938 L 311.816406 272.171875 C 310.574219 277.792969 308.925781 283.378906 306.921875 288.773438 Z M 186.414062 -0.09375 L 186.378906 -2.589844 C 180.496094 -2.507812 174.582031 -2.023438 168.800781 -1.152344 L 169.175781 1.320312 C 174.84375 0.464844 180.644531 -0.0117188 186.414062 -0.09375 Z M 314.804688 244.703125 C 314.804688 248.703125 314.617188 252.746094 314.242188 256.707031 L 316.730469 256.941406 C 317.109375 252.902344 317.304688 248.785156 317.304688 244.703125 L 317.304688 239.359375 L 314.804688 239.359375 Z M 314.804688 223.539062 L 317.304688 223.539062 L 317.304688 206.054688 L 314.804688 206.054688 Z M 314.804688 139.441406 L 314.804688 156.925781 L 317.304688 156.925781 L 317.304688 139.441406 Z M 314.804688 190.234375 L 317.304688 190.234375 L 317.304688 172.746094 L 314.804688 172.746094 Z M 291.542969 317.847656 L 293.582031 319.292969 C 296.976562 314.503906 300.074219 309.4375 302.78125 304.238281 L 300.566406 303.085938 C 297.910156 308.183594 294.875 313.152344 291.542969 317.847656 Z M 153.875 4.617188 L 153.199219 2.210938 C 147.554688 3.796875 141.964844 5.796875 136.589844 8.144531 L 137.589844 10.433594 C 142.859375 8.132812 148.339844 6.171875 153.875 4.617188 Z M 250.882812 13.59375 C 245.746094 10.734375 240.371094 8.210938 234.90625 6.09375 L 234 8.421875 C 239.363281 10.5 244.632812 12.976562 249.667969 15.777344 Z M 219.683594 1.253906 C 214.003906 -0.167969 208.160156 -1.210938 202.320312 -1.84375 L 202.050781 0.640625 C 207.777344 1.261719 213.507812 2.285156 219.078125 3.679688 Z M 317.273438 123.589844 C 317.144531 117.707031 316.613281 111.796875 315.695312 106.023438 L 313.226562 106.417969 C 314.128906 112.078125 314.648438 117.875 314.773438 123.644531 Z M 298.746094 59.75 C 295.714844 54.738281 292.304688 49.882812 288.613281 45.320312 L 286.671875 46.890625 C 290.292969 51.367188 293.636719 56.128906 296.609375 61.042969 Z M 269.210938 341.988281 L 270.8125 343.90625 C 275.316406 340.148438 279.605469 336.050781 283.5625 331.722656 L 281.71875 330.035156 C 277.835938 334.28125 273.628906 338.300781 269.210938 341.988281 Z M 241.449219 359.578125 L 242.5 361.84375 C 247.8125 359.378906 253.007812 356.519531 257.945312 353.347656 L 256.59375 351.246094 C 251.753906 354.359375 246.65625 357.164062 241.449219 359.578125 Z M 277.828125 33.554688 C 273.601562 29.480469 269.0625 25.660156 264.328125 22.199219 L 262.855469 24.21875 C 267.496094 27.609375 271.949219 31.359375 276.09375 35.355469 Z M 131.878906 145.160156 C 131.15625 144.824219 130.394531 144.574219 129.59375 144.429688 C 130.355469 144.671875 131.117188 144.917969 131.878906 145.160156 Z M 144.175781 235.875 C 143.585938 235.71875 142.976562 235.625 142.351562 235.625 Z M 241.476562 176.914062 C 239.605469 174.75 236.0625 174.296875 233.703125 175.914062 C 236.273438 170 240.796875 164.953125 246.394531 161.75 C 239.972656 161.941406 233.507812 159.875 228.386719 155.996094 C 231.40625 161.824219 230.507812 169.453125 226.222656 174.421875 C 225.113281 171.652344 223.371094 169.140625 221.167969 167.128906 C 225.835938 171.34375 225.953125 179.59375 221.40625 183.9375 C 219.671875 182.472656 217.941406 181.007812 216.207031 179.542969 C 218.410156 181.941406 219.308594 185.519531 219.050781 188.832031 C 218.734375 192.902344 216.980469 196.699219 215.253906 200.394531 C 213.914062 199.011719 212.574219 197.628906 211.234375 196.242188 C 214.652344 202.667969 214.277344 210.945312 210.289062 217.035156 C 210.089844 214.960938 208.832031 213.015625 207.015625 211.988281 C 211.417969 217.109375 211.949219 225.175781 208.382812 230.871094 C 207.253906 229.242188 205.3125 228.207031 203.332031 228.183594 C 205.855469 230.035156 206.882812 233.421875 206.664062 236.542969 C 206.449219 239.671875 205.183594 242.617188 203.890625 245.46875 C 202.808594 244.378906 201.15625 243.894531 199.660156 244.222656 C 203.179688 245.4375 203.835938 250.300781 202.59375 253.808594 C 201.355469 257.320312 198.890625 260.398438 198.394531 263.71875 C 197.152344 262.992188 195.910156 262.269531 194.667969 261.542969 C 196.941406 263.289062 198.085938 266.4375 197.996094 269.378906 C 197.890625 272.902344 196.386719 276.210938 194.90625 279.410156 C 193.246094 278.746094 191.585938 278.078125 189.921875 277.414062 C 192.90625 278.972656 192.878906 283.1875 192.429688 286.527344 C 192.015625 289.628906 191.824219 292.75 191.535156 294.429688 C 188.855469 310.140625 188.261719 326.195312 189.710938 342.066406 L 168.339844 301.386719 C 162.359375 290.007812 156.273438 276.546875 161.589844 264.839844 C 159.964844 265.9375 158.800781 267.699219 158.425781 269.625 C 156.058594 263.144531 156.4375 255.710938 159.457031 249.511719 C 157.789062 250.449219 156.316406 251.730469 155.15625 253.253906 C 154.464844 245.765625 156.171875 238.078125 159.957031 231.582031 C 157.304688 232.5625 155.128906 234.757812 154.171875 237.421875 C 151.324219 230.179688 151.65625 221.753906 155.066406 214.761719 C 152.878906 215.191406 151.175781 217.375 151.296875 219.605469 C 148.777344 212.679688 149.382812 204.683594 152.910156 198.214844 C 150.996094 197.957031 149.078125 199.730469 149.1875 201.65625 C 148.378906 197.949219 147.5625 194.140625 148.078125 190.378906 C 148.597656 186.613281 150.734375 182.839844 154.265625 181.4375 C 152.167969 181.078125 150.074219 180.71875 147.976562 180.359375 C 146.59375 174.554688 147.753906 168.195312 151.105469 163.261719 C 149.792969 163.640625 148.476562 164.015625 147.164062 164.394531 C 146.242188 157.28125 149 149.792969 154.308594 144.96875 C 152.046875 144.5 149.609375 144.972656 147.6875 146.246094 C 145.820312 140.371094 149.96875 133.332031 156.011719 132.121094 C 153.253906 130.734375 149.527344 131.738281 147.84375 134.324219 C 147.972656 127.363281 150.40625 120.464844 154.671875 114.960938 C 148.34375 117.796875 141.039062 118.398438 134.328125 116.640625 C 139.742188 121.214844 141.992188 129.191406 139.761719 135.921875 C 137.515625 133.613281 134.742188 131.824219 131.714844 130.726562 C 138.109375 133.007812 141.625 141.195312 138.878906 147.402344 C 136.546875 146.65625 134.210938 145.90625 131.875 145.160156 C 135.0625 146.648438 137.4375 149.847656 138.546875 153.261719 C 139.90625 157.449219 139.722656 161.964844 139.523438 166.363281 C 137.617188 165.535156 135.707031 164.707031 133.800781 163.878906 C 139.863281 168.882812 142.898438 177.296875 141.429688 185.015625 C 140.375 183.027344 138.316406 181.609375 136.082031 181.328125 C 142.585938 184.628906 146.441406 192.460938 145.230469 199.613281 C 143.433594 198.453125 141.066406 198.222656 139.078125 199.011719 C 142.363281 199.816406 144.78125 202.777344 145.851562 205.984375 C 146.925781 209.191406 146.875 212.652344 146.761719 216.035156 C 145.234375 215.390625 143.382812 215.585938 142.023438 216.53125 C 146.039062 216.296875 148.695312 220.878906 148.90625 224.894531 C 149.113281 228.90625 147.921875 232.992188 148.796875 236.511719 L 144.171875 235.875 C 147.164062 236.679688 149.609375 239.347656 150.734375 242.324219 C 152.078125 245.882812 151.941406 249.808594 151.785156 253.609375 C 149.851562 253.632812 147.917969 253.652344 145.984375 253.671875 C 149.609375 253.996094 151.316406 258.214844 152.246094 261.734375 C 153.105469 264.996094 154.203125 268.191406 154.605469 269.988281 C 160.835938 297.523438 173.070312 323.671875 190.140625 346.15625 C 191.429688 357.488281 193.75 368.703125 197.121094 379.601562 C 196.265625 370.320312 195.40625 361.042969 194.546875 351.761719 C 194.796875 352.066406 195.039062 352.378906 195.289062 352.683594 L 194.492188 351.171875 C 193.722656 342.835938 192.953125 334.5 192.183594 326.164062 C 191.085938 314.308594 190.640625 300.632812 199.328125 292.492188 C 197.546875 292.859375 195.929688 293.953125 194.925781 295.46875 C 195.191406 289.085938 198.144531 282.859375 202.921875 278.617188 C 201.160156 278.832031 199.445312 279.410156 197.914062 280.300781 C 199.972656 273.648438 204.148438 267.667969 209.691406 263.445312 C 207.070312 263.347656 204.429688 264.457031 202.671875 266.398438 C 202.792969 259.195312 206.054688 252.097656 211.449219 247.320312 C 209.421875 246.914062 207.195312 248.183594 206.507812 250.132812 C 206.800781 243.3125 210.144531 236.683594 215.453125 232.394531 C 213.90625 231.496094 211.636719 232.339844 211.046875 234.027344 C 211.667969 230.5625 212.3125 227.019531 214.089844 223.980469 C 215.863281 220.941406 219.027344 218.464844 222.542969 218.515625 C 220.878906 217.464844 219.207031 216.417969 217.542969 215.363281 C 218.40625 209.914062 221.652344 204.878906 226.261719 201.839844 C 225.003906 201.695312 223.746094 201.554688 222.488281 201.414062 C 224.214844 194.996094 229.222656 189.5625 235.472656 187.3125 C 233.703125 186.113281 231.449219 185.648438 229.351562 186.0625 C 229.835938 180.375 235.875 175.816406 241.476562 176.914062 Z M 214.511719 178.105469 C 215.074219 178.585938 215.640625 179.0625 216.207031 179.542969 C 215.707031 178.996094 215.144531 178.511719 214.511719 178.105469 Z M 194.667969 261.542969 C 194.21875 261.199219 193.730469 260.902344 193.191406 260.679688 C 193.683594 260.96875 194.175781 261.257812 194.667969 261.542969 Z M 194.667969 261.542969 " fill-opacity="1" fill-rule="nonzero"/><path fill="#000000" d="M 137.800781 81.191406 C 137.511719 79.554688 137.28125 77.71875 138.238281 76.359375 C 139.109375 75.117188 141.371094 74.980469 142.027344 76.207031 C 141.402344 74.582031 140.835938 72.867188 141.152344 71.167969 C 141.492188 69.335938 143.304688 67.648438 145.097656 68.15625 C 145.957031 68.402344 146.640625 69.101562 146.988281 69.921875 C 148.65625 65.964844 150.316406 60.640625 152.902344 61.175781 C 155.328125 61.679688 155.308594 68.535156 153.425781 71.082031 C 154.042969 70.269531 155.464844 70.574219 156.011719 71.433594 C 156.5625 72.292969 156.449219 73.417969 156.148438 74.394531 C 155.710938 75.824219 154.902344 77.125 153.839844 78.175781 C 154.394531 77.914062 154.976562 77.714844 155.578125 77.59375 C 156.140625 77.476562 156.769531 77.4375 157.25 77.757812 C 157.847656 78.15625 158 78.964844 158.042969 79.683594 C 158.289062 84.003906 155.003906 87.136719 151.28125 89.339844 C 147.558594 91.542969 143.5 92.359375 140.710938 89.054688 C 138.886719 86.890625 138.289062 83.976562 137.800781 81.191406 Z M 132.671875 103.21875 C 133.828125 103.980469 135.816406 103.414062 135.878906 102.03125 C 135.925781 104.324219 137.371094 106.566406 139.496094 107.421875 C 141.621094 108.277344 144.304688 107.601562 145.65625 105.75 C 147.007812 103.902344 147.089844 94.714844 143.777344 94 C 143.246094 93.886719 142.25 93.863281 141.644531 94.371094 C 140.328125 95.480469 139.460938 97.109375 139.273438 98.824219 C 139.222656 97.257812 139.160156 95.65625 138.566406 94.210938 C 137.96875 92.765625 136.714844 91.484375 135.15625 91.320312 C 133.339844 91.125 131.640625 92.535156 130.972656 94.234375 C 130.304688 95.9375 130.464844 97.847656 130.808594 99.640625 C 131.070312 101 131.515625 102.460938 132.671875 103.21875 Z M 154.15625 92.050781 C 153.625 93.519531 153.632812 95.125 153.652344 96.6875 C 153.390625 94.984375 152.449219 93.394531 151.085938 92.34375 C 150.460938 91.863281 149.464844 91.929688 148.941406 92.066406 C 145.664062 92.925781 146.148438 102.097656 147.578125 103.890625 C 149.007812 105.679688 151.71875 106.238281 153.804688 105.289062 C 155.890625 104.339844 157.234375 102.035156 157.183594 99.742188 C 157.304688 101.121094 159.316406 101.601562 160.441406 100.792969 C 161.558594 99.984375 161.941406 98.503906 162.144531 97.136719 C 162.40625 95.328125 162.484375 93.414062 161.742188 91.742188 C 161 90.074219 159.238281 88.738281 157.433594 89.011719 C 155.886719 89.246094 154.6875 90.578125 154.15625 92.050781 Z M 119.464844 145.996094 C 119.121094 144.597656 118.929688 143.160156 118.894531 141.722656 C 118.867188 140.503906 118.960938 139.25 119.480469 138.164062 C 119.996094 137.078125 121.015625 136.1875 122.195312 136.136719 C 124.363281 136.035156 125.71875 138.5 126.539062 140.585938 C 126.769531 139.425781 127.035156 138.246094 127.628906 137.238281 C 127.769531 137.003906 127.933594 136.777344 128.113281 136.570312 C 127.441406 135.722656 127.105469 134.628906 127.382812 133.585938 C 126.539062 134.53125 125.554688 135.542969 124.300781 135.574219 C 122.402344 135.621094 121.195312 133.457031 120.722656 131.550781 C 120.378906 130.148438 120.1875 128.714844 120.152344 127.273438 C 120.125 126.058594 120.21875 124.800781 120.738281 123.71875 C 121.253906 122.632812 122.273438 121.742188 123.453125 121.6875 C 125.617188 121.589844 126.972656 124.054688 127.796875 126.140625 C 128.023438 124.976562 128.292969 123.800781 128.886719 122.792969 C 129.460938 121.828125 130.394531 121.039062 131.480469 120.890625 C 131.070312 120.132812 130.886719 119.25 131.082031 118.40625 C 130.324219 119.335938 129.433594 120.332031 128.285156 120.339844 C 126.542969 120.355469 125.398438 118.179688 124.933594 116.273438 C 124.59375 114.871094 124.398438 113.4375 124.339844 112 C 124.292969 110.789062 124.359375 109.539062 124.816406 108.464844 C 125.277344 107.390625 126.195312 106.519531 127.277344 106.488281 C 129.265625 106.425781 130.550781 108.902344 131.339844 110.996094 C 131.527344 109.84375 131.753906 108.671875 132.285156 107.679688 C 132.820312 106.683594 133.710938 105.878906 134.761719 105.804688 C 136.265625 105.699219 137.640625 107.128906 138.179688 108.734375 C 138.71875 110.339844 138.617188 112.085938 138.886719 113.632812 C 139.675781 111.539062 140.898438 109.667969 142.4375 108.207031 C 142.945312 107.722656 143.539062 107.265625 144.21875 107.253906 C 145.050781 107.242188 145.820312 107.917969 146.234375 108.746094 C 146.25 108.78125 146.261719 108.820312 146.277344 108.855469 C 146.339844 108.597656 146.417969 108.347656 146.523438 108.105469 C 146.898438 107.261719 147.640625 106.550781 148.46875 106.527344 C 149.152344 106.507812 149.761719 106.941406 150.292969 107.402344 C 151.894531 108.796875 153.199219 110.609375 154.078125 112.667969 C 154.28125 111.109375 154.101562 109.371094 154.570312 107.742188 C 155.039062 106.113281 156.351562 104.625 157.855469 104.664062 C 158.910156 104.691406 159.839844 105.457031 160.410156 106.425781 C 160.988281 107.398438 161.265625 108.554688 161.503906 109.703125 C 162.203125 107.578125 163.375 105.046875 165.367188 105.019531 C 166.445312 105.007812 167.40625 105.835938 167.910156 106.890625 C 168.414062 107.941406 168.53125 109.1875 168.539062 110.398438 C 168.546875 111.835938 168.410156 113.277344 168.132812 114.691406 C 167.753906 116.617188 166.707031 118.84375 164.964844 118.902344 C 163.816406 118.945312 162.882812 117.988281 162.085938 117.09375 C 162.589844 118.917969 161.316406 121.007812 159.664062 121.601562 C 160.53125 121.992188 161.203125 122.804688 161.578125 123.710938 C 162.027344 124.792969 162.125 125.996094 162.1875 127.175781 C 163.296875 125.226562 164.984375 122.980469 167.117188 123.382812 C 168.277344 123.601562 169.160156 124.625 169.519531 125.773438 C 169.878906 126.921875 169.796875 128.175781 169.597656 129.378906 C 169.359375 130.796875 168.96875 132.191406 168.429688 133.53125 C 167.695312 135.351562 166.195312 137.324219 164.320312 137.007812 C 163.085938 136.800781 162.253906 135.660156 161.550781 134.605469 C 161.695312 135.808594 161.0625 136.964844 160.109375 137.714844 C 160.1875 137.859375 160.261719 138.003906 160.324219 138.15625 C 160.773438 139.238281 160.871094 140.441406 160.933594 141.621094 C 162.039062 139.671875 163.726562 137.425781 165.859375 137.828125 C 167.019531 138.046875 167.902344 139.070312 168.265625 140.21875 C 168.625 141.367188 168.542969 142.621094 168.34375 143.820312 C 168.105469 145.242188 167.710938 146.636719 167.175781 147.976562 C 166.441406 149.796875 164.9375 151.769531 163.066406 151.453125 C 161.832031 151.246094 161 150.105469 160.296875 149.046875 C 160.464844 150.449219 159.585938 151.785156 158.371094 152.488281 C 158.894531 152.863281 159.332031 153.375 159.644531 153.949219 C 160.207031 154.980469 160.429688 156.164062 160.613281 157.335938 C 161.511719 155.277344 162.953125 152.867188 165.117188 153.042969 C 166.292969 153.140625 167.277344 154.066406 167.757812 155.171875 C 168.234375 156.273438 168.285156 157.53125 168.210938 158.746094 C 168.125 160.183594 167.878906 161.613281 167.484375 162.996094 C 166.941406 164.882812 165.65625 167.003906 163.761719 166.886719 C 162.511719 166.8125 161.5625 165.761719 160.753906 164.785156 C 161.214844 166.808594 159.417969 168.925781 157.40625 169.121094 C 155.394531 169.316406 153.476562 167.925781 152.558594 166.089844 C 152.894531 167.660156 151.59375 169.304688 150.050781 169.609375 C 148.511719 169.910156 146.921875 169.097656 145.929688 167.871094 C 144.929688 166.644531 144.433594 165.0625 144.125 163.484375 C 143.699219 161.332031 143.578125 159.113281 143.761719 156.914062 C 143.839844 155.984375 143.980469 155.027344 144.445312 154.21875 C 144.910156 153.414062 145.761719 152.777344 146.664062 152.839844 C 147.40625 152.886719 148.039062 153.382812 148.585938 153.894531 C 150.234375 155.453125 151.53125 157.398438 152.351562 159.546875 C 152.671875 158.007812 152.59375 156.253906 153.210938 154.671875 C 153.53125 153.851562 154.09375 153.101562 154.785156 152.589844 C 153.53125 151.996094 152.511719 150.832031 152.007812 149.488281 C 152.179688 151.082031 150.714844 152.582031 149.148438 152.722656 C 147.582031 152.863281 146.089844 151.890625 145.226562 150.566406 C 144.363281 149.238281 144.035156 147.613281 143.890625 146.011719 C 143.695312 143.828125 143.804688 141.605469 144.21875 139.441406 C 144.394531 138.523438 144.636719 137.589844 145.179688 136.835938 C 145.476562 136.421875 145.886719 136.082031 146.335938 135.875 C 145.585938 134.59375 145.28125 133.070312 145.148438 131.566406 C 144.953125 129.382812 145.0625 127.160156 145.476562 124.996094 C 145.652344 124.078125 145.890625 123.144531 146.433594 122.390625 C 146.921875 121.722656 147.695312 121.222656 148.480469 121.222656 C 147.644531 120.132812 147.136719 118.75 146.789062 117.34375 C 146.722656 117.070312 146.675781 116.796875 146.617188 116.523438 C 146.546875 117.011719 146.46875 117.5 146.371094 117.984375 C 146.0625 119.539062 145.578125 121.089844 144.644531 122.257812 C 144.378906 122.585938 144.070312 122.875 143.734375 123.117188 C 143.859375 123.273438 143.972656 123.441406 144.066406 123.617188 C 144.5 124.441406 144.605469 125.398438 144.652344 126.332031 C 144.753906 128.535156 144.550781 130.746094 144.050781 132.882812 C 143.683594 134.4375 143.136719 135.988281 142.109375 137.175781 C 142.390625 137.421875 142.632812 137.726562 142.808594 138.0625 C 143.242188 138.886719 143.351562 139.84375 143.394531 140.777344 C 143.5 142.980469 143.296875 145.191406 142.792969 147.328125 C 142.425781 148.894531 141.871094 150.457031 140.832031 151.648438 C 139.789062 152.835938 138.175781 153.59375 136.644531 153.234375 C 135.113281 152.875 133.875 151.183594 134.269531 149.625 C 133.285156 151.429688 131.316406 152.746094 129.316406 152.480469 C 127.3125 152.210938 125.59375 150.027344 126.128906 148.027344 C 125.28125 148.972656 124.300781 149.984375 123.042969 150.019531 C 121.144531 150.066406 119.9375 147.902344 119.464844 145.996094 Z M 150.929688 122.925781 C 152.226562 124.558594 153.195312 126.472656 153.738281 128.515625 C 154.21875 127.019531 154.324219 125.265625 155.105469 123.757812 C 155.605469 122.789062 156.46875 121.957031 157.449219 121.578125 C 156.308594 121.199219 155.292969 120.296875 154.664062 119.148438 C 155.070312 120.679688 153.976562 122.433594 152.585938 122.878906 C 152.035156 123.054688 151.472656 123.054688 150.929688 122.925781 Z M 150.347656 138.28125 C 151.3125 139.699219 152.035156 141.289062 152.484375 142.960938 C 152.960938 141.464844 153.070312 139.710938 153.851562 138.199219 C 154.050781 137.816406 154.308594 137.449219 154.609375 137.125 C 154.023438 136.539062 153.554688 135.824219 153.261719 135.042969 C 153.433594 136.640625 151.96875 138.140625 150.402344 138.28125 C 150.382812 138.28125 150.367188 138.277344 150.347656 138.28125 Z M 134.894531 122.921875 C 135.050781 123.1875 135.1875 123.460938 135.289062 123.75 C 135.847656 125.351562 135.707031 127.105469 135.972656 128.652344 C 136.847656 126.585938 138.175781 124.726562 139.824219 123.25 C 138.921875 122.535156 138.332031 121.292969 138.585938 120.136719 C 137.839844 121.652344 136.433594 122.792969 134.894531 122.921875 Z M 133.585938 137.277344 C 133.765625 137.570312 133.921875 137.875 134.03125 138.195312 C 134.59375 139.796875 134.449219 141.550781 134.714844 143.097656 C 135.40625 141.464844 136.382812 139.964844 137.570312 138.675781 C 136.199219 138.171875 135.160156 136.625 135.527344 135.183594 C 135.0625 136.027344 134.382812 136.757812 133.585938 137.277344 Z M 123.808594 169.652344 C 125.050781 169.488281 125.925781 168.375 126.667969 167.347656 C 126.34375 169.394531 128.28125 171.382812 130.304688 171.441406 C 132.324219 171.5 134.140625 169.980469 134.933594 168.085938 C 134.703125 169.675781 136.113281 171.226562 137.671875 171.425781 C 139.230469 171.621094 140.757812 170.703125 141.667969 169.410156 C 142.582031 168.117188 142.964844 166.503906 143.167969 164.910156 C 143.445312 162.730469 143.414062 160.507812 143.082031 158.328125 C 142.9375 157.40625 142.730469 156.464844 142.214844 155.691406 C 141.695312 154.914062 140.800781 154.339844 139.90625 154.460938 C 139.167969 154.5625 138.570312 155.097656 138.0625 155.648438 C 136.523438 157.316406 135.363281 159.34375 134.691406 161.546875 C 134.265625 160.03125 134.222656 158.273438 133.5 156.738281 C 132.773438 155.203125 131.160156 153.957031 129.546875 154.261719 C 128.417969 154.472656 127.523438 155.394531 127.03125 156.460938 C 126.542969 157.527344 126.402344 158.726562 126.296875 159.902344 C 125.261719 157.914062 123.65625 155.605469 121.511719 155.933594 C 120.347656 156.109375 119.425781 157.101562 119.023438 158.234375 C 118.621094 159.367188 118.660156 160.625 118.816406 161.832031 C 119 163.261719 119.34375 164.667969 119.832031 166.023438 C 120.496094 167.871094 121.925781 169.894531 123.808594 169.652344 Z M 125.714844 188.242188 C 126.957031 188.082031 127.828125 186.96875 128.570312 185.941406 C 128.25 187.984375 130.1875 189.976562 132.207031 190.035156 C 134.226562 190.089844 136.046875 188.574219 136.835938 186.679688 C 136.609375 188.269531 138.019531 189.820312 139.574219 190.015625 C 141.136719 190.214844 142.664062 189.292969 143.574219 188 C 144.484375 186.710938 144.871094 185.09375 145.070312 183.5 C 145.347656 181.324219 145.320312 179.101562 144.984375 176.921875 C 144.839844 176 144.636719 175.058594 144.117188 174.28125 C 143.601562 173.507812 142.703125 172.933594 141.808594 173.054688 C 141.070312 173.15625 140.472656 173.691406 139.964844 174.242188 C 138.425781 175.90625 137.265625 177.9375 136.597656 180.140625 C 136.171875 178.625 136.128906 176.867188 135.402344 175.332031 C 134.679688 173.796875 133.066406 172.550781 131.449219 172.851562 C 130.320312 173.0625 129.425781 173.988281 128.9375 175.054688 C 128.449219 176.117188 128.304688 177.316406 128.199219 178.496094 C 127.164062 176.507812 125.5625 174.199219 123.414062 174.523438 C 122.25 174.703125 121.328125 175.695312 120.929688 176.828125 C 120.523438 177.960938 120.5625 179.21875 120.71875 180.425781 C 120.902344 181.851562 121.242188 183.261719 121.734375 184.617188 C 122.402344 186.460938 123.828125 188.488281 125.714844 188.242188 Z M 165.664062 185.480469 C 167.558594 185.597656 168.84375 183.480469 169.382812 181.589844 C 169.777344 180.207031 170.023438 178.777344 170.109375 177.339844 C 170.183594 176.125 170.136719 174.867188 169.65625 173.765625 C 169.179688 172.660156 168.191406 171.734375 167.015625 171.636719 C 164.855469 171.460938 163.410156 173.875 162.515625 175.929688 C 162.328125 174.757812 162.105469 173.574219 161.542969 172.542969 C 160.984375 171.515625 160.027344 170.65625 158.882812 170.523438 C 157.253906 170.332031 155.730469 171.683594 155.113281 173.265625 C 154.496094 174.847656 154.570312 176.601562 154.253906 178.144531 C 153.433594 175.992188 152.136719 174.046875 150.488281 172.492188 C 149.941406 171.976562 149.308594 171.484375 148.566406 171.433594 C 147.664062 171.375 146.808594 172.007812 146.347656 172.816406 C 145.882812 173.621094 145.742188 174.578125 145.664062 175.507812 C 145.480469 177.707031 145.601562 179.925781 146.027344 182.078125 C 146.335938 183.65625 146.832031 185.238281 147.828125 186.464844 C 148.828125 187.691406 150.410156 188.507812 151.953125 188.203125 C 153.496094 187.898438 154.796875 186.253906 154.460938 184.683594 C 155.378906 186.523438 157.296875 187.910156 159.304688 187.714844 C 161.320312 187.519531 163.117188 185.402344 162.65625 183.382812 C 163.464844 184.355469 164.410156 185.40625 165.664062 185.480469 Z M 144.890625 192.273438 C 144.371094 191.5 143.476562 190.921875 142.582031 191.042969 C 141.84375 191.144531 141.246094 191.683594 140.734375 192.234375 C 139.199219 193.898438 138.039062 195.929688 137.367188 198.128906 C 136.945312 196.613281 136.902344 194.855469 136.175781 193.320312 C 135.449219 191.785156 133.835938 190.539062 132.222656 190.84375 C 131.09375 191.054688 130.199219 191.980469 129.707031 193.042969 C 129.21875 194.109375 129.078125 195.308594 128.972656 196.484375 C 127.9375 194.496094 126.332031 192.191406 124.1875 192.515625 C 123.023438 192.691406 122.101562 193.683594 121.699219 194.816406 C 121.296875 195.953125 121.335938 197.210938 121.492188 198.417969 C 121.675781 199.84375 122.015625 201.253906 122.507812 202.605469 C 123.175781 204.453125 124.601562 206.480469 126.484375 206.234375 C 127.730469 206.074219 128.601562 204.960938 129.34375 203.933594 C 129.019531 205.976562 130.960938 207.96875 132.980469 208.023438 C 135 208.082031 136.820312 206.566406 137.609375 204.667969 C 137.378906 206.261719 138.789062 207.8125 140.347656 208.007812 C 141.90625 208.207031 143.433594 207.285156 144.34375 205.992188 C 145.257812 204.699219 145.640625 203.085938 145.84375 201.492188 C 146.121094 199.316406 146.089844 197.09375 145.757812 194.914062 C 145.617188 193.988281 145.40625 193.046875 144.890625 192.273438 Z M 167.789062 189.628906 C 165.625 189.449219 164.183594 191.863281 163.285156 193.917969 C 163.101562 192.75 162.878906 191.5625 162.316406 190.535156 C 161.753906 189.507812 160.800781 188.644531 159.65625 188.511719 C 158.023438 188.320312 156.5 189.675781 155.882812 191.257812 C 155.265625 192.835938 155.34375 194.59375 155.023438 196.132812 C 154.203125 193.984375 152.90625 192.039062 151.257812 190.480469 C 150.714844 189.96875 150.078125 189.472656 149.335938 189.421875 C 148.433594 189.363281 147.582031 189.996094 147.121094 190.804688 C 146.65625 191.613281 146.515625 192.566406 146.433594 193.5 C 146.25 195.695312 146.375 197.917969 146.796875 200.066406 C 147.109375 201.644531 147.605469 203.226562 148.601562 204.457031 C 149.597656 205.683594 151.183594 206.496094 152.726562 206.191406 C 154.265625 205.886719 155.566406 204.242188 155.230469 202.671875 C 156.152344 204.511719 158.066406 205.898438 160.078125 205.703125 C 162.089844 205.507812 163.886719 203.390625 163.425781 201.371094 C 164.234375 202.347656 165.183594 203.394531 166.433594 203.472656 C 168.328125 203.585938 169.613281 201.46875 170.15625 199.582031 C 170.550781 198.195312 170.796875 196.765625 170.882812 195.328125 C 170.957031 194.113281 170.90625 192.855469 170.429688 191.753906 C 169.949219 190.652344 168.964844 189.726562 167.789062 189.628906 Z M 260.84375 123.75 C 263.355469 122.234375 265.796875 116.371094 263.894531 115.082031 C 261.875 113.710938 258.570312 117.683594 255.742188 120.484375 C 255.734375 119.65625 255.398438 118.8125 254.75 118.300781 C 253.394531 117.230469 251.246094 118.035156 250.308594 119.480469 C 249.433594 120.824219 249.316406 122.496094 249.273438 124.105469 C 249.148438 122.824219 247.164062 122.140625 245.976562 122.894531 C 244.679688 123.722656 244.226562 125.371094 243.890625 126.875 C 243.328125 129.433594 242.808594 132.140625 243.605469 134.636719 C 244.824219 138.453125 248.589844 139.191406 252.554688 138.617188 C 256.519531 138.046875 260.4375 136.53125 261.753906 132.742188 C 261.972656 132.113281 262.128906 131.367188 261.753906 130.8125 C 261.457031 130.371094 260.90625 130.179688 260.382812 130.082031 C 259.8125 129.972656 259.226562 129.953125 258.644531 129.984375 C 259.941406 129.464844 261.113281 128.625 262.003906 127.546875 C 262.601562 126.820312 263.097656 125.894531 262.933594 124.960938 C 262.765625 124.03125 261.65625 123.269531 260.84375 123.75 Z M 234.882812 144.039062 C 234.113281 146.015625 234.554688 148.449219 236.070312 149.933594 C 237.585938 151.417969 240.125 151.789062 241.933594 150.679688 C 243.746094 149.574219 247.0625 141.738281 244.480469 139.957031 C 244.070312 139.671875 243.222656 139.300781 242.527344 139.519531 C 241.007812 140.003906 239.6875 141.089844 238.921875 142.492188 C 239.429688 141.136719 239.945312 139.742188 239.945312 138.292969 C 239.945312 136.84375 239.324219 135.304688 238.050781 134.613281 C 236.5625 133.808594 234.609375 134.414062 233.4375 135.632812 C 232.265625 136.851562 231.726562 138.542969 231.386719 140.203125 C 231.128906 141.457031 230.992188 142.867188 231.714844 143.921875 C 232.4375 144.980469 234.339844 145.199219 234.882812 144.039062 Z M 257.9375 140.515625 C 256.527344 140.167969 255.03125 140.886719 254.054688 141.957031 C 253.078125 143.027344 252.519531 144.402344 251.980469 145.746094 C 252.363281 144.195312 252.121094 142.503906 251.320312 141.121094 C 250.957031 140.492188 250.082031 140.195312 249.585938 140.128906 C 246.472656 139.703125 243.648438 147.726562 244.238281 149.761719 C 244.828125 151.804688 246.953125 153.242188 249.074219 153.164062 C 251.195312 153.089844 253.160156 151.59375 253.925781 149.613281 C 253.542969 150.835938 255.09375 151.957031 256.339844 151.660156 C 257.585938 151.367188 258.4375 150.234375 259.09375 149.132812 C 259.960938 147.679688 260.703125 146.066406 260.65625 144.375 C 260.613281 142.683594 259.578125 140.917969 257.9375 140.515625 Z M 260.582031 159.523438 C 260.640625 160.601562 260.304688 161.710938 259.882812 162.75 C 259.382812 163.984375 258.753906 165.171875 258.015625 166.28125 C 257.011719 167.796875 255.324219 169.332031 253.816406 168.765625 C 252.816406 168.394531 252.359375 167.246094 251.988281 166.199219 C 251.777344 167.949219 249.933594 169.273438 248.308594 169.183594 C 248.921875 169.824219 249.214844 170.765625 249.214844 171.679688 C 249.21875 172.765625 248.875 173.832031 248.511719 174.863281 C 250.148438 173.585938 252.390625 172.261719 254.070312 173.359375 C 254.984375 173.957031 255.382812 175.144531 255.285156 176.253906 C 255.1875 177.363281 254.671875 178.410156 254.074219 179.367188 C 253.371094 180.5 252.542969 181.554688 251.609375 182.507812 C 250.335938 183.808594 248.355469 184.964844 246.863281 184.035156 C 245.875 183.421875 245.570312 182.148438 245.339844 180.996094 C 245.035156 182.078125 244.089844 182.84375 243.007812 183.148438 C 243.023438 183.300781 243.03125 183.453125 243.035156 183.601562 C 243.035156 184.6875 242.695312 185.753906 242.332031 186.785156 C 243.96875 185.511719 246.207031 184.183594 247.890625 185.28125 C 248.804688 185.878906 249.199219 187.066406 249.101562 188.175781 C 249.003906 189.289062 248.488281 190.332031 247.894531 191.289062 C 247.1875 192.421875 246.359375 193.476562 245.425781 194.429688 C 244.152344 195.730469 242.171875 196.886719 240.679688 195.957031 C 239.695312 195.34375 239.386719 194.070312 239.15625 192.917969 C 238.804688 194.175781 237.582031 195.007812 236.292969 195.183594 C 236.609375 195.6875 236.800781 196.28125 236.867188 196.882812 C 236.980469 197.964844 236.753906 199.058594 236.5 200.125 C 237.992188 198.679688 240.082031 197.125 241.871094 198.042969 C 242.84375 198.542969 243.359375 199.683594 243.375 200.796875 C 243.398438 201.910156 242.996094 203.003906 242.503906 204.015625 C 241.921875 205.214844 241.207031 206.355469 240.378906 207.398438 C 239.25 208.824219 237.398438 210.183594 235.816406 209.414062 C 234.773438 208.90625 234.332031 207.671875 233.984375 206.550781 C 233.664062 208.441406 231.378906 209.621094 229.589844 209.078125 C 227.796875 208.535156 226.644531 206.667969 226.507812 204.769531 C 226.242188 206.230469 224.546875 207.179688 223.121094 206.894531 C 221.695312 206.609375 220.625 205.351562 220.203125 203.949219 C 219.785156 202.546875 219.921875 201.015625 220.210938 199.554688 C 220.609375 197.566406 221.289062 195.621094 222.222656 193.804688 C 222.621094 193.035156 223.078125 192.269531 223.761719 191.742188 C 224.445312 191.214844 225.398438 190.972656 226.148438 191.339844 C 226.765625 191.648438 227.136719 192.292969 227.421875 192.925781 C 228.28125 194.84375 228.703125 196.964844 228.644531 199.09375 C 229.460938 197.890625 230.015625 196.359375 231.105469 195.226562 C 231.667969 194.640625 232.414062 194.195312 233.191406 194 C 232.328125 193.050781 231.867188 191.691406 231.90625 190.363281 C 231.492188 191.792969 229.707031 192.554688 228.316406 192.121094 C 226.929688 191.6875 225.996094 190.328125 225.722656 188.886719 C 225.453125 187.449219 225.75 185.941406 226.191406 184.519531 C 226.796875 182.582031 227.675781 180.71875 228.796875 179.007812 C 229.269531 178.285156 229.804688 177.570312 230.539062 177.117188 C 230.941406 176.871094 231.410156 176.722656 231.871094 176.707031 C 231.679688 175.34375 231.957031 173.933594 232.375 172.597656 C 232.976562 170.660156 233.859375 168.796875 234.976562 167.085938 C 235.449219 166.363281 235.988281 165.648438 236.722656 165.195312 C 237.367188 164.800781 238.195312 164.640625 238.867188 164.910156 C 238.539062 163.6875 238.609375 162.324219 238.808594 161 C 238.847656 160.746094 238.902344 160.492188 238.949219 160.238281 C 238.71875 160.632812 238.480469 161.023438 238.222656 161.402344 C 237.40625 162.621094 236.445312 163.78125 235.230469 164.453125 C 234.890625 164.640625 234.523438 164.777344 234.148438 164.867188 C 234.203125 165.046875 234.242188 165.226562 234.257812 165.410156 C 234.339844 166.269531 234.089844 167.128906 233.796875 167.941406 C 233.109375 169.863281 232.152344 171.6875 230.96875 173.335938 C 230.109375 174.539062 229.089844 175.671875 227.789062 176.328125 C 227.941406 176.636719 228.042969 176.984375 228.074219 177.332031 C 228.15625 178.191406 227.90625 179.050781 227.613281 179.863281 C 226.925781 181.785156 225.972656 183.609375 224.785156 185.257812 C 223.917969 186.46875 222.890625 187.609375 221.578125 188.261719 C 220.269531 188.914062 218.617188 188.988281 217.4375 188.140625 C 216.253906 187.292969 215.789062 185.40625 216.679688 184.214844 C 215.195312 185.40625 213.046875 185.839844 211.425781 184.902344 C 209.804688 183.964844 209.109375 181.488281 210.273438 179.964844 C 209.214844 180.476562 208.011719 180.996094 206.929688 180.578125 C 205.289062 179.949219 205.019531 177.667969 205.289062 175.871094 C 205.488281 174.550781 205.832031 173.253906 206.3125 172.007812 C 206.71875 170.957031 207.238281 169.917969 208.070312 169.171875 C 208.898438 168.425781 210.085938 168.023438 211.109375 168.394531 C 213.003906 169.078125 213.292969 171.664062 213.257812 173.742188 C 213.863281 172.828125 214.507812 171.914062 215.375 171.261719 C 215.582031 171.109375 215.800781 170.972656 216.03125 170.859375 C 215.757812 169.894531 215.847656 168.84375 216.457031 168.046875 C 215.398438 168.554688 214.195312 169.074219 213.113281 168.660156 C 211.472656 168.027344 211.203125 165.75 211.472656 163.949219 C 211.671875 162.632812 212.015625 161.332031 212.496094 160.089844 C 212.902344 159.039062 213.421875 157.996094 214.253906 157.25 C 215.078125 156.503906 216.269531 156.101562 217.292969 156.472656 C 219.183594 157.15625 219.476562 159.742188 219.441406 161.820312 C 220.046875 160.90625 220.691406 159.992188 221.558594 159.34375 C 222.394531 158.714844 223.480469 158.367188 224.464844 158.632812 C 224.378906 157.835938 224.523438 157.019531 224.988281 156.367188 C 224.007812 156.890625 222.894531 157.429688 221.90625 157.027344 C 220.410156 156.425781 220.203125 154.160156 220.480469 152.363281 C 220.679688 151.042969 221.019531 149.742188 221.476562 148.496094 C 221.867188 147.441406 222.367188 146.394531 223.136719 145.640625 C 223.910156 144.882812 225.007812 144.460938 225.941406 144.816406 C 227.667969 145.464844 227.890625 148.039062 227.824219 150.109375 C 228.394531 149.1875 229.003906 148.265625 229.8125 147.601562 C 230.617188 146.941406 231.667969 146.566406 232.59375 146.875 C 233.914062 147.316406 234.589844 149.027344 234.484375 150.589844 C 234.378906 152.15625 233.675781 153.613281 233.355469 155.035156 C 234.773438 153.519531 236.480469 152.351562 238.316406 151.644531 C 238.921875 151.410156 239.589844 151.230469 240.175781 151.460938 C 240.890625 151.742188 241.316406 152.59375 241.375 153.449219 C 241.375 153.484375 241.371094 153.523438 241.371094 153.558594 C 241.515625 153.363281 241.671875 153.171875 241.847656 153.003906 C 242.46875 152.414062 243.355469 152.066406 244.070312 152.339844 C 244.664062 152.566406 245.03125 153.152344 245.324219 153.734375 C 246.199219 155.492188 246.675781 157.507812 246.699219 159.578125 C 247.425781 158.316406 247.886719 156.765625 248.863281 155.539062 C 249.839844 154.308594 251.492188 153.5 252.765625 154.066406 C 253.65625 154.460938 254.179688 155.445312 254.328125 156.480469 C 254.476562 157.511719 254.304688 158.601562 254.109375 159.667969 C 255.457031 158.09375 257.355469 156.34375 259.066406 157.023438 C 259.992188 157.394531 260.523438 158.441406 260.582031 159.523438 Z M 223.378906 176.007812 C 222.382812 175.085938 222.035156 173.398438 222.859375 172.289062 C 222.164062 172.851562 221.324219 173.234375 220.460938 173.394531 C 220.507812 173.710938 220.535156 174.027344 220.515625 174.339844 C 220.429688 175.910156 219.6875 177.359375 219.367188 178.78125 C 220.535156 177.625 221.902344 176.6875 223.378906 176.007812 Z M 230.796875 160.492188 C 229.625 161.527344 228.015625 162.011719 226.65625 161.574219 C 226.695312 161.855469 226.714844 162.140625 226.699219 162.421875 C 226.609375 163.988281 225.871094 165.4375 225.550781 166.859375 C 227.03125 165.398438 228.824219 164.28125 230.757812 163.597656 C 230.234375 162.667969 230.171875 161.394531 230.796875 160.492188 Z M 238.503906 180.699219 C 238.214844 179.992188 238.066406 179.210938 238.089844 178.441406 C 237.671875 179.871094 235.886719 180.632812 234.5 180.199219 C 234.480469 180.195312 234.46875 180.1875 234.453125 180.183594 C 234.773438 181.734375 234.835938 183.351562 234.625 184.945312 C 235.5625 183.832031 236.273438 182.367188 237.476562 181.351562 C 237.785156 181.089844 238.136719 180.871094 238.503906 180.699219 Z M 246.429688 168.394531 C 245.589844 167.664062 245.042969 166.535156 244.910156 165.332031 C 244.714844 166.785156 243.160156 167.902344 241.8125 167.789062 C 241.28125 167.746094 240.796875 167.542969 240.375 167.242188 C 240.910156 169.097656 241.0625 171.078125 240.804688 173.023438 C 241.746094 171.910156 242.457031 170.445312 243.660156 169.429688 C 244.429688 168.777344 245.460938 168.375 246.429688 168.394531 Z M 200.644531 197.652344 C 201.765625 197.953125 202.90625 197.3125 203.902344 196.691406 C 202.90625 198.328125 203.859375 200.71875 205.570312 201.480469 C 207.277344 202.246094 209.371094 201.589844 210.71875 200.246094 C 209.960938 201.527344 210.617188 203.351562 211.882812 204.074219 C 213.148438 204.792969 214.777344 204.546875 216.015625 203.761719 C 217.253906 202.976562 218.152344 201.730469 218.890625 200.4375 C 219.894531 198.671875 220.65625 196.761719 221.140625 194.777344 C 221.347656 193.9375 221.503906 193.054688 221.332031 192.210938 C 221.164062 191.363281 220.601562 190.554688 219.792969 190.34375 C 219.125 190.167969 218.421875 190.417969 217.792969 190.707031 C 215.886719 191.589844 214.175781 192.917969 212.824219 194.5625 C 212.996094 193.117188 213.582031 191.597656 213.503906 190.027344 C 213.425781 188.457031 212.484375 186.820312 210.996094 186.507812 C 209.957031 186.289062 208.863281 186.765625 208.066406 187.503906 C 207.273438 188.238281 206.726562 189.21875 206.21875 190.1875 C 206.039062 188.121094 205.480469 185.578125 203.527344 185.09375 C 202.46875 184.835938 201.328125 185.359375 200.582031 186.1875 C 199.839844 187.015625 199.425781 188.105469 199.132812 189.191406 C 198.789062 190.480469 198.582031 191.808594 198.519531 193.140625 C 198.4375 194.957031 198.945312 197.195312 200.644531 197.652344 Z M 195.703125 214.238281 C 196.820312 214.539062 197.964844 213.898438 198.960938 213.28125 C 197.960938 214.914062 198.917969 217.308594 200.625 218.070312 C 202.335938 218.832031 204.429688 218.175781 205.777344 216.835938 C 205.015625 218.113281 205.675781 219.941406 206.941406 220.660156 C 208.207031 221.378906 209.835938 221.132812 211.074219 220.347656 C 212.3125 219.5625 213.210938 218.320312 213.949219 217.027344 C 214.953125 215.261719 215.714844 213.347656 216.199219 211.363281 C 216.402344 210.523438 216.558594 209.644531 216.390625 208.796875 C 216.222656 207.953125 215.65625 207.144531 214.847656 206.929688 C 214.179688 206.757812 213.480469 207.003906 212.847656 207.296875 C 210.945312 208.179688 209.234375 209.503906 207.882812 211.152344 C 208.054688 209.707031 208.636719 208.1875 208.5625 206.617188 C 208.484375 205.046875 207.542969 203.40625 206.054688 203.097656 C 205.011719 202.878906 203.917969 203.351562 203.125 204.089844 C 202.328125 204.828125 201.785156 205.804688 201.277344 206.777344 C 201.09375 204.707031 200.535156 202.164062 198.582031 201.683594 C 197.523438 201.421875 196.386719 201.945312 195.640625 202.773438 C 194.894531 203.601562 194.484375 204.695312 194.191406 205.78125 C 193.84375 207.066406 193.636719 208.394531 193.578125 209.726562 C 193.496094 211.542969 194.003906 213.78125 195.703125 214.238281 Z M 236.925781 214.628906 C 235.136719 213.710938 233.050781 215.265625 231.554688 216.710938 C 231.808594 215.644531 232.039062 214.550781 231.921875 213.472656 C 231.804688 212.390625 231.292969 211.320312 230.359375 210.800781 C 229.03125 210.058594 227.246094 210.679688 226.160156 211.816406 C 225.074219 212.949219 224.519531 214.480469 223.699219 215.683594 C 223.757812 213.554688 223.335938 211.429688 222.476562 209.515625 C 222.191406 208.882812 221.824219 208.234375 221.203125 207.929688 C 220.453125 207.558594 219.5 207.800781 218.816406 208.328125 C 218.136719 208.859375 217.675781 209.625 217.28125 210.394531 C 216.347656 212.207031 215.664062 214.152344 215.269531 216.144531 C 214.976562 217.605469 214.839844 219.132812 215.261719 220.535156 C 215.679688 221.941406 216.75 223.195312 218.175781 223.484375 C 219.605469 223.765625 221.300781 222.820312 221.566406 221.355469 C 221.703125 223.253906 222.851562 225.121094 224.644531 225.664062 C 226.433594 226.210938 228.722656 225.03125 229.042969 223.140625 C 229.390625 224.261719 229.828125 225.492188 230.875 226.003906 C 232.453125 226.773438 234.304688 225.410156 235.433594 223.988281 C 236.261719 222.941406 236.976562 221.804688 237.558594 220.605469 C 238.050781 219.589844 238.453125 218.5 238.433594 217.386719 C 238.414062 216.269531 237.898438 215.128906 236.925781 214.628906 Z M 210.691406 224.46875 C 210.519531 223.625 209.957031 222.816406 209.148438 222.601562 C 208.480469 222.429688 207.78125 222.675781 207.148438 222.96875 C 205.246094 223.851562 203.535156 225.179688 202.183594 226.824219 C 202.355469 225.378906 202.941406 223.859375 202.863281 222.285156 C 202.785156 220.71875 201.84375 219.078125 200.355469 218.769531 C 199.3125 218.550781 198.21875 219.023438 197.425781 219.761719 C 196.632812 220.5 196.085938 221.476562 195.578125 222.449219 C 195.394531 220.378906 194.835938 217.835938 192.886719 217.355469 C 191.824219 217.09375 190.6875 217.617188 189.941406 218.445312 C 189.195312 219.273438 188.785156 220.363281 188.492188 221.453125 C 188.144531 222.738281 187.9375 224.066406 187.878906 225.402344 C 187.800781 227.21875 188.304688 229.457031 190.003906 229.914062 C 191.121094 230.214844 192.261719 229.570312 193.261719 228.953125 C 192.261719 230.589844 193.21875 232.980469 194.929688 233.742188 C 196.636719 234.503906 198.730469 233.851562 200.078125 232.507812 C 199.316406 233.785156 199.976562 235.613281 201.242188 236.332031 C 202.507812 237.054688 204.140625 236.804688 205.375 236.023438 C 206.613281 235.238281 207.511719 233.992188 208.25 232.699219 C 209.253906 230.933594 210.015625 229.023438 210.5 227.035156 C 210.703125 226.195312 210.859375 225.316406 210.691406 224.46875 Z M 231.226562 230.300781 C 229.441406 229.386719 227.351562 230.941406 225.855469 232.382812 C 226.109375 231.316406 226.339844 230.222656 226.222656 229.144531 C 226.109375 228.066406 225.59375 226.992188 224.660156 226.472656 C 223.332031 225.734375 221.550781 226.351562 220.460938 227.488281 C 219.375 228.621094 218.820312 230.152344 218.003906 231.355469 C 218.058594 229.226562 217.636719 227.101562 216.777344 225.191406 C 216.492188 224.554688 216.125 223.910156 215.507812 223.601562 C 214.753906 223.234375 213.800781 223.476562 213.121094 224.003906 C 212.4375 224.53125 211.976562 225.296875 211.582031 226.066406 C 210.648438 227.882812 209.96875 229.824219 209.570312 231.816406 C 209.277344 233.277344 209.140625 234.808594 209.5625 236.210938 C 209.980469 237.613281 211.054688 238.871094 212.480469 239.15625 C 213.90625 239.441406 215.601562 238.492188 215.867188 237.03125 C 216.003906 238.929688 217.15625 240.796875 218.945312 241.339844 C 220.738281 241.882812 223.023438 240.707031 223.34375 238.8125 C 223.691406 239.933594 224.132812 241.167969 225.175781 241.675781 C 226.757812 242.445312 228.605469 241.085938 229.734375 239.660156 C 230.5625 238.613281 231.277344 237.476562 231.859375 236.277344 C 232.351562 235.261719 232.753906 234.171875 232.734375 233.058594 C 232.71875 231.941406 232.199219 230.800781 231.226562 230.300781 Z M 231.226562 230.300781 " fill-opacity="1" fill-rule="nonzero"/><path fill="#000000" d="M 154.78125 270.25 C 156.367188 275.523438 155.449219 276.472656 154.3125 277.332031 C 152.910156 278.386719 150.96875 278.148438 149.332031 277.5625 C 146.75 276.640625 144.414062 274.96875 142.664062 272.785156 C 142.125 272.117188 141.625 271.363281 141.488281 270.503906 C 141.351562 269.640625 141.671875 268.648438 142.417969 268.253906 C 143.703125 267.582031 145.074219 268.9375 145.925781 270.148438 C 145.308594 268.21875 144.773438 265.84375 146.101562 264.359375 C 149.539062 260.519531 152.769531 263.578125 154.78125 270.25 Z M 166.773438 241.386719 C 165.136719 241.117188 163.574219 242.140625 162.65625 243.539062 C 161.738281 244.933594 161.34375 246.652344 160.964844 248.332031 C 161.132812 246.421875 160.570312 244.402344 159.4375 242.820312 C 158.921875 242.097656 157.886719 241.835938 157.316406 241.804688 C 154.613281 241.667969 152.917969 247.347656 152.6875 251.160156 C 151.191406 247.921875 148.679688 244.5625 146.546875 245.214844 C 146.003906 245.382812 145.070312 245.886719 144.761719 246.714844 C 144.078125 248.523438 144.066406 250.609375 144.726562 252.417969 C 143.917969 250.886719 143.085938 249.320312 141.835938 248.191406 C 140.582031 247.066406 138.804688 246.457031 137.285156 247.113281 C 135.515625 247.886719 134.625 250.195312 134.832031 252.246094 C 135.039062 254.296875 136.109375 256.121094 137.300781 257.726562 C 138.199219 258.945312 139.316406 260.167969 140.753906 260.3125 C 142.191406 260.457031 143.753906 258.835938 143.140625 257.421875 C 144.296875 259.683594 146.714844 261.15625 149.09375 260.882812 C 151.472656 260.609375 153.628906 258.507812 153.976562 255.945312 C 153.992188 255.855469 153.996094 255.75 153.996094 255.644531 C 155.273438 257.046875 157.183594 257.824219 158.953125 257.589844 C 161.328125 257.269531 163.28125 255.257812 163.808594 252.789062 C 163.585938 254.304688 165.523438 255.488281 166.875 255.003906 C 168.226562 254.515625 168.988281 253.058594 169.542969 251.660156 C 170.269531 249.816406 170.832031 247.792969 170.492188 245.753906 C 170.15625 243.71875 168.691406 241.703125 166.773438 241.386719 Z M 129.066406 223.640625 C 130.308594 223.476562 131.183594 222.367188 131.921875 221.335938 C 131.601562 223.382812 133.539062 225.371094 135.558594 225.429688 C 137.582031 225.488281 139.398438 223.96875 140.191406 222.074219 C 139.960938 223.664062 141.371094 225.214844 142.929688 225.414062 C 144.488281 225.609375 146.015625 224.691406 146.925781 223.398438 C 147.835938 222.105469 148.222656 220.492188 148.425781 218.894531 C 148.703125 216.71875 148.671875 214.496094 148.335938 212.316406 C 148.195312 211.394531 147.988281 210.453125 147.46875 209.679688 C 146.953125 208.902344 146.058594 208.328125 145.160156 208.449219 C 144.425781 208.550781 143.824219 209.085938 143.316406 209.636719 C 141.78125 211.304688 140.621094 213.332031 139.949219 215.535156 C 139.523438 214.019531 139.480469 212.261719 138.757812 210.726562 C 138.214844 209.578125 137.171875 208.589844 136.003906 208.292969 C 136.609375 207.871094 137.132812 207.332031 137.496094 206.6875 C 137.847656 207.910156 139.257812 208.632812 140.511719 208.433594 C 141.769531 208.234375 142.808594 207.265625 143.347656 206.117188 C 143.890625 204.96875 143.992188 203.65625 143.921875 202.386719 C 143.832031 200.734375 143.457031 199.097656 142.828125 197.566406 C 142.285156 199.925781 141.613281 202.496094 139.652344 203.917969 C 139.0625 204.347656 138.238281 204.636719 137.636719 204.234375 C 137.355469 204.042969 137.175781 203.734375 137.015625 203.429688 C 136.007812 201.527344 135.226562 199.5 134.703125 197.410156 L 134.671875 201.765625 C 134.660156 203.0625 134.488281 204.632812 133.3125 205.183594 C 131.964844 205.8125 130.503906 204.566406 129.675781 203.335938 C 128.566406 201.691406 127.746094 199.859375 127.257812 197.9375 C 127.546875 199.90625 127.722656 201.890625 127.777344 203.878906 C 126.625 203.832031 125.597656 203.050781 124.964844 202.085938 C 124.328125 201.117188 124.015625 199.984375 123.710938 198.867188 C 122.0625 201.027344 121.996094 203.554688 123.292969 205.125 C 124.59375 206.6875 127.085938 207.097656 128.8125 206.023438 C 129.269531 207.851562 131.003906 209.089844 132.855469 209.207031 C 132.949219 209.210938 133.042969 209.203125 133.136719 209.203125 C 132.789062 209.5625 132.5 209.988281 132.289062 210.445312 C 131.800781 211.511719 131.65625 212.710938 131.550781 213.890625 C 130.515625 211.902344 128.914062 209.59375 126.765625 209.917969 C 125.601562 210.09375 124.679688 211.085938 124.277344 212.222656 C 123.875 213.355469 123.914062 214.613281 124.070312 215.820312 C 124.253906 217.246094 124.59375 218.65625 125.085938 220.011719 C 125.753906 221.859375 127.183594 223.882812 129.066406 223.640625 Z M 136.164062 242.089844 C 136.128906 244.164062 138.324219 245.863281 140.332031 245.640625 C 142.339844 245.417969 143.933594 243.664062 144.453125 241.675781 C 144.445312 243.28125 146.058594 244.625 147.628906 244.601562 C 149.199219 244.582031 150.585938 243.460938 151.304688 242.054688 C 152.03125 240.644531 152.1875 238.996094 152.167969 237.386719 C 152.140625 235.195312 151.800781 232.996094 151.167969 230.886719 C 150.898438 229.992188 150.5625 229.085938 149.941406 228.390625 C 149.324219 227.695312 148.355469 227.25 147.488281 227.496094 C 146.769531 227.699219 146.253906 228.3125 145.824219 228.929688 C 144.535156 230.789062 143.667969 232.960938 143.308594 235.234375 C 142.675781 233.792969 142.390625 232.058594 141.460938 230.636719 C 140.527344 229.21875 138.757812 228.207031 137.203125 228.730469 C 136.113281 229.097656 135.351562 230.136719 135.015625 231.257812 C 134.679688 232.378906 134.707031 233.589844 134.765625 234.769531 C 133.464844 232.941406 131.554688 230.878906 129.476562 231.5 C 128.347656 231.835938 127.574219 232.945312 127.332031 234.125 C 127.089844 235.304688 127.300781 236.542969 127.625 237.71875 C 128.003906 239.105469 128.539062 240.453125 129.210938 241.726562 C 130.128906 243.464844 131.824219 245.269531 133.652344 244.765625 C 134.863281 244.433594 135.574219 243.210938 136.164062 242.089844 Z M 175.164062 224.335938 C 174.535156 223.308594 173.429688 222.527344 172.253906 222.59375 C 170.085938 222.71875 168.992188 225.308594 168.390625 227.46875 C 168.042969 226.335938 167.660156 225.1875 166.960938 224.25 C 166.277344 223.328125 165.238281 222.625 164.117188 222.621094 C 165.4375 221.84375 166.351562 220.28125 166.007812 218.777344 C 166.816406 219.75 167.765625 220.800781 169.015625 220.878906 C 170.910156 220.992188 172.195312 218.875 172.734375 216.984375 C 173.132812 215.601562 173.375 214.171875 173.460938 212.734375 C 173.539062 211.519531 173.488281 210.261719 173.007812 209.160156 C 172.53125 208.054688 171.542969 207.128906 170.371094 207.035156 C 168.207031 206.855469 166.765625 209.269531 165.867188 211.320312 C 165.683594 210.152344 165.457031 208.964844 164.898438 207.9375 C 164.335938 206.910156 163.378906 206.050781 162.234375 205.917969 C 160.605469 205.726562 159.082031 207.078125 158.464844 208.660156 C 157.847656 210.242188 157.925781 211.996094 157.605469 213.535156 C 156.785156 211.386719 155.488281 209.441406 153.839844 207.886719 C 153.296875 207.371094 152.660156 206.878906 151.917969 206.828125 C 151.015625 206.765625 150.164062 207.402344 149.699219 208.210938 C 149.234375 209.019531 149.09375 209.972656 149.015625 210.902344 C 148.832031 213.101562 148.953125 215.320312 149.378906 217.472656 C 149.6875 219.050781 150.183594 220.632812 151.179688 221.859375 C 152.179688 223.085938 153.765625 223.898438 155.308594 223.597656 C 156.847656 223.292969 158.148438 221.648438 157.8125 220.078125 C 158.714844 221.882812 160.578125 223.246094 162.550781 223.109375 C 161.636719 223.703125 160.953125 224.75 160.691406 225.855469 C 160.296875 227.507812 160.617188 229.234375 160.515625 230.804688 C 159.40625 228.789062 157.851562 227.042969 156.003906 225.730469 C 155.390625 225.296875 154.695312 224.894531 153.953125 224.949219 C 153.050781 225.015625 152.292969 225.761719 151.949219 226.625 C 151.601562 227.488281 151.59375 228.453125 151.644531 229.386719 C 151.765625 231.589844 152.195312 233.769531 152.914062 235.84375 C 153.441406 237.359375 154.148438 238.859375 155.308594 239.9375 C 156.46875 241.015625 158.148438 241.601562 159.632812 241.085938 C 161.121094 240.570312 162.179688 238.761719 161.625 237.253906 C 162.792969 238.945312 164.882812 240.054688 166.847656 239.582031 C 168.8125 239.109375 170.296875 236.761719 169.5625 234.828125 C 170.5 235.683594 171.585938 236.589844 172.835938 236.492188 C 174.726562 236.34375 175.707031 234.066406 175.980469 232.121094 C 176.179688 230.695312 176.222656 229.246094 176.109375 227.808594 C 176.011719 226.597656 175.789062 225.359375 175.164062 224.335938 Z M 167.34375 263.09375 C 165.925781 262.753906 164.953125 264.402344 164.445312 265.777344 C 164.539062 263.761719 164.433594 261.335938 162.761719 260.222656 C 158.429688 257.34375 156.105469 261.09375 155.90625 268.035156 C 155.75 273.523438 156.886719 274.21875 158.214844 274.773438 C 159.84375 275.457031 161.664062 274.75 163.09375 273.785156 C 165.347656 272.265625 167.171875 270.078125 168.292969 267.535156 C 168.640625 266.757812 168.925781 265.910156 168.832031 265.042969 C 168.738281 264.171875 168.167969 263.289062 167.34375 263.09375 Z M 156.207031 202.734375 C 156.453125 200.648438 155.800781 198.476562 154.386719 196.921875 C 154.375 196.921875 154.363281 196.925781 154.214844 196.957031 C 154.511719 198.675781 154.753906 200.441406 154.421875 202.152344 C 154.089844 203.863281 153.085938 205.53125 151.492188 206.242188 C 152.996094 206.492188 154.613281 205.914062 155.613281 204.765625 C 156.03125 205.582031 156.957031 206.042969 157.871094 206.128906 C 158.78125 206.214844 159.691406 205.980469 160.570312 205.714844 C 161.839844 205.328125 163.257812 204.691406 163.59375 203.40625 C 163.640625 203.214844 163.695312 202.976562 163.886719 202.925781 C 164 202.890625 164.121094 202.945312 164.230469 202.996094 C 165.441406 203.5625 166.910156 204.035156 168.0625 203.355469 C 168.664062 203.003906 169.0625 202.394531 169.378906 201.777344 C 170.304688 199.964844 170.6875 197.875 170.457031 195.851562 C 170.222656 197.378906 169.417969 198.84375 168.144531 199.726562 C 166.875 200.605469 165.128906 200.828125 163.765625 200.042969 C 163.460938 198.597656 163.160156 197.148438 162.859375 195.699219 C 162.523438 197.171875 162.039062 198.605469 161.417969 199.980469 C 161.238281 200.382812 161.039062 200.789062 160.722656 201.105469 C 160.339844 201.496094 159.816406 201.710938 159.308594 201.914062 C 158.6875 202.160156 158.066406 202.394531 157.4375 202.613281 C 157.039062 202.753906 156.597656 202.890625 156.207031 202.734375 Z M 127.261719 181.441406 C 127.113281 182.164062 127.222656 182.914062 127.335938 183.640625 C 127.53125 184.925781 127.753906 186.277344 128.574219 187.289062 C 129.171875 188.019531 130.019531 188.492188 130.847656 188.949219 C 131.265625 189.179688 131.71875 189.417969 132.195312 189.375 C 129.714844 186.59375 128.496094 182.734375 128.921875 179.039062 C 128.078125 179.710938 127.449219 180.523438 127.261719 181.441406 Z M 135.402344 183.535156 C 135.183594 184.726562 135.582031 185.984375 136.335938 186.933594 C 137.082031 187.886719 138.15625 188.550781 139.296875 188.960938 C 139.5 189.035156 139.714844 189.101562 139.933594 189.113281 C 139.886719 188.710938 139.578125 188.402344 139.308594 188.101562 C 137.636719 186.242188 136.863281 183.609375 137.265625 181.140625 C 136.296875 181.539062 135.589844 182.496094 135.402344 183.535156 Z M 137.269531 181.101562 C 137.265625 181.113281 137.265625 181.125 137.265625 181.140625 C 137.40625 181.082031 137.550781 181.035156 137.699219 181 C 137.679688 181.003906 137.660156 181.007812 137.269531 181.101562 Z M 156.023438 183.734375 C 156.472656 182.777344 156.683594 181.683594 156.4375 180.65625 C 156.1875 179.632812 155.421875 178.699219 154.339844 178.582031 C 154.792969 179.78125 154.65625 181.125 154.3125 182.355469 C 153.96875 183.589844 153.429688 184.757812 153.066406 185.984375 C 154.378906 186.027344 155.46875 184.925781 156.023438 183.734375 Z M 162.230469 177 C 162.445312 179.675781 161.984375 182.40625 160.910156 184.863281 C 161.929688 184.4375 162.730469 183.566406 163.195312 182.5625 C 163.664062 181.558594 163.808594 180.429688 163.75 179.324219 C 163.71875 178.78125 163.636719 178.234375 163.390625 177.75 C 163.144531 177.265625 162.710938 176.859375 162.230469 177 Z M 128.941406 170.375 C 127.613281 167.234375 126.257812 163.898438 126.746094 160.523438 C 125.179688 161.269531 124.871094 163.015625 125.023438 164.476562 C 125.289062 166.945312 126.625 169.480469 128.941406 170.375 Z M 134.71875 168.570312 C 135.308594 169.238281 136.199219 169.660156 137.089844 169.582031 C 135.5625 167.425781 134.839844 164.710938 135.085938 162.078125 C 133.984375 163.34375 133.589844 164.761719 133.726562 166.132812 C 133.8125 167.019531 134.125 167.90625 134.71875 168.570312 Z M 160.371094 166.574219 C 161.5 165.324219 162.128906 163.636719 162.089844 161.953125 C 162.046875 160.269531 161.339844 158.613281 159.878906 157.261719 C 160.039062 159.117188 160.199219 160.988281 159.96875 162.839844 C 159.738281 164.6875 159.082031 166.53125 157.804688 167.886719 C 158.796875 167.914062 159.703125 167.304688 160.371094 166.574219 Z M 126.65625 148.589844 C 126.304688 146.230469 126.476562 143.792969 127.15625 141.507812 C 126.222656 141.183594 125.488281 141.984375 125.207031 142.882812 C 124.925781 143.785156 125.039062 144.765625 125.289062 145.671875 C 125.578125 146.714844 126.042969 147.703125 126.65625 148.589844 Z M 161.546875 131.910156 C 162.230469 130.230469 162.003906 128.117188 160.492188 127.234375 C 160.769531 130.238281 159.335938 133.117188 157.84375 135.738281 C 159.433594 134.867188 160.871094 133.589844 161.546875 131.910156 Z M 150.128906 85.117188 C 149.996094 85.875 149.902344 86.640625 149.8125 87.40625 C 149.996094 86.65625 150.097656 85.890625 150.128906 85.117188 Z M 143.703125 86.246094 C 143.90625 84.652344 144.25 83.074219 144.722656 81.539062 C 144.980469 80.691406 145.300781 79.824219 145.945312 79.214844 C 146.585938 78.605469 147.640625 78.335938 148.375 78.832031 C 148.804688 79.121094 149.054688 79.605469 149.253906 80.085938 C 149.917969 81.671875 150.207031 83.402344 150.132812 85.117188 C 150.261719 84.375 150.433594 83.640625 150.6875 82.925781 C 151.191406 81.488281 152.058594 80.128906 153.339844 79.296875 C 152.160156 79.027344 150.84375 79.84375 150.558594 81.019531 C 150.574219 79.628906 150.507812 78.046875 149.453125 77.140625 C 148.542969 76.363281 147.109375 76.398438 146.09375 77.03125 C 145.078125 77.667969 144.449219 78.800781 144.179688 79.96875 C 144.046875 79.234375 143.53125 78.597656 142.851562 78.320312 C 143.621094 80.882812 143.914062 83.582031 143.703125 86.246094 Z M 142.402344 78.195312 C 142.558594 78.21875 142.707031 78.265625 142.851562 78.324219 C 142.769531 78.058594 142.691406 77.796875 142.601562 77.535156 C 142.335938 78.207031 142.371094 78.199219 142.402344 78.195312 Z M 147.402344 70.5 C 148.9375 71.867188 149.566406 74.164062 148.945312 76.117188 C 149.410156 73.90625 151.203125 72.027344 153.386719 71.457031 C 153.066406 70.765625 152.148438 70.519531 151.417969 70.738281 C 150.6875 70.957031 150.117188 71.527344 149.640625 72.121094 C 149.421875 71.492188 149.054688 70.917969 148.578125 70.457031 C 148.351562 70.234375 148.085938 70.035156 147.777344 69.976562 C 147.464844 69.917969 147.101562 70.039062 147.007812 70.34375 C 147.019531 70.339844 147.101562 70.234375 147.402344 70.5 Z M 137.136719 137.808594 C 135.835938 135.410156 135.449219 132.527344 136.066406 129.867188 C 135.371094 129.683594 134.667969 130.175781 134.296875 130.828125 C 133.925781 131.480469 133.847656 132.261719 133.914062 133.011719 C 134.101562 135.011719 135.355469 136.878906 137.136719 137.808594 Z M 127.867188 135.035156 C 127.011719 132.484375 127.042969 129.648438 127.953125 127.113281 C 128.023438 126.914062 128.058594 126.859375 128.085938 126.839844 C 126.519531 127.382812 125.539062 129.085938 125.574219 130.75 C 125.609375 132.421875 126.554688 133.996094 127.867188 135.035156 Z M 128.085938 126.839844 C 128.09375 126.835938 128.101562 126.828125 128.113281 126.828125 C 128.105469 126.828125 128.09375 126.832031 128.085938 126.839844 Z M 136.199219 121.390625 C 137.417969 120.660156 138.609375 119.777344 139.308594 118.535156 C 140.003906 117.292969 140.089844 115.617188 139.089844 114.605469 C 139.074219 114.667969 139.054688 114.734375 138.851562 114.625 C 138.296875 116.992188 137.402344 119.277344 136.199219 121.390625 Z M 155.652344 116.0625 C 155.679688 115.019531 155.394531 113.769531 154.3125 113.394531 C 154.730469 115.558594 154.507812 117.839844 153.679688 119.878906 C 155.066406 119.269531 155.613281 117.574219 155.652344 116.0625 Z M 162.96875 117.265625 C 161.890625 115.597656 161.3125 113.613281 161.328125 111.625 C 160.464844 111.492188 160.027344 112.101562 159.960938 112.710938 C 159.898438 113.320312 160.125 113.917969 160.371094 114.476562 C 160.914062 115.671875 161.707031 116.90625 162.96875 117.265625 Z M 138.390625 106.742188 C 138.539062 106.90625 138.789062 107.070312 138.949219 106.921875 C 138.835938 105.859375 138.292969 104.902344 137.886719 103.917969 C 136.695312 101.0625 136.609375 97.761719 137.644531 94.847656 C 137.101562 95.054688 137.0625 95.0625 137.019531 95.070312 C 135.378906 96.519531 134.847656 98.925781 135.261719 101.074219 C 135.675781 103.222656 136.917969 105.128906 138.390625 106.742188 Z M 152.882812 105.125 C 153.636719 104.96875 154.332031 104.535156 154.808594 103.929688 C 155.179688 103.460938 155.410156 102.902344 155.636719 102.347656 C 155.917969 101.65625 156.191406 100.960938 156.367188 100.238281 C 156.601562 99.285156 156.652344 98.230469 156.191406 97.363281 C 155.730469 96.496094 154.640625 95.914062 153.8125 96.320312 C 154.628906 99.230469 154.289062 102.449219 152.882812 105.125 Z M 186.242188 286.605469 C 184.578125 287.40625 184.199219 289.628906 184.046875 291.496094 C 183.742188 290.160156 183.050781 288.511719 181.714844 288.636719 C 180.933594 288.707031 180.3125 289.445312 180.125 290.230469 C 179.933594 291.019531 180.097656 291.835938 180.320312 292.601562 C 181.046875 295.089844 182.453125 297.347656 184.339844 299.050781 C 185.535156 300.128906 187.113281 301.019531 188.683594 300.609375 C 189.960938 300.277344 191.082031 299.789062 191.589844 294.714844 C 192.226562 288.296875 190.542969 284.535156 186.242188 286.605469 Z M 212.0625 274.246094 C 210.75 273.4375 209.050781 273.761719 207.773438 274.632812 C 206.496094 275.503906 205.554688 276.835938 204.632812 278.140625 C 205.449219 276.5625 205.683594 274.636719 205.273438 272.882812 C 205.085938 272.082031 204.292969 271.492188 203.816406 271.265625 C 201.550781 270.191406 198.089844 274.453125 196.546875 277.632812 C 196.410156 274.335938 195.449219 270.570312 193.394531 270.375 C 192.867188 270.324219 191.890625 270.429688 191.332031 271.027344 C 190.113281 272.332031 189.363281 274.117188 189.285156 275.894531 C 189.140625 274.296875 188.980469 272.664062 188.304688 271.253906 C 187.632812 269.847656 186.324219 268.695312 184.792969 268.722656 C 183.003906 268.757812 181.429688 270.421875 180.878906 272.25 C 180.332031 274.078125 180.605469 276.019531 181.054688 277.816406 C 181.394531 279.175781 181.917969 280.617188 183.097656 281.25 C 184.277344 281.878906 186.1875 281.042969 186.164062 279.617188 C 186.351562 281.960938 187.902344 284.078125 190.035156 284.683594 C 192.167969 285.292969 194.753906 284.257812 195.960938 282.183594 C 196.003906 282.109375 196.042969 282.023438 196.082031 281.933594 C 196.679688 283.585938 198.039062 284.925781 199.636719 285.351562 C 201.78125 285.917969 204.167969 284.882812 205.492188 282.957031 C 204.761719 284.175781 206.003906 285.875 207.332031 285.9375 C 208.660156 285.996094 209.832031 285.019531 210.796875 284.015625 C 212.074219 282.695312 213.269531 281.160156 213.699219 279.300781 C 214.128906 277.4375 213.59375 275.195312 212.0625 274.246094 Z M 186.054688 245.722656 C 187.175781 246.023438 188.316406 245.382812 189.316406 244.761719 C 188.316406 246.398438 189.273438 248.789062 190.980469 249.554688 C 192.691406 250.316406 194.785156 249.660156 196.128906 248.316406 C 195.371094 249.597656 196.03125 251.425781 197.296875 252.144531 C 198.5625 252.863281 200.191406 252.617188 201.429688 251.832031 C 202.667969 251.046875 203.566406 249.804688 204.304688 248.511719 C 205.308594 246.746094 206.070312 244.832031 206.554688 242.847656 C 206.757812 242.007812 206.914062 241.128906 206.746094 240.28125 C 206.574219 239.433594 206.011719 238.625 205.203125 238.414062 C 204.535156 238.242188 203.835938 238.488281 203.203125 238.777344 C 201.300781 239.664062 199.589844 240.988281 198.238281 242.636719 C 198.410156 241.1875 198.996094 239.671875 198.917969 238.097656 C 198.859375 236.921875 198.316406 235.707031 197.417969 235.042969 C 198.085938 234.894531 198.722656 234.617188 199.261719 234.191406 C 199.132812 235.363281 200.085938 236.480469 201.230469 236.753906 C 202.375 237.027344 203.605469 236.566406 204.476562 235.773438 C 205.347656 234.980469 205.898438 233.894531 206.285156 232.785156 C 206.792969 231.335938 207.054688 229.804688 207.054688 228.269531 C 205.757812 230.101562 204.269531 232.058594 202.089844 232.585938 C 201.4375 232.746094 200.625 232.703125 200.253906 232.144531 C 200.078125 231.878906 200.035156 231.550781 200.007812 231.238281 C 199.816406 229.25 199.863281 227.242188 200.15625 225.265625 C 199.632812 226.507812 199.109375 227.742188 198.585938 228.984375 C 198.121094 230.089844 197.417969 231.371094 196.214844 231.429688 C 194.839844 231.492188 194.027344 229.910156 193.753906 228.5625 C 193.386719 226.765625 193.332031 224.902344 193.59375 223.085938 C 193.148438 224.875 192.59375 226.632812 191.9375 228.355469 C 190.96875 227.90625 190.367188 226.875 190.164062 225.824219 C 189.960938 224.773438 190.09375 223.691406 190.226562 222.628906 C 188.054688 223.898438 187.105469 226.035156 187.660156 227.835938 C 188.21875 229.632812 190.207031 230.863281 192.066406 230.558594 C 191.808594 232.285156 192.859375 233.957031 194.402344 234.710938 C 194.480469 234.75 194.566406 234.773438 194.648438 234.808594 C 194.21875 234.992188 193.820312 235.253906 193.476562 235.574219 C 192.683594 236.3125 192.136719 237.289062 191.632812 238.261719 C 191.445312 236.191406 190.890625 233.648438 188.9375 233.167969 C 187.878906 232.90625 186.738281 233.433594 185.996094 234.257812 C 185.25 235.085938 184.835938 236.175781 184.542969 237.265625 C 184.199219 238.550781 183.992188 239.878906 183.933594 241.214844 C 183.851562 243.027344 184.359375 245.269531 186.054688 245.722656 Z M 227.28125 246.113281 C 225.492188 245.199219 223.40625 246.753906 221.910156 248.195312 C 222.164062 247.128906 222.394531 246.035156 222.277344 244.957031 C 222.164062 243.878906 221.648438 242.804688 220.714844 242.285156 C 219.386719 241.542969 217.605469 242.164062 216.515625 243.300781 C 215.429688 244.433594 214.875 245.964844 214.058594 247.167969 C 214.113281 245.039062 213.691406 242.914062 212.832031 241 C 212.546875 240.367188 212.179688 239.71875 211.5625 239.414062 C 210.808594 239.042969 209.855469 239.285156 209.175781 239.8125 C 208.492188 240.34375 208.03125 241.109375 207.636719 241.878906 C 206.703125 243.691406 206.023438 245.636719 205.625 247.628906 C 205.332031 249.089844 205.195312 250.617188 205.617188 252.023438 C 206.035156 253.425781 207.109375 254.683594 208.535156 254.96875 C 209.960938 255.25 211.65625 254.304688 211.921875 252.839844 C 212.054688 254.703125 213.171875 256.527344 214.90625 257.109375 C 213.914062 257.292969 212.957031 257.949219 212.339844 258.804688 C 211.421875 260.082031 211.085938 261.671875 210.441406 262.980469 C 210.203125 260.863281 209.488281 258.820312 208.375 257.042969 C 208.003906 256.453125 207.550781 255.863281 206.894531 255.648438 C 206.101562 255.386719 205.191406 255.757812 204.585938 256.375 C 203.984375 256.992188 203.632812 257.816406 203.351562 258.628906 C 202.675781 260.558594 202.269531 262.578125 202.15625 264.605469 C 202.070312 266.09375 202.144531 267.628906 202.753906 268.957031 C 203.367188 270.289062 204.597656 271.382812 206.054688 271.46875 C 207.507812 271.554688 209.054688 270.382812 209.113281 268.894531 C 209.511719 270.753906 210.90625 272.441406 212.757812 272.734375 C 214.609375 273.023438 216.710938 271.539062 216.761719 269.621094 C 217.265625 270.683594 217.871094 271.84375 218.976562 272.203125 C 220.648438 272.746094 222.292969 271.140625 223.210938 269.574219 C 223.886719 268.425781 224.4375 267.195312 224.847656 265.929688 C 225.191406 264.855469 225.441406 263.71875 225.265625 262.617188 C 225.09375 261.519531 224.421875 260.460938 223.390625 260.101562 C 221.496094 259.441406 219.640625 261.269531 218.363281 262.90625 C 218.464844 261.816406 218.539062 260.699219 218.277344 259.648438 C 218.015625 258.617188 217.378906 257.648438 216.417969 257.246094 C 217.824219 257.046875 219.160156 256.035156 219.398438 254.625 C 219.746094 255.746094 220.1875 256.976562 221.230469 257.484375 C 222.808594 258.253906 224.660156 256.894531 225.789062 255.472656 C 226.617188 254.425781 227.332031 253.289062 227.914062 252.089844 C 228.40625 251.074219 228.808594 249.980469 228.789062 248.867188 C 228.769531 247.753906 228.253906 246.613281 227.28125 246.113281 Z M 182.511719 265.433594 C 183.664062 265.574219 184.707031 264.78125 185.609375 264.03125 C 184.847656 265.789062 186.121094 268.023438 187.921875 268.542969 C 189.71875 269.0625 191.699219 268.121094 192.847656 266.605469 C 192.273438 267.976562 193.183594 269.695312 194.535156 270.230469 C 195.886719 270.769531 197.46875 270.300781 198.582031 269.347656 C 199.699219 268.398438 200.417969 267.042969 200.96875 265.660156 C 201.722656 263.769531 202.207031 261.769531 202.414062 259.738281 C 202.5 258.878906 202.53125 257.984375 202.246094 257.171875 C 201.960938 256.359375 201.292969 255.636719 200.460938 255.539062 C 199.773438 255.457031 199.117188 255.800781 198.53125 256.175781 C 196.769531 257.3125 195.257812 258.863281 194.148438 260.683594 C 194.117188 259.226562 194.484375 257.640625 194.191406 256.097656 C 193.898438 254.550781 192.738281 253.0625 191.222656 252.960938 C 190.15625 252.886719 189.140625 253.507812 188.457031 254.351562 C 187.769531 255.191406 187.367188 256.234375 187 257.265625 C 186.53125 255.246094 185.625 252.804688 183.625 252.597656 C 182.539062 252.484375 181.484375 253.164062 180.859375 254.085938 C 180.238281 255.007812 179.984375 256.144531 179.84375 257.265625 C 179.675781 258.589844 179.65625 259.929688 179.785156 261.257812 C 179.957031 263.070312 180.769531 265.21875 182.511719 265.433594 Z M 204.875 293.027344 C 203.777344 292.238281 202.367188 293.304688 201.445312 294.304688 C 202.234375 292.613281 203.007812 290.496094 201.964844 288.953125 C 199.277344 284.957031 195.960938 287.34375 193.335938 293.21875 C 191.261719 297.859375 191.988281 298.855469 192.929688 299.796875 C 194.082031 300.957031 195.890625 300.996094 197.453125 300.679688 C 199.925781 300.175781 202.257812 298.945312 204.117188 297.167969 C 204.6875 296.625 205.234375 296 205.460938 295.222656 C 205.683594 294.445312 205.511719 293.488281 204.875 293.027344 Z M 227.964844 239.070312 C 226.566406 239.375 224.996094 238.945312 224.101562 237.792969 C 224.355469 236.449219 224.609375 235.101562 224.863281 233.753906 C 224.054688 234.894531 223.132812 235.953125 222.117188 236.910156 C 221.816406 237.1875 221.5 237.46875 221.125 237.628906 C 220.65625 237.824219 220.132812 237.828125 219.625 237.820312 C 219.007812 237.808594 218.390625 237.792969 217.773438 237.761719 C 217.382812 237.742188 216.957031 237.699219 216.679688 237.425781 C 217.628906 235.726562 217.839844 233.636719 217.179688 231.808594 C 217.164062 231.804688 217.152344 231.804688 217.015625 231.777344 C 216.664062 233.351562 216.246094 234.949219 215.355469 236.296875 C 214.46875 237.644531 213.015625 238.71875 211.402344 238.761719 C 212.601562 239.511719 214.1875 239.585938 215.453125 238.957031 C 215.523438 239.800781 216.152344 240.523438 216.902344 240.917969 C 217.652344 241.316406 218.515625 241.4375 219.359375 241.519531 C 220.582031 241.636719 222.027344 241.59375 222.765625 240.609375 C 222.875 240.464844 223.003906 240.28125 223.183594 240.300781 C 223.296875 240.316406 223.378906 240.402344 223.453125 240.484375 C 224.292969 241.398438 225.382812 242.320312 226.609375 242.148438 C 227.246094 242.0625 227.804688 241.679688 228.296875 241.261719 C 229.730469 240.035156 230.792969 238.382812 231.316406 236.570312 C 230.574219 237.796875 229.367188 238.765625 227.964844 239.070312 Z M 199.847656 216.660156 C 200.121094 217.003906 200.425781 217.367188 200.847656 217.5 C 199.710938 214.242188 200.03125 210.511719 201.703125 207.496094 C 200.742188 207.769531 199.914062 208.25 199.429688 208.964844 C 199.046875 209.53125 198.875 210.210938 198.714844 210.875 C 198.425781 212.046875 198.144531 213.28125 198.488281 214.433594 C 198.738281 215.273438 199.296875 215.976562 199.847656 216.660156 Z M 205.65625 213.636719 C 205.046875 214.578125 204.945312 215.796875 205.253906 216.875 C 205.558594 217.957031 206.242188 218.902344 207.074219 219.65625 C 207.222656 219.792969 207.378906 219.925781 207.566406 220.011719 C 207.667969 219.65625 207.515625 219.277344 207.386719 218.925781 C 206.613281 216.746094 206.882812 214.214844 208.101562 212.242188 C 207.132812 212.242188 206.1875 212.8125 205.65625 213.636719 Z M 208.519531 212.277344 C 208.503906 212.277344 208.484375 212.273438 208.117188 212.210938 C 208.109375 212.222656 208.105469 212.230469 208.101562 212.242188 C 208.242188 212.242188 208.378906 212.253906 208.519531 212.277344 Z M 223.242188 221.097656 C 223.960938 220.433594 224.53125 219.574219 224.679688 218.609375 C 224.828125 217.640625 224.503906 216.574219 223.621094 216.09375 C 223.582031 217.277344 222.992188 218.378906 222.261719 219.3125 C 221.53125 220.246094 220.65625 221.054688 219.914062 221.976562 C 221.023438 222.476562 222.347656 221.921875 223.242188 221.097656 Z M 230.933594 217.527344 C 230.171875 219.894531 228.816406 222.066406 227.023438 223.789062 C 228.046875 223.785156 229.042969 223.324219 229.796875 222.628906 C 230.546875 221.933594 231.074219 221.019531 231.414062 220.050781 C 231.578125 219.578125 231.703125 219.078125 231.664062 218.578125 C 231.621094 218.078125 231.394531 217.574219 230.933594 217.527344 Z M 206.382812 190.878906 C 204.78125 190.964844 203.898438 192.347656 203.515625 193.65625 C 202.867188 195.859375 203.113281 198.503906 204.78125 200.085938 C 204.753906 196.929688 204.773438 193.59375 206.382812 190.878906 Z M 212.035156 202.289062 C 211.492188 199.902344 211.828125 197.324219 212.972656 195.15625 C 211.585938 195.851562 210.746094 196.925781 210.375 198.148438 C 210.136719 198.9375 210.089844 199.804688 210.359375 200.585938 C 210.632812 201.363281 211.246094 202.042969 212.035156 202.289062 Z M 234.003906 204.601562 C 233.152344 206.105469 231.941406 207.453125 230.367188 208.160156 C 231.207031 208.535156 232.199219 208.335938 233.027344 207.941406 C 234.4375 207.273438 235.570312 206.050781 236.132812 204.59375 C 236.695312 203.144531 236.671875 201.472656 235.898438 199.796875 C 235.378906 201.445312 234.855469 203.101562 234.003906 204.601562 Z M 213.460938 174.746094 C 212.773438 174.136719 211.859375 174.5625 211.304688 175.234375 C 210.746094 175.90625 210.496094 176.785156 210.386719 177.652344 C 210.265625 178.644531 210.3125 179.65625 210.527344 180.632812 C 211.058594 178.488281 212.066406 176.460938 213.460938 174.746094 Z M 241.765625 180.65625 C 243.433594 180.472656 245.117188 179.886719 246.292969 178.6875 C 247.46875 177.492188 248.023438 175.605469 247.039062 174.3125 C 246.214844 176.984375 243.96875 178.9375 241.765625 180.65625 Z M 248.894531 125.941406 C 249.019531 126.015625 249.128906 126.109375 249.230469 126.207031 C 249.257812 125.953125 249.28125 125.699219 249.296875 125.445312 C 248.832031 125.929688 248.863281 125.933594 248.894531 125.941406 Z M 253.0625 134.59375 C 252.679688 135.195312 252.328125 135.820312 251.976562 136.445312 C 252.402344 135.867188 252.757812 135.242188 253.0625 134.59375 Z M 254.875 131.238281 C 255.378906 130.054688 255.882812 128.675781 255.296875 127.53125 C 254.796875 126.542969 253.558594 126.0625 252.464844 126.25 C 251.367188 126.4375 250.429688 127.179688 249.785156 128.085938 C 249.929688 127.414062 249.714844 126.683594 249.230469 126.207031 C 248.988281 128.671875 248.285156 131.089844 247.160156 133.292969 C 247.898438 132 248.746094 130.769531 249.695312 129.625 C 250.21875 128.988281 250.800781 128.359375 251.566406 128.0625 C 252.332031 127.765625 253.328125 127.914062 253.78125 128.59375 C 254.046875 128.996094 254.089844 129.5 254.089844 129.980469 C 254.09375 131.570312 253.730469 133.152344 253.0625 134.59375 C 253.4375 134.007812 253.84375 133.4375 254.308594 132.917969 C 255.25 131.867188 256.472656 131.007812 257.863281 130.75 C 256.949219 130.101562 255.53125 130.332031 254.875 131.238281 Z M 259.246094 122.746094 C 258.542969 122.675781 257.855469 122.960938 257.234375 123.300781 C 257.269531 122.6875 257.160156 122.066406 256.914062 121.5 C 256.796875 121.230469 256.644531 120.96875 256.394531 120.804688 C 256.152344 120.644531 255.796875 120.621094 255.609375 120.847656 C 255.621094 120.851562 255.730469 120.789062 255.890625 121.121094 C 256.722656 122.835938 256.453125 125.019531 255.230469 126.476562 C 256.410156 124.746094 258.605469 123.773438 260.679688 124.058594 C 260.648438 123.351562 259.949219 122.8125 259.246094 122.746094 Z M 225.203125 167.933594 C 224.667969 167.527344 223.894531 167.703125 223.347656 168.128906 C 222.796875 168.554688 222.453125 169.199219 222.25 169.863281 C 221.699219 171.640625 222.113281 173.683594 223.308594 175.109375 C 223.046875 172.59375 223.730469 169.992188 225.203125 167.933594 Z M 219.441406 162.519531 C 219.449219 162.519531 219.457031 162.515625 219.46875 162.515625 C 219.460938 162.515625 219.453125 162.515625 219.441406 162.519531 Z M 219.230469 162.707031 C 219.363281 162.558594 219.410156 162.523438 219.441406 162.519531 C 217.90625 162.425781 216.46875 163.539062 215.910156 164.976562 C 215.347656 166.421875 215.597656 168.105469 216.355469 169.457031 C 216.527344 166.972656 217.554688 164.550781 219.230469 162.707031 Z M 233.183594 155.9375 C 233.144531 155.984375 233.109375 156.035156 232.972656 155.871094 C 231.664062 157.699219 230.085938 159.339844 228.3125 160.722656 C 229.617188 160.527344 230.945312 160.195312 231.980469 159.378906 C 233.015625 158.5625 233.683594 157.160156 233.183594 155.9375 Z M 246.847656 163.039062 C 247.238281 162.15625 247.4375 160.988281 246.640625 160.28125 C 246.234375 162.277344 245.238281 164.152344 243.8125 165.609375 C 245.214844 165.578125 246.28125 164.320312 246.847656 163.039062 Z M 251.722656 161.695312 C 251.449219 162.191406 251.433594 162.785156 251.449219 163.351562 C 251.488281 164.566406 251.730469 165.902344 252.6875 166.65625 C 252.351562 164.847656 252.558594 162.945312 253.273438 161.25 C 252.582031 160.828125 251.992188 161.195312 251.722656 161.695312 Z M 234.691406 143 C 234.285156 144.984375 234.671875 147.054688 235.367188 148.957031 C 235.433594 149.148438 235.589844 149.378906 235.777344 149.308594 C 236.058594 148.359375 235.933594 147.351562 235.929688 146.359375 C 235.921875 143.496094 237.011719 140.640625 238.929688 138.511719 C 238.394531 138.496094 238.355469 138.492188 238.316406 138.484375 C 236.402344 139.140625 235.09375 141.015625 234.691406 143 Z M 252.25 145.488281 C 251.921875 148.269531 250.492188 150.90625 248.34375 152.699219 C 249.042969 152.828125 249.789062 152.707031 250.414062 152.355469 C 250.894531 152.082031 251.296875 151.6875 251.683594 151.292969 C 252.167969 150.800781 252.648438 150.304688 253.058594 149.746094 C 253.59375 149.015625 254.007812 148.128906 253.921875 147.222656 C 253.832031 146.316406 253.101562 145.433594 252.25 145.488281 Z M 252.25 145.488281 " fill-opacity="1" fill-rule="nonzero"/><g clip-path="url(#a0e30da8a7)"><path fill="#ffffff" d="M -102.796875 -89.117188 L 115.484375 -89.117188 L 115.484375 443.804688 L -102.796875 443.804688 Z M -102.796875 -89.117188 " fill-opacity="1" fill-rule="nonzero"/></g><g clip-path="url(#69001092f4)"><path fill="#ffffff" d="M 267.953125 -73.457031 L 486.238281 -73.457031 L 486.238281 459.464844 L 267.953125 459.464844 Z M 267.953125 -73.457031 " fill-opacity="1" fill-rule="nonzero"/></g><g clip-path="url(#31e7aca53d)"><path fill="#ffffff" d="M -61.136719 49.921875 L -61.136719 -168.363281 L 471.785156 -168.363281 L 471.785156 49.921875 Z M -61.136719 49.921875 " fill-opacity="1" fill-rule="nonzero"/></g><g clip-path="url(#cc85ce29e6)"><path fill="#ffffff" d="M -69.441406 561.1875 L -69.441406 342.902344 L 463.480469 342.902344 L 463.480469 561.1875 Z M -69.441406 561.1875 " fill-opacity="1" fill-rule="nonzero"/></g><g clip-path="url(#7337b587e7)"><path fill="#000000" d="M 188.351562 376.933594 C 86.835938 376.933594 4.601562 294.132812 4.601562 193.183594 C 4.601562 92.234375 86.835938 9.433594 188.351562 9.433594 C 289.867188 9.433594 372.101562 91.667969 372.101562 193.183594 C 372.101562 294.699219 289.300781 376.933594 188.351562 376.933594 Z M 188.351562 20.777344 C 93.074219 20.777344 15.945312 97.90625 15.945312 193.183594 C 15.945312 288.460938 93.074219 365.589844 188.351562 365.589844 C 283.628906 365.589844 360.757812 288.460938 360.757812 193.183594 C 360.757812 97.90625 283.0625 20.777344 188.351562 20.777344 Z M 188.351562 20.777344 " fill-opacity="1" fill-rule="nonzero"/></g></svg>