<svg xmlns="http://www.w3.org/2000/svg" xmlns:xlink="http://www.w3.org/1999/xlink" width="500" zoomAndPan="magnify" viewBox="0 0 375 374.999991" height="500" preserveAspectRatio="xMidYMid meet" version="1.0"><defs><filter x="0%" y="0%" width="100%" height="100%" id="1e3c3dc2c3"><feColorMatrix values="0 0 0 0 1 0 0 0 0 1 0 0 0 0 1 0 0 0 1 0" color-interpolation-filters="sRGB"/></filter><clipPath id="474f071b57"><path d="M 178 92.046875 L 209 92.046875 L 209 124 L 178 124 Z M 178 92.046875 " clip-rule="nonzero"/></clipPath><clipPath id="7b466c741e"><path d="M 193 92.046875 L 208 92.046875 L 208 124 L 193 124 Z M 193 92.046875 " clip-rule="nonzero"/></clipPath><mask id="17aceda8c7"><g filter="url(#1e3c3dc2c3)"><rect x="-37.5" width="450" fill="#000000" y="-37.499999" height="449.999989" fill-opacity="0.55"/></g></mask><clipPath id="7188ea6881"><path d="M 0.441406 0 L 9.800781 0 L 9.800781 25.441406 L 0.441406 25.441406 Z M 0.441406 0 " clip-rule="nonzero"/></clipPath><clipPath id="885f6628bd"><rect x="0" width="10" y="0" height="26"/></clipPath><mask id="a0c8ca6140"><g filter="url(#1e3c3dc2c3)"><rect x="-37.5" width="450" fill="#000000" y="-37.499999" height="449.999989" fill-opacity="0.55"/></g></mask><clipPath id="a9c82d1790"><path d="M 0.320312 0.160156 L 15.441406 0.160156 L 15.441406 18 L 0.320312 18 Z M 0.320312 0.160156 " clip-rule="nonzero"/></clipPath><clipPath id="d2f9e53517"><rect x="0" width="16" y="0" height="19"/></clipPath><mask id="ad932a19f5"><g filter="url(#1e3c3dc2c3)"><rect x="-37.5" width="450" fill="#000000" y="-37.499999" height="449.999989" fill-opacity="0.55"/></g></mask><clipPath id="003cc2a7f5"><path d="M 0.839844 0.441406 L 10.921875 0.441406 L 10.921875 62.601562 L 0.839844 62.601562 Z M 0.839844 0.441406 " clip-rule="nonzero"/></clipPath><clipPath id="bb0d47da54"><rect x="0" width="11" y="0" height="63"/></clipPath><mask id="efd54e4ba8"><g filter="url(#1e3c3dc2c3)"><rect x="-37.5" width="450" fill="#000000" y="-37.499999" height="449.999989" fill-opacity="0.55"/></g></mask><clipPath id="b483d0ef86"><path d="M 0.558594 1 L 37.28125 1 L 37.28125 5 L 0.558594 5 Z M 0.558594 1 " clip-rule="nonzero"/></clipPath><clipPath id="de326a0ce0"><rect x="0" width="38" y="0" height="6"/></clipPath><clipPath id="9376f323a5"><path d="M 156.5 234.800781 L 230.449219 234.800781 L 230.449219 276.136719 L 156.5 276.136719 Z M 156.5 234.800781 " clip-rule="nonzero"/></clipPath><clipPath id="4b154ed28f"><path d="M 173.75 234.800781 L 213.183594 234.800781 C 222.710938 234.800781 230.433594 242.523438 230.433594 252.050781 L 230.433594 258.886719 C 230.433594 268.414062 222.710938 276.136719 213.183594 276.136719 L 173.75 276.136719 C 164.222656 276.136719 156.5 268.414062 156.5 258.886719 L 156.5 252.050781 C 156.5 242.523438 164.222656 234.800781 173.75 234.800781 Z M 173.75 234.800781 " clip-rule="nonzero"/></clipPath></defs><path fill="#000000" d="M 242.328125 232.722656 C 242.023438 217.898438 226.628906 217.941406 226.457031 205.425781 C 226.28125 192.648438 239.320312 190.949219 236.441406 177.867188 C 232.429688 159.636719 216.46875 144.855469 216.46875 144.855469 L 169.722656 144.855469 C 169.722656 144.855469 153.71875 159.679688 149.75 177.867188 C 146.871094 190.90625 159.910156 192.648438 159.734375 205.425781 C 159.605469 217.898438 144.167969 217.898438 143.863281 232.722656 C 143.558594 248.292969 140.199219 294.472656 145.433594 298.789062 C 149.183594 301.886719 157.117188 303.71875 166.015625 304.371094 C 174.910156 305.027344 211.191406 305.027344 220.089844 304.371094 C 228.984375 303.71875 236.921875 301.886719 240.671875 298.789062 C 245.992188 294.472656 242.632812 248.335938 242.328125 232.722656 Z M 242.328125 232.722656 " fill-opacity="1" fill-rule="nonzero"/><path fill="#000000" d="M 243.070312 232.722656 C 242.765625 217.898438 227.371094 217.941406 227.195312 205.425781 C 227.023438 192.648438 240.0625 190.949219 237.183594 177.867188 C 233.171875 159.636719 217.210938 144.855469 217.210938 144.855469 L 211.933594 144.855469 C 216.949219 150.480469 225.234375 161.339844 227.9375 173.722656 C 230.816406 186.761719 217.777344 188.507812 217.953125 201.285156 C 218.082031 213.753906 233.519531 213.753906 233.824219 228.582031 C 234.128906 244.148438 237.488281 290.332031 232.253906 294.648438 C 228.503906 297.742188 220.566406 299.574219 211.671875 300.230469 C 202.777344 300.882812 166.496094 300.882812 157.597656 300.230469 C 153.410156 299.925781 149.398438 299.355469 146 298.484375 C 146.085938 298.617188 146.171875 298.703125 146.304688 298.789062 C 150.054688 301.886719 157.992188 303.71875 166.886719 304.371094 C 175.78125 305.027344 212.066406 305.027344 220.960938 304.371094 C 229.855469 303.71875 237.792969 301.886719 241.542969 298.789062 C 246.734375 294.472656 243.375 248.335938 243.070312 232.722656 Z M 243.070312 232.722656 " fill-opacity="1" fill-rule="nonzero"/><path fill="#000000" d="M 221.179688 146.640625 L 165.011719 146.640625 L 165.011719 133.953125 C 165.011719 128.195312 169.679688 123.53125 175.433594 123.53125 L 210.800781 123.53125 C 216.554688 123.53125 221.222656 128.195312 221.222656 133.953125 L 221.222656 146.640625 Z M 221.179688 146.640625 " fill-opacity="1" fill-rule="nonzero"/><path fill="#000000" d="M 215.816406 123.53125 L 209.621094 123.53125 C 212.589844 123.53125 215.03125 125.929688 215.03125 128.9375 L 215.03125 146.640625 L 221.222656 146.640625 L 221.222656 128.9375 C 221.179688 125.929688 218.78125 123.53125 215.816406 123.53125 Z M 215.816406 123.53125 " fill-opacity="1" fill-rule="nonzero"/><g clip-path="url(#474f071b57)"><path fill="#000000" d="M 202.035156 95.621094 C 201.597656 93.570312 199.765625 92.132812 197.675781 92.132812 L 188.515625 92.132812 C 186.421875 92.132812 184.636719 93.570312 184.15625 95.621094 L 178.007812 123.53125 L 208.183594 123.53125 Z M 202.035156 95.621094 " fill-opacity="1" fill-rule="nonzero"/></g><g clip-path="url(#7b466c741e)"><path fill="#000000" d="M 201.816406 95.621094 C 201.378906 93.570312 199.550781 92.132812 197.457031 92.132812 L 193.09375 92.132812 C 195.1875 92.132812 196.976562 93.570312 197.457031 95.621094 L 203.605469 123.53125 L 207.964844 123.53125 Z M 201.816406 95.621094 " fill-opacity="1" fill-rule="nonzero"/></g><path fill="#000000" d="M 168.019531 146.640625 L 218.953125 146.640625 L 222.964844 154.097656 L 221.179688 157.5 C 221.179688 157.5 219.871094 153.183594 212.328125 151.222656 C 204.824219 149.257812 166.582031 148.125 166.582031 148.125 Z M 168.019531 146.640625 " fill-opacity="1" fill-rule="nonzero"/><path fill="#000000" d="M 220.261719 230.980469 C 218.257812 218.074219 212.894531 212.183594 212.5 204.203125 C 212.109375 196.226562 219.523438 184.363281 220.875 180.21875 C 222.226562 176.078125 215.421875 172.457031 205.394531 170.410156 C 198.894531 169.058594 183.761719 167.878906 175.78125 169.886719 C 167.367188 171.980469 158.992188 175.597656 160.300781 179.742188 C 161.609375 183.882812 169.15625 195.65625 168.632812 203.636719 C 168.109375 211.617188 162.351562 217.636719 160.171875 230.542969 C 157.992188 243.410156 158.078125 270.707031 158.949219 271.492188 C 159.691406 272.101562 222.226562 272.667969 223.011719 272.058594 C 223.882812 271.273438 222.226562 243.933594 220.261719 230.980469 Z M 220.261719 230.980469 " fill-opacity="1" fill-rule="nonzero"/><path fill="#000000" d="M 186.945312 172.414062 C 193.269531 172.414062 199.679688 173.15625 202.949219 173.898438 C 209.535156 175.335938 214.289062 177.515625 215.554688 179.742188 C 215.859375 180.308594 215.945312 180.789062 215.769531 181.3125 C 215.464844 182.3125 214.679688 184.015625 213.808594 185.933594 C 211.324219 191.339844 207.878906 198.710938 208.183594 204.511719 C 208.359375 208.390625 209.621094 211.707031 211.105469 215.542969 C 212.589844 219.46875 214.289062 223.871094 215.203125 230.019531 C 215.988281 235.296875 216.773438 243.757812 217.339844 252.609375 C 217.863281 260.808594 217.953125 265.429688 217.863281 267.21875 C 216.554688 267.261719 213.371094 267.347656 205.699219 267.347656 C 189.125 267.347656 167.324219 267 162.613281 266.695312 C 162.394531 264.734375 162.265625 259.457031 162.394531 252.042969 C 162.570312 242.753906 163.136719 234.554688 163.964844 229.542969 C 164.96875 223.390625 166.800781 218.945312 168.414062 214.976562 C 169.984375 211.136719 171.378906 207.824219 171.597656 203.941406 C 171.945312 198.230469 168.542969 190.949219 166.058594 185.628906 C 165.097656 183.621094 164.3125 181.878906 164.007812 180.832031 C 163.921875 180.570312 163.878906 180.175781 164.183594 179.609375 C 165.359375 177.515625 170.246094 175.117188 176.917969 173.375 C 179.359375 172.71875 182.804688 172.414062 186.945312 172.414062 Z M 187.644531 170.933594 C 183.761719 170.933594 180.054688 171.195312 177.265625 171.933594 C 169.679688 173.941406 162.132812 177.34375 163.3125 181.265625 C 164.488281 185.191406 171.292969 196.3125 170.8125 203.855469 C 170.332031 211.398438 165.140625 217.113281 163.179688 229.28125 C 161.21875 241.445312 161.261719 267.304688 162.089844 268.003906 C 162.570312 268.394531 189.476562 268.789062 206.394531 268.789062 C 214.027344 268.789062 219.609375 268.699219 219.828125 268.527344 C 220.65625 267.828125 219.171875 241.925781 217.386719 229.714844 C 215.597656 217.503906 210.710938 211.921875 210.363281 204.378906 C 210.015625 196.835938 216.6875 185.585938 217.90625 181.703125 C 219.128906 177.777344 212.980469 174.378906 203.953125 172.414062 C 200.335938 171.628906 193.792969 170.933594 187.644531 170.933594 Z M 187.644531 170.933594 " fill-opacity="1" fill-rule="nonzero"/><path fill="#000000" d="M 180.449219 219.03125 L 179.054688 223.742188 L 179.054688 226.402344 L 177.265625 226.402344 L 177.265625 223.742188 L 175.914062 219.03125 L 177.65625 219.03125 C 177.917969 220.472656 178.09375 221.429688 178.136719 221.953125 C 178.226562 221.167969 178.441406 220.210938 178.660156 219.03125 Z M 180.449219 219.03125 " fill-opacity="1" fill-rule="nonzero"/><path fill="#000000" d="M 180.753906 219.03125 L 183.9375 219.03125 L 183.9375 220.515625 L 182.671875 220.515625 L 182.671875 221.910156 L 183.851562 221.910156 L 183.851562 223.304688 L 182.671875 223.304688 L 182.671875 224.917969 L 184.070312 224.917969 L 184.070312 226.402344 L 180.753906 226.402344 Z M 180.753906 219.03125 " fill-opacity="1" fill-rule="nonzero"/><path fill="#000000" d="M 186.554688 219.03125 L 186.554688 224.917969 L 187.730469 224.917969 L 187.730469 226.402344 L 184.636719 226.402344 L 184.636719 219.03125 Z M 186.554688 219.03125 " fill-opacity="1" fill-rule="nonzero"/><path fill="#000000" d="M 190.085938 219.03125 L 190.085938 224.917969 L 191.265625 224.917969 L 191.265625 226.402344 L 188.167969 226.402344 L 188.167969 219.03125 Z M 190.085938 219.03125 " fill-opacity="1" fill-rule="nonzero"/><path fill="#000000" d="M 195.929688 223.347656 C 195.929688 224.089844 195.929688 224.613281 195.886719 224.917969 C 195.84375 225.222656 195.753906 225.527344 195.539062 225.746094 C 195.363281 226.007812 195.101562 226.183594 194.796875 226.3125 C 194.492188 226.445312 194.097656 226.53125 193.707031 226.53125 C 193.3125 226.53125 192.964844 226.488281 192.660156 226.359375 C 192.355469 226.226562 192.09375 226.050781 191.917969 225.789062 C 191.742188 225.527344 191.613281 225.269531 191.570312 224.960938 C 191.523438 224.65625 191.523438 224.132812 191.523438 223.390625 L 191.523438 222.128906 C 191.523438 221.386719 191.523438 220.863281 191.570312 220.558594 C 191.613281 220.253906 191.699219 219.949219 191.917969 219.730469 C 192.09375 219.46875 192.355469 219.292969 192.660156 219.164062 C 192.964844 219.03125 193.355469 218.945312 193.75 218.945312 C 194.140625 218.945312 194.492188 218.988281 194.796875 219.117188 C 195.101562 219.25 195.363281 219.425781 195.539062 219.6875 C 195.710938 219.949219 195.84375 220.210938 195.886719 220.515625 C 195.929688 220.820312 195.929688 221.34375 195.929688 222.085938 Z M 194.054688 220.90625 C 194.054688 220.558594 194.054688 220.339844 194.011719 220.253906 C 193.96875 220.164062 193.878906 220.121094 193.792969 220.121094 C 193.707031 220.121094 193.617188 220.164062 193.574219 220.253906 C 193.53125 220.339844 193.488281 220.558594 193.488281 220.949219 L 193.488281 224.394531 C 193.488281 224.832031 193.488281 225.09375 193.53125 225.179688 C 193.574219 225.269531 193.664062 225.3125 193.792969 225.3125 C 193.921875 225.3125 194.011719 225.269531 194.054688 225.136719 C 194.097656 225.007812 194.097656 224.746094 194.097656 224.308594 L 194.097656 220.90625 Z M 194.054688 220.90625 " fill-opacity="1" fill-rule="nonzero"/><path fill="#000000" d="M 203.867188 219.03125 L 202.996094 226.402344 L 200.640625 226.402344 C 200.421875 225.269531 200.246094 224.003906 200.074219 222.519531 C 199.984375 223.128906 199.8125 224.4375 199.550781 226.402344 L 197.152344 226.402344 L 196.277344 219.03125 L 198.152344 219.03125 L 198.371094 221.605469 L 198.546875 224.089844 C 198.632812 222.824219 198.808594 221.125 199.070312 219.03125 L 201.074219 219.03125 C 201.117188 219.25 201.164062 220.035156 201.292969 221.472656 L 201.511719 224.265625 C 201.597656 222.476562 201.816406 220.730469 202.035156 219.03125 Z M 203.867188 219.03125 " fill-opacity="1" fill-rule="nonzero"/><path fill="#000000" d="M 178.269531 231.722656 L 178.269531 239.089844 L 176.613281 239.089844 L 176.613281 234.121094 L 175.957031 239.089844 L 174.78125 239.089844 L 174.082031 234.25 L 174.082031 239.089844 L 172.425781 239.089844 L 172.425781 231.722656 L 174.910156 231.722656 C 174.996094 232.15625 175.042969 232.679688 175.128906 233.292969 L 175.390625 235.167969 L 175.828125 231.722656 Z M 178.269531 231.722656 " fill-opacity="1" fill-rule="nonzero"/><path fill="#000000" d="M 183.414062 231.722656 L 183.414062 236.648438 C 183.414062 237.214844 183.414062 237.609375 183.371094 237.828125 C 183.328125 238.042969 183.238281 238.261719 183.066406 238.523438 C 182.890625 238.742188 182.628906 238.960938 182.367188 239.046875 C 182.0625 239.179688 181.714844 239.222656 181.320312 239.222656 C 180.886719 239.222656 180.492188 239.136719 180.144531 239.003906 C 179.792969 238.875 179.578125 238.65625 179.402344 238.4375 C 179.226562 238.21875 179.140625 237.957031 179.097656 237.695312 C 179.054688 237.433594 179.054688 236.910156 179.054688 236.082031 L 179.054688 231.722656 L 180.972656 231.722656 L 180.972656 237.261719 C 180.972656 237.566406 180.972656 237.78125 181.015625 237.871094 C 181.058594 237.957031 181.101562 238 181.234375 238 C 181.363281 238 181.453125 237.957031 181.453125 237.871094 C 181.496094 237.78125 181.496094 237.519531 181.496094 237.171875 L 181.496094 231.722656 Z M 183.414062 231.722656 " fill-opacity="1" fill-rule="nonzero"/><path fill="#000000" d="M 188.210938 233.945312 L 186.421875 233.945312 L 186.421875 233.378906 C 186.421875 233.117188 186.378906 232.941406 186.335938 232.898438 C 186.292969 232.8125 186.207031 232.8125 186.117188 232.8125 C 185.988281 232.8125 185.898438 232.855469 185.855469 232.941406 C 185.8125 233.03125 185.769531 233.160156 185.769531 233.378906 C 185.769531 233.640625 185.8125 233.816406 185.855469 233.945312 C 185.898438 234.078125 186.117188 234.207031 186.378906 234.382812 C 187.25 234.90625 187.773438 235.296875 187.992188 235.644531 C 188.210938 235.953125 188.34375 236.476562 188.34375 237.214844 C 188.34375 237.738281 188.296875 238.132812 188.167969 238.394531 C 188.035156 238.65625 187.820312 238.828125 187.46875 239.003906 C 187.121094 239.179688 186.726562 239.265625 186.25 239.265625 C 185.726562 239.265625 185.289062 239.179688 184.941406 238.960938 C 184.589844 238.785156 184.328125 238.523438 184.242188 238.21875 C 184.113281 237.914062 184.070312 237.476562 184.070312 236.953125 L 184.070312 236.476562 L 185.855469 236.476562 L 185.855469 237.390625 C 185.855469 237.652344 185.898438 237.828125 185.945312 237.914062 C 185.988281 238 186.074219 238.042969 186.207031 238.042969 C 186.335938 238.042969 186.421875 238 186.511719 237.914062 C 186.554688 237.828125 186.597656 237.652344 186.597656 237.476562 C 186.597656 237.042969 186.554688 236.78125 186.421875 236.605469 C 186.292969 236.476562 185.988281 236.257812 185.507812 235.953125 C 185.027344 235.644531 184.722656 235.429688 184.546875 235.253906 C 184.375 235.121094 184.285156 234.90625 184.15625 234.644531 C 184.070312 234.382812 184.023438 234.078125 184.023438 233.683594 C 184.023438 233.117188 184.113281 232.722656 184.242188 232.464844 C 184.375 232.203125 184.636719 231.984375 184.941406 231.851562 C 185.246094 231.722656 185.636719 231.632812 186.117188 231.632812 C 186.597656 231.632812 187.035156 231.722656 187.382812 231.894531 C 187.730469 232.070312 187.949219 232.246094 188.082031 232.507812 C 188.210938 232.769531 188.253906 233.160156 188.253906 233.769531 L 188.253906 233.945312 Z M 188.210938 233.945312 " fill-opacity="1" fill-rule="nonzero"/><path fill="#000000" d="M 192.832031 231.722656 L 192.832031 233.203125 L 191.699219 233.203125 L 191.699219 239.089844 L 189.78125 239.089844 L 189.78125 233.203125 L 188.648438 233.203125 L 188.648438 231.722656 Z M 192.832031 231.722656 " fill-opacity="1" fill-rule="nonzero"/><path fill="#000000" d="M 196.191406 231.722656 L 197.28125 239.089844 L 195.320312 239.089844 L 195.230469 237.78125 L 194.535156 237.78125 L 194.402344 239.089844 L 192.441406 239.089844 L 193.402344 231.722656 Z M 195.1875 236.429688 C 195.101562 235.601562 195.015625 234.554688 194.882812 233.335938 C 194.707031 234.730469 194.578125 235.777344 194.535156 236.429688 Z M 195.1875 236.429688 " fill-opacity="1" fill-rule="nonzero"/><path fill="#000000" d="M 197.585938 231.722656 L 198.9375 231.722656 C 199.855469 231.722656 200.464844 231.765625 200.769531 231.808594 C 201.074219 231.894531 201.335938 232.070312 201.554688 232.332031 C 201.773438 232.636719 201.859375 233.074219 201.859375 233.683594 C 201.859375 234.25 201.773438 234.644531 201.640625 234.816406 C 201.511719 235.035156 201.207031 235.121094 200.8125 235.167969 C 201.207031 235.253906 201.46875 235.382812 201.597656 235.558594 C 201.730469 235.734375 201.816406 235.863281 201.859375 235.996094 C 201.902344 236.125 201.902344 236.476562 201.902344 237.085938 L 201.902344 239.046875 L 200.117188 239.046875 L 200.117188 236.605469 C 200.117188 236.214844 200.074219 235.953125 200.027344 235.863281 C 199.984375 235.777344 199.8125 235.734375 199.550781 235.734375 L 199.550781 239.046875 L 197.585938 239.046875 Z M 199.503906 232.941406 L 199.503906 234.601562 C 199.722656 234.601562 199.855469 234.554688 199.941406 234.511719 C 200.027344 234.46875 200.074219 234.25 200.074219 233.945312 L 200.074219 233.554688 C 200.074219 233.335938 200.027344 233.160156 199.941406 233.074219 C 199.898438 232.984375 199.722656 232.941406 199.503906 232.941406 Z M 199.503906 232.941406 " fill-opacity="1" fill-rule="nonzero"/><path fill="#000000" d="M 202.601562 231.722656 L 204.039062 231.722656 C 204.957031 231.722656 205.609375 231.765625 205.914062 231.851562 C 206.222656 231.941406 206.484375 232.070312 206.65625 232.289062 C 206.832031 232.464844 206.917969 232.679688 206.960938 232.941406 C 207.007812 233.160156 207.007812 233.640625 207.007812 234.339844 L 207.007812 236.910156 C 207.007812 237.566406 206.960938 238 206.917969 238.21875 C 206.875 238.4375 206.746094 238.613281 206.613281 238.742188 C 206.4375 238.875 206.265625 238.960938 206.046875 239.003906 C 205.828125 239.046875 205.480469 239.089844 205 239.089844 L 202.601562 239.089844 Z M 204.519531 232.941406 L 204.519531 237.828125 C 204.78125 237.828125 204.957031 237.78125 205.042969 237.652344 C 205.085938 237.519531 205.132812 237.261719 205.132812 236.738281 L 205.132812 233.859375 C 205.132812 233.507812 205.132812 233.292969 205.085938 233.203125 C 205.085938 233.117188 205 233.03125 204.957031 232.984375 C 204.871094 232.984375 204.738281 232.941406 204.519531 232.941406 Z M 204.519531 232.941406 " fill-opacity="1" fill-rule="nonzero"/><path fill="#000000" d="M 211.804688 248.554688 L 168.371094 248.554688 C 166.886719 248.554688 165.664062 247.332031 165.664062 245.851562 C 165.664062 244.367188 166.886719 243.148438 168.371094 243.148438 L 211.804688 243.148438 C 213.285156 243.148438 214.507812 244.367188 214.507812 245.851562 C 214.507812 247.332031 213.328125 248.554688 211.804688 248.554688 Z M 211.804688 248.554688 " fill-opacity="1" fill-rule="nonzero"/><path fill="#000000" d="M 185.683594 176.46875 L 185.683594 183.839844 L 183.851562 183.839844 L 183.851562 179.871094 C 183.851562 179.304688 183.851562 178.957031 183.808594 178.824219 C 183.761719 178.695312 183.71875 178.605469 183.589844 178.5625 C 183.457031 178.519531 183.195312 178.476562 182.761719 178.476562 L 182.585938 178.476562 L 182.585938 177.605469 C 183.457031 177.429688 184.15625 177.039062 184.589844 176.425781 L 185.683594 176.425781 Z M 185.683594 176.46875 " fill-opacity="1" fill-rule="nonzero"/><path fill="#000000" d="M 190.695312 178.957031 L 190.695312 181.398438 C 190.695312 181.964844 190.652344 182.359375 190.609375 182.617188 C 190.566406 182.878906 190.433594 183.097656 190.21875 183.316406 C 190.042969 183.535156 189.78125 183.710938 189.519531 183.796875 C 189.257812 183.882812 188.953125 183.925781 188.605469 183.925781 C 188.167969 183.925781 187.820312 183.882812 187.511719 183.796875 C 187.207031 183.710938 186.988281 183.535156 186.816406 183.316406 C 186.640625 183.097656 186.511719 182.878906 186.46875 182.617188 C 186.378906 182.402344 186.335938 182.007812 186.335938 181.484375 L 186.335938 178.957031 C 186.335938 178.257812 186.378906 177.777344 186.511719 177.429688 C 186.640625 177.082031 186.859375 176.820312 187.207031 176.601562 C 187.558594 176.382812 187.992188 176.296875 188.472656 176.296875 C 188.867188 176.296875 189.257812 176.382812 189.5625 176.515625 C 189.867188 176.644531 190.128906 176.820312 190.261719 177.039062 C 190.433594 177.253906 190.523438 177.472656 190.566406 177.734375 C 190.695312 177.996094 190.695312 178.390625 190.695312 178.957031 Z M 188.867188 178.34375 C 188.867188 177.953125 188.867188 177.691406 188.820312 177.605469 C 188.777344 177.515625 188.691406 177.472656 188.558594 177.472656 C 188.429688 177.472656 188.34375 177.515625 188.296875 177.648438 C 188.253906 177.734375 188.210938 177.996094 188.210938 178.390625 L 188.210938 181.964844 C 188.210938 182.402344 188.210938 182.664062 188.253906 182.75 C 188.296875 182.835938 188.386719 182.878906 188.515625 182.878906 C 188.648438 182.878906 188.734375 182.835938 188.777344 182.707031 C 188.820312 182.617188 188.820312 182.359375 188.820312 182.007812 L 188.820312 178.34375 Z M 188.867188 178.34375 " fill-opacity="1" fill-rule="nonzero"/><path fill="#000000" d="M 195.710938 178.957031 L 195.710938 181.398438 C 195.710938 181.964844 195.667969 182.359375 195.625 182.617188 C 195.582031 182.878906 195.449219 183.097656 195.230469 183.316406 C 195.058594 183.535156 194.796875 183.710938 194.535156 183.796875 C 194.273438 183.882812 193.96875 183.925781 193.617188 183.925781 C 193.183594 183.925781 192.832031 183.882812 192.527344 183.796875 C 192.222656 183.710938 192.003906 183.535156 191.832031 183.316406 C 191.65625 183.097656 191.523438 182.878906 191.480469 182.617188 C 191.394531 182.402344 191.351562 182.007812 191.351562 181.484375 L 191.351562 178.957031 C 191.351562 178.257812 191.394531 177.777344 191.523438 177.429688 C 191.65625 177.082031 191.875 176.820312 192.222656 176.601562 C 192.570312 176.382812 193.007812 176.296875 193.488281 176.296875 C 193.878906 176.296875 194.273438 176.382812 194.578125 176.515625 C 194.882812 176.644531 195.144531 176.820312 195.277344 177.039062 C 195.449219 177.253906 195.539062 177.472656 195.582031 177.734375 C 195.667969 177.996094 195.710938 178.390625 195.710938 178.957031 Z M 193.878906 178.34375 C 193.878906 177.953125 193.878906 177.691406 193.835938 177.605469 C 193.792969 177.515625 193.707031 177.472656 193.574219 177.472656 C 193.445312 177.472656 193.355469 177.515625 193.3125 177.648438 C 193.269531 177.734375 193.226562 177.996094 193.226562 178.390625 L 193.226562 181.964844 C 193.226562 182.402344 193.226562 182.664062 193.269531 182.75 C 193.3125 182.835938 193.402344 182.878906 193.53125 182.878906 C 193.664062 182.878906 193.75 182.835938 193.792969 182.707031 C 193.835938 182.617188 193.835938 182.359375 193.835938 182.007812 L 193.835938 178.34375 Z M 193.878906 178.34375 " fill-opacity="1" fill-rule="nonzero"/><path fill="#000000" d="M 198.894531 177.734375 L 198.894531 179 C 198.894531 179.347656 198.851562 179.566406 198.808594 179.742188 C 198.765625 179.914062 198.632812 180.046875 198.414062 180.175781 C 198.199219 180.308594 197.9375 180.351562 197.585938 180.351562 C 197.195312 180.351562 196.890625 180.308594 196.714844 180.175781 C 196.496094 180.046875 196.367188 179.914062 196.320312 179.742188 C 196.234375 179.566406 196.234375 179.347656 196.234375 179.042969 L 196.234375 177.734375 C 196.234375 177.386719 196.277344 177.082031 196.367188 176.90625 C 196.453125 176.730469 196.582031 176.601562 196.800781 176.46875 C 197.019531 176.339844 197.28125 176.296875 197.585938 176.296875 C 197.9375 176.296875 198.199219 176.339844 198.414062 176.46875 C 198.632812 176.601562 198.765625 176.730469 198.851562 176.90625 C 198.894531 177.125 198.894531 177.386719 198.894531 177.734375 Z M 197.761719 177.386719 C 197.761719 177.210938 197.761719 177.082031 197.71875 177.039062 C 197.71875 176.992188 197.628906 176.949219 197.542969 176.949219 C 197.457031 176.949219 197.414062 176.992188 197.367188 177.039062 C 197.324219 177.082031 197.324219 177.210938 197.324219 177.386719 L 197.324219 179.261719 C 197.324219 179.480469 197.324219 179.609375 197.367188 179.652344 C 197.367188 179.699219 197.457031 179.699219 197.542969 179.699219 C 197.628906 179.699219 197.675781 179.652344 197.675781 179.609375 C 197.71875 179.566406 197.71875 179.4375 197.71875 179.261719 L 197.71875 177.386719 Z M 201.03125 176.339844 L 198.152344 183.972656 L 197.457031 183.972656 L 200.335938 176.339844 Z M 202.339844 181.265625 L 202.339844 182.53125 C 202.339844 182.878906 202.296875 183.097656 202.253906 183.273438 C 202.210938 183.449219 202.078125 183.578125 201.859375 183.710938 C 201.640625 183.839844 201.378906 183.882812 201.03125 183.882812 C 200.640625 183.882812 200.335938 183.839844 200.160156 183.710938 C 199.941406 183.578125 199.8125 183.449219 199.765625 183.273438 C 199.679688 183.097656 199.679688 182.878906 199.679688 182.574219 L 199.679688 181.265625 C 199.679688 180.917969 199.722656 180.65625 199.8125 180.480469 C 199.898438 180.308594 200.027344 180.175781 200.246094 180.046875 C 200.464844 179.914062 200.726562 179.871094 201.03125 179.871094 C 201.378906 179.871094 201.640625 179.914062 201.859375 180.046875 C 202.078125 180.175781 202.210938 180.308594 202.296875 180.480469 C 202.296875 180.65625 202.339844 180.917969 202.339844 181.265625 Z M 201.164062 180.960938 C 201.164062 180.789062 201.164062 180.65625 201.117188 180.613281 C 201.117188 180.570312 201.03125 180.527344 200.945312 180.527344 C 200.859375 180.527344 200.8125 180.570312 200.769531 180.613281 C 200.726562 180.65625 200.726562 180.789062 200.726562 180.960938 L 200.726562 182.835938 C 200.726562 183.054688 200.726562 183.1875 200.769531 183.230469 C 200.769531 183.273438 200.859375 183.273438 200.945312 183.273438 C 201.03125 183.273438 201.074219 183.230469 201.117188 183.1875 C 201.117188 183.140625 201.164062 183.011719 201.164062 182.835938 Z M 201.164062 180.960938 " fill-opacity="1" fill-rule="nonzero"/><path fill="#000000" d="M 189.5625 211.75 C 189.5625 207.039062 189.648438 202.328125 189.78125 197.578125 C 189.824219 196.226562 189.867188 194.917969 189.910156 193.566406 C 189.957031 192.78125 188.734375 192.78125 188.691406 193.566406 C 188.515625 198.273438 188.386719 202.984375 188.34375 207.738281 C 188.34375 209.089844 188.34375 210.398438 188.296875 211.75 C 188.34375 212.535156 189.5625 212.535156 189.5625 211.75 Z M 189.5625 211.75 " fill-opacity="1" fill-rule="nonzero"/><path fill="#000000" d="M 188.691406 195.046875 C 187.558594 194.609375 187.164062 193.214844 187.035156 191.996094 C 186.945312 191.339844 186.902344 190.644531 186.988281 189.988281 C 187.121094 188.722656 187.730469 187.546875 188.648438 186.632812 C 189.824219 187.984375 190.261719 189.902344 190.21875 191.734375 C 190.171875 193.042969 189.695312 194.609375 188.648438 195.394531 Z M 188.691406 195.046875 " fill-opacity="1" fill-rule="nonzero"/><path fill="#000000" d="M 192.441406 194.917969 C 193.792969 194.480469 195.230469 194.351562 196.671875 194.351562 C 196.671875 195.089844 196.191406 195.703125 195.667969 196.226562 C 194.882812 197.007812 194.011719 197.707031 192.964844 198.101562 C 192.222656 198.40625 190.828125 198.839844 190.128906 198.230469 C 188.386719 196.792969 191.4375 195.265625 192.441406 194.917969 Z M 192.441406 194.917969 " fill-opacity="1" fill-rule="nonzero"/><path fill="#000000" d="M 192.527344 199.101562 C 193.878906 198.667969 195.320312 198.535156 196.757812 198.535156 C 196.757812 199.277344 196.277344 199.886719 195.753906 200.410156 C 194.96875 201.195312 194.097656 201.894531 193.050781 202.285156 C 192.308594 202.589844 190.914062 203.027344 190.21875 202.417969 C 188.472656 200.933594 191.523438 199.453125 192.527344 199.101562 Z M 192.527344 199.101562 " fill-opacity="1" fill-rule="nonzero"/><path fill="#000000" d="M 192.527344 204.203125 C 193.878906 203.769531 195.320312 203.636719 196.757812 203.636719 C 196.757812 204.378906 196.277344 204.988281 195.753906 205.511719 C 194.96875 206.296875 194.097656 206.996094 193.050781 207.386719 C 192.308594 207.695312 190.914062 208.128906 190.21875 207.519531 C 188.472656 206.035156 191.523438 204.554688 192.527344 204.203125 Z M 192.527344 204.203125 " fill-opacity="1" fill-rule="nonzero"/><path fill="#000000" d="M 187.296875 194.871094 C 185.945312 194.394531 184.546875 194.175781 183.109375 194.132812 C 183.109375 194.871094 183.546875 195.484375 184.070312 196.050781 C 184.808594 196.878906 185.683594 197.578125 186.683594 198.011719 C 187.425781 198.316406 188.820312 198.839844 189.519531 198.230469 C 191.308594 196.835938 188.296875 195.222656 187.296875 194.871094 Z M 187.296875 194.871094 " fill-opacity="1" fill-rule="nonzero"/><path fill="#000000" d="M 187.078125 199.015625 C 185.726562 198.535156 184.328125 198.316406 182.890625 198.273438 C 182.890625 199.015625 183.328125 199.625 183.851562 200.191406 C 184.589844 201.023438 185.464844 201.71875 186.46875 202.15625 C 187.207031 202.460938 188.605469 202.984375 189.300781 202.375 C 191.046875 201.023438 188.035156 199.363281 187.078125 199.015625 Z M 187.078125 199.015625 " fill-opacity="1" fill-rule="nonzero"/><path fill="#000000" d="M 186.859375 204.117188 C 185.507812 203.636719 184.113281 203.421875 182.671875 203.375 C 182.671875 204.117188 183.109375 204.726562 183.632812 205.296875 C 184.375 206.125 185.246094 206.820312 186.25 207.257812 C 186.988281 207.5625 188.386719 208.085938 189.082031 207.476562 C 190.828125 206.125 187.863281 204.511719 186.859375 204.117188 Z M 186.859375 204.117188 " fill-opacity="1" fill-rule="nonzero"/><g mask="url(#17aceda8c7)"><g transform="matrix(1, 0, 0, 1, 181, 96)"><g clip-path="url(#885f6628bd)"><g clip-path="url(#7188ea6881)"><path fill="#30343f" d="M 5.421875 1.671875 C 4.945312 2.542969 4.855469 3.546875 4.726562 4.503906 C 3.898438 11.003906 0.800781 17.152344 0.625 23.738281 C 0.625 24.085938 0.625 24.476562 0.84375 24.78125 C 1.148438 25.175781 1.671875 25.261719 2.152344 25.304688 C 3.503906 25.4375 5.117188 25.351562 5.816406 24.171875 C 6.078125 23.78125 6.164062 23.34375 6.296875 22.90625 C 7.820312 16.542969 8.824219 10.042969 9.21875 3.457031 C 9.433594 1.058594 7.167969 -1.382812 5.421875 1.671875 Z M 5.421875 1.671875 " fill-opacity="1" fill-rule="nonzero"/></g></g></g></g><g mask="url(#a0c8ca6140)"><g transform="matrix(1, 0, 0, 1, 160, 152)"><g clip-path="url(#d2f9e53517)"><g clip-path="url(#a9c82d1790)"><path fill="#30343f" d="M 2.003906 11.691406 C 1.4375 12.652344 0.824219 13.699219 0.738281 14.832031 C 0.605469 15.96875 1.085938 17.230469 2.089844 17.753906 C 3.179688 18.277344 4.488281 17.84375 5.449219 17.101562 C 6.496094 16.316406 7.324219 15.226562 8.109375 14.179688 C 10.199219 11.34375 12.292969 8.554688 14.429688 5.71875 C 17.046875 2.1875 13.121094 -0.953125 9.851562 1.402344 C 6.582031 3.714844 4.007812 8.335938 2.003906 11.691406 Z M 2.003906 11.691406 " fill-opacity="1" fill-rule="nonzero"/></g></g></g></g><g mask="url(#ad932a19f5)"><g transform="matrix(1, 0, 0, 1, 147, 229)"><g clip-path="url(#bb0d47da54)"><g clip-path="url(#003cc2a7f5)"><path fill="#30343f" d="M 1.09375 7.953125 C 2.617188 22.257812 2.707031 36.691406 1.355469 50.996094 C 1.09375 53.875 0.785156 56.96875 2.183594 59.542969 C 3.578125 62.070312 7.371094 63.46875 9.421875 61.417969 C 11.382812 59.457031 10.378906 56.183594 9.507812 53.523438 C 5.757812 42.359375 6.152344 30.457031 6.628906 18.855469 C 6.804688 14.625 8.765625 6.167969 6.585938 2.371094 C 5.671875 0.804688 4.011719 -0.0273438 2.355469 1.109375 C 0.394531 2.503906 0.875 5.949219 1.09375 7.953125 Z M 1.09375 7.953125 " fill-opacity="1" fill-rule="nonzero"/></g></g></g></g><g mask="url(#efd54e4ba8)"><g transform="matrix(1, 0, 0, 1, 166, 125)"><g clip-path="url(#de326a0ce0)"><g clip-path="url(#b483d0ef86)"><path fill="#30343f" d="M 1.324219 1.933594 C 0.710938 2.5 0.539062 3.546875 1.105469 4.113281 C 1.453125 4.503906 1.976562 4.636719 2.5 4.679688 C 4.460938 4.941406 6.46875 4.546875 8.429688 4.242188 C 16.976562 3.023438 25.699219 3.761719 34.335938 4.242188 C 35.378906 4.285156 36.777344 4.15625 37.039062 3.152344 C 37.257812 2.457031 36.734375 1.671875 36.078125 1.363281 C 35.425781 1.058594 34.640625 1.058594 33.898438 1.058594 C 28.140625 1.148438 22.386719 1.191406 16.628906 1.277344 C 13.75 1.320312 10.875 1.363281 7.996094 1.363281 C 6.25 1.410156 2.71875 0.625 1.324219 1.933594 Z M 1.324219 1.933594 " fill-opacity="1" fill-rule="nonzero"/></g></g></g></g><path fill="#000000" d="M 187.5 375 C 83.910156 375 0 290.507812 0 187.5 C 0 84.492188 83.910156 0 187.5 0 C 291.089844 0 375 83.910156 375 187.5 C 375 291.089844 290.507812 375 187.5 375 Z M 187.5 11.574219 C 90.277344 11.574219 11.574219 90.277344 11.574219 187.5 C 11.574219 284.722656 90.277344 363.425781 187.5 363.425781 C 284.722656 363.425781 363.425781 284.722656 363.425781 187.5 C 363.425781 90.277344 284.144531 11.574219 187.5 11.574219 Z M 187.5 11.574219 " fill-opacity="1" fill-rule="nonzero"/><g clip-path="url(#9376f323a5)"><g clip-path="url(#4b154ed28f)"><path fill="#ffffff" d="M 156.5 234.800781 L 230.449219 234.800781 L 230.449219 276.136719 L 156.5 276.136719 Z M 156.5 234.800781 " fill-opacity="1" fill-rule="nonzero"/></g></g></svg>