<svg xmlns="http://www.w3.org/2000/svg" xmlns:xlink="http://www.w3.org/1999/xlink" width="500" zoomAndPan="magnify" viewBox="0 0 375 374.999991" height="500" preserveAspectRatio="xMidYMid meet" version="1.0"><defs><clipPath id="65131762b7"><path d="M 83 102 L 291 102 L 291 337 L 83 337 Z M 83 102 " clip-rule="nonzero"/></clipPath><clipPath id="758a72a15f"><path d="M 13.457031 258.207031 L 145.128906 -0.00390625 L 362.027344 110.597656 L 230.355469 368.8125 Z M 13.457031 258.207031 " clip-rule="nonzero"/></clipPath><clipPath id="f2a2266e3a"><path d="M 13.457031 258.207031 L 145.128906 -0.00390625 L 362.027344 110.597656 L 230.355469 368.8125 Z M 13.457031 258.207031 " clip-rule="nonzero"/></clipPath><clipPath id="57aed82c87"><path d="M 80 99 L 295 99 L 295 340 L 80 340 Z M 80 99 " clip-rule="nonzero"/></clipPath><clipPath id="5a49a4f5d1"><path d="M 13.457031 258.207031 L 145.128906 -0.00390625 L 362.027344 110.597656 L 230.355469 368.8125 Z M 13.457031 258.207031 " clip-rule="nonzero"/></clipPath><clipPath id="5742050adc"><path d="M 13.457031 258.207031 L 145.128906 -0.00390625 L 362.027344 110.597656 L 230.355469 368.8125 Z M 13.457031 258.207031 " clip-rule="nonzero"/></clipPath><clipPath id="c1410a9bd8"><path d="M 104 102 L 291 102 L 291 336 L 104 336 Z M 104 102 " clip-rule="nonzero"/></clipPath><clipPath id="a513bde228"><path d="M 13.457031 258.207031 L 145.128906 -0.00390625 L 362.027344 110.597656 L 230.355469 368.8125 Z M 13.457031 258.207031 " clip-rule="nonzero"/></clipPath><clipPath id="448e8249a0"><path d="M 13.457031 258.207031 L 145.128906 -0.00390625 L 362.027344 110.597656 L 230.355469 368.8125 Z M 13.457031 258.207031 " clip-rule="nonzero"/></clipPath><clipPath id="f56fb5c568"><path d="M 167 32 L 212 32 L 212 99 L 167 99 Z M 167 32 " clip-rule="nonzero"/></clipPath><clipPath id="9a96da2104"><path d="M 13.457031 258.207031 L 145.128906 -0.00390625 L 362.027344 110.597656 L 230.355469 368.8125 Z M 13.457031 258.207031 " clip-rule="nonzero"/></clipPath><clipPath id="f5a245c650"><path d="M 13.457031 258.207031 L 145.128906 -0.00390625 L 362.027344 110.597656 L 230.355469 368.8125 Z M 13.457031 258.207031 " clip-rule="nonzero"/></clipPath><clipPath id="c0024755c3"><path d="M 132 0 L 247 0 L 247 134 L 132 134 Z M 132 0 " clip-rule="nonzero"/></clipPath><clipPath id="2223d65887"><path d="M 13.457031 258.207031 L 145.128906 -0.00390625 L 362.027344 110.597656 L 230.355469 368.8125 Z M 13.457031 258.207031 " clip-rule="nonzero"/></clipPath><clipPath id="c99cf8fab8"><path d="M 13.457031 258.207031 L 145.128906 -0.00390625 L 362.027344 110.597656 L 230.355469 368.8125 Z M 13.457031 258.207031 " clip-rule="nonzero"/></clipPath><clipPath id="c7fc945c9a"><path d="M 172 33 L 212 33 L 212 99 L 172 99 Z M 172 33 " clip-rule="nonzero"/></clipPath><clipPath id="d03418b40e"><path d="M 13.457031 258.207031 L 145.128906 -0.00390625 L 362.027344 110.597656 L 230.355469 368.8125 Z M 13.457031 258.207031 " clip-rule="nonzero"/></clipPath><clipPath id="be0a49cf12"><path d="M 13.457031 258.207031 L 145.128906 -0.00390625 L 362.027344 110.597656 L 230.355469 368.8125 Z M 13.457031 258.207031 " clip-rule="nonzero"/></clipPath><clipPath id="8f95997fb5"><path d="M 74 89 L 297 89 L 297 195 L 74 195 Z M 74 89 " clip-rule="nonzero"/></clipPath><clipPath id="b2a865aeca"><path d="M 13.457031 258.207031 L 145.128906 -0.00390625 L 362.027344 110.597656 L 230.355469 368.8125 Z M 13.457031 258.207031 " clip-rule="nonzero"/></clipPath><clipPath id="4bed4f1bc2"><path d="M 13.457031 258.207031 L 145.128906 -0.00390625 L 362.027344 110.597656 L 230.355469 368.8125 Z M 13.457031 258.207031 " clip-rule="nonzero"/></clipPath><clipPath id="4689a2e9af"><path d="M 71 85 L 300 85 L 300 199 L 71 199 Z M 71 85 " clip-rule="nonzero"/></clipPath><clipPath id="21b14c2e1c"><path d="M 13.457031 258.207031 L 145.128906 -0.00390625 L 362.027344 110.597656 L 230.355469 368.8125 Z M 13.457031 258.207031 " clip-rule="nonzero"/></clipPath><clipPath id="441ffdd4aa"><path d="M 13.457031 258.207031 L 145.128906 -0.00390625 L 362.027344 110.597656 L 230.355469 368.8125 Z M 13.457031 258.207031 " clip-rule="nonzero"/></clipPath><clipPath id="38113ca8e5"><path d="M 174 88 L 297 88 L 297 184 L 174 184 Z M 174 88 " clip-rule="nonzero"/></clipPath><clipPath id="800275b009"><path d="M 13.457031 258.207031 L 145.128906 -0.00390625 L 362.027344 110.597656 L 230.355469 368.8125 Z M 13.457031 258.207031 " clip-rule="nonzero"/></clipPath><clipPath id="fe9e4274a8"><path d="M 13.457031 258.207031 L 145.128906 -0.00390625 L 362.027344 110.597656 L 230.355469 368.8125 Z M 13.457031 258.207031 " clip-rule="nonzero"/></clipPath></defs><g clip-path="url(#65131762b7)"><g clip-path="url(#758a72a15f)"><g clip-path="url(#f2a2266e3a)"><path fill="#ffffff" d="M 179.578125 102.421875 C 128.519531 105.03125 84.105469 151.492188 83.796875 202.609375 C 83.316406 238.375 103.101562 270.605469 126.292969 296.191406 C 143.046875 314.613281 163.78125 331.28125 188.695312 336.625 C 209.40625 338.140625 226.839844 323.980469 240.609375 310.171875 C 267.894531 282.519531 288.402344 245.796875 290.898438 206.292969 C 292.054688 157.046875 253.40625 110.566406 204.550781 103.527344 C 196.339844 102.15625 187.917969 101.855469 179.574219 102.417969 Z M 179.578125 102.421875 " fill-opacity="1" fill-rule="nonzero"/></g></g></g><g clip-path="url(#57aed82c87)"><g clip-path="url(#5a49a4f5d1)"><g clip-path="url(#5742050adc)"><path stroke-linecap="round" transform="matrix(0.379261, -0.743746, 0.743746, 0.379261, -321.781702, 229.643817)" fill="none" stroke-linejoin="round" d="M 408.562624 465.760632 C 377.995434 412.697332 304.251032 390.585418 249.537437 418.07081 C 211.111529 437.019468 187.485133 475.669385 172.802387 514.338487 C 162.261333 542.240097 155.757736 573.434787 163.612204 602.92759 C 173.264484 625.85234 197.860619 636.75018 220.087864 643.929502 C 264.441709 657.99808 314.78643 659.899269 358.298123 641.067295 C 411.476368 615.504541 440.044344 548.972227 420.971523 493.009759 C 417.966714 483.502043 413.705026 474.351637 408.564667 465.754338 Z M 408.562624 465.760632 " stroke="#000000" stroke-width="7.45" stroke-opacity="1" stroke-miterlimit="4"/></g></g></g><g clip-path="url(#c1410a9bd8)"><g clip-path="url(#a513bde228)"><g clip-path="url(#448e8249a0)"><path fill="#ffffff" d="M 104.296875 144.191406 C 110.804688 139.710938 117.902344 136.074219 125.488281 133.53125 C 132.75 130.964844 140.285156 129.148438 147.910156 128.328125 C 193.007812 122.457031 238.84375 154.109375 250.039062 198.097656 C 257.621094 233.769531 248.519531 271.441406 231.167969 302.75 C 224.070312 315.394531 214.925781 328.828125 201.796875 335.539062 C 216.84375 331.964844 229.847656 320.984375 240.609375 310.199219 C 267.894531 282.546875 288.390625 245.8125 290.890625 206.308594 C 292.046875 157.0625 253.402344 110.570312 204.546875 103.53125 C 196.335938 102.160156 187.917969 101.863281 179.574219 102.421875 C 149.703125 103.949219 122.121094 120.496094 104.300781 144.191406 Z M 104.296875 144.191406 " fill-opacity="0.314" fill-rule="nonzero"/></g></g></g><g clip-path="url(#f56fb5c568)"><g clip-path="url(#9a96da2104)"><g clip-path="url(#f5a245c650)"><path fill="#ffffff" d="M 173.453125 95.628906 C 161.769531 75.546875 170.601562 35.183594 183.464844 32.445312 C 196.328125 29.707031 210.53125 41.382812 211.289062 44.59375 C 212.046875 47.804688 192.992188 56.484375 192.332031 72.183594 C 191.671875 87.882812 193.980469 98.105469 193.980469 98.105469 L 173.457031 95.628906 Z M 173.453125 95.628906 " fill-opacity="1" fill-rule="evenodd"/></g></g></g><g clip-path="url(#c0024755c3)"><g clip-path="url(#2223d65887)"><g clip-path="url(#c99cf8fab8)"><path stroke-linecap="butt" transform="matrix(0.379261, -0.743746, 0.743746, 0.379261, -321.781702, 229.643817)" fill="none" stroke-linejoin="miter" d="M 412.478375 455.528525 C 427.549872 432.133949 475.426189 419.595255 485.3475 431.831295 C 495.268811 444.067336 490.538348 465.57629 487.524402 468.132116 C 484.510456 470.687941 464.880276 455.07816 447.768878 462.916231 C 430.657479 470.754302 421.005366 478.780248 421.005366 478.780248 L 412.4805 455.532693 Z M 412.478375 455.528525 " stroke="#000000" stroke-width="7.45" stroke-opacity="1" stroke-miterlimit="4"/></g></g></g><g clip-path="url(#c7fc945c9a)"><g clip-path="url(#d03418b40e)"><g clip-path="url(#be0a49cf12)"><path fill="#ffffff" d="M 195.503906 33.4375 C 197.460938 34.886719 198.726562 36.480469 198.871094 37.46875 C 199.28125 40.324219 185.34375 52.519531 184.246094 67.40625 C 183.144531 82.292969 184.371094 91.398438 184.371094 91.398438 L 172.175781 93.085938 C 172.582031 93.957031 172.980469 94.832031 173.453125 95.640625 L 193.980469 98.113281 C 193.980469 98.113281 191.667969 87.875 192.328125 72.171875 C 192.988281 56.472656 212.042969 47.800781 211.285156 44.589844 C 210.765625 42.386719 203.910156 36.21875 195.507812 33.4375 Z M 195.503906 33.4375 " fill-opacity="0.314" fill-rule="evenodd"/></g></g></g><g clip-path="url(#8f95997fb5)"><g clip-path="url(#b2a865aeca)"><g clip-path="url(#4bed4f1bc2)"><path fill="#ffffff" d="M 179.085938 89.566406 C 129.226562 92.375 83.109375 129.914062 75.039062 178.246094 C 72.601562 188.632812 84.132812 195.179688 84.027344 194.976562 C 85.300781 175.113281 106.253906 172.203125 131.867188 166.628906 C 163.191406 159.8125 203.664062 157.753906 238.453125 160.808594 C 262.804688 162.949219 284.101562 167.949219 288.414062 183.164062 C 288.804688 182.933594 299.570312 176.15625 294.828125 164.378906 C 274.152344 107.878906 225.503906 85.53125 179.082031 89.566406 Z M 179.085938 89.566406 " fill-opacity="1" fill-rule="nonzero"/></g></g></g><g clip-path="url(#4689a2e9af)"><g clip-path="url(#21b14c2e1c)"><g clip-path="url(#441ffdd4aa)"><path stroke-linecap="round" transform="matrix(0.379261, -0.743746, 0.743746, 0.379261, -321.781702, 229.643817)" fill="none" stroke-linejoin="round" d="M 422.012508 458.240314 C 391.885275 406.565068 326.734417 377.781088 270.769354 395.468671 C 258.359655 398.519469 257.648238 414.386522 257.807597 414.163452 C 279.696055 404.713981 294.202741 425.488937 314.087929 449.787 C 338.406144 479.503122 362.625425 521.570173 378.295825 560.354744 C 389.262179 587.504385 395.515212 612.950345 381.626476 625.831028 C 382.084955 626.122446 395.174824 633.92234 405.161695 622.453616 C 454.200787 569.647421 451.575978 505.575919 422.010382 458.236146 Z M 422.012508 458.240314 " stroke="#000000" stroke-width="7.45" stroke-opacity="1" stroke-miterlimit="4"/></g></g></g><g clip-path="url(#38113ca8e5)"><g clip-path="url(#800275b009)"><g clip-path="url(#fe9e4274a8)"><path fill="#ffffff" d="M 174.3125 89.019531 C 203.539062 100.21875 223.09375 119.789062 233.359375 148.207031 C 235.6875 154.65625 230.902344 157.035156 228.03125 160.082031 C 231.546875 160.285156 235.039062 160.527344 238.457031 160.828125 C 262.808594 162.96875 284.101562 167.960938 288.417969 183.171875 C 288.808594 182.941406 299.574219 176.167969 294.832031 164.390625 C 275.894531 112.640625 228.894531 85.570312 174.308594 89.015625 Z M 174.3125 89.019531 " fill-opacity="0.314" fill-rule="nonzero"/></g></g></g><path fill="#000000" d="M 187.675781 375.351562 C 83.992188 375.351562 0 290.78125 0 187.675781 C 0 84.570312 83.992188 0 187.675781 0 C 291.359375 0 375.351562 83.992188 375.351562 187.675781 C 375.351562 291.359375 290.78125 375.351562 187.675781 375.351562 Z M 187.675781 11.585938 C 90.363281 11.585938 11.585938 90.363281 11.585938 187.675781 C 11.585938 284.988281 90.363281 363.765625 187.675781 363.765625 C 284.988281 363.765625 363.765625 284.988281 363.765625 187.675781 C 363.765625 90.363281 284.410156 11.585938 187.675781 11.585938 Z M 187.675781 11.585938 " fill-opacity="1" fill-rule="nonzero"/></svg>