<svg xmlns="http://www.w3.org/2000/svg" xmlns:xlink="http://www.w3.org/1999/xlink" width="500" zoomAndPan="magnify" viewBox="0 0 375 374.999991" height="500" preserveAspectRatio="xMidYMid meet" version="1.0"><defs><clipPath id="f0da6bd28b"><path d="M 49 161 L 227 161 L 227 243 L 49 243 Z M 49 161 " clip-rule="nonzero"/></clipPath><clipPath id="4a70ae3ba3"><path d="M -8.996094 122.558594 L 187.195312 -6.09375 L 306.199219 175.386719 L 110.007812 304.039062 Z M -8.996094 122.558594 " clip-rule="nonzero"/></clipPath><clipPath id="686818b446"><path d="M -8.996094 122.558594 L 187.195312 -6.09375 L 306.199219 175.386719 L 110.007812 304.039062 Z M -8.996094 122.558594 " clip-rule="nonzero"/></clipPath><clipPath id="0a471c0b88"><path d="M -8.996094 122.558594 L 187.195312 -6.09375 L 306.199219 175.386719 L 110.007812 304.039062 Z M -8.996094 122.558594 " clip-rule="nonzero"/></clipPath><clipPath id="ba5060e0bb"><path d="M 92 180 L 204 180 L 204 209 L 92 209 Z M 92 180 " clip-rule="nonzero"/></clipPath><clipPath id="3d3239c9b9"><path d="M -8.996094 122.558594 L 187.195312 -6.09375 L 306.199219 175.386719 L 110.007812 304.039062 Z M -8.996094 122.558594 " clip-rule="nonzero"/></clipPath><clipPath id="207f4ecf03"><path d="M -8.996094 122.558594 L 187.195312 -6.09375 L 306.199219 175.386719 L 110.007812 304.039062 Z M -8.996094 122.558594 " clip-rule="nonzero"/></clipPath><clipPath id="4c15ecf14b"><path d="M -8.996094 122.558594 L 187.195312 -6.09375 L 306.199219 175.386719 L 110.007812 304.039062 Z M -8.996094 122.558594 " clip-rule="nonzero"/></clipPath><clipPath id="add70e1fef"><path d="M 85 56 L 159 56 L 159 122 L 85 122 Z M 85 56 " clip-rule="nonzero"/></clipPath><clipPath id="6c8a75d9f6"><path d="M -8.996094 122.558594 L 187.195312 -6.09375 L 306.199219 175.386719 L 110.007812 304.039062 Z M -8.996094 122.558594 " clip-rule="nonzero"/></clipPath><clipPath id="c27aa35971"><path d="M -8.996094 122.558594 L 187.195312 -6.09375 L 306.199219 175.386719 L 110.007812 304.039062 Z M -8.996094 122.558594 " clip-rule="nonzero"/></clipPath><clipPath id="d192a7072b"><path d="M -8.996094 122.558594 L 187.195312 -6.09375 L 306.199219 175.386719 L 110.007812 304.039062 Z M -8.996094 122.558594 " clip-rule="nonzero"/></clipPath><clipPath id="6e2eb55d4c"><path d="M 127 109 L 128 109 L 128 110 L 127 110 Z M 127 109 " clip-rule="nonzero"/></clipPath><clipPath id="33942da460"><path d="M -8.996094 122.558594 L 187.195312 -6.09375 L 306.199219 175.386719 L 110.007812 304.039062 Z M -8.996094 122.558594 " clip-rule="nonzero"/></clipPath><clipPath id="0269c5b930"><path d="M -8.996094 122.558594 L 187.195312 -6.09375 L 306.199219 175.386719 L 110.007812 304.039062 Z M -8.996094 122.558594 " clip-rule="nonzero"/></clipPath><clipPath id="ba78c5ff66"><path d="M -8.996094 122.558594 L 187.195312 -6.09375 L 306.199219 175.386719 L 110.007812 304.039062 Z M -8.996094 122.558594 " clip-rule="nonzero"/></clipPath><clipPath id="bd5fb69fa8"><path d="M 110 95 L 128 95 L 128 110 L 110 110 Z M 110 95 " clip-rule="nonzero"/></clipPath><clipPath id="d8dd95e909"><path d="M -8.996094 122.558594 L 187.195312 -6.09375 L 306.199219 175.386719 L 110.007812 304.039062 Z M -8.996094 122.558594 " clip-rule="nonzero"/></clipPath><clipPath id="dff527b871"><path d="M -8.996094 122.558594 L 187.195312 -6.09375 L 306.199219 175.386719 L 110.007812 304.039062 Z M -8.996094 122.558594 " clip-rule="nonzero"/></clipPath><clipPath id="5efb051b0a"><path d="M -8.996094 122.558594 L 187.195312 -6.09375 L 306.199219 175.386719 L 110.007812 304.039062 Z M -8.996094 122.558594 " clip-rule="nonzero"/></clipPath><clipPath id="2c6a283e69"><path d="M 200 68 L 249 68 L 249 142 L 200 142 Z M 200 68 " clip-rule="nonzero"/></clipPath><clipPath id="33035df53c"><path d="M -8.996094 122.558594 L 187.195312 -6.09375 L 306.199219 175.386719 L 110.007812 304.039062 Z M -8.996094 122.558594 " clip-rule="nonzero"/></clipPath><clipPath id="47194417e2"><path d="M -8.996094 122.558594 L 187.195312 -6.09375 L 306.199219 175.386719 L 110.007812 304.039062 Z M -8.996094 122.558594 " clip-rule="nonzero"/></clipPath><clipPath id="6c4ca83a5d"><path d="M -8.996094 122.558594 L 187.195312 -6.09375 L 306.199219 175.386719 L 110.007812 304.039062 Z M -8.996094 122.558594 " clip-rule="nonzero"/></clipPath><clipPath id="0414ba614c"><path d="M 235 89 L 239 89 L 239 113 L 235 113 Z M 235 89 " clip-rule="nonzero"/></clipPath><clipPath id="800a942c3c"><path d="M -8.996094 122.558594 L 187.195312 -6.09375 L 306.199219 175.386719 L 110.007812 304.039062 Z M -8.996094 122.558594 " clip-rule="nonzero"/></clipPath><clipPath id="d061db3c9a"><path d="M -8.996094 122.558594 L 187.195312 -6.09375 L 306.199219 175.386719 L 110.007812 304.039062 Z M -8.996094 122.558594 " clip-rule="nonzero"/></clipPath><clipPath id="20c4d4f08e"><path d="M -8.996094 122.558594 L 187.195312 -6.09375 L 306.199219 175.386719 L 110.007812 304.039062 Z M -8.996094 122.558594 " clip-rule="nonzero"/></clipPath><clipPath id="f9d0e5914f"><path d="M 230 79 L 235 79 L 235 86 L 230 86 Z M 230 79 " clip-rule="nonzero"/></clipPath><clipPath id="46be8e8c1a"><path d="M -8.996094 122.558594 L 187.195312 -6.09375 L 306.199219 175.386719 L 110.007812 304.039062 Z M -8.996094 122.558594 " clip-rule="nonzero"/></clipPath><clipPath id="2b9b9baf54"><path d="M -8.996094 122.558594 L 187.195312 -6.09375 L 306.199219 175.386719 L 110.007812 304.039062 Z M -8.996094 122.558594 " clip-rule="nonzero"/></clipPath><clipPath id="357ee45f4f"><path d="M -8.996094 122.558594 L 187.195312 -6.09375 L 306.199219 175.386719 L 110.007812 304.039062 Z M -8.996094 122.558594 " clip-rule="nonzero"/></clipPath><clipPath id="9f2b7dc392"><path d="M 48 0 L 283 0 L 283 160 L 48 160 Z M 48 0 " clip-rule="nonzero"/></clipPath><clipPath id="c466a3ad0a"><path d="M 48.796875 154.207031 L 52.929688 -21.703125 L 282.316406 -16.3125 L 278.183594 159.597656 Z M 48.796875 154.207031 " clip-rule="nonzero"/></clipPath><clipPath id="e36e98cfb9"><path d="M 191 89 L 307 89 L 307 255 L 191 255 Z M 191 89 " clip-rule="nonzero"/></clipPath><clipPath id="835b926f0d"><path d="M 226.0625 5.757812 L 445.246094 89.433594 L 367.847656 292.179688 L 148.664062 208.5 Z M 226.0625 5.757812 " clip-rule="nonzero"/></clipPath><clipPath id="2566b36272"><path d="M 226.0625 5.757812 L 445.246094 89.433594 L 367.847656 292.179688 L 148.664062 208.5 Z M 226.0625 5.757812 " clip-rule="nonzero"/></clipPath><clipPath id="0f3d5697d2"><path d="M 226.0625 5.757812 L 445.246094 89.433594 L 367.847656 292.179688 L 148.664062 208.5 Z M 226.0625 5.757812 " clip-rule="nonzero"/></clipPath><clipPath id="e35c871714"><path d="M 228 128 L 290 128 L 290 223 L 228 223 Z M 228 128 " clip-rule="nonzero"/></clipPath><clipPath id="8664850326"><path d="M 226.0625 5.757812 L 445.246094 89.433594 L 367.847656 292.179688 L 148.664062 208.5 Z M 226.0625 5.757812 " clip-rule="nonzero"/></clipPath><clipPath id="91774c1fd1"><path d="M 226.0625 5.757812 L 445.246094 89.433594 L 367.847656 292.179688 L 148.664062 208.5 Z M 226.0625 5.757812 " clip-rule="nonzero"/></clipPath><clipPath id="c30d6fa07f"><path d="M 226.0625 5.757812 L 445.246094 89.433594 L 367.847656 292.179688 L 148.664062 208.5 Z M 226.0625 5.757812 " clip-rule="nonzero"/></clipPath><clipPath id="9d511982fa"><path d="M 306 48 L 355 48 L 355 133 L 306 133 Z M 306 48 " clip-rule="nonzero"/></clipPath><clipPath id="14553d2c78"><path d="M 226.0625 5.757812 L 445.246094 89.433594 L 367.847656 292.179688 L 148.664062 208.5 Z M 226.0625 5.757812 " clip-rule="nonzero"/></clipPath><clipPath id="88406cb95b"><path d="M 226.0625 5.757812 L 445.246094 89.433594 L 367.847656 292.179688 L 148.664062 208.5 Z M 226.0625 5.757812 " clip-rule="nonzero"/></clipPath><clipPath id="f2491dc001"><path d="M 226.0625 5.757812 L 445.246094 89.433594 L 367.847656 292.179688 L 148.664062 208.5 Z M 226.0625 5.757812 " clip-rule="nonzero"/></clipPath><clipPath id="e046bf563e"><path d="M 316 108 L 317 108 L 317 109 L 316 109 Z M 316 108 " clip-rule="nonzero"/></clipPath><clipPath id="cbaf2218e7"><path d="M 226.0625 5.757812 L 445.246094 89.433594 L 367.847656 292.179688 L 148.664062 208.5 Z M 226.0625 5.757812 " clip-rule="nonzero"/></clipPath><clipPath id="90cd7c98a8"><path d="M 226.0625 5.757812 L 445.246094 89.433594 L 367.847656 292.179688 L 148.664062 208.5 Z M 226.0625 5.757812 " clip-rule="nonzero"/></clipPath><clipPath id="6947d25584"><path d="M 226.0625 5.757812 L 445.246094 89.433594 L 367.847656 292.179688 L 148.664062 208.5 Z M 226.0625 5.757812 " clip-rule="nonzero"/></clipPath><clipPath id="29bfe4a6ec"><path d="M 316 86 L 319 86 L 319 109 L 316 109 Z M 316 86 " clip-rule="nonzero"/></clipPath><clipPath id="bfe2309db1"><path d="M 226.0625 5.757812 L 445.246094 89.433594 L 367.847656 292.179688 L 148.664062 208.5 Z M 226.0625 5.757812 " clip-rule="nonzero"/></clipPath><clipPath id="d1ffaa285f"><path d="M 226.0625 5.757812 L 445.246094 89.433594 L 367.847656 292.179688 L 148.664062 208.5 Z M 226.0625 5.757812 " clip-rule="nonzero"/></clipPath><clipPath id="2fe142e704"><path d="M 226.0625 5.757812 L 445.246094 89.433594 L 367.847656 292.179688 L 148.664062 208.5 Z M 226.0625 5.757812 " clip-rule="nonzero"/></clipPath><clipPath id="32f6c917f8"><path d="M 348 153 L 375 153 L 375 215 L 348 215 Z M 348 153 " clip-rule="nonzero"/></clipPath><clipPath id="961a7fccd6"><path d="M 226.0625 5.757812 L 445.246094 89.433594 L 367.847656 292.179688 L 148.664062 208.5 Z M 226.0625 5.757812 " clip-rule="nonzero"/></clipPath><clipPath id="50c8d3703b"><path d="M 226.0625 5.757812 L 445.246094 89.433594 L 367.847656 292.179688 L 148.664062 208.5 Z M 226.0625 5.757812 " clip-rule="nonzero"/></clipPath><clipPath id="e6963743cf"><path d="M 226.0625 5.757812 L 445.246094 89.433594 L 367.847656 292.179688 L 148.664062 208.5 Z M 226.0625 5.757812 " clip-rule="nonzero"/></clipPath><clipPath id="0ec9bcd110"><path d="M 243 0 L 375 0 L 375 257 L 243 257 Z M 243 0 " clip-rule="nonzero"/></clipPath><clipPath id="21b9667025"><path d="M 243.582031 71.042969 L 385.5625 -32.890625 L 521.09375 152.257812 L 379.109375 256.191406 Z M 243.582031 71.042969 " clip-rule="nonzero"/></clipPath><clipPath id="785f2aa5c5"><path d="M 5.078125 5.136719 L 369.902344 5.136719 L 369.902344 369.960938 L 5.078125 369.960938 Z M 5.078125 5.136719 " clip-rule="nonzero"/></clipPath></defs><g clip-path="url(#f0da6bd28b)"><g clip-path="url(#4a70ae3ba3)"><g clip-path="url(#686818b446)"><g clip-path="url(#0a471c0b88)"><path fill="#000000" d="M 217.5 187.628906 C 200.417969 171.667969 165.175781 175.523438 158.253906 176.460938 C 156.5 176.753906 154.738281 176.792969 152.972656 176.578125 C 151.207031 176.363281 149.507812 175.898438 147.875 175.191406 C 75.453125 139.59375 50.492188 183.714844 50.246094 184.167969 L 49.953125 184.359375 L 49.960938 184.816406 C 49.933594 185.921875 49.824219 212.449219 79.761719 228.601562 C 98.742188 238.96875 113.808594 237.292969 126.015625 235.859375 C 131.996094 234.738281 137.929688 234.933594 143.824219 236.445312 C 151.664062 239.019531 159.679688 240.828125 167.867188 241.863281 C 176.054688 242.902344 184.265625 243.152344 192.503906 242.613281 C 196.183594 242.351562 199.78125 241.664062 203.296875 240.554688 C 206.816406 239.441406 210.15625 237.9375 213.316406 236.039062 C 215.261719 234.765625 217.019531 233.273438 218.601562 231.570312 C 220.183594 229.867188 221.535156 228 222.660156 225.96875 C 223.785156 223.933594 224.652344 221.796875 225.257812 219.554688 C 225.863281 217.3125 226.191406 215.027344 226.238281 212.707031 C 226.566406 209.4375 226.390625 206.199219 225.710938 202.984375 C 225.035156 199.773438 223.886719 196.738281 222.269531 193.878906 C 220.976562 191.570312 219.386719 189.488281 217.5 187.628906 Z M 223.160156 209.03125 C 223.152344 209.179688 223.109375 209.316406 223.035156 209.445312 C 222.957031 209.574219 222.859375 209.675781 222.734375 209.757812 C 222.613281 209.839844 222.476562 209.886719 222.332031 209.90625 C 222.183594 209.921875 222.042969 209.90625 221.902344 209.859375 C 220.5625 209.605469 218.828125 209.320312 216.789062 209.023438 C 216.640625 209.003906 216.503906 208.953125 216.375 208.871094 C 216.25 208.789062 216.144531 208.6875 216.0625 208.5625 C 215.980469 208.433594 215.925781 208.296875 215.902344 208.148438 C 215.878906 208 215.886719 207.851562 215.925781 207.707031 C 216.558594 205.332031 216.5625 202.957031 215.945312 200.582031 C 215.84375 201.984375 215.527344 203.339844 214.992188 204.640625 C 214.457031 205.941406 213.730469 207.128906 212.816406 208.199219 C 212.5 208.554688 212.101562 208.714844 211.628906 208.683594 C 206.824219 208.320312 202.023438 208.34375 197.226562 208.753906 C 205.78125 208.851562 214.0625 210.394531 222.078125 213.382812 C 222.285156 213.449219 222.449219 213.570312 222.566406 213.753906 C 222.6875 213.933594 222.734375 214.132812 222.710938 214.351562 C 222.566406 216.230469 222.207031 218.074219 221.632812 219.871094 C 221.0625 221.671875 220.292969 223.378906 219.328125 225.003906 C 218.359375 226.625 217.222656 228.113281 215.910156 229.472656 C 214.597656 230.832031 213.148438 232.023438 211.5625 233.046875 C 208.617188 234.789062 205.507812 236.167969 202.238281 237.179688 C 198.96875 238.191406 195.625 238.8125 192.210938 239.039062 L 192.066406 239.132812 C 178.160156 238.75 160.714844 229.640625 160.617188 229.492188 C 164.507812 232.238281 168.558594 234.714844 172.777344 236.921875 C 172.988281 237.035156 173.140625 237.203125 173.234375 237.421875 C 173.328125 237.644531 173.339844 237.871094 173.273438 238.101562 C 173.207031 238.328125 173.078125 238.515625 172.882812 238.652344 C 172.683594 238.789062 172.46875 238.847656 172.226562 238.832031 C 162.949219 237.898438 153.890625 235.941406 145.054688 232.960938 C 144.796875 232.859375 144.53125 232.796875 144.257812 232.769531 C 143.804688 232.652344 144.148438 231.835938 144.148438 231.835938 C 145.191406 229.144531 145.878906 226.359375 146.214844 223.492188 C 145.195312 226.632812 143.503906 229.355469 141.148438 231.667969 C 140.949219 231.847656 140.714844 231.914062 140.449219 231.878906 C 135.503906 231.46875 130.578125 231.640625 125.675781 232.398438 C 119.558594 233.457031 113.410156 233.707031 107.226562 233.148438 C 101.046875 232.589844 95.042969 231.238281 89.214844 229.101562 C 89.003906 229.015625 88.796875 228.910156 88.597656 228.792969 C 88.464844 228.589844 88.347656 228.414062 88.949219 228.5625 L 89.492188 228.625 C 93.421875 229.40625 97.386719 229.710938 101.390625 229.53125 C 98.4375 229.234375 95.523438 228.710938 92.652344 227.96875 C 89.777344 227.222656 86.980469 226.265625 84.253906 225.089844 C 81.527344 223.917969 78.90625 222.542969 76.390625 220.96875 C 73.875 219.394531 71.496094 217.636719 69.25 215.699219 C 69.25 215.699219 68.980469 215.289062 68.359375 214.984375 C 67.289062 214.054688 66.355469 213.203125 65.652344 212.574219 C 63.699219 210.59375 61.953125 208.445312 60.417969 206.128906 C 58.039062 202.234375 56.265625 198.082031 55.097656 193.671875 C 55.027344 193.460938 55.03125 193.25 55.105469 193.042969 C 55.179688 192.835938 55.308594 192.671875 55.492188 192.550781 C 55.675781 192.429688 55.878906 192.375 56.097656 192.390625 C 56.320312 192.40625 56.511719 192.488281 56.679688 192.632812 C 64.234375 200.15625 72.742188 206.382812 82.199219 211.308594 C 82.503906 211.472656 82.671875 211.726562 82.699219 212.070312 C 82.980469 214.128906 82.679688 216.097656 81.796875 217.976562 C 83.332031 216.917969 84.441406 215.523438 85.121094 213.789062 C 85.230469 213.546875 85.410156 213.378906 85.65625 213.285156 C 85.898438 213.1875 86.144531 213.191406 86.386719 213.292969 C 91.625 215.691406 97.097656 217.277344 102.808594 218.054688 C 108.515625 218.832031 114.214844 218.765625 119.902344 217.851562 C 120.027344 217.820312 120.148438 217.816406 120.273438 217.839844 C 120.398438 217.863281 120.515625 217.90625 120.621094 217.976562 C 120.726562 218.046875 120.8125 218.136719 120.878906 218.242188 C 120.949219 218.347656 120.992188 218.460938 121.015625 218.585938 C 121.574219 220.988281 121.484375 223.363281 120.746094 225.710938 C 121.675781 224.542969 122.398438 223.257812 122.910156 221.855469 C 123.425781 220.453125 123.703125 219.003906 123.742188 217.511719 C 123.761719 217.339844 123.832031 217.191406 123.953125 217.0625 C 124.070312 216.9375 124.21875 216.863281 124.386719 216.835938 C 143.199219 211.742188 149.511719 214.214844 158.308594 217.863281 C 163.257812 220.039062 168.375 221.710938 173.652344 222.871094 C 173.898438 222.949219 174.089844 223.09375 174.230469 223.308594 C 174.371094 223.523438 174.425781 223.757812 174.402344 224.011719 C 174.296875 225.042969 173.980469 226 173.449219 226.890625 C 172.921875 227.78125 172.226562 228.515625 171.371094 229.097656 C 173.699219 228.007812 175.570312 226.390625 176.984375 224.246094 C 177.0625 224.058594 177.1875 223.910156 177.359375 223.796875 C 177.53125 223.683594 177.714844 223.628906 177.921875 223.628906 C 183.316406 224.417969 188.742188 224.796875 194.195312 224.761719 C 194.417969 224.765625 194.617188 224.828125 194.800781 224.953125 C 194.980469 225.078125 195.109375 225.242188 195.191406 225.449219 C 196.183594 227.957031 196.488281 230.550781 196.101562 233.222656 C 197.550781 230.9375 198.328125 228.445312 198.441406 225.742188 C 198.445312 225.492188 198.539062 225.28125 198.71875 225.105469 C 198.898438 224.929688 199.113281 224.84375 199.363281 224.847656 C 203.023438 224.75 206.941406 224.523438 211.410156 224.0625 C 182.636719 222.964844 169 218.390625 159.878906 214.699219 C 150.761719 211.011719 143.578125 207.976562 123.648438 213.34375 C 119.269531 214.515625 114.8125 215.089844 110.277344 215.066406 C 105.742188 215.042969 101.292969 214.421875 96.925781 213.203125 C 96.769531 213.164062 96.628906 213.089844 96.511719 212.980469 C 96.390625 212.867188 96.304688 212.738281 96.25 212.585938 C 96.195312 212.429688 96.179688 212.273438 96.203125 212.113281 C 96.226562 211.953125 96.289062 211.808594 96.382812 211.675781 C 97.65625 210.023438 98.371094 208.160156 98.535156 206.082031 C 97.074219 208.320312 95.175781 210.082031 92.832031 211.367188 C 92.613281 211.492188 92.378906 211.5625 92.128906 211.578125 L 91.894531 211.730469 C 84.382812 208.933594 77.417969 205.128906 71.011719 200.3125 C 70.902344 200.230469 70.816406 200.132812 70.746094 200.015625 C 70.679688 199.898438 70.636719 199.769531 70.621094 199.636719 C 70.605469 199.503906 70.613281 199.371094 70.648438 199.242188 C 70.683594 199.109375 70.742188 198.992188 70.828125 198.882812 C 71.699219 197.964844 72.40625 196.933594 72.949219 195.789062 C 73.496094 194.644531 73.851562 193.445312 74.015625 192.1875 C 72.464844 194.332031 70.550781 196.074219 68.273438 197.417969 C 68.097656 197.527344 67.90625 197.570312 67.699219 197.550781 C 67.492188 197.53125 67.3125 197.453125 67.160156 197.3125 C 62.863281 193.828125 58.867188 190.03125 55.167969 185.921875 C 54.953125 185.667969 54.835938 185.375 54.820312 185.042969 C 54.804688 184.710938 54.894531 184.410156 55.082031 184.136719 C 59.523438 177.75 76.375 158.75 114.359375 166.863281 C 114.628906 166.890625 114.851562 167.007812 115.023438 167.214844 C 115.199219 167.425781 115.273438 167.664062 115.246094 167.933594 C 115.222656 168.207031 115.105469 168.429688 114.898438 168.601562 C 114.6875 168.773438 114.449219 168.851562 114.175781 168.824219 C 106.347656 168.707031 98.695312 169.804688 91.214844 172.121094 C 91 172.199219 90.789062 172.195312 90.578125 172.105469 C 90.367188 172.019531 90.214844 171.871094 90.121094 171.667969 C 89.207031 169.839844 87.871094 168.417969 86.105469 167.394531 C 87.144531 169.195312 87.519531 171.128906 87.226562 173.1875 C 87.191406 173.523438 87.019531 173.746094 86.703125 173.863281 C 83.820312 175.035156 81.054688 176.433594 78.398438 178.054688 C 87.589844 174.4375 97.125 172.523438 107.003906 172.316406 C 107.664062 172.457031 108.125 172.835938 108.382812 173.460938 C 109.597656 175.566406 110.429688 177.8125 110.875 180.199219 C 111.546875 177.953125 111.648438 175.683594 111.179688 173.386719 C 111.160156 173.238281 111.171875 173.089844 111.21875 172.949219 C 111.261719 172.804688 111.335938 172.679688 111.4375 172.566406 C 111.539062 172.457031 111.65625 172.375 111.796875 172.316406 C 111.933594 172.257812 112.078125 172.230469 112.226562 172.238281 C 124.164062 172.457031 135.769531 174.53125 147.042969 178.457031 C 148.964844 179.320312 150.972656 179.890625 153.0625 180.167969 C 155.15625 180.441406 157.242188 180.410156 159.324219 180.074219 C 160.625 179.886719 165.085938 179.347656 171.21875 179.054688 C 171.5 179.042969 171.746094 179.128906 171.957031 179.316406 C 172.167969 179.5 172.285156 179.734375 172.308594 180.011719 C 172.394531 182.078125 171.953125 184.027344 170.988281 185.859375 C 172 185.109375 172.84375 184.207031 173.53125 183.152344 C 174.214844 182.097656 174.695312 180.957031 174.96875 179.730469 C 175.039062 179.519531 175.167969 179.351562 175.351562 179.230469 C 175.539062 179.105469 175.742188 179.058594 175.964844 179.078125 C 186.425781 178.8125 196.542969 180.550781 206.3125 184.292969 C 206.3125 184.292969 205.882812 184.28125 205.882812 184.28125 C 202.988281 183.679688 200.0625 183.449219 197.105469 183.59375 C 194.152344 183.738281 191.261719 184.25 188.4375 185.132812 C 191.207031 184.902344 193.976562 184.941406 196.742188 185.253906 C 199.503906 185.566406 202.210938 186.144531 204.863281 186.988281 C 207.511719 187.832031 210.054688 188.925781 212.492188 190.265625 C 214.925781 191.609375 217.210938 193.175781 219.335938 194.964844 C 219.875 195.433594 220.335938 195.96875 220.722656 196.566406 C 222.445312 200.53125 223.191406 204.675781 222.96875 208.992188 Z M 223.160156 209.03125 " fill-opacity="1" fill-rule="nonzero"/></g></g></g></g><g clip-path="url(#ba5060e0bb)"><g clip-path="url(#3d3239c9b9)"><g clip-path="url(#207f4ecf03)"><g clip-path="url(#4c15ecf14b)"><path fill="#000000" d="M 182.433594 196.605469 C 182.367188 196.589844 182.3125 196.554688 182.277344 196.5 C 182.238281 196.441406 182.226562 196.378906 182.242188 196.3125 C 181.820312 194.191406 180.9375 192.289062 179.585938 190.601562 C 180.085938 192.609375 180.1875 194.636719 179.886719 196.683594 C 179.835938 196.835938 179.726562 196.90625 179.566406 196.894531 L 175.257812 197.542969 C 165.078125 199.195312 156.300781 200.554688 148.285156 195.808594 C 147.628906 195.445312 146.914062 195.117188 146.195312 194.792969 C 146.019531 194.730469 145.878906 194.617188 145.773438 194.460938 C 145.671875 194.304688 145.625 194.132812 145.640625 193.941406 C 145.722656 192.636719 145.59375 191.347656 145.246094 190.085938 C 144.898438 188.820312 144.351562 187.648438 143.609375 186.570312 C 143.65625 188.808594 143.429688 191.019531 142.9375 193.203125 C 142.917969 193.292969 142.875 193.363281 142.800781 193.410156 C 142.722656 193.460938 142.644531 193.472656 142.554688 193.453125 C 136.945312 191.710938 131.203125 190.707031 125.332031 190.433594 C 125.242188 190.417969 125.175781 190.371094 125.125 190.296875 C 125.078125 190.222656 125.0625 190.140625 125.082031 190.054688 C 125.667969 188.613281 126.003906 187.117188 126.082031 185.566406 C 126.164062 184.011719 125.984375 182.488281 125.550781 180.996094 C 125.433594 182.660156 125.046875 184.253906 124.394531 185.789062 C 123.742188 187.320312 122.859375 188.703125 121.742188 189.941406 C 121.617188 190.175781 121.421875 190.300781 121.15625 190.324219 C 111.503906 190.140625 101.894531 190.679688 92.324219 191.945312 C 92.324219 191.945312 98.199219 191.648438 106.054688 191.816406 C 106.160156 191.855469 106.210938 191.933594 106.207031 192.050781 C 107.242188 195.769531 107.324219 199.511719 106.449219 203.273438 C 107.53125 201.589844 108.332031 199.78125 108.859375 197.851562 C 109.386719 195.921875 109.613281 193.957031 109.539062 191.957031 C 109.582031 191.785156 109.6875 191.714844 109.863281 191.746094 C 114.171875 191.933594 119.015625 192.230469 123.75 192.808594 C 129.8125 193.414062 135.71875 194.714844 141.472656 196.71875 C 141.554688 196.730469 141.621094 196.769531 141.664062 196.84375 C 141.710938 196.914062 141.722656 196.988281 141.703125 197.070312 C 140.84375 199.390625 139.496094 201.378906 137.652344 203.03125 C 139.921875 202.003906 141.875 200.554688 143.515625 198.683594 C 143.789062 198.417969 144.117188 198.261719 144.5 198.222656 C 144.878906 198.183594 145.234375 198.269531 145.554688 198.476562 C 145.710938 198.710938 146.15625 198.753906 146.398438 198.929688 C 155.433594 204.347656 165.324219 202.757812 175.753906 201.109375 L 178.363281 200.613281 C 178.363281 200.613281 178.742188 200.617188 178.613281 200.992188 C 177.691406 203.6875 176.402344 206.191406 174.746094 208.507812 C 176.375 207.5625 177.796875 206.371094 179.007812 204.925781 C 180.21875 203.484375 181.152344 201.882812 181.804688 200.113281 C 181.863281 200.011719 181.949219 199.953125 182.066406 199.941406 C 189.175781 197.910156 196.421875 197.121094 203.800781 197.578125 C 196.742188 195.804688 189.621094 195.480469 182.433594 196.605469 Z M 182.433594 196.605469 " fill-opacity="1" fill-rule="nonzero"/></g></g></g></g><g clip-path="url(#add70e1fef)"><g clip-path="url(#6c8a75d9f6)"><g clip-path="url(#c27aa35971)"><g clip-path="url(#d192a7072b)"><path fill="#000000" d="M 149.191406 118.449219 C 150.136719 117.820312 151.027344 117.117188 151.859375 116.339844 C 152.691406 115.5625 153.457031 114.722656 154.148438 113.820312 C 154.84375 112.917969 155.460938 111.964844 155.996094 110.960938 C 156.535156 109.957031 156.984375 108.914062 157.351562 107.835938 C 157.714844 106.757812 157.988281 105.65625 158.171875 104.53125 C 158.359375 103.410156 158.449219 102.277344 158.445312 101.140625 C 158.441406 100 158.347656 98.871094 158.160156 97.75 C 157.96875 96.625 157.691406 95.527344 157.320312 94.449219 C 151.824219 79.679688 133.128906 58.578125 97.550781 56.878906 C 96.828125 56.855469 96.109375 56.898438 95.394531 57.003906 C 94.679688 57.109375 93.980469 57.28125 93.296875 57.515625 C 92.613281 57.75 91.953125 58.042969 91.324219 58.398438 C 90.691406 58.753906 90.101562 59.160156 89.542969 59.625 C 88.988281 60.085938 88.476562 60.59375 88.015625 61.148438 C 87.550781 61.703125 87.140625 62.296875 86.785156 62.925781 C 86.429688 63.554688 86.132812 64.214844 85.898438 64.894531 C 85.664062 65.578125 85.492188 66.277344 85.382812 66.992188 C 85.125 68.703125 85.277344 70.378906 85.828125 72.015625 C 90.613281 87.167969 107.640625 116.648438 135.183594 121.355469 C 137.617188 121.78125 140.042969 121.742188 142.464844 121.242188 C 144.882812 120.738281 147.125 119.808594 149.191406 118.449219 Z M 89.421875 72.003906 C 89.164062 71.308594 88.992188 70.585938 88.910156 69.847656 C 88.832031 69.109375 88.839844 68.371094 88.941406 67.632812 C 89.042969 66.894531 89.230469 66.179688 89.507812 65.488281 C 89.78125 64.796875 90.140625 64.148438 90.574219 63.546875 C 91.117188 62.824219 91.765625 62.21875 92.523438 61.726562 C 93.980469 60.769531 95.578125 60.335938 97.320312 60.421875 C 130.996094 62.03125 149.007812 81.777344 153.96875 95.726562 C 154.46875 97.109375 154.777344 98.527344 154.898438 99.992188 C 155.019531 101.453125 154.949219 102.90625 154.683594 104.351562 C 154.421875 105.792969 153.976562 107.179688 153.347656 108.507812 C 152.71875 109.832031 151.929688 111.054688 150.976562 112.171875 C 150.078125 113.292969 149.050781 114.277344 147.886719 115.125 C 146.726562 115.96875 145.476562 116.648438 144.132812 117.160156 C 142.789062 117.675781 141.402344 118 139.972656 118.144531 C 138.542969 118.285156 137.121094 118.238281 135.703125 118 C 110.65625 113.582031 94.242188 86.507812 89.480469 71.964844 Z M 89.421875 72.003906 " fill-opacity="1" fill-rule="nonzero"/></g></g></g></g><g clip-path="url(#6e2eb55d4c)"><g clip-path="url(#33942da460)"><g clip-path="url(#0269c5b930)"><g clip-path="url(#ba78c5ff66)"><path fill="#000000" d="M 127.421875 109.074219 L 127.839844 109.261719 C 127.699219 109.175781 127.554688 109.105469 127.402344 109.046875 Z M 127.421875 109.074219 " fill-opacity="1" fill-rule="nonzero"/></g></g></g></g><g clip-path="url(#bd5fb69fa8)"><g clip-path="url(#d8dd95e909)"><g clip-path="url(#dff527b871)"><g clip-path="url(#5efb051b0a)"><path fill="#000000" d="M 127.421875 109.074219 C 122.773438 101.535156 110.34375 95.160156 110.199219 95.003906 C 115.15625 100.652344 120.898438 105.34375 127.421875 109.074219 Z M 127.421875 109.074219 " fill-opacity="1" fill-rule="nonzero"/></g></g></g></g><g clip-path="url(#2c6a283e69)"><g clip-path="url(#33035df53c)"><g clip-path="url(#47194417e2)"><g clip-path="url(#6c4ca83a5d)"><path fill="#000000" d="M 239.191406 76.007812 C 238.144531 74.609375 236.9375 73.375 235.5625 72.300781 C 234.191406 71.222656 232.703125 70.34375 231.097656 69.660156 C 229.492188 68.980469 227.824219 68.519531 226.097656 68.277344 C 224.367188 68.035156 222.640625 68.023438 220.910156 68.238281 C 219.140625 68.421875 217.425781 68.832031 215.769531 69.46875 C 214.109375 70.105469 212.5625 70.949219 211.125 71.996094 C 209.691406 73.042969 208.417969 74.261719 207.304688 75.648438 C 206.191406 77.03125 205.28125 78.539062 204.570312 80.167969 C 198.269531 94.636719 196.378906 111.867188 220.949219 137.652344 C 221.613281 138.332031 222.347656 138.925781 223.152344 139.425781 C 223.960938 139.929688 224.816406 140.328125 225.71875 140.621094 C 226.625 140.914062 227.550781 141.09375 228.496094 141.164062 C 229.445312 141.230469 230.386719 141.183594 231.324219 141.019531 C 232.261719 140.875 233.167969 140.617188 234.042969 140.25 C 234.917969 139.882812 235.738281 139.421875 236.503906 138.855469 C 237.269531 138.292969 237.953125 137.648438 238.5625 136.921875 C 239.171875 136.191406 239.6875 135.402344 240.105469 134.550781 C 247.023438 120.261719 255.75 98.382812 239.191406 76.007812 Z M 237.140625 132.394531 C 236.84375 133.066406 236.472656 133.695312 236.027344 134.277344 C 235.578125 134.863281 235.070312 135.382812 234.496094 135.84375 C 233.921875 136.304688 233.300781 136.6875 232.636719 136.996094 C 231.96875 137.308594 231.273438 137.535156 230.554688 137.675781 C 229.90625 137.785156 229.253906 137.8125 228.597656 137.761719 C 227.941406 137.710938 227.300781 137.582031 226.675781 137.375 C 226.050781 137.167969 225.460938 136.890625 224.902344 136.539062 C 224.347656 136.1875 223.839844 135.777344 223.386719 135.300781 C 200.144531 110.90625 201.773438 95.0625 207.703125 81.628906 C 208.996094 78.640625 211.003906 76.25 213.722656 74.460938 C 216.011719 72.96875 218.515625 72.082031 221.230469 71.796875 C 222.65625 71.613281 224.078125 71.617188 225.503906 71.808594 C 226.925781 72.003906 228.300781 72.382812 229.621094 72.941406 C 230.945312 73.5 232.171875 74.222656 233.304688 75.105469 C 234.433594 75.992188 235.429688 77.011719 236.289062 78.160156 C 251.675781 98.75 243.785156 118.578125 237.140625 132.394531 Z M 237.140625 132.394531 " fill-opacity="1" fill-rule="nonzero"/></g></g></g></g><g clip-path="url(#0414ba614c)"><g clip-path="url(#800a942c3c)"><g clip-path="url(#d061db3c9a)"><g clip-path="url(#20c4d4f08e)"><path fill="#000000" d="M 236.121094 89.90625 C 236.984375 97.386719 236.777344 104.835938 235.492188 112.253906 C 240.519531 105.230469 239.546875 98.710938 236.121094 89.90625 Z M 236.121094 89.90625 " fill-opacity="1" fill-rule="nonzero"/></g></g></g></g><g clip-path="url(#f9d0e5914f)"><g clip-path="url(#46be8e8c1a)"><g clip-path="url(#2b9b9baf54)"><g clip-path="url(#357ee45f4f)"><path fill="#000000" d="M 234.101562 85.164062 C 233.941406 84.015625 233.546875 82.957031 232.910156 81.988281 C 232.273438 81.019531 231.460938 80.234375 230.472656 79.632812 C 231.070312 81.878906 232.277344 83.722656 234.101562 85.164062 Z M 234.101562 85.164062 " fill-opacity="1" fill-rule="nonzero"/></g></g></g></g><g clip-path="url(#9f2b7dc392)"><g clip-path="url(#c466a3ad0a)"><path fill="#ffffff" d="M 48.796875 154.207031 L 52.929688 -21.703125 L 282.4375 -16.308594 L 278.304688 159.601562 Z M 48.796875 154.207031 " fill-opacity="1" fill-rule="nonzero"/></g></g><g clip-path="url(#e36e98cfb9)"><g clip-path="url(#835b926f0d)"><g clip-path="url(#2566b36272)"><g clip-path="url(#0f3d5697d2)"><path fill="#000000" d="M 305.972656 227.453125 C 308.90625 204.257812 285.140625 177.953125 280.324219 172.890625 C 279.058594 171.640625 277.996094 170.234375 277.136719 168.675781 C 276.277344 167.117188 275.660156 165.46875 275.277344 163.734375 C 261.714844 84.1875 211.335938 89.792969 210.824219 89.859375 L 210.496094 89.734375 L 210.128906 90.007812 C 209.214844 90.632812 187.652344 106.078125 192.09375 139.804688 C 194.808594 161.261719 204.988281 172.492188 213.300781 181.546875 C 217.714844 185.738281 221.03125 190.664062 223.253906 196.324219 C 225.757812 204.1875 228.988281 211.742188 232.945312 218.984375 C 236.898438 226.230469 241.503906 233.03125 246.765625 239.394531 C 249.132812 242.222656 251.796875 244.738281 254.757812 246.9375 C 257.71875 249.136719 260.894531 250.964844 264.285156 252.414062 C 266.457031 253.242188 268.695312 253.796875 271 254.082031 C 273.304688 254.363281 275.613281 254.367188 277.917969 254.089844 C 280.226562 253.8125 282.464844 253.261719 284.636719 252.4375 C 286.8125 251.613281 288.851562 250.542969 290.765625 249.222656 C 293.605469 247.574219 296.128906 245.535156 298.335938 243.101562 C 300.542969 240.671875 302.332031 237.964844 303.699219 234.980469 C 304.8125 232.578125 305.570312 230.070312 305.972656 227.453125 Z M 291.9375 244.578125 C 291.8125 244.65625 291.675781 244.699219 291.53125 244.714844 C 291.382812 244.730469 291.242188 244.710938 291.101562 244.65625 C 290.964844 244.605469 290.84375 244.523438 290.746094 244.414062 C 290.644531 244.304688 290.574219 244.179688 290.53125 244.039062 C 289.953125 242.808594 289.167969 241.234375 288.214844 239.410156 C 288.144531 239.273438 288.105469 239.132812 288.097656 238.984375 C 288.085938 238.832031 288.109375 238.6875 288.164062 238.546875 C 288.21875 238.40625 288.296875 238.28125 288.40625 238.175781 C 288.511719 238.070312 288.636719 237.988281 288.777344 237.9375 C 291.070312 237.058594 293 235.671875 294.5625 233.777344 C 293.367188 234.515625 292.082031 235.050781 290.714844 235.382812 C 289.34375 235.710938 287.960938 235.816406 286.554688 235.703125 C 286.082031 235.652344 285.71875 235.425781 285.464844 235.023438 C 282.949219 230.917969 280.121094 227.039062 276.976562 223.390625 C 281.90625 230.382812 285.507812 238 287.777344 246.246094 C 287.847656 246.453125 287.84375 246.65625 287.765625 246.859375 C 287.6875 247.0625 287.554688 247.21875 287.367188 247.328125 C 285.753906 248.308594 284.054688 249.097656 282.261719 249.6875 C 280.46875 250.277344 278.628906 250.65625 276.75 250.820312 C 274.867188 250.988281 272.996094 250.9375 271.125 250.667969 C 269.257812 250.402344 267.441406 249.925781 265.683594 249.238281 C 262.542969 247.875 259.605469 246.160156 256.871094 244.105469 C 254.136719 242.046875 251.675781 239.699219 249.492188 237.0625 L 249.328125 237 C 241.496094 225.507812 238.664062 206.027344 238.726562 205.867188 C 238.777344 210.625 239.144531 215.359375 239.824219 220.074219 C 239.855469 220.308594 239.8125 220.53125 239.6875 220.734375 C 239.5625 220.941406 239.386719 221.082031 239.164062 221.164062 C 238.9375 221.246094 238.710938 221.246094 238.484375 221.167969 C 238.257812 221.089844 238.082031 220.949219 237.957031 220.746094 C 233.277344 212.675781 229.558594 204.1875 226.800781 195.28125 C 226.730469 195.015625 226.628906 194.761719 226.488281 194.523438 C 226.320312 194.085938 227.179688 193.890625 227.179688 193.890625 C 229.972656 193.15625 232.632812 192.082031 235.152344 190.675781 C 232.011719 191.6875 228.8125 191.914062 225.558594 191.359375 C 225.296875 191.300781 225.105469 191.152344 224.980469 190.914062 C 222.417969 186.664062 219.390625 182.777344 215.90625 179.246094 C 211.464844 174.90625 207.660156 170.070312 204.496094 164.730469 C 201.328125 159.390625 198.90625 153.734375 197.226562 147.761719 C 197.171875 147.535156 197.132812 147.308594 197.113281 147.082031 C 197.199219 146.851562 197.273438 146.65625 197.503906 147.230469 L 197.773438 147.707031 C 199.441406 151.347656 201.519531 154.742188 204.007812 157.878906 C 202.519531 155.3125 201.234375 152.644531 200.15625 149.882812 C 199.078125 147.117188 198.214844 144.285156 197.570312 141.390625 C 196.921875 138.492188 196.5 135.5625 196.304688 132.601562 C 196.109375 129.640625 196.136719 126.683594 196.394531 123.726562 C 196.394531 123.726562 196.570312 123.269531 196.453125 122.589844 C 196.582031 121.175781 196.722656 119.917969 196.820312 118.980469 C 197.28125 116.238281 198 113.566406 198.980469 110.964844 C 200.742188 106.753906 203.070312 102.886719 205.960938 99.355469 C 206.09375 99.175781 206.261719 99.058594 206.476562 98.996094 C 206.6875 98.933594 206.894531 98.941406 207.101562 99.019531 C 207.308594 99.097656 207.46875 99.230469 207.585938 99.417969 C 207.703125 99.605469 207.75 99.808594 207.726562 100.027344 C 206.054688 110.558594 205.992188 121.101562 207.535156 131.652344 C 207.585938 131.996094 207.476562 132.277344 207.210938 132.503906 C 205.710938 133.9375 203.9375 134.847656 201.898438 135.230469 C 203.652344 135.855469 205.433594 135.9375 207.238281 135.472656 C 207.5 135.421875 207.738281 135.46875 207.960938 135.609375 C 208.179688 135.753906 208.324219 135.953125 208.382812 136.210938 C 209.507812 141.859375 211.425781 147.226562 214.136719 152.308594 C 216.851562 157.390625 220.246094 161.96875 224.316406 166.046875 C 224.414062 166.128906 224.488281 166.226562 224.542969 166.339844 C 224.597656 166.453125 224.628906 166.574219 224.632812 166.699219 C 224.640625 166.828125 224.617188 166.949219 224.574219 167.066406 C 224.527344 167.183594 224.460938 167.289062 224.371094 167.378906 C 222.753906 169.238281 220.777344 170.554688 218.4375 171.332031 C 219.929688 171.402344 221.394531 171.234375 222.832031 170.828125 C 224.269531 170.421875 225.605469 169.800781 226.839844 168.957031 C 226.992188 168.871094 227.152344 168.84375 227.324219 168.867188 C 227.496094 168.890625 227.644531 168.964844 227.765625 169.085938 C 242.914062 181.351562 244.605469 187.914062 246.800781 197.183594 C 247.933594 202.46875 249.578125 207.59375 251.726562 212.554688 C 251.808594 212.796875 251.800781 213.039062 251.710938 213.277344 C 251.617188 213.515625 251.460938 213.699219 251.242188 213.828125 C 250.34375 214.347656 249.382812 214.652344 248.351562 214.742188 C 247.320312 214.832031 246.316406 214.703125 245.34375 214.347656 C 247.589844 215.597656 249.996094 216.167969 252.5625 216.058594 C 252.761719 216.011719 252.957031 216.027344 253.148438 216.097656 C 253.339844 216.171875 253.492188 216.289062 253.609375 216.457031 C 256.132812 221.292969 259.003906 225.910156 262.226562 230.3125 C 262.355469 230.492188 262.417969 230.691406 262.425781 230.910156 C 262.429688 231.132812 262.371094 231.335938 262.253906 231.519531 C 260.800781 233.796875 258.878906 235.558594 256.484375 236.8125 C 259.183594 236.644531 261.660156 235.820312 263.917969 234.328125 C 264.121094 234.183594 264.347656 234.132812 264.59375 234.175781 C 264.84375 234.222656 265.039062 234.34375 265.183594 234.550781 C 267.40625 237.460938 269.882812 240.5 272.875 243.855469 C 256.910156 219.890625 252.632812 206.15625 250.285156 196.601562 C 247.933594 187.050781 246.1875 179.453125 230.164062 166.441406 C 226.648438 163.578125 223.570312 160.300781 220.9375 156.613281 C 218.300781 152.921875 216.195312 148.953125 214.625 144.699219 C 214.566406 144.546875 214.546875 144.390625 214.566406 144.230469 C 214.585938 144.070312 214.640625 143.921875 214.734375 143.789062 C 214.824219 143.65625 214.941406 143.550781 215.085938 143.476562 C 215.230469 143.402344 215.382812 143.363281 215.546875 143.363281 C 217.632812 143.429688 219.5625 142.917969 221.34375 141.832031 C 218.671875 141.960938 216.132812 141.449219 213.714844 140.304688 C 213.488281 140.203125 213.296875 140.050781 213.136719 139.859375 L 212.875 139.761719 C 210.738281 132.03125 209.746094 124.160156 209.898438 116.144531 C 209.902344 116.007812 209.929688 115.878906 209.984375 115.757812 C 210.042969 115.632812 210.117188 115.523438 210.21875 115.433594 C 210.316406 115.339844 210.429688 115.269531 210.554688 115.222656 C 210.683594 115.175781 210.8125 115.152344 210.949219 115.160156 C 212.203125 115.324219 213.453125 115.296875 214.699219 115.066406 C 215.945312 114.839844 217.128906 114.421875 218.242188 113.820312 C 215.597656 113.820312 213.0625 113.289062 210.640625 112.230469 C 210.449219 112.148438 210.304688 112.019531 210.199219 111.839844 C 210.09375 111.664062 210.050781 111.472656 210.074219 111.265625 C 210.382812 105.742188 211.121094 100.28125 212.28125 94.875 C 212.363281 94.550781 212.53125 94.285156 212.792969 94.078125 C 213.054688 93.871094 213.347656 93.765625 213.683594 93.761719 C 221.457031 93.617188 246.730469 96.148438 262.394531 131.691406 C 262.535156 131.925781 262.570312 132.171875 262.503906 132.4375 C 262.433594 132.699219 262.285156 132.898438 262.050781 133.039062 C 261.816406 133.175781 261.566406 133.210938 261.304688 133.144531 C 261.039062 133.078125 260.839844 132.925781 260.703125 132.691406 C 256.210938 126.277344 250.839844 120.71875 244.582031 116.007812 C 244.394531 115.882812 244.273438 115.707031 244.21875 115.484375 C 244.167969 115.265625 244.199219 115.054688 244.308594 114.855469 C 245.253906 113.046875 245.625 111.128906 245.421875 109.097656 C 244.570312 111 243.222656 112.433594 241.378906 113.402344 C 241.089844 113.570312 240.804688 113.5625 240.527344 113.375 C 237.890625 111.722656 235.136719 110.296875 232.265625 109.097656 C 240.582031 114.429688 247.71875 121.039062 253.671875 128.921875 C 253.945312 129.539062 253.902344 130.136719 253.550781 130.710938 C 252.554688 132.925781 251.222656 134.914062 249.546875 136.675781 C 251.761719 135.90625 253.664062 134.65625 255.25 132.933594 C 255.359375 132.832031 255.484375 132.753906 255.625 132.707031 C 255.769531 132.660156 255.914062 132.644531 256.0625 132.664062 C 256.210938 132.679688 256.351562 132.726562 256.476562 132.804688 C 256.605469 132.882812 256.710938 132.984375 256.792969 133.109375 C 263.609375 142.914062 268.722656 153.535156 272.140625 164.972656 C 272.566406 167.035156 273.28125 168.996094 274.28125 170.855469 C 275.285156 172.710938 276.53125 174.382812 278.027344 175.871094 C 278.9375 176.820312 281.988281 180.121094 285.816406 184.917969 C 285.992188 185.136719 286.066406 185.386719 286.039062 185.667969 C 286.011719 185.945312 285.890625 186.179688 285.675781 186.363281 C 284.054688 187.640625 282.214844 188.425781 280.167969 188.71875 C 281.367188 189.09375 282.59375 189.253906 283.847656 189.191406 C 285.105469 189.128906 286.308594 188.851562 287.464844 188.355469 C 287.675781 188.285156 287.886719 188.292969 288.097656 188.371094 C 288.304688 188.449219 288.464844 188.585938 288.578125 188.78125 C 294.917969 197.101562 299.433594 206.320312 302.121094 216.429688 C 302.121094 216.429688 301.882812 216.078125 301.882812 216.078125 C 300.675781 213.375 299.148438 210.871094 297.300781 208.558594 C 295.453125 206.246094 293.34375 204.207031 290.972656 202.433594 C 292.785156 204.546875 294.371094 206.8125 295.738281 209.234375 C 297.105469 211.660156 298.222656 214.191406 299.089844 216.835938 C 299.957031 219.476562 300.5625 222.175781 300.902344 224.9375 C 301.238281 227.699219 301.308594 230.464844 301.101562 233.238281 C 301.035156 233.949219 300.875 234.636719 300.617188 235.300781 C 298.410156 239.019531 295.488281 242.050781 291.859375 244.394531 Z M 291.9375 244.578125 " fill-opacity="1" fill-rule="nonzero"/></g></g></g></g><g clip-path="url(#e35c871714)"><g clip-path="url(#8664850326)"><g clip-path="url(#91774c1fd1)"><g clip-path="url(#c30d6fa07f)"><path fill="#000000" d="M 278.160156 204.285156 C 278.132812 204.222656 278.128906 204.160156 278.152344 204.097656 C 278.179688 204.03125 278.222656 203.984375 278.285156 203.957031 C 279.757812 202.375 280.78125 200.542969 281.359375 198.460938 C 280.023438 200.042969 278.441406 201.3125 276.605469 202.269531 C 276.449219 202.316406 276.332031 202.269531 276.246094 202.132812 L 273.199219 199.019531 C 265.898438 191.734375 259.652344 185.417969 258.808594 176.140625 C 258.71875 175.394531 258.5625 174.625 258.40625 173.851562 C 258.355469 173.671875 258.359375 173.492188 258.429688 173.316406 C 258.496094 173.140625 258.609375 173.003906 258.769531 172.902344 C 259.878906 172.207031 260.84375 171.347656 261.664062 170.324219 C 262.484375 169.300781 263.117188 168.171875 263.558594 166.9375 C 261.769531 168.289062 259.84375 169.402344 257.785156 170.28125 C 257.703125 170.320312 257.621094 170.320312 257.535156 170.289062 C 257.453125 170.257812 257.394531 170.199219 257.359375 170.117188 C 255.484375 164.550781 252.9375 159.304688 249.71875 154.386719 C 249.679688 154.308594 249.679688 154.226562 249.710938 154.140625 C 249.742188 154.058594 249.800781 153.996094 249.882812 153.964844 C 251.394531 153.59375 252.800781 152.988281 254.105469 152.144531 C 255.410156 151.300781 256.542969 150.265625 257.496094 149.039062 C 256.082031 149.917969 254.5625 150.539062 252.9375 150.910156 C 251.3125 151.277344 249.671875 151.371094 248.015625 151.191406 C 247.753906 151.226562 247.535156 151.140625 247.363281 150.941406 C 241.859375 143.007812 235.792969 135.535156 229.160156 128.519531 C 229.160156 128.519531 232.84375 133.109375 237.308594 139.570312 C 237.335938 139.683594 237.304688 139.769531 237.210938 139.832031 C 234.800781 142.851562 231.816406 145.109375 228.253906 146.605469 C 230.25 146.492188 232.1875 146.085938 234.058594 145.382812 C 235.933594 144.679688 237.660156 143.710938 239.234375 142.480469 C 239.398438 142.414062 239.519531 142.457031 239.59375 142.617188 C 241.96875 146.222656 244.5625 150.320312 246.867188 154.496094 C 249.925781 159.765625 252.332031 165.316406 254.078125 171.152344 C 254.117188 171.226562 254.121094 171.300781 254.089844 171.378906 C 254.0625 171.460938 254.007812 171.511719 253.929688 171.542969 C 251.546875 172.207031 249.144531 172.277344 246.726562 171.753906 C 248.886719 172.988281 251.203125 173.726562 253.679688 173.957031 C 254.058594 174.023438 254.375 174.199219 254.628906 174.488281 C 254.886719 174.773438 255.023438 175.109375 255.042969 175.492188 C 254.945312 175.753906 255.171875 176.140625 255.171875 176.4375 C 256.074219 186.9375 263.148438 194.023438 270.597656 201.511719 L 272.527344 203.332031 C 272.527344 203.332031 272.746094 203.640625 272.363281 203.757812 C 269.640625 204.589844 266.855469 205.011719 264.007812 205.027344 C 265.730469 205.792969 267.527344 206.246094 269.40625 206.382812 C 271.285156 206.523438 273.132812 206.335938 274.945312 205.832031 C 275.0625 205.820312 275.160156 205.855469 275.242188 205.945312 C 281.050781 210.515625 285.933594 215.925781 289.882812 222.175781 C 287.191406 215.417969 283.28125 209.453125 278.160156 204.285156 Z M 278.160156 204.285156 " fill-opacity="1" fill-rule="nonzero"/></g></g></g></g><g clip-path="url(#9d511982fa)"><g clip-path="url(#14553d2c78)"><g clip-path="url(#88406cb95b)"><g clip-path="url(#f2491dc001)"><path fill="#000000" d="M 322.039062 131.566406 C 323.105469 131.96875 324.195312 132.277344 325.3125 132.496094 C 326.429688 132.714844 327.558594 132.84375 328.699219 132.875 C 329.835938 132.910156 330.96875 132.851562 332.097656 132.699219 C 333.226562 132.546875 334.332031 132.300781 335.421875 131.964844 C 336.507812 131.628906 337.5625 131.207031 338.582031 130.699219 C 339.597656 130.191406 340.570312 129.601562 341.488281 128.933594 C 342.410156 128.265625 343.273438 127.523438 344.070312 126.714844 C 344.871094 125.902344 345.597656 125.03125 346.253906 124.101562 C 355.003906 110.996094 361.160156 83.484375 341.703125 53.652344 C 341.296875 53.050781 340.84375 52.492188 340.339844 51.976562 C 339.832031 51.460938 339.285156 50.992188 338.695312 50.574219 C 338.101562 50.160156 337.480469 49.796875 336.824219 49.496094 C 336.167969 49.191406 335.488281 48.949219 334.789062 48.769531 C 334.085938 48.589844 333.375 48.472656 332.65625 48.421875 C 331.933594 48.371094 331.214844 48.386719 330.496094 48.46875 C 329.777344 48.546875 329.070312 48.695312 328.378906 48.902344 C 327.6875 49.113281 327.019531 49.382812 326.375 49.710938 C 324.839844 50.507812 323.570312 51.609375 322.566406 53.015625 C 313.085938 65.769531 299.167969 96.835938 311.480469 121.917969 C 312.5625 124.140625 314.011719 126.082031 315.835938 127.75 C 317.660156 129.417969 319.726562 130.691406 322.039062 131.566406 Z M 324.679688 55.921875 C 325.09375 55.304688 325.578125 54.746094 326.128906 54.246094 C 326.683594 53.746094 327.285156 53.320312 327.945312 52.96875 C 328.601562 52.621094 329.289062 52.355469 330.011719 52.171875 C 330.734375 51.992188 331.46875 51.902344 332.210938 51.902344 C 333.113281 51.917969 333.984375 52.089844 334.828125 52.414062 C 336.457031 53.035156 337.746094 54.078125 338.695312 55.539062 C 357.113281 83.777344 351.660156 109.945312 343.257812 122.132812 C 342.429688 123.34375 341.457031 124.429688 340.34375 125.382812 C 339.230469 126.339844 338.007812 127.132812 336.683594 127.765625 C 335.359375 128.398438 333.976562 128.847656 332.535156 129.113281 C 331.089844 129.382812 329.636719 129.457031 328.175781 129.339844 C 326.738281 129.269531 325.339844 129.007812 323.972656 128.5625 C 322.605469 128.117188 321.324219 127.503906 320.121094 126.714844 C 318.917969 125.925781 317.84375 124.996094 316.890625 123.917969 C 315.9375 122.84375 315.140625 121.660156 314.503906 120.375 C 303.417969 97.484375 315.75 68.320312 324.746094 55.945312 Z M 324.679688 55.921875 " fill-opacity="1" fill-rule="nonzero"/></g></g></g></g><g clip-path="url(#e046bf563e)"><g clip-path="url(#cbaf2218e7)"><g clip-path="url(#90cd7c98a8)"><g clip-path="url(#6947d25584)"><path fill="#000000" d="M 316.890625 108.433594 L 316.980469 108.882812 C 316.96875 108.71875 316.945312 108.558594 316.902344 108.402344 Z M 316.890625 108.433594 " fill-opacity="1" fill-rule="nonzero"/></g></g></g></g><g clip-path="url(#29bfe4a6ec)"><g clip-path="url(#bfe2309db1)"><g clip-path="url(#d1ffaa285f)"><g clip-path="url(#2fe142e704)"><path fill="#000000" d="M 316.890625 108.433594 C 320.277344 100.25 318.164062 86.441406 318.207031 86.230469 C 316.53125 93.558594 316.09375 100.960938 316.890625 108.433594 Z M 316.890625 108.433594 " fill-opacity="1" fill-rule="nonzero"/></g></g></g></g><g clip-path="url(#32f6c917f8)"><g clip-path="url(#961a7fccd6)"><g clip-path="url(#50c8d3703b)"><g clip-path="url(#e6963743cf)"><path fill="#000000" d="M 409.152344 179.660156 C 409.671875 177.996094 409.964844 176.292969 410.035156 174.550781 C 410.101562 172.808594 409.941406 171.085938 409.554688 169.382812 C 409.167969 167.683594 408.566406 166.0625 407.75 164.519531 C 406.933594 162.980469 405.929688 161.570312 404.738281 160.292969 C 403.558594 158.964844 402.222656 157.816406 400.734375 156.84375 C 399.246094 155.875 397.65625 155.113281 395.964844 154.5625 C 394.277344 154.011719 392.542969 153.695312 390.769531 153.605469 C 388.992188 153.515625 387.238281 153.660156 385.5 154.035156 C 370.085938 157.402344 355.011719 165.960938 348.5 200.980469 C 348.335938 201.914062 348.289062 202.855469 348.355469 203.804688 C 348.417969 204.753906 348.597656 205.679688 348.890625 206.582031 C 349.179688 207.488281 349.578125 208.34375 350.078125 209.152344 C 350.578125 209.960938 351.167969 210.695312 351.847656 211.359375 C 352.515625 212.035156 353.253906 212.617188 354.066406 213.113281 C 354.875 213.609375 355.730469 214.003906 356.632812 214.292969 C 357.539062 214.582031 358.464844 214.761719 359.410156 214.828125 C 360.355469 214.894531 361.296875 214.847656 362.234375 214.6875 C 377.867188 211.929688 400.710938 206.1875 409.152344 179.660156 Z M 362.246094 211.023438 C 361.527344 211.175781 360.800781 211.246094 360.066406 211.222656 C 359.332031 211.203125 358.609375 211.09375 357.902344 210.898438 C 357.191406 210.703125 356.519531 210.425781 355.875 210.066406 C 355.234375 209.710938 354.644531 209.277344 354.109375 208.777344 C 353.640625 208.316406 353.234375 207.804688 352.890625 207.242188 C 352.546875 206.679688 352.277344 206.085938 352.078125 205.457031 C 351.878906 204.832031 351.761719 204.1875 351.71875 203.53125 C 351.679688 202.875 351.714844 202.222656 351.835938 201.578125 C 357.996094 168.449219 371.792969 160.492188 386.152344 157.429688 C 389.332031 156.730469 392.445312 156.957031 395.488281 158.109375 C 398.039062 159.09375 400.222656 160.601562 402.046875 162.636719 C 403.03125 163.683594 403.859375 164.839844 404.535156 166.109375 C 405.214844 167.375 405.710938 168.710938 406.035156 170.109375 C 406.355469 171.507812 406.488281 172.925781 406.433594 174.363281 C 406.378906 175.796875 406.136719 177.199219 405.707031 178.570312 C 398.027344 203.101562 377.335938 208.316406 362.246094 211.023438 Z M 362.246094 211.023438 " fill-opacity="1" fill-rule="nonzero"/></g></g></g></g><g clip-path="url(#0ec9bcd110)"><g clip-path="url(#21b9667025)"><path fill="#ffffff" d="M 243.582031 71.042969 L 385.5625 -32.890625 L 521.164062 152.355469 L 379.183594 256.289062 Z M 243.582031 71.042969 " fill-opacity="1" fill-rule="nonzero"/></g></g><g clip-path="url(#785f2aa5c5)"><path fill="#000000" d="M 187.488281 369.960938 C 86.710938 369.960938 5.078125 287.761719 5.078125 187.546875 C 5.078125 87.335938 86.710938 5.136719 187.488281 5.136719 C 288.265625 5.136719 369.902344 86.769531 369.902344 187.546875 C 369.902344 288.324219 287.703125 369.960938 187.488281 369.960938 Z M 187.488281 16.394531 C 92.90625 16.394531 16.335938 92.964844 16.335938 187.546875 C 16.335938 282.132812 92.90625 358.699219 187.488281 358.699219 C 282.074219 358.699219 358.640625 282.132812 358.640625 187.546875 C 358.640625 92.964844 281.511719 16.394531 187.488281 16.394531 Z M 187.488281 16.394531 " fill-opacity="1" fill-rule="nonzero"/></g></svg>