<svg xmlns="http://www.w3.org/2000/svg" xmlns:xlink="http://www.w3.org/1999/xlink" width="500" zoomAndPan="magnify" viewBox="0 0 375 374.999991" height="500" preserveAspectRatio="xMidYMid meet" version="1.0"><defs><clipPath id="14a5d72a2b"><path d="M 104 51.730469 L 271 51.730469 L 271 324 L 104 324 Z M 104 51.730469 " clip-rule="nonzero"/></clipPath></defs><path fill="#000000" d="M 260.003906 205.554688 L 248.0625 199.730469 L 248.089844 199.972656 L 219.265625 202.949219 C 219.269531 203.09375 219.273438 203.242188 219.277344 203.386719 L 219.367188 203.386719 C 219.367188 203.933594 219.351562 204.476562 219.324219 205.015625 C 219.363281 206.691406 219.375 208.367188 219.347656 210.042969 L 247.761719 210.042969 C 258.457031 210.132812 264.234375 221.199219 264.234375 221.199219 C 271.566406 230.53125 267.363281 236.742188 267.363281 236.742188 L 259.039062 223.359375 L 247.761719 216.339844 L 247.761719 216.582031 L 219.097656 216.582031 C 218.789062 221.65625 218.203125 226.71875 217.34375 231.75 L 217.511719 231.746094 C 217.417969 232.011719 217.3125 232.273438 217.210938 232.535156 C 216.9375 234.089844 216.644531 235.640625 216.320312 237.183594 L 212.804688 255.113281 L 209.019531 274.40625 L 209.023438 274.40625 C 209.023438 274.40625 209.019531 274.40625 209.019531 274.40625 L 207.945312 279.902344 C 207.628906 281.503906 207.128906 283.035156 206.476562 284.472656 C 209.585938 284.902344 213.1875 286.15625 216.730469 288.203125 C 224.734375 292.824219 229.40625 299.714844 227.167969 303.59375 C 225.351562 306.738281 219.542969 306.9375 213.140625 304.433594 C 215.023438 309.207031 214.984375 313.421875 212.621094 315.230469 C 209.0625 317.957031 201.625 314.21875 196.003906 306.882812 C 195.9375 306.796875 195.882812 306.710938 195.816406 306.625 C 195.644531 315.558594 192.085938 322.691406 187.714844 322.691406 C 183.34375 322.691406 179.785156 315.558594 179.613281 306.625 C 179.550781 306.710938 179.492188 306.796875 179.425781 306.882812 C 173.804688 314.21875 166.367188 317.957031 162.8125 315.230469 C 160.449219 313.421875 160.40625 309.207031 162.289062 304.433594 C 155.886719 306.9375 150.078125 306.738281 148.261719 303.59375 C 146.023438 299.714844 150.695312 292.824219 158.699219 288.203125 C 162.246094 286.15625 165.84375 284.902344 168.953125 284.472656 C 168.300781 283.035156 167.800781 281.503906 167.488281 279.902344 L 166.410156 274.40625 L 162.625 255.113281 L 159.109375 237.183594 C 158.785156 235.640625 158.492188 234.09375 158.21875 232.542969 C 158.191406 232.472656 158.164062 232.402344 158.136719 232.332031 L 158.183594 232.332031 C 157.269531 227.113281 156.65625 221.851562 156.335938 216.582031 L 127.667969 216.582031 L 127.667969 216.339844 L 116.390625 223.359375 L 108.066406 236.742188 C 108.066406 236.742188 103.863281 230.53125 111.195312 221.199219 C 111.195312 221.199219 116.972656 210.132812 127.667969 210.042969 L 156.082031 210.042969 C 156.058594 208.367188 156.070312 206.691406 156.105469 205.015625 C 156.078125 204.476562 156.0625 203.933594 156.0625 203.386719 L 156.152344 203.386719 C 156.15625 203.242188 156.160156 203.09375 156.164062 202.949219 L 127.34375 199.972656 L 127.367188 199.730469 L 115.425781 205.554688 L 105.773438 218.015625 C 105.773438 218.015625 102.230469 211.402344 110.480469 202.875 C 110.480469 202.875 117.363281 192.460938 128.011719 193.46875 L 156.554688 196.414062 C 156.804688 193.394531 157.148438 190.382812 157.59375 187.378906 L 128.554688 184.148438 C 117.929688 182.875 113.414062 171.238281 113.414062 171.238281 C 107.160156 161.15625 112.023438 155.445312 112.023438 155.445312 L 118.816406 169.667969 L 129.25 177.890625 L 128.957031 180.53125 L 129.277344 177.648438 L 158.703125 180.925781 C 159.117188 178.816406 159.566406 176.710938 160.078125 174.617188 L 160.214844 174.058594 L 131.730469 167.878906 C 121.296875 165.523438 117.996094 153.484375 117.996094 153.484375 C 112.8125 142.808594 118.238281 137.628906 118.238281 137.628906 L 123.53125 152.476562 L 133.066406 161.726562 L 133.117188 161.488281 L 161.765625 167.703125 L 162.933594 162.90625 L 140.34375 138.347656 C 125.230469 134.101562 114.148438 120.226562 114.148438 103.753906 C 114.148438 87.355469 127.726562 73.53125 142.738281 69.214844 L 142.738281 91.390625 C 142.738281 95.449219 146.03125 98.742188 150.089844 98.742188 L 150.089844 67.8125 C 155.492188 67.8125 159.871094 72.191406 159.871094 77.59375 L 159.871094 139.699219 L 159.695312 139.699219 L 166.921875 147.554688 C 169.867188 140.277344 176.429688 135.058594 184.167969 133.820312 L 187.714844 124.125 L 191.261719 133.820312 C 199 135.058594 205.5625 140.277344 208.507812 147.554688 L 215.734375 139.699219 L 215.558594 139.699219 L 215.558594 77.59375 C 215.558594 72.191406 219.9375 67.8125 225.339844 67.8125 L 225.339844 98.742188 C 229.398438 98.742188 232.691406 95.449219 232.691406 91.390625 L 232.691406 69.214844 C 247.707031 73.53125 261.285156 87.355469 261.285156 103.753906 C 261.285156 120.226562 250.199219 134.101562 235.085938 138.347656 L 212.496094 162.90625 L 213.667969 167.703125 L 242.3125 161.488281 L 242.363281 161.726562 L 251.898438 152.476562 L 257.195312 137.628906 C 257.195312 137.628906 262.617188 142.808594 257.433594 153.484375 C 257.433594 153.484375 254.132812 165.519531 243.699219 167.878906 L 215.214844 174.058594 L 215.351562 174.617188 C 215.863281 176.710938 216.3125 178.816406 216.726562 180.925781 L 246.152344 177.648438 L 246.179688 177.890625 L 256.613281 169.667969 L 263.40625 155.445312 C 263.40625 155.445312 268.269531 161.15625 262.015625 171.238281 C 262.015625 171.238281 257.5 182.875 246.875 184.148438 L 217.835938 187.378906 C 218.28125 190.382812 218.625 193.394531 218.875 196.414062 L 247.417969 193.46875 C 258.066406 192.460938 264.949219 202.875 264.949219 202.875 C 273.199219 211.402344 269.65625 218.015625 269.65625 218.015625 Z M 260.003906 205.554688 " fill-opacity="1" fill-rule="nonzero"/><g clip-path="url(#14a5d72a2b)"><path fill="#000000" d="M 265.402344 202.53125 C 265.398438 202.527344 265.398438 202.527344 265.394531 202.523438 C 265.382812 202.507812 265.367188 202.480469 265.351562 202.457031 C 265.339844 202.441406 265.328125 202.425781 265.3125 202.40625 C 265.300781 202.382812 265.28125 202.359375 265.261719 202.332031 C 265.242188 202.304688 265.222656 202.273438 265.199219 202.242188 C 265.179688 202.214844 265.15625 202.183594 265.136719 202.15625 C 265.109375 202.117188 265.082031 202.078125 265.050781 202.039062 C 265.023438 202.003906 264.996094 201.96875 264.96875 201.929688 C 264.9375 201.886719 264.902344 201.839844 264.867188 201.792969 C 264.835938 201.75 264.800781 201.707031 264.769531 201.664062 C 264.730469 201.617188 264.691406 201.566406 264.652344 201.519531 C 264.613281 201.464844 264.570312 201.410156 264.523438 201.355469 C 264.488281 201.308594 264.449219 201.261719 264.410156 201.214844 C 264.359375 201.148438 264.304688 201.082031 264.246094 201.015625 C 264.210938 200.972656 264.175781 200.929688 264.136719 200.882812 C 264.074219 200.808594 264.007812 200.726562 263.9375 200.648438 C 263.902344 200.609375 263.871094 200.570312 263.835938 200.53125 C 263.757812 200.4375 263.675781 200.347656 263.589844 200.253906 C 263.5625 200.222656 263.535156 200.191406 263.507812 200.160156 C 263.414062 200.054688 263.316406 199.949219 263.210938 199.839844 C 263.195312 199.820312 263.175781 199.800781 263.160156 199.78125 C 260.332031 196.765625 254.996094 192.441406 247.925781 192.867188 L 247.921875 192.847656 L 247.367188 192.90625 C 247.367188 192.90625 247.363281 192.90625 247.363281 192.90625 L 246.796875 192.957031 L 246.796875 192.964844 L 219.371094 195.792969 C 219.144531 193.148438 218.84375 190.507812 218.46875 187.878906 L 235.523438 185.980469 L 246.375 184.773438 L 246.375 184.777344 L 246.925781 184.714844 L 246.929688 184.714844 L 247.503906 184.648438 L 247.5 184.628906 C 254.214844 183.585938 258.4375 178.628906 260.644531 175.097656 C 260.648438 175.09375 260.652344 175.089844 260.652344 175.085938 C 260.746094 174.9375 260.835938 174.789062 260.925781 174.644531 C 260.9375 174.621094 260.949219 174.601562 260.960938 174.578125 C 261.039062 174.449219 261.113281 174.324219 261.183594 174.199219 C 261.203125 174.164062 261.226562 174.128906 261.246094 174.09375 C 261.308594 173.980469 261.367188 173.875 261.425781 173.765625 C 261.449219 173.722656 261.476562 173.679688 261.5 173.636719 C 261.550781 173.539062 261.597656 173.449219 261.648438 173.355469 C 261.671875 173.308594 261.699219 173.257812 261.722656 173.210938 C 261.765625 173.128906 261.804688 173.050781 261.84375 172.976562 C 261.871094 172.921875 261.898438 172.871094 261.921875 172.816406 C 261.957031 172.75 261.988281 172.6875 262.015625 172.625 C 262.042969 172.570312 262.070312 172.519531 262.09375 172.46875 C 262.117188 172.414062 262.144531 172.363281 262.167969 172.3125 C 262.191406 172.257812 262.214844 172.210938 262.234375 172.164062 C 262.253906 172.117188 262.273438 172.078125 262.292969 172.035156 C 262.3125 171.992188 262.332031 171.945312 262.351562 171.90625 C 262.367188 171.871094 262.378906 171.839844 262.394531 171.808594 C 262.410156 171.769531 262.425781 171.734375 262.4375 171.703125 C 262.449219 171.675781 262.460938 171.648438 262.472656 171.625 C 262.480469 171.601562 262.488281 171.582031 262.496094 171.566406 C 262.507812 171.539062 262.519531 171.507812 262.527344 171.488281 C 268.878906 161.203125 264.046875 155.324219 263.835938 155.078125 L 263.269531 154.414062 L 256.160156 169.304688 L 246.320312 177.0625 L 235.078125 178.3125 L 217.175781 180.304688 C 217.175781 180.304688 217.175781 180.300781 217.175781 180.300781 C 216.992188 179.382812 216.804688 178.46875 216.605469 177.554688 C 216.378906 176.53125 216.152344 175.507812 215.90625 174.492188 C 215.90625 174.492188 215.90625 174.488281 215.902344 174.488281 L 229.554688 171.527344 L 243.265625 168.550781 L 243.265625 168.558594 L 243.820312 168.433594 L 244.371094 168.3125 L 244.367188 168.289062 C 250.9375 166.566406 254.632812 161.199219 256.464844 157.460938 C 256.46875 157.457031 256.46875 157.453125 256.472656 157.449219 C 256.550781 157.292969 256.625 157.136719 256.695312 156.984375 C 256.707031 156.960938 256.71875 156.9375 256.726562 156.914062 C 256.789062 156.777344 256.851562 156.644531 256.90625 156.515625 C 256.925781 156.476562 256.941406 156.4375 256.957031 156.398438 C 257.007812 156.285156 257.054688 156.171875 257.101562 156.0625 C 257.125 156.015625 257.144531 155.964844 257.164062 155.917969 C 257.207031 155.820312 257.242188 155.726562 257.28125 155.632812 C 257.300781 155.578125 257.324219 155.523438 257.34375 155.472656 C 257.378906 155.390625 257.410156 155.308594 257.4375 155.230469 C 257.460938 155.171875 257.480469 155.117188 257.503906 155.0625 C 257.527344 154.992188 257.550781 154.929688 257.574219 154.867188 C 257.597656 154.808594 257.617188 154.75 257.636719 154.695312 C 257.65625 154.640625 257.675781 154.589844 257.691406 154.535156 C 257.710938 154.480469 257.730469 154.429688 257.746094 154.378906 C 257.761719 154.332031 257.777344 154.289062 257.789062 154.25 C 257.804688 154.199219 257.820312 154.15625 257.832031 154.113281 C 257.84375 154.074219 257.855469 154.039062 257.867188 154.007812 C 257.878906 153.96875 257.890625 153.9375 257.898438 153.90625 C 257.910156 153.875 257.917969 153.84375 257.925781 153.816406 C 257.933594 153.796875 257.9375 153.777344 257.941406 153.761719 C 257.953125 153.730469 257.960938 153.699219 257.964844 153.679688 C 263.0625 143.136719 258.144531 137.78125 257.621094 137.253906 C 257.605469 137.238281 257.59375 137.226562 257.585938 137.21875 L 256.953125 136.617188 L 251.410156 152.160156 L 242.417969 160.886719 L 229.214844 163.75 L 214.085938 167.03125 L 213.3125 163.863281 L 213.121094 163.066406 L 224.667969 150.515625 L 235.402344 138.84375 C 238.253906 138.023438 240.960938 136.867188 243.480469 135.417969 C 243.5 135.410156 243.515625 135.398438 243.53125 135.390625 C 245.585938 134.203125 247.515625 132.824219 249.292969 131.273438 C 249.347656 131.226562 249.402344 131.179688 249.457031 131.132812 C 249.761719 130.863281 250.066406 130.585938 250.363281 130.304688 C 250.441406 130.230469 250.523438 130.152344 250.601562 130.074219 C 250.890625 129.800781 251.175781 129.519531 251.453125 129.234375 C 251.519531 129.164062 251.585938 129.09375 251.65625 129.023438 C 252.527344 128.117188 253.351562 127.164062 254.128906 126.171875 C 254.214844 126.058594 254.304688 125.949219 254.390625 125.835938 C 254.589844 125.570312 254.785156 125.304688 254.980469 125.035156 C 255.101562 124.867188 255.222656 124.699219 255.339844 124.527344 C 255.515625 124.273438 255.691406 124.015625 255.863281 123.753906 C 255.988281 123.5625 256.113281 123.367188 256.234375 123.171875 C 256.394531 122.921875 256.554688 122.667969 256.707031 122.414062 C 256.839844 122.191406 256.964844 121.964844 257.09375 121.742188 C 257.226562 121.503906 257.367188 121.265625 257.496094 121.027344 C 257.734375 120.585938 257.964844 120.136719 258.183594 119.683594 C 258.289062 119.476562 258.382812 119.261719 258.480469 119.050781 C 258.613281 118.765625 258.742188 118.480469 258.867188 118.191406 C 258.964844 117.96875 259.058594 117.742188 259.148438 117.515625 C 259.265625 117.230469 259.378906 116.941406 259.492188 116.652344 C 259.574219 116.425781 259.660156 116.203125 259.738281 115.976562 C 259.851562 115.664062 259.953125 115.351562 260.058594 115.039062 C 260.125 114.832031 260.195312 114.621094 260.257812 114.414062 C 260.382812 114.011719 260.496094 113.601562 260.605469 113.195312 C 260.640625 113.070312 260.675781 112.949219 260.710938 112.824219 C 260.84375 112.292969 260.96875 111.757812 261.082031 111.21875 C 261.117188 111.046875 261.144531 110.871094 261.179688 110.699219 C 261.253906 110.316406 261.324219 109.9375 261.382812 109.550781 C 261.417969 109.347656 261.445312 109.140625 261.476562 108.933594 C 261.527344 108.570312 261.574219 108.207031 261.617188 107.839844 C 261.640625 107.628906 261.660156 107.421875 261.683594 107.210938 C 261.71875 106.820312 261.746094 106.429688 261.769531 106.039062 C 261.78125 105.855469 261.796875 105.671875 261.804688 105.488281 C 261.832031 104.914062 261.851562 104.335938 261.851562 103.753906 C 261.851562 95.855469 258.804688 88.1875 253.042969 81.582031 C 247.714844 75.464844 240.539062 70.882812 232.847656 68.671875 L 232.125 68.464844 L 232.125 91.390625 C 232.125 94.941406 229.382812 97.863281 225.90625 98.152344 L 225.90625 67.246094 L 225.339844 67.246094 C 219.632812 67.246094 214.992188 71.890625 214.992188 77.59375 L 214.992188 139.671875 L 208.675781 146.535156 C 208.214844 145.503906 207.679688 144.515625 207.082031 143.578125 C 207.082031 143.578125 207.082031 143.574219 207.078125 143.574219 C 206.488281 142.644531 205.828125 141.765625 205.113281 140.9375 C 205.101562 140.917969 205.085938 140.902344 205.070312 140.886719 C 204.371094 140.078125 203.613281 139.320312 202.804688 138.621094 C 202.769531 138.589844 202.738281 138.558594 202.703125 138.527344 C 201.90625 137.847656 201.066406 137.21875 200.179688 136.648438 C 200.128906 136.613281 200.074219 136.582031 200.023438 136.546875 C 199.144531 135.992188 198.222656 135.496094 197.269531 135.058594 C 197.203125 135.03125 197.140625 135 197.074219 134.972656 C 196.757812 134.828125 196.4375 134.695312 196.109375 134.566406 L 196.109375 92.21875 C 196.109375 70.515625 213.765625 52.863281 235.464844 52.863281 L 235.464844 51.730469 C 213.140625 51.730469 194.976562 69.894531 194.976562 92.21875 L 194.976562 134.144531 C 193.910156 133.792969 192.808594 133.515625 191.679688 133.316406 L 187.714844 122.476562 L 183.75 133.316406 C 183.269531 133.402344 182.796875 133.507812 182.324219 133.621094 C 182.199219 133.652344 182.070312 133.679688 181.945312 133.710938 C 181.578125 133.808594 181.214844 133.917969 180.851562 134.03125 C 180.625 134.101562 180.394531 134.171875 180.171875 134.25 L 180.171875 92.21875 C 180.171875 69.894531 162.007812 51.730469 139.683594 51.730469 L 139.683594 52.863281 C 161.382812 52.863281 179.039062 70.515625 179.039062 92.21875 L 179.039062 134.671875 C 178.855469 134.746094 178.675781 134.828125 178.496094 134.90625 C 178.238281 135.019531 177.984375 135.132812 177.734375 135.253906 C 177.539062 135.347656 177.34375 135.441406 177.152344 135.542969 C 176.804688 135.71875 176.464844 135.90625 176.128906 136.101562 C 175.921875 136.222656 175.722656 136.347656 175.519531 136.472656 C 175.316406 136.601562 175.117188 136.730469 174.917969 136.863281 C 174.714844 137 174.511719 137.132812 174.316406 137.277344 C 174.113281 137.421875 173.914062 137.574219 173.71875 137.726562 C 173.398438 137.972656 173.085938 138.222656 172.78125 138.484375 C 172.652344 138.59375 172.527344 138.699219 172.40625 138.8125 C 171.679688 139.457031 170.996094 140.152344 170.359375 140.886719 C 170.304688 140.949219 170.25 141.011719 170.199219 141.074219 C 169.523438 141.871094 168.898438 142.714844 168.332031 143.601562 C 168.324219 143.613281 168.316406 143.628906 168.308594 143.640625 C 167.726562 144.5625 167.203125 145.527344 166.753906 146.535156 L 164.40625 143.984375 L 160.4375 139.671875 L 160.4375 77.59375 C 160.4375 71.890625 155.796875 67.246094 150.089844 67.246094 L 149.523438 67.246094 L 149.523438 98.152344 C 146.046875 97.863281 143.304688 94.941406 143.304688 91.390625 L 143.304688 68.464844 L 142.582031 68.671875 C 134.890625 70.882812 127.71875 75.464844 122.386719 81.582031 C 116.625 88.1875 113.582031 95.855469 113.582031 103.753906 C 113.582031 104.335938 113.597656 104.914062 113.625 105.488281 C 113.632812 105.671875 113.648438 105.855469 113.660156 106.039062 C 113.683594 106.429688 113.710938 106.820312 113.75 107.210938 C 113.769531 107.421875 113.792969 107.632812 113.816406 107.839844 C 113.855469 108.207031 113.902344 108.570312 113.953125 108.929688 C 113.984375 109.136719 114.011719 109.347656 114.046875 109.550781 C 114.105469 109.9375 114.175781 110.316406 114.25 110.695312 C 114.285156 110.871094 114.3125 111.046875 114.351562 111.21875 C 114.460938 111.757812 114.585938 112.292969 114.722656 112.824219 C 114.753906 112.945312 114.789062 113.070312 114.824219 113.191406 C 114.933594 113.601562 115.046875 114.007812 115.171875 114.414062 C 115.234375 114.621094 115.304688 114.828125 115.371094 115.039062 C 115.476562 115.351562 115.582031 115.664062 115.691406 115.976562 C 115.773438 116.203125 115.855469 116.425781 115.9375 116.648438 C 116.050781 116.941406 116.164062 117.230469 116.28125 117.515625 C 116.375 117.742188 116.464844 117.96875 116.5625 118.191406 C 116.6875 118.480469 116.816406 118.761719 116.949219 119.046875 C 117.046875 119.257812 117.144531 119.476562 117.246094 119.683594 C 117.464844 120.136719 117.695312 120.585938 117.933594 121.027344 C 118.0625 121.265625 118.203125 121.503906 118.335938 121.742188 C 118.464844 121.964844 118.59375 122.191406 118.726562 122.414062 C 118.878906 122.667969 119.035156 122.921875 119.195312 123.171875 C 119.316406 123.367188 119.441406 123.5625 119.566406 123.753906 C 119.738281 124.015625 119.914062 124.273438 120.089844 124.53125 C 120.207031 124.699219 120.328125 124.867188 120.449219 125.03125 C 120.644531 125.304688 120.839844 125.570312 121.039062 125.835938 C 121.125 125.949219 121.214844 126.058594 121.304688 126.171875 C 122.078125 127.164062 122.902344 128.117188 123.773438 129.023438 C 123.84375 129.09375 123.910156 129.164062 123.976562 129.234375 C 124.253906 129.519531 124.539062 129.800781 124.828125 130.074219 C 124.90625 130.152344 124.988281 130.230469 125.070312 130.304688 C 125.367188 130.585938 125.667969 130.863281 125.972656 131.132812 C 126.027344 131.179688 126.082031 131.226562 126.136719 131.273438 C 127.914062 132.820312 129.84375 134.203125 131.898438 135.390625 C 131.914062 135.398438 131.933594 135.410156 131.949219 135.417969 C 134.46875 136.867188 137.175781 138.023438 140.027344 138.84375 L 162.3125 163.066406 L 161.34375 167.03125 L 142.125 162.863281 L 133.015625 160.886719 L 130.40625 158.355469 L 124.019531 152.160156 L 118.476562 136.617188 L 117.847656 137.21875 C 117.839844 137.226562 117.828125 137.238281 117.808594 137.253906 C 117.285156 137.78125 112.367188 143.136719 117.464844 153.679688 C 117.46875 153.699219 117.480469 153.730469 117.488281 153.761719 C 117.492188 153.777344 117.5 153.796875 117.503906 153.816406 C 117.511719 153.839844 117.523438 153.871094 117.53125 153.902344 C 117.542969 153.9375 117.550781 153.96875 117.5625 154.007812 C 117.574219 154.039062 117.585938 154.074219 117.597656 154.109375 C 117.609375 154.15625 117.625 154.203125 117.640625 154.25 C 117.65625 154.289062 117.667969 154.332031 117.683594 154.375 C 117.699219 154.425781 117.71875 154.480469 117.738281 154.539062 C 117.757812 154.589844 117.773438 154.640625 117.792969 154.695312 C 117.8125 154.75 117.835938 154.808594 117.855469 154.867188 C 117.878906 154.929688 117.902344 154.992188 117.925781 155.058594 C 117.949219 155.117188 117.96875 155.171875 117.992188 155.230469 C 118.023438 155.308594 118.054688 155.390625 118.085938 155.472656 C 118.105469 155.523438 118.128906 155.578125 118.148438 155.628906 C 118.1875 155.722656 118.226562 155.820312 118.265625 155.917969 C 118.285156 155.964844 118.308594 156.015625 118.328125 156.0625 C 118.375 156.171875 118.421875 156.285156 118.472656 156.398438 C 118.488281 156.4375 118.507812 156.476562 118.523438 156.515625 C 118.582031 156.644531 118.640625 156.777344 118.703125 156.910156 C 118.714844 156.9375 118.726562 156.960938 118.738281 156.984375 C 118.808594 157.136719 118.882812 157.292969 118.957031 157.449219 C 118.960938 157.457031 118.964844 157.460938 118.96875 157.464844 C 120.800781 161.203125 124.496094 166.566406 131.0625 168.289062 L 131.058594 168.3125 L 131.605469 168.429688 L 132.164062 168.558594 L 132.164062 168.550781 L 159.527344 174.488281 C 159.527344 174.492188 159.523438 174.496094 159.523438 174.5 C 159.277344 175.515625 159.050781 176.535156 158.824219 177.554688 C 158.628906 178.46875 158.4375 179.382812 158.253906 180.300781 C 158.253906 180.304688 158.253906 180.304688 158.253906 180.304688 L 136.558594 177.890625 L 129.109375 177.0625 L 119.269531 169.304688 L 112.160156 154.414062 L 111.59375 155.078125 C 111.585938 155.089844 111.5625 155.113281 111.535156 155.148438 C 110.972656 155.859375 106.835938 161.660156 112.902344 171.488281 C 112.910156 171.507812 112.921875 171.535156 112.933594 171.5625 C 112.941406 171.582031 112.949219 171.601562 112.957031 171.621094 C 112.96875 171.644531 112.980469 171.675781 112.992188 171.703125 C 113.003906 171.734375 113.019531 171.769531 113.035156 171.804688 C 113.046875 171.835938 113.0625 171.871094 113.078125 171.902344 C 113.097656 171.945312 113.117188 171.988281 113.136719 172.035156 C 113.15625 172.074219 113.171875 172.117188 113.191406 172.15625 C 113.214844 172.207031 113.238281 172.257812 113.261719 172.3125 C 113.285156 172.359375 113.308594 172.410156 113.335938 172.464844 C 113.359375 172.515625 113.386719 172.570312 113.410156 172.625 C 113.441406 172.6875 113.472656 172.75 113.507812 172.816406 C 113.53125 172.867188 113.558594 172.917969 113.585938 172.972656 C 113.625 173.046875 113.660156 173.125 113.703125 173.207031 C 113.730469 173.253906 113.753906 173.304688 113.78125 173.351562 C 113.828125 173.445312 113.878906 173.535156 113.929688 173.632812 C 113.953125 173.675781 113.976562 173.71875 114 173.761719 C 114.058594 173.867188 114.117188 173.976562 114.183594 174.085938 C 114.203125 174.121094 114.222656 174.15625 114.242188 174.191406 C 114.3125 174.316406 114.386719 174.441406 114.464844 174.574219 C 114.476562 174.59375 114.488281 174.613281 114.5 174.636719 C 114.589844 174.78125 114.679688 174.929688 114.773438 175.082031 C 114.773438 175.082031 114.773438 175.082031 114.777344 175.085938 C 116.980469 178.617188 121.207031 183.585938 127.929688 184.628906 L 127.929688 184.648438 L 128.503906 184.714844 L 129.054688 184.777344 L 129.054688 184.773438 L 156.960938 187.878906 C 156.585938 190.507812 156.285156 193.144531 156.058594 195.792969 L 128.632812 192.964844 L 128.636719 192.957031 L 128.066406 192.90625 C 128.066406 192.90625 128.0625 192.90625 128.0625 192.90625 L 127.507812 192.847656 L 127.503906 192.871094 C 120.722656 192.464844 115.542969 196.414062 112.636719 199.398438 C 112.632812 199.398438 112.632812 199.402344 112.628906 199.402344 C 112.507812 199.53125 112.386719 199.65625 112.273438 199.777344 C 112.253906 199.796875 112.234375 199.816406 112.21875 199.835938 C 112.117188 199.945312 112.019531 200.054688 111.921875 200.160156 C 111.894531 200.191406 111.867188 200.21875 111.839844 200.25 C 111.753906 200.34375 111.675781 200.4375 111.597656 200.527344 C 111.5625 200.566406 111.527344 200.605469 111.492188 200.644531 C 111.425781 200.726562 111.359375 200.804688 111.292969 200.878906 C 111.257812 200.925781 111.21875 200.96875 111.183594 201.011719 C 111.125 201.082031 111.070312 201.148438 111.019531 201.214844 C 110.980469 201.261719 110.941406 201.308594 110.910156 201.351562 C 110.859375 201.410156 110.816406 201.464844 110.773438 201.519531 C 110.738281 201.566406 110.699219 201.613281 110.667969 201.660156 C 110.628906 201.707031 110.597656 201.75 110.5625 201.792969 C 110.527344 201.839844 110.492188 201.882812 110.460938 201.925781 C 110.433594 201.964844 110.40625 202.003906 110.378906 202.039062 C 110.351562 202.078125 110.324219 202.113281 110.296875 202.148438 C 110.273438 202.183594 110.25 202.214844 110.230469 202.242188 C 110.207031 202.273438 110.1875 202.300781 110.171875 202.328125 C 110.152344 202.355469 110.132812 202.382812 110.117188 202.40625 C 110.105469 202.421875 110.09375 202.4375 110.082031 202.453125 C 110.066406 202.480469 110.046875 202.503906 110.035156 202.523438 C 101.648438 211.226562 105.121094 218 105.277344 218.28125 L 105.6875 219.050781 L 115.792969 206.007812 L 127.054688 200.511719 L 155.5 203.449219 C 155.5 204.046875 155.519531 204.636719 155.554688 205.226562 C 155.523438 206.640625 155.515625 208.058594 155.53125 209.472656 C 155.53125 209.472656 155.53125 209.476562 155.53125 209.476562 L 128.234375 209.476562 L 128.234375 209.472656 L 127.664062 209.476562 L 127.101562 209.476562 L 127.101562 209.5 C 120.3125 209.792969 115.5625 214.257812 112.980469 217.523438 C 112.976562 217.523438 112.976562 217.527344 112.972656 217.527344 C 112.863281 217.667969 112.757812 217.804688 112.65625 217.9375 C 112.640625 217.957031 112.625 217.980469 112.609375 218 C 112.519531 218.121094 112.433594 218.234375 112.347656 218.351562 C 112.324219 218.382812 112.300781 218.417969 112.273438 218.453125 C 112.199219 218.554688 112.128906 218.652344 112.0625 218.75 C 112.03125 218.792969 112 218.835938 111.972656 218.878906 C 111.910156 218.964844 111.855469 219.050781 111.796875 219.132812 C 111.765625 219.183594 111.730469 219.230469 111.699219 219.277344 C 111.652344 219.351562 111.605469 219.421875 111.558594 219.492188 C 111.527344 219.542969 111.492188 219.59375 111.460938 219.644531 C 111.421875 219.703125 111.382812 219.761719 111.347656 219.820312 C 111.316406 219.871094 111.28125 219.921875 111.253906 219.972656 C 111.222656 220.023438 111.191406 220.070312 111.164062 220.117188 C 111.132812 220.167969 111.105469 220.214844 111.074219 220.261719 C 111.054688 220.300781 111.03125 220.335938 111.011719 220.371094 C 110.984375 220.417969 110.957031 220.460938 110.933594 220.503906 C 110.917969 220.535156 110.898438 220.566406 110.882812 220.59375 C 110.863281 220.628906 110.84375 220.660156 110.828125 220.691406 C 110.8125 220.71875 110.796875 220.746094 110.785156 220.769531 C 110.773438 220.789062 110.761719 220.804688 110.753906 220.824219 C 110.738281 220.847656 110.726562 220.875 110.714844 220.894531 C 103.703125 229.855469 106.96875 236.03125 107.527344 236.949219 C 107.5625 237.007812 107.589844 237.046875 107.597656 237.0625 L 108.089844 237.785156 L 116.800781 223.769531 L 124.34375 219.074219 L 127.441406 217.148438 L 155.8125 217.148438 C 155.894531 218.414062 155.992188 219.675781 156.109375 220.933594 C 156.109375 220.964844 156.113281 220.996094 156.113281 221.023438 C 156.230469 222.300781 156.367188 223.570312 156.515625 224.84375 C 156.515625 224.851562 156.519531 224.859375 156.519531 224.867188 C 156.824219 227.429688 157.199219 229.980469 157.644531 232.519531 L 157.605469 232.535156 C 157.628906 232.59375 157.652344 232.648438 157.675781 232.703125 C 157.765625 233.230469 157.867188 233.753906 157.960938 234.277344 C 158.152344 235.285156 158.34375 236.289062 158.554688 237.292969 L 166.929688 280.007812 C 166.996094 280.34375 167.070312 280.675781 167.152344 281.007812 C 167.167969 281.070312 167.1875 281.128906 167.203125 281.191406 C 167.273438 281.46875 167.347656 281.746094 167.429688 282.019531 C 167.445312 282.058594 167.457031 282.101562 167.46875 282.140625 C 167.5625 282.441406 167.660156 282.734375 167.765625 283.027344 C 167.769531 283.042969 167.773438 283.058594 167.78125 283.074219 C 167.894531 283.390625 168.015625 283.703125 168.144531 284.015625 C 167.773438 284.078125 167.402344 284.152344 167.023438 284.238281 C 167.003906 284.246094 166.984375 284.25 166.96875 284.253906 C 165.921875 284.492188 164.835938 284.820312 163.726562 285.222656 C 163.605469 285.265625 163.480469 285.308594 163.359375 285.355469 C 163.105469 285.449219 162.851562 285.554688 162.597656 285.660156 C 162.367188 285.753906 162.132812 285.851562 161.898438 285.953125 C 161.683594 286.046875 161.46875 286.144531 161.25 286.246094 C 160.953125 286.382812 160.660156 286.527344 160.363281 286.675781 C 160.191406 286.761719 160.019531 286.84375 159.847656 286.933594 C 159.371094 287.179688 158.894531 287.4375 158.417969 287.710938 C 150.015625 292.5625 145.339844 299.664062 147.773438 303.875 C 148.878906 305.792969 151.238281 306.734375 154.273438 306.734375 C 154.671875 306.734375 155.089844 306.710938 155.511719 306.679688 C 155.605469 306.671875 155.699219 306.667969 155.792969 306.65625 C 156.160156 306.621094 156.539062 306.574219 156.917969 306.515625 C 157.105469 306.484375 157.292969 306.453125 157.480469 306.417969 C 157.703125 306.378906 157.929688 306.328125 158.160156 306.28125 C 158.546875 306.199219 158.9375 306.105469 159.335938 306 C 159.40625 305.980469 159.480469 305.960938 159.550781 305.941406 C 160.128906 305.78125 160.714844 305.601562 161.308594 305.394531 C 161.191406 305.742188 161.089844 306.085938 160.992188 306.421875 C 160.953125 306.570312 160.914062 306.71875 160.875 306.867188 C 160.789062 307.191406 160.714844 307.515625 160.652344 307.832031 C 160.625 307.957031 160.609375 308.074219 160.585938 308.195312 C 160.539062 308.460938 160.5 308.71875 160.46875 308.972656 C 160.457031 309.09375 160.4375 309.214844 160.429688 309.332031 C 160.398438 309.652344 160.378906 309.964844 160.371094 310.269531 C 160.367188 310.371094 160.371094 310.472656 160.371094 310.578125 C 160.371094 310.847656 160.382812 311.113281 160.402344 311.371094 C 160.410156 311.429688 160.410156 311.492188 160.414062 311.546875 C 160.445312 311.847656 160.496094 312.132812 160.554688 312.414062 C 160.570312 312.492188 160.585938 312.570312 160.605469 312.648438 C 160.675781 312.921875 160.753906 313.191406 160.847656 313.445312 C 160.867188 313.492188 160.886719 313.535156 160.90625 313.578125 C 161 313.808594 161.105469 314.027344 161.226562 314.234375 C 161.25 314.28125 161.273438 314.328125 161.300781 314.371094 C 161.4375 314.59375 161.59375 314.804688 161.761719 315.003906 C 161.796875 315.046875 161.835938 315.089844 161.875 315.128906 C 162.058594 315.328125 162.25 315.515625 162.464844 315.679688 C 163.363281 316.371094 164.46875 316.695312 165.707031 316.695312 C 165.953125 316.695312 166.207031 316.683594 166.464844 316.65625 C 166.554688 316.648438 166.648438 316.628906 166.742188 316.617188 C 166.910156 316.59375 167.082031 316.574219 167.257812 316.539062 C 167.371094 316.515625 167.484375 316.488281 167.601562 316.460938 C 167.757812 316.425781 167.910156 316.390625 168.070312 316.347656 C 168.199219 316.3125 168.328125 316.269531 168.457031 316.226562 C 168.605469 316.179688 168.753906 316.132812 168.90625 316.082031 C 169.042969 316.03125 169.183594 315.976562 169.324219 315.917969 C 169.46875 315.863281 169.613281 315.808594 169.757812 315.746094 C 169.90625 315.679688 170.054688 315.609375 170.203125 315.539062 C 170.34375 315.472656 170.484375 315.410156 170.625 315.339844 C 170.78125 315.257812 170.9375 315.175781 171.09375 315.089844 C 171.230469 315.015625 171.363281 314.945312 171.5 314.867188 C 171.664062 314.773438 171.828125 314.671875 171.996094 314.570312 C 172.125 314.492188 172.253906 314.410156 172.382812 314.328125 C 172.554688 314.21875 172.726562 314.105469 172.898438 313.984375 C 173.023438 313.902344 173.144531 313.816406 173.269531 313.730469 C 173.449219 313.601562 173.628906 313.472656 173.808594 313.335938 C 173.921875 313.25 174.039062 313.160156 174.152344 313.070312 C 174.339844 312.925781 174.527344 312.777344 174.714844 312.625 C 174.820312 312.535156 174.925781 312.445312 175.035156 312.351562 C 175.226562 312.1875 175.421875 312.023438 175.613281 311.851562 C 175.710938 311.761719 175.808594 311.671875 175.90625 311.582031 C 176.109375 311.398438 176.308594 311.210938 176.507812 311.019531 C 176.59375 310.933594 176.679688 310.847656 176.765625 310.761719 C 176.976562 310.554688 177.183594 310.347656 177.390625 310.128906 C 177.460938 310.054688 177.53125 309.976562 177.605469 309.898438 C 177.824219 309.664062 178.042969 309.429688 178.257812 309.1875 C 178.308594 309.132812 178.355469 309.074219 178.402344 309.019531 C 178.640625 308.746094 178.875 308.472656 179.109375 308.1875 C 179.109375 308.1875 179.109375 308.1875 179.109375 308.191406 C 179.292969 311.132812 179.832031 313.820312 180.640625 316.089844 C 180.648438 316.109375 180.65625 316.128906 180.664062 316.152344 C 180.726562 316.332031 180.792969 316.507812 180.863281 316.683594 C 180.875 316.714844 180.890625 316.75 180.902344 316.78125 C 180.96875 316.945312 181.035156 317.109375 181.105469 317.269531 C 181.121094 317.308594 181.136719 317.347656 181.152344 317.386719 C 181.222656 317.539062 181.289062 317.691406 181.359375 317.84375 C 181.378906 317.882812 181.398438 317.925781 181.417969 317.964844 C 181.488281 318.109375 181.558594 318.253906 181.628906 318.394531 C 181.652344 318.4375 181.675781 318.476562 181.699219 318.519531 C 181.769531 318.65625 181.84375 318.792969 181.917969 318.925781 C 181.9375 318.960938 181.960938 319 181.980469 319.035156 C 182.058594 319.171875 182.136719 319.300781 182.214844 319.429688 C 182.234375 319.460938 182.253906 319.488281 182.269531 319.519531 C 182.621094 320.074219 182.992188 320.574219 183.386719 321.015625 C 183.425781 321.0625 183.46875 321.109375 183.511719 321.15625 C 183.578125 321.230469 183.644531 321.296875 183.710938 321.363281 C 183.765625 321.417969 183.816406 321.472656 183.871094 321.523438 C 183.933594 321.585938 184 321.644531 184.066406 321.703125 C 184.125 321.757812 184.183594 321.808594 184.242188 321.859375 C 184.304688 321.914062 184.371094 321.964844 184.433594 322.015625 C 184.496094 322.066406 184.558594 322.117188 184.625 322.164062 C 184.6875 322.207031 184.75 322.253906 184.8125 322.296875 C 184.878906 322.34375 184.949219 322.386719 185.015625 322.429688 C 185.078125 322.46875 185.140625 322.507812 185.203125 322.542969 C 185.273438 322.585938 185.34375 322.625 185.414062 322.660156 C 185.476562 322.695312 185.539062 322.726562 185.601562 322.757812 C 185.675781 322.792969 185.75 322.824219 185.824219 322.855469 C 185.886719 322.882812 185.949219 322.910156 186.011719 322.933594 C 186.089844 322.964844 186.167969 322.988281 186.246094 323.015625 C 186.304688 323.035156 186.367188 323.054688 186.425781 323.074219 C 186.507812 323.097656 186.59375 323.117188 186.679688 323.136719 C 186.734375 323.148438 186.792969 323.164062 186.847656 323.171875 C 186.941406 323.191406 187.039062 323.203125 187.132812 323.214844 C 187.183594 323.222656 187.230469 323.230469 187.277344 323.234375 C 187.421875 323.25 187.570312 323.257812 187.714844 323.257812 C 187.859375 323.257812 188.007812 323.25 188.152344 323.234375 C 188.199219 323.230469 188.246094 323.222656 188.296875 323.214844 C 188.390625 323.203125 188.488281 323.191406 188.582031 323.171875 C 188.636719 323.164062 188.695312 323.148438 188.75 323.136719 C 188.835938 323.117188 188.917969 323.097656 189.003906 323.074219 C 189.0625 323.054688 189.125 323.035156 189.183594 323.015625 C 189.261719 322.988281 189.339844 322.964844 189.417969 322.933594 C 189.480469 322.910156 189.542969 322.882812 189.605469 322.855469 C 189.679688 322.824219 189.753906 322.792969 189.828125 322.757812 C 189.890625 322.726562 189.953125 322.695312 190.015625 322.660156 C 190.085938 322.625 190.15625 322.585938 190.226562 322.542969 C 190.289062 322.507812 190.351562 322.46875 190.414062 322.429688 C 190.484375 322.386719 190.550781 322.34375 190.617188 322.296875 C 190.679688 322.253906 190.742188 322.207031 190.804688 322.164062 C 190.871094 322.113281 190.933594 322.066406 190.996094 322.015625 C 191.058594 321.964844 191.125 321.914062 191.1875 321.859375 C 191.246094 321.808594 191.304688 321.757812 191.363281 321.703125 C 191.429688 321.644531 191.496094 321.585938 191.558594 321.523438 C 191.613281 321.472656 191.664062 321.417969 191.71875 321.363281 C 191.785156 321.296875 191.851562 321.226562 191.917969 321.15625 C 191.960938 321.109375 192.003906 321.0625 192.046875 321.011719 C 192.4375 320.570312 192.8125 320.070312 193.160156 319.515625 C 193.179688 319.484375 193.195312 319.457031 193.214844 319.429688 C 193.292969 319.304688 193.371094 319.171875 193.445312 319.039062 C 193.46875 319 193.492188 318.960938 193.515625 318.921875 C 193.589844 318.792969 193.660156 318.65625 193.734375 318.519531 C 193.753906 318.476562 193.777344 318.4375 193.796875 318.394531 C 193.871094 318.253906 193.941406 318.109375 194.011719 317.964844 C 194.03125 317.925781 194.050781 317.882812 194.070312 317.84375 C 194.140625 317.691406 194.207031 317.539062 194.277344 317.386719 C 194.292969 317.347656 194.308594 317.308594 194.324219 317.269531 C 194.394531 317.109375 194.460938 316.945312 194.527344 316.777344 C 194.542969 316.746094 194.554688 316.714844 194.566406 316.683594 C 194.632812 316.507812 194.703125 316.332031 194.765625 316.148438 C 194.773438 316.128906 194.78125 316.109375 194.789062 316.089844 C 195.597656 313.820312 196.136719 311.132812 196.320312 308.191406 C 196.320312 308.1875 196.320312 308.1875 196.320312 308.1875 C 196.554688 308.472656 196.792969 308.75 197.03125 309.023438 C 197.078125 309.078125 197.125 309.132812 197.171875 309.183594 C 197.386719 309.429688 197.609375 309.667969 197.828125 309.902344 C 197.898438 309.976562 197.96875 310.054688 198.039062 310.128906 C 198.246094 310.347656 198.457031 310.554688 198.664062 310.761719 C 198.75 310.847656 198.835938 310.933594 198.921875 311.019531 C 199.121094 311.210938 199.324219 311.398438 199.523438 311.582031 C 199.621094 311.671875 199.71875 311.761719 199.8125 311.847656 C 200.007812 312.023438 200.203125 312.1875 200.398438 312.355469 C 200.503906 312.445312 200.609375 312.535156 200.714844 312.621094 C 200.902344 312.777344 201.089844 312.925781 201.277344 313.070312 C 201.390625 313.160156 201.507812 313.25 201.621094 313.335938 C 201.800781 313.46875 201.980469 313.601562 202.164062 313.730469 C 202.285156 313.816406 202.40625 313.902344 202.527344 313.984375 C 202.703125 314.101562 202.875 314.21875 203.046875 314.328125 C 203.175781 314.410156 203.304688 314.492188 203.433594 314.570312 C 203.601562 314.671875 203.765625 314.769531 203.929688 314.867188 C 204.066406 314.941406 204.199219 315.015625 204.332031 315.089844 C 204.492188 315.175781 204.648438 315.257812 204.808594 315.339844 C 204.945312 315.410156 205.085938 315.472656 205.226562 315.539062 C 205.375 315.609375 205.523438 315.679688 205.671875 315.742188 C 205.816406 315.808594 205.960938 315.863281 206.105469 315.917969 C 206.246094 315.972656 206.386719 316.03125 206.523438 316.082031 C 206.675781 316.132812 206.824219 316.179688 206.972656 316.226562 C 207.101562 316.265625 207.230469 316.3125 207.359375 316.347656 C 207.519531 316.390625 207.671875 316.425781 207.828125 316.460938 C 207.945312 316.484375 208.058594 316.515625 208.171875 316.539062 C 208.347656 316.574219 208.519531 316.59375 208.6875 316.617188 C 208.78125 316.628906 208.875 316.648438 208.960938 316.65625 C 209.222656 316.683594 209.476562 316.695312 209.722656 316.695312 C 210.960938 316.695312 212.066406 316.367188 212.964844 315.679688 C 213.179688 315.515625 213.371094 315.328125 213.554688 315.128906 C 213.59375 315.085938 213.632812 315.046875 213.667969 315.003906 C 213.835938 314.804688 213.992188 314.59375 214.128906 314.367188 C 214.15625 314.324219 214.179688 314.28125 214.203125 314.234375 C 214.324219 314.027344 214.429688 313.808594 214.523438 313.578125 C 214.542969 313.53125 214.5625 313.488281 214.582031 313.445312 C 214.675781 313.191406 214.757812 312.921875 214.824219 312.648438 C 214.84375 312.570312 214.859375 312.492188 214.875 312.414062 C 214.933594 312.132812 214.984375 311.847656 215.015625 311.546875 C 215.019531 311.492188 215.019531 311.429688 215.027344 311.371094 C 215.046875 311.113281 215.058594 310.847656 215.058594 310.574219 C 215.058594 310.472656 215.0625 310.371094 215.058594 310.269531 C 215.050781 309.964844 215.03125 309.652344 215.003906 309.332031 C 214.992188 309.214844 214.972656 309.09375 214.960938 308.976562 C 214.929688 308.71875 214.890625 308.457031 214.84375 308.195312 C 214.820312 308.074219 214.804688 307.957031 214.78125 307.835938 C 214.714844 307.519531 214.640625 307.191406 214.554688 306.863281 C 214.519531 306.71875 214.476562 306.570312 214.4375 306.421875 C 214.339844 306.082031 214.238281 305.742188 214.121094 305.394531 C 215.128906 305.742188 216.128906 306.023438 217.105469 306.238281 C 217.117188 306.242188 217.132812 306.246094 217.144531 306.246094 C 217.582031 306.34375 218.011719 306.417969 218.441406 306.484375 C 218.496094 306.496094 218.554688 306.507812 218.609375 306.515625 C 219.085938 306.585938 219.554688 306.640625 220.015625 306.671875 C 220.417969 306.703125 220.804688 306.714844 221.183594 306.714844 C 224.3125 306.714844 226.589844 305.726562 227.65625 303.875 C 230.089844 299.664062 225.414062 292.5625 217.011719 287.710938 C 216.5625 287.449219 216.109375 287.203125 215.652344 286.96875 C 215.480469 286.878906 215.308594 286.796875 215.136719 286.710938 C 214.859375 286.570312 214.585938 286.4375 214.308594 286.308594 C 214.085938 286.203125 213.859375 286.101562 213.636719 286.003906 C 213.425781 285.910156 213.214844 285.820312 213 285.734375 C 212.734375 285.625 212.46875 285.515625 212.203125 285.414062 C 212.070312 285.363281 211.9375 285.316406 211.804688 285.269531 C 210.261719 284.703125 208.738281 284.285156 207.28125 284.03125 C 207.410156 283.71875 207.53125 283.40625 207.644531 283.085938 C 207.652344 283.070312 207.65625 283.054688 207.664062 283.039062 C 207.765625 282.746094 207.863281 282.449219 207.957031 282.152344 C 207.96875 282.109375 207.984375 282.066406 207.996094 282.023438 C 208.078125 281.75 208.15625 281.472656 208.226562 281.195312 C 208.242188 281.132812 208.261719 281.074219 208.277344 281.007812 C 208.359375 280.679688 208.433594 280.34375 208.5 280.007812 L 216.875 237.300781 C 217.085938 236.300781 217.273438 235.296875 217.464844 234.289062 C 217.5625 233.757812 217.664062 233.226562 217.757812 232.691406 C 217.855469 232.441406 217.953125 232.191406 218.042969 231.9375 L 217.890625 231.882812 C 218.101562 230.664062 218.292969 229.445312 218.46875 228.222656 C 218.46875 228.21875 218.46875 228.21875 218.46875 228.21875 C 218.640625 227.007812 218.800781 225.796875 218.941406 224.582031 C 218.949219 224.523438 218.953125 224.464844 218.960938 224.40625 C 219.097656 223.242188 219.21875 222.074219 219.324219 220.90625 C 219.335938 220.796875 219.339844 220.691406 219.351562 220.582031 C 219.453125 219.4375 219.542969 218.292969 219.617188 217.148438 L 247.988281 217.148438 L 258.628906 223.769531 L 267.339844 237.785156 L 267.832031 237.058594 C 268.011719 236.792969 272.164062 230.414062 264.710938 220.890625 C 264.703125 220.875 264.6875 220.847656 264.675781 220.820312 C 264.664062 220.804688 264.65625 220.785156 264.644531 220.765625 C 264.628906 220.742188 264.613281 220.714844 264.601562 220.6875 C 264.582031 220.65625 264.566406 220.625 264.546875 220.59375 C 264.53125 220.5625 264.511719 220.53125 264.492188 220.496094 C 264.46875 220.457031 264.445312 220.414062 264.417969 220.371094 C 264.398438 220.335938 264.371094 220.292969 264.347656 220.253906 C 264.320312 220.210938 264.292969 220.164062 264.265625 220.117188 C 264.234375 220.066406 264.203125 220.015625 264.171875 219.964844 C 264.140625 219.917969 264.113281 219.867188 264.082031 219.820312 C 264.042969 219.757812 264.003906 219.699219 263.960938 219.632812 C 263.933594 219.585938 263.902344 219.539062 263.871094 219.492188 C 263.820312 219.417969 263.773438 219.34375 263.722656 219.265625 C 263.691406 219.222656 263.660156 219.175781 263.632812 219.132812 C 263.574219 219.046875 263.511719 218.957031 263.449219 218.867188 C 263.421875 218.828125 263.394531 218.789062 263.367188 218.746094 C 263.292969 218.648438 263.222656 218.546875 263.144531 218.441406 C 263.125 218.410156 263.101562 218.378906 263.078125 218.347656 C 262.992188 218.230469 262.90625 218.113281 262.8125 217.988281 C 262.796875 217.96875 262.78125 217.949219 262.765625 217.925781 C 262.664062 217.792969 262.558594 217.65625 262.449219 217.519531 C 262.445312 217.511719 262.441406 217.507812 262.4375 217.503906 C 259.847656 214.238281 255.105469 209.789062 248.328125 209.5 L 248.328125 209.476562 L 247.765625 209.476562 L 247.195312 209.472656 L 247.195312 209.476562 L 219.902344 209.476562 C 219.902344 209.476562 219.902344 209.472656 219.902344 209.472656 C 219.914062 208.058594 219.90625 206.644531 219.875 205.230469 C 219.910156 204.640625 219.929688 204.046875 219.929688 203.449219 L 239.582031 201.417969 L 248.375 200.511719 L 259.636719 206.003906 L 269.742188 219.050781 L 270.15625 218.28125 C 270.164062 218.265625 270.183594 218.226562 270.210938 218.167969 C 270.664062 217.222656 273.308594 210.738281 265.402344 202.53125 Z M 263.488281 156.589844 C 264.484375 158.375 266.195312 163.175781 261.757812 170.574219 L 257.414062 169.3125 Z M 256.734375 170.292969 L 258.988281 170.949219 L 261.238281 171.601562 C 260.195312 173.867188 255.824219 182.160156 247.375 183.507812 L 246.777344 178.140625 Z M 113.671875 170.574219 C 109.234375 163.175781 110.945312 158.375 111.941406 156.589844 L 118.015625 169.3125 Z M 128.054688 183.507812 C 119.605469 182.160156 115.234375 173.867188 114.191406 171.605469 L 118.339844 170.394531 L 118.695312 170.292969 L 128.652344 178.140625 Z M 105.9375 216.878906 C 105.34375 214.921875 104.6875 209.867188 110.59375 203.578125 L 114.570312 205.734375 Z M 126.835938 199.359375 L 115.441406 204.917969 L 111.316406 202.683594 C 112.816406 200.695312 118.839844 193.535156 127.390625 193.988281 Z M 108.113281 235.597656 C 107.320312 233.710938 106.148438 228.75 111.378906 221.886719 L 115.558594 223.625 Z M 116.339844 222.722656 L 112.007812 220.921875 C 113.296875 218.789062 118.554688 211.03125 127.101562 210.625 L 127.101562 216.023438 Z M 128.234375 216.015625 L 128.234375 210.609375 L 155.550781 210.609375 C 155.582031 212.414062 155.652344 214.214844 155.753906 216.015625 Z M 155.636719 202.324219 L 127.964844 199.46875 L 128.519531 194.089844 L 155.960938 196.921875 C 155.820312 198.722656 155.710938 200.523438 155.636719 202.324219 Z M 245.652344 178.277344 L 246.195312 183.132812 L 246.25 183.648438 L 218.308594 186.757812 C 218.042969 184.972656 217.734375 183.191406 217.398438 181.417969 Z M 257.386719 138.773438 C 258.546875 140.46875 260.722656 145.113281 257.109375 152.847656 L 252.65625 152.039062 Z M 252.085938 153.085938 L 254.625 153.546875 L 256.699219 153.925781 C 255.890625 156.285156 252.394531 164.980469 244.128906 167.191406 L 242.984375 161.914062 Z M 241.878906 162.160156 L 242.199219 163.632812 L 243.023438 167.445312 L 215.636719 173.386719 L 214.355469 168.132812 Z M 216.125 77.59375 C 216.125 72.703125 219.953125 68.691406 224.773438 68.394531 L 224.773438 99.308594 L 225.339844 99.308594 C 229.707031 99.308594 233.257812 95.757812 233.257812 91.390625 L 233.257812 69.972656 C 251.289062 75.488281 260.71875 91.054688 260.71875 103.753906 C 260.71875 123.261719 244.847656 139.132812 225.339844 139.132812 L 216.125 139.132812 Z M 215.984375 140.265625 L 225.339844 140.265625 C 228.105469 140.265625 230.796875 139.945312 233.390625 139.359375 L 212.796875 161.746094 L 210.058594 150.519531 C 209.820312 149.546875 209.511719 148.601562 209.160156 147.683594 Z M 114.710938 103.753906 C 114.710938 91.054688 124.140625 75.488281 142.171875 69.972656 L 142.171875 91.390625 C 142.171875 95.757812 145.722656 99.308594 150.089844 99.308594 L 150.65625 99.308594 L 150.65625 68.394531 C 155.476562 68.691406 159.304688 72.703125 159.304688 77.59375 L 159.304688 139.132812 L 150.089844 139.132812 C 130.582031 139.132812 114.710938 123.261719 114.710938 103.753906 Z M 142.042969 139.359375 C 144.632812 139.945312 147.324219 140.265625 150.089844 140.265625 L 159.445312 140.265625 L 166.269531 147.683594 C 165.917969 148.601562 165.609375 149.546875 165.371094 150.519531 L 162.632812 161.746094 Z M 118.324219 152.847656 C 114.667969 145.03125 116.863281 140.433594 118.039062 138.757812 L 122.773438 152.039062 Z M 131.300781 167.191406 C 123.035156 164.980469 119.539062 156.285156 118.734375 153.925781 L 119.304688 153.820312 L 123.347656 153.085938 L 132.445312 161.914062 Z M 132.40625 167.445312 L 133.550781 162.160156 L 161.074219 168.132812 L 159.792969 173.386719 Z M 129.179688 183.648438 L 129.777344 178.277344 L 158.03125 181.417969 C 157.695312 183.191406 157.390625 184.972656 157.121094 186.757812 Z M 148.753906 303.308594 C 146.707031 299.769531 151.394531 293.074219 158.984375 288.691406 C 162.277344 286.789062 165.675781 285.585938 168.632812 285.113281 C 169.589844 287.097656 170.839844 288.898438 172.328125 290.46875 C 170.136719 292.085938 167.996094 294.199219 166.101562 296.671875 C 164.234375 299.105469 162.800781 301.609375 161.832031 303.984375 C 155.847656 306.246094 150.378906 306.125 148.753906 303.308594 Z M 179.039062 305.957031 C 179.039062 306.121094 179.042969 306.28125 179.042969 306.445312 C 179.023438 306.476562 179 306.507812 178.976562 306.539062 C 173.644531 313.492188 166.398438 317.265625 163.15625 314.78125 C 159.910156 312.292969 161.671875 304.316406 167 297.359375 C 168.875 294.917969 170.984375 292.839844 173.136719 291.277344 C 175.273438 293.304688 177.816406 294.882812 180.621094 295.882812 C 179.621094 298.703125 179.039062 302.167969 179.039062 305.957031 Z M 187.714844 322.125 C 183.625 322.125 180.171875 314.71875 180.171875 305.957031 C 180.171875 302.347656 180.757812 298.96875 181.734375 296.246094 C 183.640625 296.808594 185.648438 297.113281 187.714844 297.113281 C 189.78125 297.113281 191.792969 296.808594 193.699219 296.242188 C 194.671875 298.96875 195.257812 302.347656 195.257812 305.957031 C 195.257812 314.71875 191.804688 322.125 187.714844 322.125 Z M 212.273438 314.78125 C 209.027344 317.269531 201.785156 313.492188 196.453125 306.539062 C 196.429688 306.507812 196.410156 306.476562 196.386719 306.445312 C 196.386719 306.28125 196.390625 306.121094 196.390625 305.957031 C 196.390625 302.167969 195.808594 298.703125 194.8125 295.882812 C 197.613281 294.882812 200.160156 293.304688 202.292969 291.277344 C 204.445312 292.839844 206.558594 294.917969 208.429688 297.359375 C 213.757812 304.316406 215.519531 312.292969 212.273438 314.78125 Z M 216.445312 288.691406 C 224.035156 293.074219 228.722656 299.769531 226.675781 303.308594 C 225.707031 304.988281 223.371094 305.777344 220.097656 305.542969 C 218.074219 305.398438 215.859375 304.859375 213.601562 304 C 212.632812 301.617188 211.199219 299.113281 209.328125 296.671875 C 207.433594 294.199219 205.292969 292.085938 203.105469 290.46875 C 204.59375 288.894531 205.847656 287.085938 206.804688 285.09375 C 209.847656 285.578125 213.210938 286.824219 216.445312 288.691406 Z M 207.386719 279.792969 C 205.546875 289.171875 197.273438 295.980469 187.714844 295.980469 C 178.15625 295.980469 169.882812 289.171875 168.042969 279.792969 L 167.398438 276.507812 C 172.511719 282.289062 179.945312 285.695312 187.714844 285.695312 C 195.484375 285.695312 202.917969 282.292969 208.03125 276.507812 Z M 208.492188 274.164062 C 203.605469 280.675781 195.847656 284.5625 187.714844 284.5625 C 179.582031 284.5625 171.828125 280.675781 166.941406 274.167969 L 163.757812 257.941406 C 169.078125 265.425781 177.988281 269.980469 187.714844 269.980469 C 197.410156 269.980469 206.351562 265.417969 211.671875 257.9375 Z M 215.761719 237.074219 L 212.265625 254.917969 C 212.21875 254.996094 212.175781 255.074219 212.128906 255.15625 C 207.289062 263.601562 197.933594 268.847656 187.714844 268.847656 C 177.363281 268.847656 167.964844 263.507812 163.164062 254.910156 L 159.664062 237.066406 C 159.644531 236.976562 159.632812 236.886719 159.613281 236.800781 C 165.253906 246.804688 176.027344 253.265625 187.714844 253.265625 C 199.464844 253.265625 210.183594 246.824219 215.816406 236.808594 C 215.796875 236.894531 215.78125 236.984375 215.761719 237.074219 Z M 216.660156 232.394531 C 212.011719 244.234375 200.496094 252.132812 187.714844 252.132812 C 175 252.132812 163.410156 244.210938 158.769531 232.394531 C 157.601562 225.722656 156.921875 218.953125 156.722656 212.167969 C 160.558594 225.675781 172.996094 235.605469 187.714844 235.605469 C 202.4375 235.605469 214.871094 225.675781 218.707031 212.167969 C 218.507812 218.953125 217.828125 225.722656 216.660156 232.394531 Z M 187.714844 234.472656 C 170.574219 234.472656 156.628906 220.527344 156.628906 203.386719 L 156.738281 203.386719 C 157.058594 193.730469 158.347656 184.109375 160.628906 174.75 L 166.472656 150.789062 C 168.5625 142.210938 175.546875 135.773438 184.257812 134.382812 L 184.585938 134.328125 L 187.714844 125.773438 L 190.84375 134.328125 L 191.171875 134.382812 C 199.882812 135.769531 206.867188 142.210938 208.957031 150.789062 L 214.800781 174.75 C 217.085938 184.109375 218.375 193.730469 218.691406 203.386719 L 218.800781 203.386719 C 218.800781 220.527344 204.855469 234.472656 187.714844 234.472656 Z M 264.050781 221.886719 C 269.28125 228.75 268.109375 233.710938 267.316406 235.597656 L 259.875 223.625 Z M 248.328125 210.625 C 256.875 211.03125 262.132812 218.789062 263.421875 220.921875 L 263.191406 221.019531 L 259.089844 222.722656 L 248.328125 216.023438 Z M 219.878906 210.609375 L 247.195312 210.609375 L 247.195312 216.015625 L 219.675781 216.015625 C 219.777344 214.214844 219.847656 212.414062 219.878906 210.609375 Z M 219.792969 202.324219 C 219.71875 200.519531 219.609375 198.722656 219.46875 196.921875 L 246.910156 194.089844 L 247.46875 199.46875 Z M 248.59375 199.359375 L 248.039062 193.988281 C 256.585938 193.519531 262.613281 200.695312 264.113281 202.683594 L 259.988281 204.917969 Z M 269.492188 216.878906 L 260.859375 205.734375 L 264.839844 203.578125 C 270.746094 209.871094 270.089844 214.921875 269.492188 216.878906 Z M 182.933594 141.28125 C 184.273438 142.621094 184.273438 144.792969 182.933594 146.132812 C 181.59375 147.472656 179.417969 147.472656 178.078125 146.132812 C 176.738281 144.792969 176.738281 142.621094 178.078125 141.28125 C 179.417969 139.9375 181.59375 139.9375 182.933594 141.28125 Z M 198.355469 143.707031 C 198.355469 145.601562 196.816406 147.136719 194.921875 147.136719 C 193.027344 147.136719 191.492188 145.601562 191.492188 143.707031 C 191.492188 141.8125 193.027344 140.273438 194.921875 140.273438 C 196.816406 140.273438 198.355469 141.8125 198.355469 143.707031 Z M 198.355469 143.707031 " fill-opacity="1" fill-rule="nonzero"/></g><path fill="#000000" d="M 187.796875 375.589844 C 84.042969 375.589844 0 290.96875 0 187.796875 C 0 84.625 84.042969 0 187.796875 0 C 291.546875 0 375.589844 84.042969 375.589844 187.796875 C 375.589844 291.546875 290.96875 375.589844 187.796875 375.589844 Z M 187.796875 11.59375 C 90.421875 11.59375 11.59375 90.421875 11.59375 187.796875 C 11.59375 285.171875 90.421875 364 187.796875 364 C 285.171875 364 364 285.171875 364 187.796875 C 364 90.421875 284.589844 11.59375 187.796875 11.59375 Z M 187.796875 11.59375 " fill-opacity="1" fill-rule="nonzero"/></svg>