<svg xmlns="http://www.w3.org/2000/svg" xmlns:xlink="http://www.w3.org/1999/xlink" width="500" zoomAndPan="magnify" viewBox="0 0 375 374.999991" height="500" preserveAspectRatio="xMidYMid meet" version="1.0"><defs><clipPath id="6f7571fb95"><path d="M 49.726562 65.671875 L 161.535156 65.671875 L 161.535156 177 L 49.726562 177 Z M 49.726562 65.671875 " clip-rule="nonzero"/></clipPath><clipPath id="665b9334d5"><path d="M 213.722656 69.625 L 325.53125 69.625 L 325.53125 181 L 213.722656 181 Z M 213.722656 69.625 " clip-rule="nonzero"/></clipPath><clipPath id="0eb9c2e29a"><path d="M 133.027344 20.171875 L 244.835938 20.171875 L 244.835938 131.984375 L 133.027344 131.984375 Z M 133.027344 20.171875 " clip-rule="nonzero"/></clipPath><clipPath id="086a1848a4"><path d="M 208.140625 181.175781 L 319.949219 181.175781 L 319.949219 292.984375 L 208.140625 292.984375 Z M 208.140625 181.175781 " clip-rule="nonzero"/></clipPath><clipPath id="505370d61f"><path d="M 133.027344 131.722656 L 244.835938 131.722656 L 244.835938 243.535156 L 133.027344 243.535156 Z M 133.027344 131.722656 " clip-rule="nonzero"/></clipPath><clipPath id="b2585b8d11"><path d="M 57.152344 177.222656 L 168.960938 177.222656 L 168.960938 289 L 57.152344 289 Z M 57.152344 177.222656 " clip-rule="nonzero"/></clipPath><clipPath id="5abf26799e"><path d="M 133.027344 243.273438 L 244.835938 243.273438 L 244.835938 355 L 133.027344 355 Z M 133.027344 243.273438 " clip-rule="nonzero"/></clipPath><clipPath id="a3a15d193d"><path d="M 0 0 L 374.679688 0 L 374.679688 374.679688 L 0 374.679688 Z M 0 0 " clip-rule="nonzero"/></clipPath></defs><g clip-path="url(#6f7571fb95)"><path fill="#000000" d="M 105.53125 65.917969 C 105.472656 65.917969 105.40625 65.917969 105.339844 65.929688 C 104.953125 65.96875 104.585938 66.121094 104.289062 66.382812 C 104.289062 66.382812 100.015625 70.082031 95.738281 75.40625 C 91.457031 80.734375 86.992188 87.6875 86.992188 94.800781 C 86.992188 108.289062 96.914062 115.914062 105.503906 115.914062 C 114.09375 115.914062 124.019531 108.289062 124.019531 94.800781 C 124.019531 87.6875 119.558594 80.734375 115.277344 75.40625 C 110.996094 70.082031 106.71875 66.382812 106.71875 66.382812 C 106.390625 66.09375 105.976562 65.929688 105.53125 65.917969 Z M 55.480469 102.734375 C 53.222656 102.746094 51.804688 102.851562 51.804688 102.851562 C 50.890625 102.910156 50.15625 103.640625 50.089844 104.558594 C 50.089844 104.558594 49.675781 110.207031 50.417969 116.992188 C 51.152344 123.78125 52.925781 131.859375 57.957031 136.890625 C 67.492188 146.425781 79.898438 144.796875 85.972656 138.722656 C 92.042969 132.640625 93.664062 120.25 84.121094 110.707031 C 79.097656 105.683594 71.027344 103.921875 64.242188 103.179688 C 60.847656 102.8125 57.734375 102.726562 55.480469 102.734375 Z M 155.527344 102.734375 C 153.261719 102.734375 150.15625 102.8125 146.761719 103.179688 C 139.976562 103.921875 131.898438 105.683594 126.863281 110.707031 C 117.332031 120.25 118.960938 132.640625 125.035156 138.722656 C 131.117188 144.796875 143.515625 146.425781 153.046875 136.890625 C 158.082031 131.859375 159.855469 123.78125 160.585938 116.992188 C 161.328125 110.207031 160.914062 104.558594 160.914062 104.558594 C 160.847656 103.640625 160.113281 102.910156 159.199219 102.851562 C 159.199219 102.851562 157.78125 102.746094 155.527344 102.734375 Z M 105.53125 126.980469 C 105.472656 126.980469 105.40625 126.988281 105.339844 126.988281 C 104.953125 127.027344 104.585938 127.183594 104.289062 127.441406 C 104.289062 127.441406 100.015625 131.152344 95.738281 136.476562 C 91.457031 141.796875 86.992188 148.746094 86.992188 155.863281 C 86.992188 169.347656 96.914062 176.972656 105.503906 176.972656 C 114.09375 176.972656 124.019531 169.347656 124.019531 155.863281 C 124.019531 148.746094 119.558594 141.796875 115.277344 136.476562 C 110.996094 131.152344 106.71875 127.441406 106.71875 127.441406 C 106.390625 127.152344 105.976562 126.988281 105.53125 126.980469 " fill-opacity="1" fill-rule="nonzero"/></g><g clip-path="url(#665b9334d5)"><path fill="#000000" d="M 269.523438 69.871094 C 269.464844 69.871094 269.398438 69.871094 269.332031 69.878906 C 268.945312 69.917969 268.578125 70.074219 268.28125 70.332031 C 268.28125 70.332031 264.011719 74.035156 259.730469 79.355469 C 255.449219 84.6875 250.988281 91.636719 250.988281 98.753906 C 250.988281 112.238281 260.90625 119.863281 269.496094 119.863281 C 278.085938 119.863281 288.015625 112.238281 288.015625 98.753906 C 288.015625 91.636719 283.550781 84.6875 279.269531 79.355469 C 274.992188 74.035156 270.710938 70.332031 270.710938 70.332031 C 270.382812 70.042969 269.96875 69.878906 269.523438 69.871094 Z M 219.472656 106.6875 C 217.214844 106.695312 215.800781 106.800781 215.800781 106.800781 C 214.882812 106.859375 214.152344 107.59375 214.082031 108.507812 C 214.082031 108.507812 213.667969 114.15625 214.410156 120.945312 C 215.144531 127.730469 216.917969 135.808594 221.949219 140.839844 C 231.484375 150.375 243.890625 148.746094 249.964844 142.671875 C 256.039062 136.589844 257.65625 124.203125 248.113281 114.660156 C 243.089844 109.636719 235.023438 107.871094 228.234375 107.128906 C 224.84375 106.761719 221.726562 106.675781 219.472656 106.6875 Z M 319.519531 106.6875 C 317.253906 106.6875 314.148438 106.761719 310.753906 107.128906 C 303.96875 107.871094 295.890625 109.636719 290.859375 114.660156 C 281.324219 124.203125 282.953125 136.589844 289.027344 142.671875 C 295.109375 148.746094 307.507812 150.375 317.042969 140.839844 C 322.074219 135.808594 323.847656 127.730469 324.578125 120.945312 C 325.320312 114.15625 324.90625 108.507812 324.90625 108.507812 C 324.839844 107.59375 324.109375 106.859375 323.191406 106.800781 C 323.191406 106.800781 321.773438 106.695312 319.519531 106.6875 Z M 269.523438 130.929688 C 269.464844 130.929688 269.398438 130.941406 269.332031 130.941406 C 268.945312 130.980469 268.578125 131.132812 268.28125 131.394531 C 268.28125 131.394531 264.011719 135.105469 259.730469 140.425781 C 255.449219 145.75 250.988281 152.699219 250.988281 159.8125 C 250.988281 173.300781 260.90625 180.925781 269.496094 180.925781 C 278.085938 180.925781 288.015625 173.300781 288.015625 159.8125 C 288.015625 152.699219 283.550781 145.75 279.269531 140.425781 C 274.992188 135.105469 270.710938 131.394531 270.710938 131.394531 C 270.382812 131.105469 269.96875 130.941406 269.523438 130.929688 " fill-opacity="1" fill-rule="nonzero"/></g><g clip-path="url(#0eb9c2e29a)"><path fill="#000000" d="M 188.832031 20.421875 C 188.773438 20.421875 188.707031 20.421875 188.640625 20.429688 C 188.253906 20.46875 187.886719 20.621094 187.589844 20.882812 C 187.589844 20.882812 183.316406 24.585938 179.039062 29.90625 C 174.757812 35.238281 170.292969 42.1875 170.292969 49.300781 C 170.292969 62.789062 180.214844 70.414062 188.800781 70.414062 C 197.390625 70.414062 207.320312 62.789062 207.320312 49.300781 C 207.320312 42.1875 202.859375 35.238281 198.578125 29.90625 C 194.296875 24.585938 190.015625 20.882812 190.015625 20.882812 C 189.691406 20.59375 189.273438 20.429688 188.832031 20.421875 Z M 138.78125 57.238281 C 136.523438 57.246094 135.105469 57.351562 135.105469 57.351562 C 134.191406 57.410156 133.457031 58.140625 133.390625 59.058594 C 133.390625 59.058594 132.976562 64.707031 133.71875 71.496094 C 134.449219 78.28125 136.226562 86.359375 141.257812 91.390625 C 150.792969 100.925781 163.199219 99.296875 169.273438 93.222656 C 175.34375 87.140625 176.964844 74.753906 167.421875 65.207031 C 162.398438 60.1875 154.328125 58.421875 147.542969 57.679688 C 144.148438 57.3125 141.035156 57.226562 138.78125 57.238281 Z M 238.824219 57.238281 C 236.558594 57.238281 233.457031 57.3125 230.0625 57.679688 C 223.277344 58.421875 215.199219 60.1875 210.164062 65.207031 C 200.632812 74.753906 202.261719 87.140625 208.332031 93.222656 C 214.417969 99.296875 226.8125 100.925781 236.347656 91.390625 C 241.378906 86.359375 243.152344 78.28125 243.886719 71.496094 C 244.628906 64.707031 244.214844 59.058594 244.214844 59.058594 C 244.148438 58.140625 243.414062 57.410156 242.5 57.351562 C 242.5 57.351562 241.082031 57.246094 238.824219 57.238281 Z M 188.832031 81.480469 C 188.773438 81.480469 188.707031 81.492188 188.640625 81.492188 C 188.253906 81.53125 187.886719 81.683594 187.589844 81.945312 C 187.589844 81.945312 183.316406 85.65625 179.039062 90.976562 C 174.757812 96.296875 170.292969 103.25 170.292969 110.363281 C 170.292969 123.851562 180.214844 131.476562 188.800781 131.476562 C 197.390625 131.476562 207.320312 123.851562 207.320312 110.363281 C 207.320312 103.25 202.859375 96.296875 198.578125 90.976562 C 194.296875 85.65625 190.015625 81.945312 190.015625 81.945312 C 189.691406 81.65625 189.273438 81.492188 188.832031 81.480469 " fill-opacity="1" fill-rule="nonzero"/></g><g clip-path="url(#086a1848a4)"><path fill="#000000" d="M 263.941406 181.421875 C 263.882812 181.421875 263.816406 181.421875 263.75 181.429688 C 263.363281 181.46875 262.996094 181.625 262.699219 181.882812 C 262.699219 181.882812 258.429688 185.585938 254.148438 190.90625 C 249.867188 196.238281 245.40625 203.1875 245.40625 210.304688 C 245.40625 223.789062 255.324219 231.414062 263.914062 231.414062 C 272.503906 231.414062 282.433594 223.789062 282.433594 210.304688 C 282.433594 203.1875 277.96875 196.238281 273.6875 190.90625 C 269.410156 185.585938 265.128906 181.882812 265.128906 181.882812 C 264.800781 181.59375 264.386719 181.429688 263.941406 181.421875 Z M 213.890625 218.238281 C 211.632812 218.246094 210.21875 218.351562 210.21875 218.351562 C 209.300781 218.410156 208.570312 219.144531 208.5 220.058594 C 208.5 220.058594 208.085938 225.707031 208.828125 232.496094 C 209.5625 239.28125 211.335938 247.359375 216.367188 252.390625 C 225.902344 261.925781 238.308594 260.296875 244.382812 254.222656 C 250.457031 248.140625 252.074219 235.753906 242.53125 226.210938 C 237.507812 221.1875 229.441406 219.421875 222.652344 218.679688 C 219.261719 218.3125 216.144531 218.226562 213.890625 218.238281 Z M 313.9375 218.238281 C 311.671875 218.238281 308.566406 218.3125 305.171875 218.679688 C 298.386719 219.421875 290.308594 221.1875 285.277344 226.210938 C 275.742188 235.753906 277.371094 248.140625 283.445312 254.222656 C 289.527344 260.296875 301.925781 261.925781 311.460938 252.390625 C 316.492188 247.359375 318.265625 239.28125 318.996094 232.496094 C 319.738281 225.707031 319.324219 220.058594 319.324219 220.058594 C 319.257812 219.144531 318.527344 218.410156 317.609375 218.351562 C 317.609375 218.351562 316.191406 218.246094 313.9375 218.238281 Z M 263.941406 242.480469 C 263.882812 242.480469 263.816406 242.492188 263.75 242.492188 C 263.363281 242.53125 262.996094 242.683594 262.699219 242.945312 C 262.699219 242.945312 258.429688 246.65625 254.148438 251.976562 C 249.867188 257.300781 245.40625 264.25 245.40625 271.363281 C 245.40625 284.851562 255.324219 292.476562 263.914062 292.476562 C 272.503906 292.476562 282.433594 284.851562 282.433594 271.363281 C 282.433594 264.25 277.96875 257.300781 273.6875 251.976562 C 269.410156 246.65625 265.128906 242.945312 265.128906 242.945312 C 264.800781 242.65625 264.386719 242.492188 263.941406 242.480469 " fill-opacity="1" fill-rule="nonzero"/></g><g clip-path="url(#505370d61f)"><path fill="#000000" d="M 188.832031 131.972656 C 188.773438 131.972656 188.707031 131.972656 188.640625 131.980469 C 188.253906 132.019531 187.886719 132.175781 187.589844 132.433594 C 187.589844 132.433594 183.316406 136.136719 179.039062 141.457031 C 174.757812 146.789062 170.292969 153.738281 170.292969 160.851562 C 170.292969 174.339844 180.214844 181.964844 188.800781 181.964844 C 197.390625 181.964844 207.320312 174.339844 207.320312 160.851562 C 207.320312 153.738281 202.859375 146.789062 198.578125 141.457031 C 194.296875 136.136719 190.015625 132.433594 190.015625 132.433594 C 189.691406 132.144531 189.273438 131.980469 188.832031 131.972656 Z M 138.78125 168.789062 C 136.523438 168.796875 135.105469 168.902344 135.105469 168.902344 C 134.191406 168.960938 133.457031 169.695312 133.390625 170.609375 C 133.390625 170.609375 132.976562 176.257812 133.71875 183.046875 C 134.449219 189.832031 136.226562 197.910156 141.257812 202.941406 C 150.792969 212.476562 163.199219 210.847656 169.273438 204.773438 C 175.34375 198.691406 176.964844 186.304688 167.421875 176.761719 C 162.398438 171.738281 154.328125 169.972656 147.542969 169.230469 C 144.148438 168.863281 141.035156 168.777344 138.78125 168.789062 Z M 238.824219 168.789062 C 236.558594 168.789062 233.457031 168.863281 230.0625 169.230469 C 223.277344 169.972656 215.199219 171.738281 210.164062 176.761719 C 200.632812 186.304688 202.261719 198.691406 208.332031 204.773438 C 214.417969 210.847656 226.8125 212.476562 236.347656 202.941406 C 241.378906 197.910156 243.152344 189.832031 243.886719 183.046875 C 244.628906 176.257812 244.214844 170.609375 244.214844 170.609375 C 244.148438 169.695312 243.414062 168.960938 242.5 168.902344 C 242.5 168.902344 241.082031 168.796875 238.824219 168.789062 Z M 188.832031 193.03125 C 188.773438 193.03125 188.707031 193.042969 188.640625 193.042969 C 188.253906 193.082031 187.886719 193.234375 187.589844 193.496094 C 187.589844 193.496094 183.316406 197.207031 179.039062 202.527344 C 174.757812 207.847656 170.292969 214.800781 170.292969 221.914062 C 170.292969 235.402344 180.214844 243.027344 188.800781 243.027344 C 197.390625 243.027344 207.320312 235.402344 207.320312 221.914062 C 207.320312 214.800781 202.859375 207.847656 198.578125 202.527344 C 194.296875 197.207031 190.015625 193.496094 190.015625 193.496094 C 189.691406 193.207031 189.273438 193.042969 188.832031 193.03125 " fill-opacity="1" fill-rule="nonzero"/></g><g clip-path="url(#b2585b8d11)"><path fill="#000000" d="M 112.953125 177.46875 C 112.898438 177.46875 112.828125 177.46875 112.761719 177.480469 C 112.375 177.519531 112.011719 177.671875 111.710938 177.933594 C 111.710938 177.933594 107.441406 181.632812 103.160156 186.957031 C 98.878906 192.285156 94.417969 199.238281 94.417969 206.351562 C 94.417969 219.839844 104.335938 227.464844 112.925781 227.464844 C 121.515625 227.464844 131.445312 219.839844 131.445312 206.351562 C 131.445312 199.238281 126.980469 192.285156 122.699219 186.957031 C 118.421875 181.632812 114.140625 177.933594 114.140625 177.933594 C 113.8125 177.644531 113.398438 177.480469 112.953125 177.46875 Z M 62.902344 214.285156 C 60.648438 214.296875 59.230469 214.402344 59.230469 214.402344 C 58.3125 214.460938 57.582031 215.191406 57.515625 216.109375 C 57.515625 216.109375 57.097656 221.757812 57.839844 228.542969 C 58.574219 235.332031 60.347656 243.410156 65.378906 248.441406 C 74.914062 257.976562 87.320312 256.347656 93.394531 250.273438 C 99.46875 244.191406 101.085938 231.800781 91.542969 222.257812 C 86.519531 217.234375 78.453125 215.472656 71.664062 214.730469 C 68.273438 214.363281 65.160156 214.277344 62.902344 214.285156 Z M 162.949219 214.285156 C 160.683594 214.285156 157.578125 214.363281 154.1875 214.730469 C 147.398438 215.472656 139.320312 217.234375 134.289062 222.257812 C 124.753906 231.800781 126.382812 244.191406 132.457031 250.273438 C 138.539062 256.347656 150.9375 257.976562 160.472656 248.441406 C 165.503906 243.410156 167.277344 235.332031 168.011719 228.542969 C 168.753906 221.757812 168.335938 216.109375 168.335938 216.109375 C 168.269531 215.191406 167.539062 214.460938 166.621094 214.402344 C 166.621094 214.402344 165.203125 214.296875 162.949219 214.285156 Z M 112.953125 238.53125 C 112.898438 238.53125 112.828125 238.539062 112.761719 238.539062 C 112.375 238.578125 112.011719 238.734375 111.710938 238.992188 C 111.710938 238.992188 107.441406 242.707031 103.160156 248.027344 C 98.878906 253.347656 94.417969 260.296875 94.417969 267.414062 C 94.417969 280.898438 104.335938 288.523438 112.925781 288.523438 C 121.515625 288.523438 131.445312 280.898438 131.445312 267.414062 C 131.445312 260.296875 126.980469 253.347656 122.699219 248.027344 C 118.421875 242.707031 114.140625 238.992188 114.140625 238.992188 C 113.8125 238.703125 113.398438 238.539062 112.953125 238.53125 " fill-opacity="1" fill-rule="nonzero"/></g><g clip-path="url(#5abf26799e)"><path fill="#000000" d="M 188.832031 243.523438 C 188.773438 243.523438 188.707031 243.523438 188.640625 243.53125 C 188.253906 243.570312 187.886719 243.722656 187.589844 243.984375 C 187.589844 243.984375 183.316406 247.6875 179.039062 253.007812 C 174.757812 258.339844 170.292969 265.289062 170.292969 272.402344 C 170.292969 285.890625 180.214844 293.515625 188.800781 293.515625 C 197.390625 293.515625 207.320312 285.890625 207.320312 272.402344 C 207.320312 265.289062 202.859375 258.339844 198.578125 253.007812 C 194.296875 247.6875 190.015625 243.984375 190.015625 243.984375 C 189.691406 243.695312 189.273438 243.53125 188.832031 243.523438 Z M 138.78125 280.339844 C 136.523438 280.347656 135.105469 280.453125 135.105469 280.453125 C 134.191406 280.511719 133.457031 281.246094 133.390625 282.160156 C 133.390625 282.160156 132.976562 287.808594 133.71875 294.597656 C 134.449219 301.382812 136.226562 309.460938 141.257812 314.492188 C 150.792969 324.027344 163.199219 322.398438 169.273438 316.324219 C 175.34375 310.242188 176.964844 297.855469 167.421875 288.3125 C 162.398438 283.289062 154.328125 281.523438 147.542969 280.78125 C 144.148438 280.414062 141.035156 280.328125 138.78125 280.339844 Z M 238.824219 280.339844 C 236.558594 280.339844 233.457031 280.414062 230.0625 280.78125 C 223.277344 281.523438 215.199219 283.289062 210.164062 288.3125 C 200.632812 297.855469 202.261719 310.242188 208.332031 316.324219 C 214.417969 322.398438 226.8125 324.027344 236.347656 314.492188 C 241.378906 309.460938 243.152344 301.382812 243.886719 294.597656 C 244.628906 287.808594 244.214844 282.160156 244.214844 282.160156 C 244.148438 281.246094 243.414062 280.511719 242.5 280.453125 C 242.5 280.453125 241.082031 280.347656 238.824219 280.339844 Z M 188.832031 304.582031 C 188.773438 304.582031 188.707031 304.59375 188.640625 304.59375 C 188.253906 304.632812 187.886719 304.785156 187.589844 305.046875 C 187.589844 305.046875 183.316406 308.757812 179.039062 314.078125 C 174.757812 319.398438 170.292969 326.351562 170.292969 333.464844 C 170.292969 346.953125 180.214844 354.578125 188.800781 354.578125 C 197.390625 354.578125 207.320312 346.953125 207.320312 333.464844 C 207.320312 326.351562 202.859375 319.398438 198.578125 314.078125 C 194.296875 308.757812 190.015625 305.046875 190.015625 305.046875 C 189.691406 304.757812 189.273438 304.59375 188.832031 304.582031 " fill-opacity="1" fill-rule="nonzero"/></g><g clip-path="url(#a3a15d193d)"><path fill="#000000" d="M 187.339844 374.679688 C 83.839844 374.679688 0 290.261719 0 187.339844 C 0 84.417969 83.839844 0 187.339844 0 C 290.839844 0 374.679688 83.839844 374.679688 187.339844 C 374.679688 290.839844 290.261719 374.679688 187.339844 374.679688 Z M 187.339844 11.5625 C 90.199219 11.5625 11.5625 90.199219 11.5625 187.339844 C 11.5625 284.480469 90.199219 363.117188 187.339844 363.117188 C 284.480469 363.117188 363.117188 284.480469 363.117188 187.339844 C 363.113281 90.199219 283.902344 11.5625 187.339844 11.5625 Z M 187.339844 11.5625 " fill-opacity="1" fill-rule="nonzero"/></g></svg>