<svg xmlns="http://www.w3.org/2000/svg" xmlns:xlink="http://www.w3.org/1999/xlink" width="500" zoomAndPan="magnify" viewBox="0 0 375 374.999991" height="500" preserveAspectRatio="xMidYMid meet" version="1.0"><defs><clipPath id="f266457932"><path d="M 137 41 L 301 41 L 301 147 L 137 147 Z M 137 41 " clip-rule="nonzero"/></clipPath><clipPath id="1343d64c31"><path d="M 201.289062 200.050781 L 120.203125 76.53125 L 237.335938 -0.359375 L 318.421875 123.160156 Z M 201.289062 200.050781 " clip-rule="nonzero"/></clipPath><clipPath id="0d3d4369ef"><path d="M 201.289062 200.050781 L 120.203125 76.53125 L 237.335938 -0.359375 L 318.421875 123.160156 Z M 201.289062 200.050781 " clip-rule="nonzero"/></clipPath><clipPath id="78a98c6645"><path d="M 214 197 L 320 197 L 320 340 L 214 340 Z M 214 197 " clip-rule="nonzero"/></clipPath><clipPath id="a501064241"><path d="M 178.117188 235.898438 L 300.3125 184.734375 L 349.011719 301.054688 L 226.820312 352.21875 Z M 178.117188 235.898438 " clip-rule="nonzero"/></clipPath><clipPath id="c0abeda974"><path d="M 178.117188 235.898438 L 300.3125 184.734375 L 349.011719 301.054688 L 226.820312 352.21875 Z M 178.117188 235.898438 " clip-rule="nonzero"/></clipPath><clipPath id="49499402d2"><path d="M 0 0 L 374.492188 0 L 374.492188 374.492188 L 0 374.492188 Z M 0 0 " clip-rule="nonzero"/></clipPath></defs><path fill="#000000" d="M 205.234375 132.039062 C 173.894531 128.8125 151.886719 145.53125 141.621094 175.355469 C 131.707031 204.207031 113.46875 211.867188 95.621094 217.3125 C 65.484375 226.449219 49.117188 255.027344 58.253906 285.203125 C 65.71875 309.816406 89.632812 321.949219 114.089844 321.949219 C 119.574219 321.949219 125.171875 321.132812 130.695312 319.460938 C 225.960938 290.53125 245.867188 233.097656 249.757812 195.1875 C 252.984375 163.847656 236.574219 135.265625 205.234375 132.039062 Z M 165.613281 184.183594 C 165.496094 184.6875 162.460938 196.507812 153.285156 209.144531 C 144.769531 220.886719 129.140625 235.664062 103.007812 239.125 C 102.777344 239.164062 102.582031 239.164062 102.386719 239.164062 C 100.054688 239.164062 98.03125 237.453125 97.683594 235.042969 C 97.332031 232.4375 99.160156 230.066406 101.765625 229.714844 C 145.429688 223.882812 156.320312 182.277344 156.4375 181.847656 C 157.058594 179.320312 159.625 177.765625 162.191406 178.386719 C 164.71875 179.050781 166.273438 181.617188 165.613281 184.183594 Z M 165.613281 184.183594 " fill-opacity="1" fill-rule="nonzero"/><path fill="#000000" d="M 111.730469 110.976562 C 94.414062 109.191406 82.253906 118.429688 76.582031 134.910156 C 71.101562 150.851562 61.027344 155.085938 51.164062 158.09375 C 34.511719 163.140625 25.46875 178.933594 30.515625 195.605469 C 34.640625 209.207031 47.855469 215.910156 61.371094 215.910156 C 64.398438 215.910156 67.492188 215.460938 70.542969 214.535156 C 123.183594 198.550781 134.183594 166.816406 136.332031 145.867188 C 138.117188 128.550781 129.050781 112.757812 111.730469 110.976562 Z M 89.835938 139.789062 C 89.773438 140.066406 88.097656 146.597656 83.027344 153.582031 C 78.320312 160.070312 69.683594 168.234375 55.246094 170.148438 C 55.117188 170.167969 55.011719 170.167969 54.902344 170.167969 C 53.613281 170.167969 52.496094 169.222656 52.300781 167.890625 C 52.109375 166.453125 53.117188 165.140625 54.558594 164.949219 C 78.6875 161.722656 84.703125 138.734375 84.765625 138.5 C 85.109375 137.101562 86.527344 136.242188 87.945312 136.585938 C 89.34375 136.953125 90.203125 138.371094 89.835938 139.789062 Z M 89.835938 139.789062 " fill-opacity="1" fill-rule="nonzero"/><g clip-path="url(#f266457932)"><g clip-path="url(#1343d64c31)"><g clip-path="url(#0d3d4369ef)"><path fill="#000000" d="M 141.238281 104.320312 C 151.734375 124.5625 170.589844 131.234375 192.710938 125.601562 C 214.105469 120.140625 225.980469 128.132812 236.363281 136.769531 C 253.859375 151.371094 277.648438 149.925781 292.277344 132.414062 C 304.203125 118.121094 302.042969 98.835938 292.332031 84.039062 C 290.152344 80.722656 287.4375 77.65625 284.230469 74.980469 C 228.894531 28.835938 186.242188 39.601562 161.761719 52.304688 C 141.519531 62.800781 130.746094 84.078125 141.238281 104.320312 Z M 188.523438 107.582031 C 188.875 107.453125 197.230469 104.59375 208.519531 105.125 C 219.007812 105.613281 234.152344 109.203125 246.625 123.636719 C 246.742188 123.761719 246.820312 123.878906 246.894531 123.996094 C 247.824219 125.40625 247.589844 127.3125 246.269531 128.480469 C 244.832031 129.726562 242.671875 129.5625 241.425781 128.125 C 220.554688 104.023438 191.0625 113.960938 190.753906 114.058594 C 188.980469 114.6875 187.019531 113.753906 186.375 111.953125 C 185.773438 110.160156 186.707031 108.199219 188.523438 107.582031 Z M 188.523438 107.582031 " fill-opacity="1" fill-rule="nonzero"/></g></g></g><g clip-path="url(#78a98c6645)"><g clip-path="url(#a501064241)"><g clip-path="url(#c0abeda974)"><path fill="#000000" d="M 272.921875 198.488281 C 253.242188 204.441406 244.207031 220.054688 245.542969 240.597656 C 246.847656 260.464844 237.800781 269.671875 228.429688 277.445312 C 212.589844 290.542969 209.9375 311.875 223.046875 327.734375 C 233.742188 340.667969 251.195312 341.945312 265.917969 335.78125 C 269.21875 334.398438 272.386719 332.496094 275.289062 330.097656 C 325.34375 288.671875 322.855469 249.082031 315.640625 225.277344 C 309.683594 205.597656 292.601562 192.53125 272.921875 198.488281 Z M 262.210938 239.863281 C 262.269531 240.195312 263.421875 248.078125 261.082031 257.996094 C 258.917969 267.210938 253.230469 280.046875 238.375 288.714844 C 238.242188 288.796875 238.125 288.847656 238.007812 288.894531 C 236.605469 289.484375 234.957031 288.964844 234.136719 287.601562 C 233.269531 286.121094 233.773438 284.234375 235.253906 283.367188 C 260.070312 268.847656 256.136719 241.058594 256.097656 240.769531 C 255.835938 239.09375 256.988281 237.511719 258.691406 237.238281 C 260.378906 237 261.960938 238.152344 262.210938 239.863281 Z M 262.210938 239.863281 " fill-opacity="1" fill-rule="nonzero"/></g></g></g><g clip-path="url(#49499402d2)"><path fill="#000000" d="M 187.246094 374.492188 C 83.796875 374.492188 0 290.113281 0 187.246094 C 0 84.375 83.796875 0 187.246094 0 C 290.691406 0 374.492188 83.796875 374.492188 187.246094 C 374.492188 290.691406 290.113281 374.492188 187.246094 374.492188 Z M 187.246094 11.558594 C 90.15625 11.558594 11.558594 90.15625 11.558594 187.246094 C 11.558594 284.335938 90.15625 362.933594 187.246094 362.933594 C 284.335938 362.933594 362.933594 284.335938 362.933594 187.246094 C 362.933594 90.15625 283.757812 11.558594 187.246094 11.558594 Z M 187.246094 11.558594 " fill-opacity="1" fill-rule="nonzero"/></g></svg>