<svg xmlns="http://www.w3.org/2000/svg" xmlns:xlink="http://www.w3.org/1999/xlink" width="500" zoomAndPan="magnify" viewBox="0 0 375 374.999991" height="500" preserveAspectRatio="xMidYMid meet" version="1.0"><defs><clipPath id="30d659be1c"><path d="M 123 77.464844 L 246 77.464844 L 246 296.839844 L 123 296.839844 Z M 123 77.464844 " clip-rule="nonzero"/></clipPath></defs><g clip-path="url(#30d659be1c)"><path fill="#000000" d="M 129.609375 138.589844 C 166.285156 89.691406 215.183594 77.464844 239.636719 77.464844 C 245.746094 77.464844 245.746094 83.578125 239.636719 83.578125 C 233.523438 83.578125 202.960938 95.804688 196.847656 138.589844 C 190.734375 181.378906 129.609375 138.589844 129.609375 138.589844 Z M 123.5 248.617188 C 147.949219 266.953125 202.960938 297.515625 233.523438 297.515625 C 251.859375 297.515625 245.746094 291.402344 239.636719 291.402344 C 233.523438 291.402344 184.621094 273.066406 178.511719 248.617188 C 172.398438 224.164062 123.5 248.617188 123.5 248.617188 Z M 123.5 248.617188 " fill-opacity="1" fill-rule="nonzero"/></g><path fill="#000000" d="M 293.234375 132.480469 C 283.386719 132.480469 268.425781 150.644531 261.035156 170.949219 C 252.019531 136.597656 223.34375 105.308594 181.910156 105.308594 C 131.339844 105.308594 108.1875 167.753906 93.132812 193.8125 C 89.285156 200.480469 68.125 200.132812 87.085938 212.777344 C 68.121094 225.417969 89.832031 226.488281 94.554688 231.746094 C 110.601562 249.59375 149.550781 269.671875 181.910156 269.671875 C 216.476562 269.671875 249.878906 246.53125 260.535156 214.917969 C 267.734375 235.753906 283.167969 254.726562 293.234375 254.726562 C 306.738281 254.726562 281.011719 220.609375 281.011719 193.601562 C 281.011719 166.597656 306.738281 132.480469 293.234375 132.480469 Z M 293.234375 132.480469 " fill-opacity="1" fill-rule="nonzero"/><path fill="#000000" d="M 189.328125 187.289062 C 189.214844 190.664062 191.859375 193.492188 195.234375 193.597656 L 195.441406 193.601562 C 198.71875 193.601562 201.433594 191 201.542969 187.691406 C 202.769531 150.621094 236.738281 133.804688 240.355469 132.117188 C 237.507812 128.910156 234.441406 125.894531 231.125 123.152344 C 219.605469 129.613281 190.578125 149.574219 189.328125 187.289062 Z M 220.003906 174.066406 C 219.34375 177.382812 221.488281 180.597656 224.792969 181.261719 C 225.203125 181.34375 225.601562 181.378906 226.003906 181.378906 C 228.859375 181.378906 231.414062 179.367188 231.996094 176.464844 C 235.148438 160.6875 246.027344 154.617188 253.949219 152.28125 C 252.085938 148.5625 250.007812 144.9375 247.667969 141.476562 C 236.195312 145.699219 223.78125 155.203125 220.003906 174.066406 Z M 220.003906 174.066406 " fill-opacity="1" fill-rule="nonzero"/><path fill="#000000" d="M 158.761719 199.714844 C 158.761719 203.097656 161.5 205.828125 164.875 205.828125 C 168.246094 205.828125 170.984375 203.097656 170.984375 199.714844 C 170.984375 144.886719 206.6875 123.042969 221.511719 116.335938 C 217.277344 113.773438 212.808594 111.539062 208.035156 109.8125 C 188.640625 121.285156 158.761719 147.429688 158.761719 199.714844 Z M 158.761719 199.714844 " fill-opacity="1" fill-rule="nonzero"/><path fill="#ffffff" d="M 146.535156 172.210938 C 146.535156 172.8125 146.476562 173.40625 146.359375 174 C 146.242188 174.589844 146.070312 175.164062 145.839844 175.71875 C 145.609375 176.273438 145.324219 176.804688 144.992188 177.304688 C 144.65625 177.804688 144.277344 178.265625 143.851562 178.691406 C 143.425781 179.117188 142.960938 179.5 142.460938 179.832031 C 141.960938 180.167969 141.433594 180.449219 140.875 180.679688 C 140.320312 180.910156 139.746094 181.085938 139.15625 181.203125 C 138.566406 181.320312 137.96875 181.378906 137.367188 181.378906 C 136.765625 181.378906 136.167969 181.320312 135.578125 181.203125 C 134.988281 181.085938 134.414062 180.910156 133.859375 180.679688 C 133.300781 180.449219 132.773438 180.167969 132.273438 179.832031 C 131.773438 179.5 131.308594 179.117188 130.882812 178.691406 C 130.457031 178.265625 130.078125 177.804688 129.742188 177.304688 C 129.410156 176.804688 129.128906 176.273438 128.898438 175.71875 C 128.667969 175.164062 128.492188 174.589844 128.375 174 C 128.257812 173.40625 128.199219 172.8125 128.199219 172.210938 C 128.199219 171.609375 128.257812 171.011719 128.375 170.421875 C 128.492188 169.832031 128.667969 169.257812 128.898438 168.699219 C 129.128906 168.144531 129.410156 167.617188 129.742188 167.117188 C 130.078125 166.617188 130.457031 166.152344 130.882812 165.726562 C 131.308594 165.300781 131.773438 164.921875 132.273438 164.585938 C 132.773438 164.25 133.300781 163.96875 133.859375 163.738281 C 134.414062 163.507812 134.988281 163.335938 135.578125 163.21875 C 136.167969 163.101562 136.765625 163.042969 137.367188 163.042969 C 137.96875 163.042969 138.566406 163.101562 139.15625 163.21875 C 139.746094 163.335938 140.320312 163.507812 140.875 163.738281 C 141.433594 163.96875 141.960938 164.25 142.460938 164.585938 C 142.960938 164.921875 143.425781 165.300781 143.851562 165.726562 C 144.277344 166.152344 144.65625 166.617188 144.992188 167.117188 C 145.324219 167.617188 145.609375 168.144531 145.839844 168.699219 C 146.070312 169.257812 146.242188 169.832031 146.359375 170.421875 C 146.476562 171.011719 146.535156 171.609375 146.535156 172.210938 Z M 146.535156 172.210938 " fill-opacity="1" fill-rule="nonzero"/><path fill="#000000" d="M 187.5 375 C 83.910156 375 0 290.507812 0 187.5 C 0 84.492188 83.910156 0 187.5 0 C 291.089844 0 375 83.910156 375 187.5 C 375 291.089844 290.507812 375 187.5 375 Z M 187.5 11.574219 C 90.277344 11.574219 11.574219 90.277344 11.574219 187.5 C 11.574219 284.722656 90.277344 363.425781 187.5 363.425781 C 284.722656 363.425781 363.425781 284.722656 363.425781 187.5 C 363.425781 90.277344 284.144531 11.574219 187.5 11.574219 Z M 187.5 11.574219 " fill-opacity="1" fill-rule="nonzero"/></svg>