<svg xmlns="http://www.w3.org/2000/svg" xmlns:xlink="http://www.w3.org/1999/xlink" width="500" zoomAndPan="magnify" viewBox="0 0 375 374.999991" height="500" preserveAspectRatio="xMidYMid meet" version="1.0"><defs><clipPath id="05fe476f50"><path d="M 56 76 L 319.914062 76 L 319.914062 300.535156 L 56 300.535156 Z M 56 76 " clip-rule="nonzero"/></clipPath><clipPath id="17e21f6dd0"><path d="M 55.085938 74.105469 L 165 74.105469 L 165 160 L 55.085938 160 Z M 55.085938 74.105469 " clip-rule="nonzero"/></clipPath><clipPath id="61e1a74581"><path d="M 0 0 L 374.734375 0 L 374.734375 374.734375 L 0 374.734375 Z M 0 0 " clip-rule="nonzero"/></clipPath></defs><path fill="#000000" d="M 309.304688 181.195312 C 309.25 186.578125 309.125 191.859375 308.121094 197.164062 C 307.648438 199.679688 307.164062 202.195312 306.648438 204.699219 C 306.113281 207.277344 305.296875 209.65625 304.179688 212.035156 C 303.117188 214.304688 302.171875 216.621094 301.121094 218.894531 C 300.023438 221.257812 298.808594 223.5625 297.558594 225.847656 C 295.125 230.285156 291.945312 234.027344 288.652344 237.835938 C 286.992188 239.753906 285.292969 241.570312 283.195312 243.019531 C 281.25 244.359375 279.113281 245.40625 276.992188 246.4375 C 274.714844 247.550781 272.363281 248.566406 269.855469 249.035156 C 267.300781 249.511719 264.746094 249.957031 262.21875 250.582031 C 257.027344 251.863281 251.941406 253.265625 246.929688 255.148438 C 242.097656 256.96875 237.359375 259 232.71875 261.269531 C 230.605469 262.300781 228.648438 263.523438 226.683594 264.816406 C 225.054688 265.886719 223.300781 266.757812 221.789062 267.996094 C 220.871094 268.746094 220.011719 269.347656 218.832031 269.605469 C 217.039062 269.996094 215.09375 270.113281 213.28125 269.828125 C 211.417969 269.535156 209.644531 269.140625 207.746094 269.082031 C 206.207031 269.03125 204.679688 269.238281 203.140625 269.207031 C 201.199219 269.167969 199.257812 268.933594 197.324219 268.769531 C 195.421875 268.605469 193.511719 268.496094 191.621094 268.25 C 190 268.039062 188.40625 267.675781 186.777344 267.507812 C 184.988281 267.328125 183.195312 267.214844 181.40625 267.09375 C 177.785156 266.84375 174.167969 266.554688 170.554688 266.257812 C 168.847656 266.117188 167.140625 265.980469 165.429688 265.847656 C 163.460938 265.695312 161.5 265.453125 159.523438 265.621094 C 158 265.75 156.660156 265.671875 155.226562 265.078125 C 153.632812 264.417969 151.984375 263.542969 150.820312 262.234375 C 149.753906 261.042969 148.875 259.714844 147.777344 258.539062 C 146.667969 257.347656 145.554688 256.160156 144.445312 254.96875 C 143.03125 253.457031 141.570312 251.980469 140.320312 250.328125 C 139.339844 249.03125 138.441406 247.710938 137.335938 246.511719 C 136.644531 245.761719 135.910156 245.109375 135.035156 244.578125 C 134.484375 244.242188 133.90625 243.953125 133.382812 243.570312 C 131.972656 242.546875 131.339844 240.957031 131.003906 239.292969 C 130.644531 237.511719 130.800781 236.011719 131.554688 234.371094 C 132.386719 232.558594 132.835938 230.707031 133.433594 228.8125 C 133.890625 227.363281 134.503906 225.96875 134.9375 224.511719 C 135.503906 222.613281 135.917969 220.691406 136.136719 218.722656 C 136.523438 215.222656 137.488281 211.773438 138.363281 208.363281 C 138.855469 206.445312 139.367188 204.53125 140.035156 202.664062 C 140.605469 201.082031 141.050781 199.503906 141.375 197.851562 C 141.355469 195.210938 141.542969 192.578125 141.523438 189.9375 C 141.503906 187.328125 141.257812 184.730469 141.367188 182.117188 C 141.480469 179.527344 141.535156 176.925781 141.894531 174.351562 C 142.246094 171.8125 143.03125 169.363281 143.566406 166.863281 C 144.371094 163.113281 145.023438 159.289062 146.753906 155.828125 C 148.636719 152.0625 149.550781 147.90625 151.585938 144.222656 C 152.789062 142.046875 154.105469 139.890625 155.539062 137.863281 C 156.972656 135.828125 158.738281 134.054688 160.316406 132.136719 C 161.886719 130.226562 163.542969 128.394531 165.289062 126.636719 C 167.039062 124.867188 168.648438 122.9375 170.546875 121.316406 C 172.417969 119.71875 174.542969 118.484375 176.636719 117.207031 C 178.847656 115.855469 180.996094 114.402344 183.285156 113.183594 C 187.617188 110.878906 192.375 109.175781 197.082031 107.820312 C 199.660156 107.074219 202.265625 106.347656 204.867188 105.691406 C 207.351562 105.0625 209.902344 104.800781 212.453125 104.597656 C 217.714844 104.175781 222.964844 103.996094 228.242188 104.050781 C 233.488281 104.101562 238.6875 105.175781 243.824219 106.144531 C 248.855469 107.097656 254.078125 108.53125 258.652344 110.875 C 260.859375 112.007812 263.035156 113.175781 265.28125 114.230469 C 267.660156 115.351562 269.921875 116.589844 272.148438 117.984375 C 276.609375 120.78125 280.6875 124.058594 284.511719 127.675781 C 286.351562 129.414062 288.199219 131.210938 289.792969 133.183594 C 291.28125 135.023438 292.519531 137.046875 293.9375 138.941406 C 295.429688 140.929688 297.1875 142.710938 298.558594 144.792969 C 299.921875 146.851562 300.902344 149.136719 301.957031 151.359375 C 303.089844 153.742188 304.351562 156.058594 305.34375 158.507812 C 306.28125 160.820312 306.757812 163.222656 307.1875 165.671875 C 307.644531 168.269531 308.328125 170.816406 308.792969 173.410156 C 309.253906 175.984375 309.328125 178.582031 309.304688 181.195312 Z M 309.304688 181.195312 " fill-opacity="1" fill-rule="nonzero"/><g clip-path="url(#05fe476f50)"><path fill="#000000" d="M 318.835938 254.011719 C 318.320312 254.710938 317.660156 255.285156 317.09375 255.945312 C 316.222656 256.957031 315.683594 258.101562 315.167969 259.328125 C 312.835938 264.875 309.828125 269.84375 306.035156 274.515625 C 304.195312 276.777344 302.25 278.90625 299.761719 280.464844 C 297.335938 281.988281 294.636719 283.203125 291.992188 284.296875 C 286.46875 286.578125 280.265625 286.855469 274.347656 286.863281 C 271.304688 286.867188 268.199219 286.785156 265.167969 286.492188 C 262.207031 286.207031 259.410156 285.3125 256.535156 284.609375 C 253.464844 283.859375 250.304688 283.371094 247.191406 282.824219 C 243.960938 282.253906 240.644531 281.941406 237.363281 281.863281 C 231.09375 281.71875 224.976562 283.253906 219.019531 285.046875 C 212.976562 286.867188 207.058594 289.027344 201.113281 291.125 C 194.894531 293.320312 188.703125 295.519531 182.308594 297.164062 C 176.117188 298.757812 169.894531 300.273438 163.484375 300.570312 C 160.445312 300.710938 157.390625 300.683594 154.347656 300.582031 C 151.171875 300.472656 147.957031 300.644531 144.800781 300.199219 C 141.636719 299.75 138.425781 298.902344 135.339844 298.066406 C 132.382812 297.265625 129.453125 296.261719 126.582031 295.191406 C 120.941406 293.09375 115.628906 290.121094 111.257812 285.957031 C 106.945312 281.84375 103.328125 276.863281 100.769531 271.472656 C 99.535156 268.871094 98.65625 266.136719 97.847656 263.378906 C 96.992188 260.464844 95.875 257.625 95.171875 254.671875 C 94.433594 251.570312 94.136719 248.398438 93.296875 245.316406 C 92.496094 242.375 91.742188 239.429688 90.984375 236.476562 C 89.386719 230.253906 88.179688 223.933594 87.503906 217.542969 C 86.789062 210.769531 84.863281 204.183594 83.957031 197.445312 C 83.089844 190.972656 82.699219 184.453125 81.882812 177.972656 C 81.46875 174.691406 81.226562 171.433594 81.125 168.128906 C 81.027344 164.941406 80.621094 161.8125 80.386719 158.640625 C 80.148438 155.429688 80.691406 152.300781 80.847656 149.105469 C 81 146.0625 80.683594 143.007812 81.066406 139.972656 C 81.761719 134.457031 83.222656 128.78125 86.675781 124.335938 C 88.292969 122.316406 90.152344 120.476562 92.394531 119.160156 C 92.6875 118.988281 92.988281 118.824219 93.292969 118.667969 C 92.667969 116.050781 91.65625 113.519531 90.421875 111.1875 C 87.980469 106.574219 84.632812 102.609375 81.273438 98.648438 C 79.800781 96.910156 78.257812 95.140625 76.253906 94.003906 C 75.203125 93.410156 74.082031 92.988281 72.871094 92.886719 C 71.757812 92.789062 70.636719 92.871094 69.523438 92.902344 C 65.464844 93.019531 60.90625 92.527344 58.296875 89.023438 C 56 85.945312 56.046875 81.578125 58.5 78.605469 C 61.054688 75.503906 65.535156 75.5 68.914062 77.160156 C 70.8125 78.09375 71.921875 79.667969 73.382812 81.109375 C 74.894531 82.609375 77.007812 83.242188 78.867188 84.1875 C 82.949219 86.265625 86.484375 89.296875 89.285156 92.902344 C 90.707031 94.730469 92.070312 96.601562 93.230469 98.605469 C 94.417969 100.660156 95.421875 102.8125 96.5 104.921875 C 97.578125 107.03125 98.585938 109.164062 99.160156 111.46875 C 99.570312 113.105469 99.820312 114.769531 100.0625 116.4375 C 100.226562 116.40625 100.390625 116.375 100.550781 116.347656 C 103.78125 115.816406 107.0625 115.9375 110.316406 116.148438 C 112.808594 116.308594 115.257812 116.550781 117.667969 117.15625 C 118.351562 114.878906 119.335938 112.714844 120.230469 110.511719 C 121.164062 108.210938 121.902344 105.824219 123 103.589844 C 124.121094 101.304688 125.65625 99.207031 127.238281 97.222656 C 128.820312 95.238281 130.539062 93.445312 132.519531 91.859375 C 134.28125 90.449219 136.105469 89.085938 138.070312 87.976562 C 139.960938 86.910156 141.957031 86.089844 143.988281 85.339844 C 145.097656 84.933594 146.199219 84.511719 147.199219 83.878906 C 148.167969 83.269531 149.003906 82.476562 149.894531 81.761719 C 151.503906 80.464844 153.257812 79.515625 155.34375 79.289062 C 159.222656 78.863281 163.367188 81.367188 164.546875 85.152344 C 165.757812 89.046875 162.742188 92.359375 159.410156 93.867188 C 157.351562 94.800781 155.113281 95.183594 152.855469 95.148438 C 150.578125 95.109375 148.214844 94.382812 145.949219 94.808594 C 143.957031 95.179688 142.539062 96.894531 141.011719 98.09375 C 139.207031 99.503906 137.320312 100.804688 135.609375 102.328125 C 132.191406 105.363281 129.09375 109.128906 127.039062 113.222656 C 126.03125 115.238281 125.175781 117.390625 124.644531 119.582031 C 124.613281 119.71875 124.585938 119.855469 124.558594 119.992188 C 127.875 121.917969 130.785156 124.523438 133.085938 127.644531 C 134.738281 129.886719 136.179688 132.527344 136.792969 135.269531 C 137.144531 136.851562 137.1875 138.582031 137.265625 140.203125 C 137.375 142.476562 137.460938 144.746094 137.347656 147.019531 C 137.191406 150.132812 137.3125 153.1875 137.53125 156.292969 C 137.640625 157.890625 137.714844 159.496094 137.902344 161.089844 C 138.089844 162.691406 138.453125 164.269531 138.71875 165.859375 C 139.21875 168.886719 139.371094 171.964844 139.707031 175.011719 C 140.074219 178.339844 139.90625 181.78125 140.539062 185.066406 C 141.128906 188.132812 142.148438 191.0625 142.605469 194.160156 C 143.082031 197.394531 143.609375 200.542969 144.496094 203.695312 C 145.363281 206.792969 146.246094 209.898438 147.242188 212.957031 C 149.152344 218.800781 151.679688 224.253906 155.707031 228.9375 C 157.648438 231.191406 159.320312 233.6875 161.371094 235.839844 C 163.425781 237.996094 165.613281 240.046875 167.875 241.984375 C 170.242188 244.011719 172.78125 245.917969 175.46875 247.507812 C 178.023438 249.019531 180.84375 250.085938 183.628906 251.089844 C 186.644531 252.175781 189.695312 252.773438 192.84375 253.320312 C 196.152344 253.890625 199.40625 254.378906 202.746094 253.757812 C 208.898438 252.613281 214.675781 249.96875 220.546875 247.882812 C 223.582031 246.800781 226.710938 246.210938 229.8125 245.367188 C 232.816406 244.546875 235.859375 243.835938 238.953125 243.453125 C 242.167969 243.058594 245.425781 243.035156 248.660156 243.039062 C 251.722656 243.042969 254.703125 243.511719 257.722656 243.957031 C 260.75 244.398438 263.738281 245.054688 266.707031 245.792969 C 269.671875 246.527344 272.488281 247.585938 275.382812 248.542969 C 281.191406 250.457031 286.8125 252.679688 292.917969 253.539062 C 298.824219 254.371094 304.859375 253.941406 310.570312 252.238281 C 311.648438 251.914062 312.554688 251.445312 313.371094 250.660156 C 313.890625 250.160156 314.324219 249.566406 314.878906 249.105469 C 316.089844 248.089844 317.347656 248.582031 318.285156 249.703125 C 319.378906 251.011719 319.925781 252.535156 318.835938 254.011719 Z M 318.835938 254.011719 " fill-opacity="1" fill-rule="nonzero"/></g><path fill="#ffffff" d="M 218.6875 169.648438 C 217.542969 170.273438 216.519531 168.523438 217.667969 167.902344 C 220.148438 166.550781 222.773438 165.398438 225.617188 165.144531 C 228.664062 164.871094 231.636719 165.882812 234.425781 166.988281 C 236.878906 167.964844 239.367188 169.039062 241.304688 170.882812 C 243.257812 172.738281 244.761719 175.140625 245.78125 177.621094 C 246.886719 180.324219 247.15625 183.222656 246.902344 186.113281 C 246.417969 191.714844 243.847656 197.054688 240.035156 201.175781 C 238.15625 203.203125 235.855469 204.921875 233.546875 206.429688 C 231.101562 208.023438 228.46875 209.050781 225.578125 209.488281 C 219.683594 210.378906 213.527344 210.578125 207.695312 209.214844 C 204.988281 208.582031 202.210938 207.640625 199.890625 206.074219 C 197.636719 204.550781 195.890625 202.351562 194.277344 200.1875 C 192.566406 197.902344 191.445312 195.34375 190.351562 192.726562 C 189.195312 189.972656 188.3125 187.308594 187.980469 184.328125 C 187.308594 178.191406 188.136719 172.125 189.503906 166.140625 C 190.164062 163.242188 191.082031 160.417969 192.597656 157.84375 C 194.042969 155.386719 195.796875 153.058594 197.550781 150.8125 C 199.3125 148.5625 201.296875 146.6875 203.554688 144.945312 C 205.808594 143.199219 208.136719 141.636719 210.84375 140.679688 C 213.695312 139.675781 216.671875 138.976562 219.558594 138.070312 C 222.503906 137.144531 225.496094 136.59375 228.550781 136.183594 C 234.761719 135.34375 241.039062 135.117188 247.242188 136.125 C 253.148438 137.089844 258.886719 138.9375 264.082031 141.9375 C 266.539062 143.355469 268.675781 145.074219 270.542969 147.207031 C 272.402344 149.335938 274.21875 151.550781 275.683594 153.96875 C 276.425781 155.195312 277.046875 156.480469 277.699219 157.753906 C 278.359375 159.039062 279.054688 160.308594 279.625 161.636719 C 280.808594 164.390625 281.117188 167.277344 281.324219 170.238281 C 281.761719 176.410156 281.773438 182.816406 280.355469 188.882812 C 279.667969 191.839844 278.59375 194.6875 277.886719 197.640625 C 277.171875 200.640625 276.234375 203.488281 275.132812 206.371094 C 274.042969 209.226562 272.839844 211.960938 271.351562 214.628906 C 269.957031 217.128906 268.824219 219.789062 267.320312 222.230469 C 264.332031 227.09375 259.453125 230.769531 254.617188 233.640625 C 251.980469 235.207031 249.34375 236.785156 246.59375 238.144531 C 243.824219 239.515625 241.097656 241.007812 238.265625 242.246094 C 237.082031 242.761719 236.050781 241.015625 237.246094 240.496094 C 239.835938 239.359375 242.300781 237.964844 244.851562 236.746094 C 247.441406 235.503906 249.921875 234.058594 252.394531 232.601562 C 254.789062 231.191406 257.164062 229.769531 259.296875 227.972656 C 261.339844 226.253906 263.378906 224.398438 264.921875 222.199219 C 266.472656 219.992188 267.496094 217.464844 268.777344 215.101562 C 270.160156 212.542969 271.527344 210.054688 272.597656 207.339844 C 273.644531 204.675781 274.726562 202 275.425781 199.21875 C 276.121094 196.449219 276.875 193.726562 277.6875 190.988281 C 278.527344 188.167969 279.015625 185.332031 279.261719 182.402344 C 279.515625 179.421875 279.6875 176.4375 279.53125 173.449219 C 279.382812 170.644531 279.292969 167.707031 278.632812 164.96875 C 277.996094 162.332031 276.550781 159.980469 275.351562 157.578125 C 274.152344 155.167969 272.679688 152.980469 270.984375 150.894531 C 269.292969 148.8125 267.574219 146.695312 265.355469 145.144531 C 263.121094 143.582031 260.664062 142.339844 258.160156 141.265625 C 252.898438 139.007812 247.03125 137.761719 241.316406 137.519531 C 235.488281 137.273438 229.511719 137.804688 223.808594 139.007812 C 220.996094 139.601562 218.304688 140.664062 215.539062 141.421875 C 212.84375 142.160156 210.234375 142.871094 207.84375 144.367188 C 205.566406 145.789062 203.324219 147.484375 201.445312 149.402344 C 199.59375 151.296875 198.054688 153.460938 196.511719 155.605469 C 194.90625 157.847656 193.445312 160.152344 192.542969 162.773438 C 191.625 165.445312 191.089844 168.238281 190.585938 171.015625 C 190.0625 173.894531 189.726562 176.777344 189.757812 179.710938 C 189.785156 182.550781 189.933594 185.464844 190.777344 188.199219 C 192.347656 193.285156 194.800781 198.082031 198.382812 202.035156 C 202.042969 206.078125 207.820312 207.648438 213.109375 208.0625 C 215.984375 208.289062 218.863281 208.082031 221.734375 207.867188 C 224.5 207.664062 227.332031 207.367188 229.875 206.175781 C 232.242188 205.070312 234.417969 203.464844 236.421875 201.804688 C 238.425781 200.148438 240.109375 198.15625 241.449219 195.933594 C 244.230469 191.328125 245.878906 185.753906 244.566406 180.382812 C 243.933594 177.800781 242.566406 175.34375 240.835938 173.339844 C 239.160156 171.398438 237 170.214844 234.65625 169.253906 C 232.09375 168.199219 229.367188 167.109375 226.554688 167.128906 C 223.742188 167.140625 221.109375 168.332031 218.6875 169.648438 Z M 218.6875 169.648438 " fill-opacity="1" fill-rule="nonzero"/><path fill="#000000" d="M 99.300781 142.339844 L 99.34375 142.414062 L 99.34375 142.496094 C 99.347656 144.023438 99.046875 145.269531 98.390625 146.417969 C 97.882812 147.308594 97.085938 147.859375 96.199219 147.917969 C 96.144531 147.921875 96.089844 147.925781 96.035156 147.925781 C 95.199219 147.925781 94.394531 147.492188 93.804688 146.722656 C 92.367188 144.859375 92.675781 141.605469 94.4375 140.027344 C 95.566406 139.019531 96.929688 139.039062 97.917969 140.074219 C 98.347656 140.53125 98.640625 141.097656 98.925781 141.644531 C 99.046875 141.878906 99.167969 142.113281 99.300781 142.339844 Z M 119.878906 142.414062 L 119.835938 142.339844 C 119.703125 142.113281 119.582031 141.878906 119.460938 141.644531 C 119.179688 141.097656 118.886719 140.527344 118.453125 140.074219 C 117.46875 139.039062 116.101562 139.019531 114.976562 140.027344 C 113.214844 141.605469 112.90625 144.859375 114.339844 146.722656 C 114.933594 147.492188 115.738281 147.925781 116.570312 147.925781 C 116.625 147.925781 116.683594 147.921875 116.738281 147.917969 C 117.621094 147.855469 118.421875 147.308594 118.929688 146.417969 C 119.585938 145.269531 119.886719 144.019531 119.878906 142.496094 Z M 119.878906 142.414062 " fill-opacity="1" fill-rule="nonzero"/><g clip-path="url(#17e21f6dd0)"><path fill="#000000" d="M 108.96875 157.410156 C 109.113281 157.941406 108.785156 158.503906 108.257812 158.65625 C 106.011719 159.296875 103.652344 159.226562 101.351562 158.972656 C 100.785156 158.910156 100.367188 158.558594 100.339844 157.960938 C 100.316406 157.453125 100.824219 156.886719 101.351562 156.945312 C 103.507812 157.183594 105.679688 157.285156 107.71875 156.703125 C 108.25 156.550781 108.820312 156.882812 108.96875 157.410156 Z M 164.722656 86.609375 C 164.265625 82.496094 160.785156 78.976562 156.566406 78.945312 C 156.28125 78.941406 156.0625 79.039062 155.902344 79.1875 C 152.546875 79.09375 149.1875 80.714844 147.480469 83.691406 C 145.734375 86.730469 145.167969 91.871094 148.121094 94.410156 C 149.539062 95.636719 151.46875 95.808594 153.269531 95.839844 C 155.300781 95.875 157.464844 96.074219 159.402344 95.324219 C 162.84375 93.988281 165.136719 90.296875 164.722656 86.609375 Z M 70.355469 77.140625 C 69.039062 76.097656 67.535156 75.550781 65.945312 75.449219 C 65.882812 74.996094 65.566406 74.566406 64.988281 74.523438 C 61.238281 74.234375 57.863281 76.996094 56.503906 80.34375 C 55.074219 83.871094 55.976562 88.164062 58.46875 90.992188 C 59.75 92.445312 61.429688 93.253906 63.328125 93.542969 C 65.347656 93.847656 67.585938 93.976562 69.539062 93.277344 C 73.777344 91.765625 75.015625 86.984375 74.011719 82.941406 C 73.453125 80.703125 72.171875 78.574219 70.355469 77.140625 Z M 70.355469 77.140625 " fill-opacity="1" fill-rule="nonzero"/></g><g clip-path="url(#61e1a74581)"><path fill="#000000" d="M 187.367188 374.734375 C 83.851562 374.734375 0 290.304688 0 187.367188 C 0 84.429688 83.851562 0 187.367188 0 C 290.882812 0 374.734375 83.851562 374.734375 187.367188 C 374.734375 290.882812 290.304688 374.734375 187.367188 374.734375 Z M 187.367188 11.566406 C 90.214844 11.566406 11.566406 90.214844 11.566406 187.367188 C 11.566406 284.519531 90.214844 363.167969 187.367188 363.167969 C 284.519531 363.167969 363.167969 284.519531 363.167969 187.367188 C 363.167969 90.214844 283.941406 11.566406 187.367188 11.566406 Z M 187.367188 11.566406 " fill-opacity="1" fill-rule="nonzero"/></g></svg>