<svg xmlns="http://www.w3.org/2000/svg" xmlns:xlink="http://www.w3.org/1999/xlink" width="500" zoomAndPan="magnify" viewBox="0 0 375 374.999991" height="500" preserveAspectRatio="xMidYMid meet" version="1.0"><path fill="#30343f" d="M 315.359375 141.285156 C 296.957031 121.210938 267.308594 117.460938 244.75 130.820312 C 251.765625 110.082031 246.242188 87.050781 230.46875 71.851562 C 207.980469 50.175781 172.042969 50.839844 150.363281 73.332031 C 136.953125 87.242188 131.625 106.796875 136.074219 125.675781 C 133.582031 127.96875 131.25 130.46875 129.160156 133.226562 C 122.539062 141.960938 118.714844 152.195312 117.871094 162.867188 C 94.15625 156.257812 69.132812 165.550781 55.492188 186.105469 C 47.121094 198.71875 44.164062 213.828125 47.164062 228.660156 C 50.164062 243.496094 58.757812 256.273438 71.367188 264.640625 C 80.773438 270.882812 91.636719 274.097656 102.640625 274.097656 C 108.042969 274.097656 113.480469 273.308594 118.796875 271.734375 C 124.078125 298.261719 147.496094 317.3125 174.273438 317.3125 C 176.621094 317.3125 179 317.164062 181.386719 316.863281 C 190.253906 315.75 198.410156 312.625 205.445312 307.996094 C 216.046875 317.65625 229.515625 322.855469 243.488281 322.855469 C 246.625 322.855469 249.78125 322.59375 252.9375 322.0625 C 267.863281 319.566406 280.921875 311.402344 289.707031 299.078125 C 298.492188 286.757812 301.949219 271.753906 299.449219 256.828125 C 298.046875 248.453125 294.84375 240.707031 289.976562 233.765625 C 298.117188 231.316406 305.628906 227.0625 311.886719 221.328125 C 334.910156 200.214844 336.472656 164.308594 315.359375 141.285156 Z M 315.359375 141.285156 " fill-opacity="1" fill-rule="nonzero"/><path fill="#000000" d="M 315.0625 141.558594 C 294.070312 118.660156 258.488281 117.113281 235.585938 138.109375 C 232.273438 141.148438 229.476562 144.523438 227.070312 148.097656 C 218.175781 123.777344 193.335938 108.042969 166.636719 111.71875 C 135.863281 115.960938 114.351562 144.347656 118.589844 175.121094 C 120.863281 191.621094 130.113281 205.40625 142.910156 214.039062 C 125.890625 225.527344 115.765625 245.910156 118.503906 267.675781 C 122.382812 298.5 150.515625 320.34375 181.335938 316.464844 C 210.011719 312.855469 230.882812 288.253906 230.535156 260.03125 C 228.285156 259.703125 226.027344 259.285156 223.777344 258.671875 C 198.945312 251.917969 182.59375 229.546875 182.324219 205.027344 C 182.320312 205.027344 182.316406 205.023438 182.308594 205.023438 C 182.339844 207.972656 182.605469 210.890625 183.082031 213.753906 C 181.761719 205.960938 182.042969 197.765625 184.253906 189.632812 C 190.035156 168.363281 207.292969 153.335938 227.53125 149.277344 C 227.53125 149.269531 227.527344 149.265625 227.527344 149.261719 C 235.808594 147.597656 244.582031 147.742188 253.292969 150.109375 C 283.269531 158.261719 300.964844 189.171875 292.8125 219.148438 C 291.3125 224.671875 289.027344 229.769531 286.128906 234.371094 C 295.339844 232.277344 304.152344 227.871094 311.613281 221.03125 C 334.511719 200.039062 336.058594 164.457031 315.0625 141.558594 Z M 147.289062 216.707031 C 147.222656 216.671875 147.15625 216.632812 147.089844 216.597656 C 147.15625 216.632812 147.222656 216.671875 147.289062 216.707031 Z M 168.0625 223.289062 C 167.339844 223.207031 166.613281 223.148438 165.894531 223.039062 C 166.613281 223.148438 167.339844 223.210938 168.0625 223.289062 Z M 162.386719 222.363281 C 161.882812 222.25 161.378906 222.15625 160.878906 222.035156 C 161.378906 222.15625 161.882812 222.253906 162.386719 222.363281 Z M 157.035156 220.917969 C 156.714844 220.8125 156.386719 220.71875 156.070312 220.605469 C 156.390625 220.71875 156.714844 220.816406 157.035156 220.917969 Z M 151.996094 219.015625 C 151.820312 218.9375 151.648438 218.867188 151.472656 218.789062 C 151.648438 218.867188 151.820312 218.941406 151.996094 219.015625 Z M 171.101562 223.589844 C 172.113281 223.648438 173.136719 223.632812 174.15625 223.636719 C 173.136719 223.632812 172.113281 223.648438 171.101562 223.589844 Z M 176.476562 223.644531 C 178.304688 223.574219 180.144531 223.421875 181.992188 223.167969 C 180.140625 223.421875 178.304688 223.574219 176.476562 223.644531 Z M 183.925781 217.808594 C 183.613281 216.554688 183.34375 215.292969 183.121094 214.015625 C 183.339844 215.292969 183.617188 216.554688 183.925781 217.808594 Z M 185.289062 222.542969 C 184.824219 221.179688 184.414062 219.789062 184.054688 218.390625 C 184.414062 219.792969 184.824219 221.179688 185.289062 222.542969 Z M 185.289062 222.542969 " fill-opacity="1" fill-rule="nonzero"/><path fill="#000000" d="M 166.636719 111.71875 C 154.957031 113.328125 144.621094 118.429688 136.511719 125.804688 C 132.183594 107.761719 136.820312 87.964844 150.652344 73.609375 C 172.210938 51.242188 207.820312 50.582031 230.1875 72.140625 C 246.671875 88.023438 251.324219 111.527344 244.03125 131.75 C 241.078125 133.578125 238.242188 135.675781 235.585938 138.109375 C 232.273438 141.148438 229.476562 144.523438 227.070312 148.097656 C 218.175781 123.777344 193.335938 108.042969 166.636719 111.71875 Z M 118.589844 175.121094 C 118.042969 171.144531 117.941406 167.214844 118.21875 163.367188 C 95.265625 156.769531 69.734375 165.375 55.828125 186.332031 C 38.648438 212.214844 45.707031 247.125 71.589844 264.300781 C 86.167969 273.976562 103.609375 275.960938 119.132812 271.226562 C 118.910156 270.050781 118.65625 268.882812 118.503906 267.675781 C 115.765625 245.910156 125.890625 225.527344 142.910156 214.039062 C 130.113281 205.40625 120.863281 191.621094 118.589844 175.121094 Z M 252.871094 321.667969 C 235.023438 324.660156 217.769531 318.847656 205.429688 307.457031 C 220.933594 297.128906 230.773438 279.460938 230.535156 260.03125 C 228.285156 259.703125 226.027344 259.285156 223.777344 258.671875 C 193.800781 250.519531 176.105469 219.613281 184.253906 189.632812 C 192.402344 159.65625 223.3125 141.960938 253.292969 150.109375 C 283.269531 158.261719 300.964844 189.171875 292.8125 219.148438 C 291.621094 223.53125 289.894531 227.617188 287.800781 231.433594 C 287.800781 231.433594 287.800781 231.433594 287.800781 231.429688 C 293.453125 238.605469 297.4375 247.253906 299.050781 256.894531 C 304.1875 287.53125 283.511719 316.53125 252.871094 321.667969 Z M 247.691406 259.847656 C 247.785156 259.832031 247.875 259.8125 247.964844 259.796875 C 247.875 259.8125 247.785156 259.832031 247.691406 259.847656 Z M 243.128906 260.402344 C 243.375 260.378906 243.621094 260.363281 243.867188 260.335938 C 243.621094 260.359375 243.375 260.378906 243.128906 260.402344 Z M 277.527344 244.855469 C 277.457031 244.921875 277.386719 244.988281 277.320312 245.050781 C 277.386719 244.988281 277.457031 244.921875 277.527344 244.855469 Z M 260.003906 256.324219 C 259.917969 256.359375 259.828125 256.390625 259.742188 256.425781 C 259.828125 256.390625 259.917969 256.359375 260.003906 256.324219 Z M 263.976562 254.484375 C 263.84375 254.554688 263.710938 254.625 263.578125 254.691406 C 263.710938 254.625 263.84375 254.554688 263.976562 254.484375 Z M 263.976562 254.484375 " fill-opacity="1" fill-rule="nonzero"/><path fill="#ffffff" d="M 263.152344 186.222656 C 257.3125 191.542969 248.265625 191.117188 242.949219 185.277344 C 237.632812 179.4375 238.054688 170.394531 243.894531 165.074219 C 249.734375 159.757812 258.78125 160.179688 264.097656 166.019531 C 269.414062 171.859375 268.992188 180.90625 263.152344 186.222656 Z M 129.101562 251.628906 C 125.726562 258.769531 128.777344 267.292969 135.917969 270.667969 C 143.058594 274.042969 151.585938 270.992188 154.960938 263.851562 C 158.335938 256.710938 155.28125 248.183594 148.140625 244.808594 C 141 241.433594 132.476562 244.488281 129.101562 251.628906 Z M 182.808594 122.128906 C 175.628906 118.835938 167.140625 121.988281 163.851562 129.167969 C 160.558594 136.347656 163.710938 144.835938 170.890625 148.128906 C 178.070312 151.421875 186.558594 148.269531 189.851562 141.089844 C 193.140625 133.910156 189.988281 125.417969 182.808594 122.128906 Z M 315.703125 160.78125 C 314.324219 153.003906 306.90625 147.816406 299.128906 149.191406 C 291.351562 150.570312 286.164062 157.992188 287.539062 165.769531 C 288.917969 173.542969 296.339844 178.734375 304.117188 177.355469 C 311.890625 175.976562 317.082031 168.558594 315.703125 160.78125 Z M 236.402344 311.734375 C 243.675781 314.816406 252.070312 311.417969 255.148438 304.144531 C 258.230469 296.871094 254.832031 288.480469 247.558594 285.398438 C 240.285156 282.316406 231.894531 285.714844 228.8125 292.988281 C 225.730469 300.261719 229.128906 308.652344 236.402344 311.734375 Z M 169.796875 71.785156 C 162.121094 73.640625 157.402344 81.367188 159.257812 89.042969 C 161.113281 96.722656 168.839844 101.441406 176.519531 99.585938 C 184.195312 97.730469 188.914062 90 187.058594 82.324219 C 185.203125 74.648438 177.476562 69.929688 169.796875 71.785156 Z M 74.332031 181.085938 C 67.113281 184.292969 63.863281 192.746094 67.070312 199.960938 C 70.277344 207.179688 78.726562 210.429688 85.945312 207.222656 C 93.164062 204.015625 96.414062 195.566406 93.207031 188.347656 C 90 181.128906 81.546875 177.878906 74.332031 181.085938 Z M 74.332031 181.085938 " fill-opacity="1" fill-rule="nonzero"/><path fill="#30343f" d="M 285.269531 234.980469 L 285.789062 234.15625 C 288.742188 229.460938 290.976562 224.375 292.421875 219.039062 C 296.339844 204.648438 294.410156 189.589844 287 176.644531 C 279.589844 163.699219 267.578125 154.414062 253.183594 150.5 C 244.402344 148.109375 235.058594 147.914062 226.183594 149.9375 L 225.234375 150.152344 L 225.753906 149.328125 C 228.503906 144.984375 231.71875 141.109375 235.316406 137.808594 C 258.34375 116.695312 294.25 118.261719 315.359375 141.285156 C 336.472656 164.308594 334.910156 200.214844 311.886719 221.328125 C 304.675781 227.9375 295.800781 232.585938 286.21875 234.765625 Z M 238.542969 147.746094 C 243.546875 147.746094 248.554688 148.40625 253.398438 149.722656 C 268 153.691406 280.183594 163.109375 287.699219 176.242188 C 295.222656 189.375 297.175781 204.648438 293.203125 219.253906 C 291.816406 224.347656 289.730469 229.222656 286.984375 233.753906 C 296.070312 231.519531 304.472656 227.03125 311.339844 220.734375 C 334.039062 199.921875 335.574219 164.527344 314.769531 141.828125 C 293.953125 119.132812 258.554688 117.59375 235.863281 138.40625 C 232.542969 141.445312 229.550781 144.988281 226.960938 148.941406 C 230.773438 148.144531 234.65625 147.746094 238.542969 147.746094 Z M 174.273438 317.3125 C 146.160156 317.3125 121.703125 296.335938 118.101562 267.726562 C 115.425781 246.445312 124.847656 225.746094 142.6875 213.707031 L 142.914062 213.554688 L 143.136719 213.707031 C 154.578125 221.421875 168.351562 224.652344 181.9375 222.765625 C 182.75 222.65625 183.5625 222.488281 184.351562 222.324219 L 184.761719 222.242188 C 182.929688 216.734375 181.96875 210.945312 181.90625 205.027344 L 181.902344 204.621094 L 182.707031 204.621094 L 182.730469 205.023438 C 183 229.867188 199.921875 251.769531 223.882812 258.277344 L 223.882812 258.28125 C 225.902344 258.832031 228.035156 259.257812 230.59375 259.628906 L 230.933594 259.679688 L 230.9375 260.023438 C 231.292969 288.828125 209.988281 313.265625 181.386719 316.863281 C 179 317.164062 176.621094 317.3125 174.273438 317.3125 Z M 142.914062 214.523438 C 125.472656 226.414062 116.277344 246.738281 118.902344 267.628906 C 122.746094 298.179688 150.714844 319.894531 181.289062 316.066406 C 209.367188 312.53125 230.3125 288.625 230.136719 260.378906 C 227.695312 260.015625 225.628906 259.59375 223.667969 259.0625 C 205.375 254.089844 191.128906 240.273438 185.082031 222.996094 L 184.511719 223.113281 C 183.714844 223.28125 182.886719 223.449219 182.046875 223.566406 C 168.359375 225.457031 154.472656 222.246094 142.914062 214.523438 Z M 226.964844 148.980469 L 226.695312 148.238281 C 217.738281 123.753906 192.503906 108.558594 166.691406 112.121094 C 155.488281 113.664062 145.144531 118.5 136.785156 126.105469 L 136.28125 126.5625 L 136.121094 125.902344 C 131.574219 106.953125 136.898438 87.300781 150.363281 73.332031 C 172.042969 50.839844 207.980469 50.175781 230.46875 71.851562 C 246.511719 87.308594 251.984375 110.875 244.410156 131.886719 L 244.359375 132.019531 L 244.242188 132.09375 C 241.1875 133.984375 238.367188 136.105469 235.859375 138.40625 C 232.777344 141.230469 229.933594 144.570312 227.40625 148.324219 Z M 174.191406 110.800781 C 197.335938 110.800781 218.78125 125.214844 227.175781 147.230469 C 229.628906 143.683594 232.363281 140.515625 235.316406 137.808594 C 237.828125 135.507812 240.648438 133.378906 243.699219 131.484375 C 251.09375 110.804688 245.691406 87.636719 229.910156 72.429688 C 207.734375 51.0625 172.3125 51.71875 150.941406 73.890625 C 137.828125 87.496094 132.546875 106.574219 136.75 125.050781 C 145.140625 117.597656 155.441406 112.855469 166.582031 111.320312 C 169.128906 110.972656 171.671875 110.800781 174.191406 110.800781 Z M 174.195312 224.105469 C 161.925781 224.105469 150.046875 220.136719 140.09375 212.597656 C 128.035156 203.457031 120.253906 190.167969 118.191406 175.175781 C 116.125 160.183594 120.023438 145.285156 129.160156 133.226562 C 138.300781 121.164062 151.589844 113.386719 166.582031 111.320312 C 193.40625 107.640625 219.199219 123.53125 227.914062 149.148438 L 228.0625 149.582031 L 227.613281 149.671875 C 206.6875 153.867188 190.222656 169.222656 184.644531 189.742188 C 181.703125 200.554688 182.058594 211.851562 185.667969 222.414062 L 185.820312 222.847656 L 184.511719 223.113281 C 183.714844 223.28125 182.886719 223.449219 182.046875 223.566406 C 179.421875 223.929688 176.800781 224.105469 174.195312 224.105469 Z M 174.316406 111.597656 C 171.792969 111.597656 169.25 111.769531 166.691406 112.121094 C 151.914062 114.15625 138.816406 121.824219 129.804688 133.714844 C 120.792969 145.601562 116.953125 160.289062 118.988281 175.066406 C 121.027344 189.84375 128.695312 202.945312 140.582031 211.953125 C 152.472656 220.964844 167.160156 224.800781 181.9375 222.765625 C 182.75 222.65625 183.5625 222.488281 184.351562 222.324219 L 184.761719 222.242188 C 181.234375 211.652344 180.921875 200.347656 183.863281 189.527344 C 189.484375 168.859375 205.988281 153.359375 227 148.972656 C 219.117188 126.410156 197.738281 111.597656 174.316406 111.597656 Z M 102.640625 274.097656 C 91.636719 274.097656 80.773438 270.882812 71.367188 264.640625 C 58.757812 256.273438 50.164062 243.496094 47.164062 228.660156 C 44.164062 213.828125 47.121094 198.71875 55.492188 186.105469 C 69.21875 165.417969 94.480469 156.121094 118.328125 162.976562 L 118.644531 163.066406 L 118.621094 163.394531 C 118.335938 167.308594 118.460938 171.234375 118.988281 175.066406 C 121.148438 190.726562 129.949219 204.8125 143.136719 213.707031 L 143.632812 214.039062 L 143.136719 214.375 C 125.550781 226.242188 116.265625 246.648438 118.902344 267.628906 C 119.019531 268.542969 119.199219 269.457031 119.371094 270.339844 L 119.597656 271.507812 L 119.25 271.613281 C 113.792969 273.28125 108.195312 274.097656 102.640625 274.097656 Z M 102.570312 161.554688 C 84.21875 161.554688 66.730469 170.632812 56.160156 186.554688 C 47.914062 198.980469 45 213.878906 47.953125 228.5 C 50.910156 243.125 59.382812 255.71875 71.8125 263.964844 C 85.664062 273.15625 102.714844 275.695312 118.667969 270.949219 L 118.582031 270.496094 C 118.402344 269.601562 118.222656 268.671875 118.101562 267.726562 C 115.449219 246.640625 124.675781 226.125 142.195312 214.039062 C 129.089844 205 120.351562 190.867188 118.191406 175.175781 C 117.667969 171.398438 117.539062 167.527344 117.792969 163.664062 C 112.738281 162.242188 107.621094 161.554688 102.570312 161.554688 Z M 243.488281 322.855469 C 229.390625 322.855469 215.800781 317.578125 205.15625 307.753906 L 204.78125 307.40625 L 205.207031 307.121094 C 221.050781 296.566406 230.367188 278.964844 230.132812 260.03125 L 230.125 259.558594 L 230.59375 259.625 C 253.476562 262.933594 276.328125 251.527344 287.449219 231.234375 L 287.710938 230.765625 L 288.167969 231.253906 L 288.273438 231.449219 L 288.171875 231.652344 C 287.796875 232.335938 287.398438 233.050781 286.980469 233.753906 C 287.703125 233.578125 288.449219 233.375 289.242188 233.144531 L 289.515625 233.066406 L 289.683594 233.300781 C 294.730469 240.355469 298.015625 248.269531 299.449219 256.828125 C 301.949219 271.753906 298.492188 286.757812 289.707031 299.078125 C 280.921875 311.402344 267.863281 319.566406 252.9375 322.0625 C 249.78125 322.59375 246.625 322.855469 243.488281 322.855469 Z M 206.078125 307.503906 C 218.863281 319.097656 235.851562 324.101562 252.804688 321.269531 C 267.515625 318.804688 280.390625 310.757812 289.046875 298.609375 C 297.710938 286.464844 301.117188 271.671875 298.65625 256.960938 C 297.257812 248.617188 294.074219 240.894531 289.191406 234 C 288.175781 234.289062 287.234375 234.53125 286.316406 234.742188 C 274.566406 253.234375 252.816406 263.472656 230.941406 260.488281 C 231.023438 279.34375 221.761719 296.855469 206.078125 307.503906 Z M 206.078125 307.503906 " fill-opacity="1" fill-rule="nonzero"/><path fill="#000000" d="M 187.527344 366.160156 C 88.972656 366.160156 8.796875 285.976562 8.796875 187.425781 C 8.796875 88.875 88.972656 8.703125 187.527344 8.703125 C 286.078125 8.703125 366.257812 88.875 366.257812 187.425781 C 366.257812 285.976562 286.078125 366.160156 187.527344 366.160156 Z M 187.527344 -0.0429688 C 84.160156 -0.0429688 0.0585938 84.058594 0.0585938 187.425781 C 0.0585938 290.796875 84.160156 374.898438 187.527344 374.898438 C 290.898438 374.898438 374.996094 290.796875 374.996094 187.425781 C 374.996094 84.058594 290.898438 -0.0429688 187.527344 -0.0429688 " fill-opacity="1" fill-rule="nonzero"/><path fill="#000000" d="M 187.527344 6.207031 C 87.605469 6.207031 6.3125 87.503906 6.3125 187.425781 C 6.3125 287.351562 87.605469 368.648438 187.527344 368.648438 C 287.453125 368.648438 368.75 287.351562 368.75 187.425781 C 368.75 87.503906 287.453125 6.207031 187.527344 6.207031 Z M 187.527344 372.40625 C 85.535156 372.40625 2.550781 289.421875 2.550781 187.425781 C 2.550781 85.425781 85.535156 2.449219 187.527344 2.449219 C 289.523438 2.449219 372.507812 85.425781 372.507812 187.425781 C 372.507812 289.421875 289.523438 372.40625 187.527344 372.40625 " fill-opacity="1" fill-rule="nonzero"/></svg>