<svg xmlns="http://www.w3.org/2000/svg" xmlns:xlink="http://www.w3.org/1999/xlink" width="500" zoomAndPan="magnify" viewBox="0 0 375 374.999991" height="500" preserveAspectRatio="xMidYMid meet" version="1.0"><defs><clipPath id="3ac0bcf9c1"><path d="M 149.367188 42.859375 L 225.433594 42.859375 L 225.433594 246 L 149.367188 246 Z M 149.367188 42.859375 " clip-rule="nonzero"/></clipPath><clipPath id="c94dec4523"><path d="M 158 274 L 217 274 L 217 332.542969 L 158 332.542969 Z M 158 274 " clip-rule="nonzero"/></clipPath></defs><g clip-path="url(#3ac0bcf9c1)"><path fill="#ff6100" d="M 187.347656 42.859375 C 164.417969 42.859375 146.644531 63.070312 149.726562 85.851562 L 171.015625 231 C 172.09375 239.191406 179.105469 245.355469 187.402344 245.355469 C 195.671875 245.355469 202.679688 239.191406 203.8125 231 L 225.101562 85.851562 C 228.054688 63.070312 210.308594 42.859375 187.347656 42.859375 " fill-opacity="1" fill-rule="nonzero"/></g><g clip-path="url(#c94dec4523)"><path fill="#ff6100" d="M 187.347656 274.269531 C 171.351562 274.269531 158.433594 287.214844 158.433594 303.214844 C 158.433594 319.1875 171.351562 332.128906 187.347656 332.128906 C 203.347656 332.128906 216.265625 319.1875 216.265625 303.214844 C 216.265625 287.214844 203.347656 274.269531 187.347656 274.269531 " fill-opacity="1" fill-rule="nonzero"/></g><path fill="#ff6100" d="M 187.492188 374.988281 C 83.910156 374.988281 0 290.5 0 187.492188 C 0 84.488281 83.910156 0 187.492188 0 C 291.078125 0 374.988281 83.910156 374.988281 187.492188 C 374.988281 291.078125 290.5 374.988281 187.492188 374.988281 Z M 187.492188 11.574219 C 90.273438 11.574219 11.574219 90.273438 11.574219 187.492188 C 11.574219 284.710938 90.273438 363.414062 187.492188 363.414062 C 284.710938 363.414062 363.414062 284.710938 363.414062 187.492188 C 363.414062 90.273438 284.132812 11.574219 187.492188 11.574219 Z M 187.492188 11.574219 " fill-opacity="1" fill-rule="nonzero"/></svg>