<svg xmlns="http://www.w3.org/2000/svg" xmlns:xlink="http://www.w3.org/1999/xlink" id="Laag_1" x="0px" y="0px" viewBox="0 0 392.14 151.52" style="enable-background:new 0 0 392.14 151.52;" xml:space="preserve"><style type="text/css">	.st0{fill:#FFFFFF;}	.st1{fill:#010202;}	.st2{display:none;}	.st3{display:inline;fill:#010202;}	.st4{display:inline;}</style><g>	<g>		<g>			<g>				<path class="st0" d="M170.51,37.8c0.78-0.03,1.72,0.19,2.29-0.17c0.49-0.31,0.57-1.28,0.82-1.96c0.07-0.19,0.07-0.48,0.2-0.56     c0.72-0.45,1.08-0.95,0.54-1.78c-0.05-0.07,0.12-0.32,0.22-0.45c0.51-0.66,0.22-1.04-0.21-1.29c-0.54,0.45-0.97,0.81-1.49,1.25     c0.16,0.28,0.34,0.63,0.59,1.09c-0.53,0.26-1.02,0.5-1.58,0.77c0.51,0.63,1.13,1.23-0.1,1.62c-0.1,0.03-0.06,0.5-0.06,0.53     c-0.49,0.4-0.85,0.69-1.2,0.97c-0.44-0.23-0.88-0.45-1.32-0.68c0.08-0.72,0.88-1.36,0.21-2.17c-0.05-0.06,0.05-0.3,0.13-0.43     c0.4-0.71,0.83-1.41,1.21-2.13c0.07-0.14,0.02-0.36-0.01-0.54c-0.16-0.95,0.28-1.52,1.19-1.96c-0.23,1.07,0.38,1.25,1.11,1.25     c0.68,0,1.48,0.14,1.37-1.01c-0.02-0.26,0.21-0.58,0.4-0.81c0.93-1.15,1.89-2.28,2.81-3.44c1.26-1.57,1.55-3.35,0.99-5.26     c-0.08-0.28-0.32-0.51-0.48-0.76c-0.25,0.22-0.58,0.39-0.73,0.66c-0.69,1.24-1.33,2.51-2.01,3.76     c-0.93,1.71-1.87,3.41-2.79,5.09c-1.42-0.39-2.77,0.59-2.9,1.88c-0.08,0.81-0.12,1.81-0.6,2.36c-0.85,0.96-0.26,1.99-0.48,2.95     c-0.03,0.13,0.4,0.37,0.62,0.56c-0.21,0.18-0.54,0.33-0.59,0.55c-0.09,0.37-0.12,1.06,0.04,1.13c0.38,0.17,0.96,0.2,1.33,0.02     C170.28,38.7,170.35,38.16,170.51,37.8z M197.25,20.25c1.03-0.03,2.07-0.03,3.1-0.09c0.74-0.05,1.48-0.17,2.11-0.25     c0.2-0.26,0.35-0.55,0.58-0.76c0.45-0.4,1.1-0.63,1.1-1.49c-3.23,2.63-6.65,2.16-10.25,0.8c1.47,0.65,1.53,1.77,1.29,3.01     c-1.16,0.05-1.28-0.89-1.64-1.69c-0.07,0.63-0.02,1.22,0.07,1.81c0.31,2.14,0.92,4.18,2.23,5.94c1.95,2.63,5.73,3.07,7.99,0.02     c2.02-2.74,2.4-5.95,1.73-9.27c-0.03-0.16-0.21-0.3-0.32-0.45c-0.13,0.53-0.02,0.99-0.07,1.43c-0.04,0.39-0.15,0.96-0.42,1.11     c-1.1,0.62-2.28,1.12-3.41,1.65c-0.18-0.57-0.28-0.91-0.39-1.26c-0.1,0.03-0.21,0.05-0.31,0.08c0.02,0.38,0.04,0.76,0.06,1.2     c-0.46,0.04-0.88,0.07-1.29,0.11c-0.07-0.39-0.13-0.67-0.18-0.95c-0.06,0-0.11-0.01-0.17-0.01c-0.08,0.3-0.16,0.6-0.23,0.87     c-0.57,0-1.09,0-1.63,0c0-0.63,0-1.18,0-1.74L197.25,20.25z M176.77,41.79c0.05,0.05,0.1,0.09,0.15,0.14     c0.14-0.05,0.3-0.07,0.43-0.15c2.39-1.5,4.97-1.61,7.65-1.05c3.36,0.7,6.34,2.31,9.21,4.09c3.97,2.46,8.14,4.26,12.85,4.65     c2.18,0.18,4.28-0.1,6.33-0.84c0.44-0.16,0.8-0.34,0.64-0.95c-0.67-2.52-1.29-5.05-1.97-7.56c-0.75-2.77-0.6-5.53,0.25-8.2     c0.81-2.54,1.88-5,2.79-7.52c0.34-0.94,0.61-1.92,0.78-2.9c0.21-1.2-0.59-2.05-2.3-2.62c0-0.28,0.01-0.56,0-0.84     c-0.07-2.5-0.89-3.63-3.27-4.44c-0.47-0.16-0.51-0.41-0.44-0.86c0.46-2.75-0.37-5.11-2.24-7.13c-0.15-0.16-0.35-0.27-0.53-0.41     c-0.06,0.05-0.13,0.1-0.19,0.16c0.2,0.33,0.45,0.64,0.6,0.99c0.54,1.23,1.22,2.44,1.53,3.73c0.3,1.27,0.37,2.66-0.97,3.71     c0.37,0.06,0.58,0.09,0.79,0.13c2.5,0.44,3.43,1.51,3.68,4.03c0.16,1.53-0.41,2.87-0.95,4.19c-1.29,3.13-3.3,5.6-6.71,6.87     c0.29-0.56,0.51-1,0.73-1.44c-0.08-0.09-0.15-0.17-0.23-0.26c-1.72,1.94-3.81,3.16-6.36,3.16c-2.49,0-4.75-0.88-6.62-2.67     c-0.06,0.08-0.11,0.16-0.17,0.25c0.27,0.35,0.53,0.71,0.97,1.29c-1.29-0.31-2.23-0.75-3.06-1.4c-2.21-1.74-3.33-4.12-3.69-6.82     c-0.37-2.75-0.06-5.33,2.71-6.9c0.1-0.06,0.17-0.18,0.16-0.17c-0.18-0.54-0.4-0.98-0.45-1.43c-0.28-2.43,0.9-4.17,2.7-5.6     c0.4-0.32,0.81-0.62,1.21-0.94c-0.04-0.08-0.09-0.16-0.13-0.24c-0.36,0.14-0.76,0.21-1.07,0.42c-3.34,2.23-3.96,3.88-3.62,7.36     c0.1,0.99-0.46,1.29-1.03,1.68c-0.19,0.13-0.57-0.03-0.81,0.06c-2.88,1.1-4.62,4-3,6.98c0.49,0.9,0.95,1.84,1.26,2.82     c0.86,2.67,0.6,5.28-0.65,7.79c-1.57,3.15-3.93,5.7-6.35,8.19C177.17,41.31,176.98,41.56,176.77,41.79z M223.68,31.94     c-0.62,0.5-1.18,0.95-1.68,1.35c0.09,0.84,0.1,1.67,0.29,2.46c0.18,0.74-0.07,1.3-0.28,1.98c-0.34,1.08-0.33,2.26-0.54,3.39     c-0.18,0.93-0.46,1.85-0.71,2.77c-0.02,0.08-0.2,0.14-0.32,0.18c-0.72,0.25-1.03,0.69-0.82,1.43c-0.28,0.45-0.43,0.93-0.57,1.42     c-0.06,0.23-0.04,0.51-0.17,0.68c-0.37,0.48-0.31,0.88-0.16,1.46c0.17,0.66,0.2,1.32,0.67,1.87c0.22,0.27,0.39,0.85,0.57,0.84     c0.44-0.01,0.89-0.26,1.31-0.45c0.28-0.12,0.51-0.38,0.8-0.44c0.54-0.12,2.15-1.75,2.18-2.28c0-0.03-0.01-0.07-0.01-0.09     c0.08-0.3,0.17-0.59,0.23-0.89c0.07-0.29,0.11-0.58,0.17-0.87c0.05-0.26,0.02-0.55,0.15-0.77c0.66-1.12,0.09-2.57-1.36-3.09     c0.28,0.67,0.73,1.26,0.71,1.85c-0.01,0.55-0.52,1.1-0.85,1.73c0.06,0.1,0.2,0.32,0.37,0.6c-0.21,0.12-0.37,0.22-0.52,0.3     c-0.18,0.1-0.37,0.19-0.6,0.3c0.2,0.32,0.36,0.58,0.51,0.83c-0.32,0.25-0.72,0.41-0.87,0.7c-0.54,1.03-1.09,1.22-2.23,0.59     c0.71-0.66,0.01-0.97-0.44-1.38c0.64-0.48,1.33-0.92,0.34-1.72c0.56-0.29,1.03-0.54,1.51-0.79c-0.29-0.4-0.5-0.7-0.83-1.15     c0.75-0.07,1.34-0.09,1.93-0.18c0.87-0.13,0.93-0.51,0.59-1.29c-0.33-0.75-0.47-1.63-0.51-2.45c-0.06-1.23,0.81-2.07,1.51-2.96     C225.22,36.35,224.97,33.16,223.68,31.94z M216.84,20.6c-0.04,0.08-0.08,0.17-0.11,0.25c0.18,0.1,0.35,0.23,0.54,0.31     c3.78,1.56,6.5,4.26,8.35,7.86c1.59,3.09,2.4,6.4,2.53,9.87c0.01,0.32,0.18,0.64,0.34,1.16c1.36-3.43-0.25-10.18-3.61-14.48     C222.86,22.97,220.08,21.32,216.84,20.6z M167.16,37.45c0.04-0.13,0.09-0.2,0.07-0.25c-0.05-0.14-0.13-0.28-0.19-0.42     c-0.94-1.89-1.57-3.81-1.14-5.99c0.43-2.18,1.23-4.14,3.09-5.46c1.02-0.72,2.19-1.23,3.29-1.84c0.3-0.17,0.57-0.37,0.98-0.63     c-2.63-0.58-6.48,1.98-7.89,6.06C164.17,32.38,164.84,36.03,167.16,37.45z M199.55,11.42c-0.36-0.54-0.73-1.36-1.33-1.95     c-0.65-0.65-1.33-0.3-1.4,0.6c-0.04,0.47-0.18,1.01-0.01,1.4c0.39,0.86,0.88,1.7,1.48,2.42c0.12,0.14,0.92-0.29,1.44-0.48     c0.57,0.91,1.34,0.94,2.03-0.14c0.62-0.98,0.79-2.11,0.56-3.25c-0.21-1.04-1-1.31-1.71-0.52     C200.09,10.08,199.84,10.89,199.55,11.42z M169.55,22.7c0.08,0.07,0.16,0.14,0.25,0.2c0.1-0.06,0.23-0.1,0.31-0.19     c2.92-3.02,6.55-4.61,10.63-5.28c0.24-0.04,0.44-0.35,0.66-0.53c-0.25-0.14-0.51-0.44-0.73-0.4c-0.98,0.15-1.97,0.33-2.93,0.6     c-2.71,0.75-5.18,1.93-7.1,4.06C170.22,21.62,169.91,22.18,169.55,22.7z M225.26,52.73c1.92-1.89,3.2-4.15,3.37-6.87     c0.15-2.35-0.63-4.44-2.53-6c0.89,2.09,1.58,4.21,1.49,6.52C227.49,48.77,226.3,50.71,225.26,52.73z M204.44,0.51     c-0.36-0.56-1.09-0.74-1.61-0.12c-0.91,1.08-2.14,0.63-3.22,0.87c-0.99,0.22-2.01,0.35-3.01,0.53     c-0.08,0.01-0.14,0.13-0.23,0.17c-0.42,0.16-0.85,0.28-1.26,0.46c-0.24,0.1-0.45,0.28-0.68,0.43c0.23,0.1,0.47,0.32,0.68,0.3     c1.02-0.12,2.04-0.3,3.06-0.47c0.12-0.02,0.24-0.09,0.34-0.16c0.85-0.61,1.87-0.28,2.79-0.5c0.46-0.11,0.95-0.18,1.37-0.39     C203.27,1.33,203.81,0.92,204.44,0.51z M203.65,6.83c-0.13,0.13-0.27,0.25-0.4,0.38c1.12,0.8,1.22,1.9,1.21,3.05     c0,0.15,0.33,0.46,0.47,0.44c0.22-0.03,0.57-0.25,0.6-0.43c0.12-0.98,0.13-1.99-0.6-2.76C204.61,7.18,204.08,7.05,203.65,6.83z      M195.5,8.03c-0.22,0.04-0.64,0.02-0.94,0.2c-1.01,0.63-0.91,1.73-0.97,2.72c-0.01,0.2,0.33,0.41,0.51,0.62     c0.21-0.22,0.53-0.41,0.62-0.67C195.01,10.01,195.22,9.1,195.5,8.03z M198.85,14.52c-0.91-0.02-1.18,0.51-1.32,1.15     c-0.16,0.71,0.01,1.39,0.7,1.68c0.35,0.14,0.85-0.08,1.28-0.14C198.12,16.21,198.12,16.21,198.85,14.52z M193.39,17.7     c-0.62,0.05-1.13,0.14-1.14,0.78c0,0.3,0.29,0.6,0.52,1.03C193.03,18.76,193.18,18.31,193.39,17.7z M204.1,16.49     c0.04,0.1,0.08,0.21,0.13,0.31c0.44-0.02,0.88-0.05,1.58-0.09c-0.31-0.31-0.47-0.6-0.59-0.58     C204.83,16.19,204.47,16.36,204.1,16.49z"></path>			</g>			<g>				<path d="M176.77,41.79c0.2-0.23,0.39-0.48,0.61-0.7c2.42-2.49,4.78-5.04,6.35-8.19c1.25-2.51,1.52-5.12,0.65-7.79     c-0.31-0.97-0.77-1.92-1.26-2.82c-1.62-2.98,0.12-5.87,3-6.98c0.24-0.09,0.62,0.07,0.81-0.06c0.57-0.39,1.13-0.69,1.03-1.68     c-0.33-3.48,0.28-5.13,3.62-7.36c0.31-0.21,0.71-0.28,1.07-0.42c0.04,0.08,0.09,0.16,0.13,0.24c-0.4,0.31-0.81,0.62-1.21,0.94     c-1.81,1.43-2.99,3.18-2.7,5.6c0.05,0.46,0.28,0.89,0.45,1.43c0.01-0.01-0.05,0.11-0.16,0.17c-2.76,1.57-3.08,4.14-2.71,6.9     c0.36,2.71,1.48,5.08,3.69,6.82c0.83,0.66,1.78,1.09,3.06,1.4c-0.44-0.58-0.71-0.94-0.97-1.29c0.06-0.08,0.11-0.16,0.17-0.25     c1.87,1.79,4.13,2.67,6.62,2.67c2.55,0,4.65-1.22,6.36-3.16c0.08,0.09,0.15,0.17,0.23,0.26c-0.22,0.44-0.45,0.88-0.73,1.44     c3.41-1.28,5.42-3.75,6.71-6.87c0.55-1.33,1.11-2.66,0.95-4.19c-0.26-2.52-1.18-3.6-3.68-4.03c-0.21-0.04-0.42-0.07-0.79-0.13     c1.34-1.04,1.27-2.44,0.97-3.71c-0.31-1.29-0.99-2.5-1.53-3.73c-0.15-0.35-0.4-0.66-0.6-0.99c0.06-0.05,0.13-0.1,0.19-0.16     c0.18,0.13,0.38,0.25,0.53,0.41c1.87,2.02,2.7,4.38,2.24,7.13c-0.07,0.45-0.03,0.7,0.44,0.86c2.37,0.81,3.19,1.94,3.27,4.44     c0.01,0.28,0,0.56,0,0.84c1.71,0.57,2.51,1.42,2.3,2.62c-0.17,0.98-0.44,1.96-0.78,2.9c-0.91,2.52-1.98,4.98-2.79,7.52     c-0.85,2.68-1,5.44-0.25,8.2c0.68,2.51,1.3,5.04,1.97,7.56c0.16,0.61-0.2,0.8-0.64,0.95c-2.05,0.75-4.16,1.02-6.33,0.84     c-4.71-0.38-8.89-2.18-12.85-4.65c-2.87-1.78-5.85-3.39-9.21-4.09c-2.68-0.56-5.26-0.45-7.65,1.05     c-0.12,0.08-0.28,0.1-0.43,0.15C176.88,41.88,176.83,41.84,176.77,41.79z M179.58,39.78c0.49,0,0.76,0.07,0.98-0.01     c1.7-0.58,3.43-0.23,5.04,0.13c3.02,0.67,5.85,1.89,8.47,3.6c4.05,2.65,8.39,4.61,13.29,4.96c1.9,0.14,3.81,0.1,5.48-0.57     c-0.65-2.54-1.38-4.94-1.86-7.4c-0.33-1.68-0.58-3.46-0.42-5.15c0.35-3.73,1.52-7.25,3.26-10.59c0.51-0.97,0.88-2.03,1.16-3.09     c0.32-1.17-0.31-2.06-1.39-2.25c-0.46,1.21-0.86,2.43-1.38,3.6c-1.18,2.64-2.82,4.96-5.64,5.94c-1.58,0.55-3.14,1.12-4.69,1.75     c-2.57,1.03-5.13,0.48-7.55-0.8c-0.24-0.12-0.53-0.31-0.75-0.25c-1.79,0.43-3.13-0.45-4.34-1.54c-1.69-1.52-2.58-3.56-3.34-5.65     c-0.73-2-0.63-3.96,0.31-5.87c0.09-0.18,0.15-0.38,0.26-0.66c-2.53,1.4-3.51,3.9-2.01,6.47c1.83,3.12,2.23,6.38,0.51,9.74     c-1.27,2.49-2.83,4.76-4.69,6.83C180.08,39.19,179.91,39.4,179.58,39.78z"></path>			</g>			<g>				<path d="M197.19,20.31c0,0.55,0,1.11,0,1.74c0.54,0,1.06,0,1.63,0c0.07-0.27,0.15-0.57,0.23-0.87c0.06,0,0.11,0.01,0.17,0.01     c0.05,0.28,0.11,0.56,0.18,0.95c0.41-0.03,0.84-0.07,1.29-0.11c-0.02-0.44-0.04-0.82-0.06-1.2c0.1-0.03,0.21-0.05,0.31-0.08     c0.11,0.35,0.22,0.7,0.39,1.26c1.13-0.53,2.31-1.03,3.41-1.65c0.27-0.15,0.37-0.72,0.42-1.11c0.05-0.45-0.06-0.91,0.07-1.43     c0.11,0.15,0.29,0.28,0.32,0.45c0.68,3.32,0.3,6.54-1.73,9.27c-2.26,3.05-6.04,2.61-7.99-0.02c-1.3-1.76-1.91-3.8-2.23-5.94     c-0.09-0.59-0.14-1.18-0.07-1.81c0.36,0.8,0.49,1.74,1.64,1.69c0.24-1.24,0.18-2.36-1.29-3.01c3.6,1.36,7.02,1.83,10.25-0.8     c0,0.86-0.65,1.09-1.1,1.49c-0.23,0.2-0.39,0.5-0.58,0.76c-0.63,0.08-1.37,0.2-2.11,0.25c-1.03,0.06-2.07,0.07-3.1,0.09     c-0.46-0.18-0.93-0.37-1.5-0.6c0,0.79,0,1.36,0,2.06c0.3,0.03,0.63,0.07,0.97,0.11c-0.06-0.08-0.12-0.16-0.18-0.24     C196.75,21.15,196.97,20.73,197.19,20.31z M199.84,25.79c1.09,0,1.88-0.35,1.92-0.87c0.04-0.57-0.83-1.04-1.9-1.02     c-0.98,0.02-1.85,0.49-1.7,0.98C198.4,25.68,199.1,25.81,199.84,25.79z M196.88,27.27c-0.07,0.12-0.14,0.24-0.2,0.36     c0.7,0.4,1.38,0.86,2.12,1.18c0.33,0.14,1,0.18,1.11,0c0.21-0.32,0.12-0.84,0.16-1.27c-0.09-0.07-0.18-0.14-0.27-0.2     c-0.46,0.24-0.93,0.49-1.38,0.72C198.38,27.08,197.53,27.37,196.88,27.27z M203.07,27.4c-0.08-0.14-0.17-0.29-0.25-0.43     c-0.42,0.24-0.84,0.49-1.17,0.67c-0.3-0.07-0.63-0.16-0.96-0.24c-0.07,0.45-0.13,0.9-0.2,1.35c0.11,0.06,0.22,0.12,0.33,0.18     C201.57,28.42,202.32,27.91,203.07,27.4z"></path>			</g>			<g>				<path d="M223.68,31.94c1.29,1.23,1.54,4.41,0.36,5.92c-0.7,0.89-1.57,1.73-1.51,2.96c0.04,0.83,0.18,1.7,0.51,2.45     c0.34,0.78,0.28,1.16-0.59,1.29c-0.58,0.08-1.17,0.11-1.93,0.18c0.32,0.45,0.54,0.74,0.83,1.15c-0.48,0.25-0.95,0.5-1.51,0.79     c0.99,0.8,0.3,1.25-0.34,1.72c0.46,0.41,1.15,0.72,0.44,1.38c1.14,0.64,1.69,0.45,2.23-0.59c0.15-0.29,0.55-0.45,0.87-0.7     c-0.15-0.25-0.31-0.51-0.51-0.83c0.23-0.12,0.42-0.2,0.6-0.3c0.16-0.09,0.31-0.18,0.52-0.3c-0.17-0.28-0.31-0.5-0.37-0.6     c0.34-0.64,0.84-1.18,0.85-1.73c0.02-0.58-0.43-1.18-0.71-1.85c1.45,0.51,2.02,1.96,1.36,3.09c-0.12,0.21-0.1,0.51-0.15,0.77     c-0.05,0.29-0.1,0.58-0.17,0.87c-0.07,0.3-0.16,0.59-0.23,0.89c-0.01,0.03,0.01,0.06,0.01,0.09c-0.02,0.54-1.64,2.16-2.18,2.28     c-0.28,0.06-0.52,0.32-0.8,0.44c-0.43,0.19-0.87,0.44-1.31,0.45c-0.18,0-0.34-0.57-0.57-0.84c-0.46-0.55-0.5-1.21-0.67-1.87     c-0.15-0.59-0.21-0.98,0.16-1.46c0.13-0.17,0.1-0.45,0.17-0.68c0.14-0.49,0.29-0.98,0.57-1.42c-0.22-0.74,0.1-1.18,0.82-1.43     c0.12-0.04,0.29-0.1,0.32-0.18c0.26-0.92,0.54-1.83,0.71-2.77c0.21-1.13,0.2-2.31,0.54-3.39c0.21-0.67,0.46-1.24,0.28-1.98     c-0.19-0.78-0.2-1.61-0.29-2.46C222.51,32.88,223.06,32.44,223.68,31.94z M222.64,37.79c0.09,0.05,0.19,0.1,0.28,0.16     c0.31-0.5,0.62-1,1.05-1.7C222.61,36.32,223.11,37.38,222.64,37.79z"></path>			</g>			<g>				<path d="M169.24,37.12c-0.22-0.19-0.65-0.43-0.62-0.56c0.22-0.96-0.36-1.98,0.48-2.95c0.48-0.55,0.52-1.54,0.6-2.36     c0.13-1.29,1.48-2.26,2.9-1.88c0.92-1.68,1.86-3.38,2.79-5.09c0.68-1.25,1.31-2.52,2.01-3.76c0.15-0.27,0.48-0.44,0.73-0.66     c0.17,0.25,0.4,0.48,0.48,0.76c0.55,1.91,0.26,3.69-0.99,5.26c-0.92,1.16-1.89,2.28-2.81,3.44c-0.19,0.23-0.42,0.55-0.4,0.81     c0.11,1.15-0.69,1.01-1.37,1.01c-0.73,0-1.34-0.18-1.11-1.25c-0.91,0.45-1.36,1.01-1.19,1.96c0.03,0.18,0.08,0.4,0.01,0.54     c-0.38,0.72-0.81,1.42-1.21,2.13c-0.07,0.13-0.18,0.37-0.13,0.43c0.67,0.8-0.12,1.45-0.21,2.17L169.24,37.12z M177.79,21.44     c-1.6,2.79-3.33,5.27-4.74,8.21C175.1,29.04,178.3,23.45,177.79,21.44z"></path>			</g>			<g>				<path d="M216.84,20.6c3.24,0.72,6.02,2.38,8.04,4.97c3.35,4.3,4.97,11.05,3.61,14.48c-0.16-0.52-0.33-0.84-0.34-1.16     c-0.13-3.48-0.94-6.78-2.53-9.87c-1.85-3.59-4.57-6.3-8.35-7.86c-0.19-0.08-0.36-0.21-0.54-0.31     C216.77,20.77,216.8,20.68,216.84,20.6z"></path>			</g>			<g>				<path d="M167.16,37.45c-2.32-1.42-2.99-5.07-1.79-8.53c1.41-4.08,5.26-6.64,7.89-6.06c-0.41,0.27-0.69,0.47-0.98,0.63     c-1.1,0.61-2.27,1.12-3.29,1.84c-1.85,1.32-2.66,3.28-3.09,5.46c-0.43,2.17,0.2,4.1,1.14,5.99c0.07,0.14,0.14,0.28,0.19,0.42     C167.25,37.25,167.2,37.32,167.16,37.45z"></path>			</g>			<g>				<path d="M199.55,11.42c0.29-0.54,0.54-1.35,1.06-1.92c0.71-0.78,1.49-0.51,1.71,0.52c0.23,1.13,0.07,2.26-0.56,3.25     c-0.69,1.08-1.46,1.05-2.03,0.14c-0.53,0.18-1.33,0.62-1.44,0.48c-0.6-0.72-1.1-1.56-1.48-2.42c-0.17-0.39-0.03-0.93,0.01-1.4     c0.08-0.91,0.76-1.25,1.4-0.6C198.82,10.07,199.2,10.88,199.55,11.42z M201.95,11.95c0-0.79,0.04-1.35-0.02-1.89     c-0.02-0.2-0.27-0.51-0.43-0.52c-0.24-0.02-0.58,0.13-0.7,0.32c-0.11,0.16-0.06,0.53,0.06,0.73     C201.12,11,201.47,11.36,201.95,11.95z M197.65,9.43c-0.11,0.02-0.22,0.04-0.33,0.07c-0.09,0.66-0.17,1.32-0.26,1.98     c0.1,0.02,0.2,0.04,0.3,0.06c0.35-0.37,0.7-0.74,1.14-1.2C198.21,10.02,197.93,9.72,197.65,9.43z"></path>			</g>			<g>				<path d="M169.55,22.7c0.36-0.52,0.68-1.07,1.09-1.54c1.92-2.13,4.39-3.31,7.1-4.06c0.96-0.26,1.94-0.45,2.93-0.6     c0.22-0.03,0.49,0.26,0.73,0.4c-0.22,0.18-0.42,0.49-0.66,0.53c-4.09,0.67-7.72,2.25-10.63,5.28c-0.08,0.08-0.2,0.13-0.31,0.19     C169.71,22.83,169.63,22.76,169.55,22.7z"></path>			</g>			<g>				<path d="M225.26,52.73c1.04-2.03,2.23-3.96,2.33-6.35c0.09-2.32-0.6-4.43-1.49-6.52c1.9,1.57,2.68,3.65,2.53,6     C228.46,48.58,227.18,50.84,225.26,52.73z"></path>			</g>			<g>				<path d="M170.53,37.82c0.35-0.29,0.71-0.58,1.2-0.97c0-0.03-0.04-0.5,0.06-0.53c1.23-0.4,0.61-0.99,0.1-1.62     c0.56-0.27,1.06-0.52,1.58-0.77c-0.25-0.46-0.44-0.81-0.59-1.09c0.52-0.43,0.95-0.79,1.49-1.25c0.44,0.24,0.72,0.63,0.21,1.29     c-0.1,0.14-0.27,0.38-0.22,0.45c0.55,0.83,0.18,1.33-0.54,1.78c-0.13,0.08-0.13,0.37-0.2,0.56c-0.26,0.68-0.33,1.65-0.82,1.96     c-0.57,0.36-1.51,0.14-2.29,0.16C170.5,37.79,170.53,37.82,170.53,37.82z"></path>			</g>			<g>				<path d="M204.44,0.51c-0.63,0.41-1.17,0.82-1.76,1.12c-0.42,0.21-0.91,0.29-1.37,0.39c-0.92,0.21-1.94-0.11-2.79,0.5     c-0.1,0.07-0.22,0.14-0.34,0.16c-1.02,0.17-2.04,0.35-3.06,0.47c-0.21,0.02-0.45-0.19-0.68-0.3c0.22-0.15,0.43-0.32,0.68-0.43     c0.41-0.18,0.84-0.3,1.26-0.46c0.08-0.03,0.14-0.15,0.23-0.17c1-0.18,2.02-0.31,3.01-0.53c1.08-0.24,2.31,0.21,3.22-0.87     C203.35-0.23,204.08-0.05,204.44,0.51z"></path>			</g>			<g>				<path d="M203.65,6.83c0.43,0.22,0.96,0.35,1.28,0.68c0.73,0.77,0.72,1.78,0.6,2.76c-0.02,0.18-0.37,0.4-0.6,0.43     c-0.14,0.02-0.47-0.28-0.47-0.44c0.01-1.15-0.09-2.25-1.21-3.05C203.38,7.09,203.52,6.96,203.65,6.83z"></path>			</g>			<g>				<path d="M195.5,8.03c-0.28,1.07-0.49,1.98-0.77,2.87c-0.09,0.26-0.41,0.45-0.62,0.67c-0.18-0.21-0.52-0.42-0.51-0.62     c0.06-0.99-0.04-2.09,0.97-2.72C194.86,8.05,195.28,8.07,195.5,8.03z"></path>			</g>			<g>				<path d="M198.85,14.52c-0.73,1.69-0.73,1.69,0.66,2.69c-0.43,0.06-0.93,0.28-1.28,0.14c-0.69-0.29-0.86-0.97-0.7-1.68     C197.67,15.03,197.95,14.5,198.85,14.52z"></path>			</g>			<g>				<path d="M169.21,37.13c0.44,0.23,0.88,0.45,1.32,0.68c0,0-0.02-0.02-0.02-0.02c-0.16,0.36-0.23,0.91-0.5,1.04     c-0.37,0.18-0.95,0.15-1.33-0.02c-0.16-0.07-0.13-0.76-0.04-1.13c0.05-0.22,0.39-0.37,0.6-0.55     C169.24,37.12,169.21,37.13,169.21,37.13z"></path>			</g>			<g>				<path d="M193.39,17.7c-0.21,0.61-0.36,1.06-0.61,1.81c-0.23-0.44-0.53-0.74-0.52-1.03C192.27,17.85,192.77,17.75,193.39,17.7z"></path>			</g>			<g>				<path d="M204.1,16.49c0.37-0.13,0.73-0.3,1.11-0.36c0.12-0.02,0.29,0.27,0.59,0.58c-0.7,0.04-1.14,0.06-1.58,0.09     C204.18,16.7,204.14,16.6,204.1,16.49z"></path>			</g>			<g>				<path class="st0" d="M179.58,39.78c0.33-0.38,0.5-0.6,0.69-0.8c1.86-2.07,3.42-4.35,4.69-6.83c1.72-3.37,1.32-6.62-0.51-9.74     c-1.51-2.58-0.53-5.08,2.01-6.47c-0.11,0.28-0.17,0.48-0.26,0.66c-0.94,1.91-1.05,3.87-0.31,5.87c0.77,2.09,1.65,4.13,3.34,5.65     c1.21,1.09,2.55,1.96,4.34,1.54c0.22-0.05,0.52,0.13,0.75,0.25c2.41,1.28,4.98,1.83,7.55,0.8c1.56-0.63,3.11-1.2,4.69-1.75     c2.82-0.97,4.46-3.3,5.64-5.94c0.52-1.17,0.92-2.39,1.38-3.6c1.08,0.2,1.71,1.08,1.39,2.25c-0.29,1.06-0.66,2.12-1.16,3.09     c-1.75,3.33-2.91,6.86-3.26,10.59c-0.16,1.69,0.09,3.47,0.42,5.15c0.48,2.46,1.21,4.86,1.86,7.4c-1.67,0.67-3.58,0.71-5.48,0.57     c-4.9-0.35-9.24-2.31-13.29-4.96c-2.62-1.71-5.45-2.93-8.47-3.6c-1.62-0.36-3.34-0.72-5.04-0.13     C180.33,39.85,180.06,39.78,179.58,39.78z"></path>			</g>			<g>				<path class="st0" d="M199.84,25.79c-0.74,0.02-1.44-0.11-1.68-0.91c-0.15-0.49,0.72-0.97,1.7-0.98c1.06-0.02,1.94,0.45,1.9,1.02     C201.72,25.44,200.93,25.79,199.84,25.79z"></path>			</g>			<g>				<path class="st0" d="M196.88,27.27c0.64,0.1,1.49-0.19,1.53,0.78c0.45-0.23,0.91-0.48,1.38-0.72c0.09,0.07,0.18,0.14,0.27,0.2     c-0.04,0.44,0.05,0.95-0.16,1.27c-0.11,0.18-0.78,0.14-1.11,0c-0.74-0.32-1.41-0.78-2.12-1.18     C196.75,27.51,196.81,27.39,196.88,27.27z"></path>			</g>			<g>				<path class="st0" d="M203.07,27.4c-0.75,0.51-1.5,1.02-2.25,1.53c-0.11-0.06-0.22-0.12-0.33-0.18c0.07-0.45,0.13-0.9,0.2-1.35     c0.33,0.08,0.66,0.17,0.96,0.24c0.32-0.19,0.75-0.43,1.17-0.67C202.91,27.11,202.99,27.26,203.07,27.4z"></path>			</g>			<g>				<path class="st0" d="M197.19,20.31c-0.22,0.42-0.44,0.84-0.66,1.26c0.06,0.08,0.12,0.16,0.18,0.24     c-0.34-0.04-0.67-0.07-0.97-0.11c0-0.69,0-1.27,0-2.06c0.57,0.23,1.04,0.41,1.5,0.6L197.19,20.31z"></path>			</g>			<g>				<path class="st0" d="M222.64,37.79c0.46-0.41-0.04-1.47,1.33-1.54c-0.43,0.69-0.74,1.2-1.05,1.7     C222.83,37.89,222.74,37.84,222.64,37.79z"></path>			</g>			<g>				<path class="st0" d="M177.79,21.44c0.51,2.01-2.69,7.6-4.74,8.21C174.47,26.71,176.19,24.23,177.79,21.44z"></path>			</g>			<g>				<path class="st0" d="M201.95,11.95c-0.48-0.59-0.83-0.95-1.09-1.37c-0.12-0.19-0.17-0.56-0.06-0.73     c0.13-0.19,0.47-0.34,0.7-0.32c0.16,0.01,0.4,0.32,0.43,0.52C201.99,10.6,201.95,11.16,201.95,11.95z"></path>			</g>			<g>				<path class="st0" d="M197.65,9.43c0.28,0.29,0.56,0.59,0.86,0.9c-0.44,0.46-0.79,0.83-1.14,1.2c-0.1-0.02-0.2-0.04-0.3-0.06     c0.09-0.66,0.17-1.32,0.26-1.98C197.43,9.47,197.54,9.45,197.65,9.43z"></path>			</g>		</g>		<g>			<path class="st1" d="M99.28,30.28h-0.74l-0.67-2.12h-1.99l-0.68,2.12h-0.73l1.98-6.05h0.85L99.28,30.28z M97.67,27.55l-0.79-2.51    l-0.79,2.51H97.67z"></path>			<path class="st1" d="M116.31,30.28h-0.78l-2.17-4.78v4.78h-0.7v-6.05h0.79l2.18,4.74v-4.74h0.69V30.28z"></path>			<path class="st1" d="M133.92,30.28h-0.78l-2.17-4.78v4.78h-0.7v-6.05h0.79l2.18,4.74v-4.74h0.69V30.28z"></path>			<path class="st1" d="M149.7,24.11c0.68,0,1.2,0.27,1.55,0.8s0.53,1.32,0.53,2.34c0,1.02-0.18,1.8-0.53,2.33s-0.87,0.81-1.55,0.81    c-0.68,0-1.19-0.27-1.55-0.8c-0.36-0.54-0.53-1.32-0.53-2.34s0.18-1.8,0.53-2.34C148.51,24.38,149.03,24.11,149.7,24.11z     M149.7,29.78c0.89,0,1.34-0.84,1.34-2.52c0-1.68-0.45-2.53-1.34-2.53c-0.43,0-0.77,0.22-0.99,0.65    c-0.23,0.44-0.34,1.06-0.34,1.87c0,0.82,0.11,1.45,0.34,1.88C148.93,29.57,149.27,29.78,149.7,29.78z"></path>		</g>		<g>			<path class="st1" d="M244.65,30.28h-3.18v-0.61h1.28v-4.7l-1.21,0.61v-0.7l1.31-0.67h0.61v5.48h1.2V30.28z"></path>			<path class="st1" d="M261.69,27.37c-0.35,0.31-0.76,0.46-1.23,0.46c-0.51,0-0.94-0.16-1.28-0.49c-0.34-0.33-0.51-0.75-0.51-1.27    c0-0.55,0.16-1.02,0.49-1.4s0.75-0.57,1.27-0.57c0.63,0,1.13,0.29,1.48,0.87c0.35,0.58,0.53,1.31,0.53,2.2    c0,0.89-0.21,1.65-0.62,2.28c-0.42,0.63-0.97,0.94-1.67,0.94c-0.47,0-0.88-0.07-1.22-0.21l0.11-0.62    c0.39,0.15,0.76,0.22,1.09,0.22c0.47,0,0.85-0.23,1.14-0.69S261.69,28.05,261.69,27.37z M261.67,26.77    c0-0.54-0.11-1.02-0.33-1.43s-0.51-0.62-0.87-0.62c-0.32,0-0.58,0.12-0.77,0.36c-0.19,0.24-0.29,0.55-0.29,0.93    c0,0.35,0.1,0.64,0.29,0.86s0.45,0.34,0.77,0.34c0.44,0,0.82-0.13,1.14-0.4L261.67,26.77z"></path>			<path class="st1" d="M279.3,27.37c-0.35,0.31-0.76,0.46-1.23,0.46c-0.51,0-0.94-0.16-1.28-0.49c-0.34-0.33-0.51-0.75-0.51-1.27    c0-0.55,0.16-1.02,0.49-1.4c0.33-0.38,0.75-0.57,1.27-0.57c0.63,0,1.13,0.29,1.48,0.87c0.35,0.58,0.53,1.31,0.53,2.2    c0,0.89-0.21,1.65-0.62,2.28c-0.42,0.63-0.97,0.94-1.67,0.94c-0.47,0-0.88-0.07-1.22-0.21l0.11-0.62    c0.39,0.15,0.76,0.22,1.09,0.22c0.47,0,0.85-0.23,1.14-0.69S279.3,28.05,279.3,27.37z M279.28,26.77c0-0.54-0.11-1.02-0.33-1.43    s-0.51-0.62-0.87-0.62c-0.32,0-0.58,0.12-0.77,0.36c-0.19,0.24-0.29,0.55-0.29,0.93c0,0.35,0.1,0.64,0.29,0.86    s0.45,0.34,0.77,0.34c0.44,0,0.82-0.13,1.14-0.4L279.28,26.77z"></path>			<path class="st1" d="M296.92,27.37c-0.35,0.31-0.76,0.46-1.23,0.46c-0.51,0-0.94-0.16-1.28-0.49c-0.34-0.33-0.51-0.75-0.51-1.27    c0-0.55,0.16-1.02,0.49-1.4c0.33-0.38,0.75-0.57,1.27-0.57c0.63,0,1.13,0.29,1.48,0.87c0.35,0.58,0.53,1.31,0.53,2.2    c0,0.89-0.21,1.65-0.62,2.28c-0.42,0.63-0.97,0.94-1.67,0.94c-0.47,0-0.88-0.07-1.22-0.21l0.11-0.62    c0.39,0.15,0.76,0.22,1.09,0.22c0.47,0,0.85-0.23,1.14-0.69S296.92,28.05,296.92,27.37z M296.9,26.77c0-0.54-0.11-1.02-0.33-1.43    s-0.51-0.62-0.87-0.62c-0.32,0-0.58,0.12-0.77,0.36c-0.19,0.24-0.29,0.55-0.29,0.93c0,0.35,0.1,0.64,0.29,0.86    s0.45,0.34,0.77,0.34c0.44,0,0.82-0.13,1.14-0.4L296.9,26.77z"></path>		</g>	</g>	<g>		<path d="M170.2,67.92c3.42,2,3.74,3.57,2.17,7.01c-2.76,6.03-5.5,12.07-8.2,18.13c-0.5,1.11-0.77,2.32-1.28,3.89   c4.65,0,8.82-0.18,12.98,0.04c5.59,0.3,10.82-0.79,15.96-2.92c1.73-0.72,3.73-0.81,6.42-1.35c1.08-3.02,2.52-7.02,3.94-11.04   c1.4-3.96,2.69-7.96,4.2-11.87c0.33-0.84,1.38-1.41,2.11-2.1c0.61,0.9,1.57,1.74,1.74,2.72c0.19,1.08-0.2,2.33-0.58,3.42   c-3.11,8.84-6.55,17.58-9.36,26.51c-2.97,9.45-5.43,19.07-7.97,28.66c-1.09,4.13-1.86,8.35-2.69,12.54   c-0.94,4.76,1.52,6.15,5.31,4.73c8.51-3.19,17.07-6.28,25.7-9.14c6.78-2.25,13.78-3.36,20.94-2.11c0.92,0.16,1.68,1.21,2.51,1.85   c-0.85,0.72-1.63,1.96-2.56,2.07c-4.24,0.53-8.6,0.32-12.75,1.18c-4.63,0.96-9.09,2.77-13.61,4.26c-4.22,1.4-8.41,2.91-12.64,4.28   c-3.05,1-6.1,2.11-9.24,2.68c-1.8,0.33-3.96,0.06-5.61-0.69c-1.13-0.52-3.01-3.51-2.78-6.07c0.85-9.86,1.26-7.62,2.44-12.5   c2.79-11.45,6.02-22.79,9.18-34.56c-11.36,4.68-22.93,5.04-35.16,2.8c-1.27,2.93-2.75,6.17-4.09,9.48   c-2.71,6.68-5.26,13.43-8.07,20.07c-0.44,1.04-1.86,1.66-2.83,2.48c-0.41-1.18-1.4-2.52-1.13-3.52c0.81-3.1,2.03-6.1,3.23-9.08   c5.95-14.84,11.9-29.67,17.94-44.48C167.43,72.82,168.86,70.51,170.2,67.92z"></path>		<path d="M27.58,123.7c12.78-1.71,24.67-6.22,32.34-18.37c5.4-8.56,3.82-19.65-3.75-26.4c-11.11-9.9-24.16-14.2-38.9-13.04   c-4.54,0.36-9,1.75-13.5,2.63c-1.44,0.28-3.52,1.31-3.77-1c-0.1-0.96,1.71-2.65,2.99-3.15c12.55-4.89,25.16-3.25,37.62,0.31   c8.19,2.34,15.8,6.23,21.22,12.96c10.68,13.27,8.61,28.12-4.96,38.38c-9.58,7.25-20.23,11.8-32.5,11.74   c-0.98,0-1.98,0.06-2.93-0.09c-5.26-0.84-8.56-2.36-6.83-8.6c1.65-5.92,3.37-11.86,5.67-17.54c3.37-8.32,7.23-16.44,11-24.59   c0.94-2.03,2.08-4.04,3.54-5.71c0.78-0.9,2.41-1.07,3.66-1.56c0.22,1.23,0.79,2.53,0.57,3.68c-0.26,1.39-1.1,2.69-1.84,3.95   c-7.17,12.27-13.27,25.02-17.63,38.57c-0.3,0.93-0.5,1.89-0.67,2.86c-0.56,3.19,0.1,4.11,3.25,4.49   C23.72,123.4,25.29,123.5,27.58,123.7z"></path>		<path d="M240.89,101.13c-0.21-5.64-0.67-11.28-0.88-16.92c-0.04-1.2,0.57-2.42,0.88-3.63c1.08,0.86,2.73,1.51,3.12,2.61   c0.82,2.35,1.34,4.93,1.34,7.41c0,7.47-0.36,14.94-0.47,22.41c-0.03,1.84,0.04,3.79,0.59,5.51c1.45,4.55,3.75,6.26,8.21,3.54   c2.04-1.25,4.16-3.44,4.84-5.64c1.09-3.53,1.65-7.48,1.26-11.13c-0.59-5.51-4.47-8.39-10.07-8.69c-1.39-0.08-3.46,0.34-3.19-1.84   c0.12-1,1.71-2.28,2.86-2.61c3.99-1.13,11.3,1.36,12.65,4.92c2.01,5.31,3.76,10.8,2.14,16.81c-1.12,4.17-2.71,7.83-5.96,10.73   c-4.27,3.82-10.62,4.19-15.18,0.79c-1.84-1.37-2.87-3.08-2.72-5.5c0.15-2.34,0.03-4.7,0.03-7.05"></path>		<path d="M385.91,93.09c0.67-3.5,1.08-6.71,1.98-9.78c0.32-1.07,1.84-1.79,2.82-2.67c0.5,1.12,1.61,2.36,1.4,3.33   c-2.02,9.49-2.24,19.1-2.14,28.73c0.03,3.11,0.41,6.22,0.76,9.32c0.31,2.78-0.25,3.37-2.91,3.01c-0.89-0.12-1.94-0.02-2.75,0.34   c-10.22,4.56-17.53,0.41-18.37-10.86c-0.31-4.19,0.06-8.58,0.97-12.69c2.05-9.28,8.42-11.19,16.94-9.17   C384.97,92.73,385.31,92.88,385.91,93.09z M385.13,96.89c-7.5-1.16-10.99-0.15-13.54,5.79c-2.11,4.91-2.24,10.37,0.18,15.38   c0.83,1.72,2.5,3.28,4.16,4.31c2.98,1.84,6.02,0.38,8.53-1.21c0.97-0.61,1.15-2.92,1.19-4.47c0.13-5.47,0.08-10.95,0.02-16.42   C385.65,99.12,385.31,97.98,385.13,96.89z"></path>		<path d="M299,108.12c-0.73,7.5-1.99,13.74-7.94,17.76c-4.19,2.83-10.56,2.53-14.16-0.97c-1.25-1.21-2.14-3.41-2.15-5.17   c-0.04-7.02,0.49-14.04,0.49-21.05c0-3.97-0.64-7.94-0.98-11.91c-0.11-1.26-0.38-2.54-0.21-3.77c0.12-0.87,0.85-1.66,1.31-2.49   c0.78,0.65,2.09,1.2,2.24,1.97c0.84,4.23,1.69,8.49,1.98,12.78c0.31,4.53,0.07,9.1-0.08,13.65c-0.09,2.92-0.58,5.82-0.64,8.74   c-0.09,4.78,4.48,7.37,8.57,4.83c3.52-2.18,5.39-5.57,6.17-9.58c0.86-4.37,0.3-8.55-1.73-12.54c-1.29-2.54-3.33-3.73-6.12-3.76   c-0.29,0-0.59,0.03-0.88-0.01c-1.51-0.25-3.92,0.46-3.7-2c0.08-0.89,2.36-2.14,3.71-2.25c6.05-0.49,11.25,3.53,12.77,9.57   C298.24,104.23,298.68,106.6,299,108.12z"></path>		<path d="M214.3,106.26c-1.82,3.66-1.65,7.14,0.03,10.59c1.82,3.74,6.09,5.11,9.87,3.22c0.87-0.44,1.77-1.07,2.69-1.11   c1.15-0.06,2.33,0.39,3.49,0.62c-0.46,1.12-0.62,2.52-1.41,3.3c-5.26,5.2-16.38,2.87-18.7-4.09c-2.54-7.62-1.66-15.12,2.66-21.95   c4.46-7.04,13.96-5.38,18.04,0.72c2.35,3.51,0.37,8.42-3.76,9.38C222.98,107.93,218.68,108.03,214.3,106.26z M214.97,102.22   c0.18,0.25,0.37,0.51,0.55,0.76c2.78,0,5.57,0.13,8.34-0.07c0.99-0.07,2.54-0.73,2.74-1.44c0.27-0.97-0.18-2.48-0.87-3.32   c-1.71-2.1-4.68-2.42-6.76-0.65C217.43,98.83,216.29,100.63,214.97,102.22z"></path>		<path d="M314.09,104.2c-1.42,3.76-2.32,7.38-0.76,11.52c2.02,5.34,5.4,7.12,10.59,4.8c1.82-0.82,4.36-2.35,5.45,0.03   c1.07,2.33-1.71,3.28-3.51,4.1c-9.3,4.23-17.75-1.22-17.73-11.45c0.02-6.09,0.98-11.97,5.38-16.6c2.37-2.49,5.03-4.8,8.98-3.69   c4.02,1.13,7.51,2.93,8.82,7.3c0.92,3.06-0.83,6.58-3.99,6.91c-3.94,0.42-7.96,0.17-11.93-0.1c-0.52-0.03-0.91-1.88-1.37-2.88   c3.26-0.27,6.52-0.48,9.77-0.83c0.87-0.09,2.33-0.51,2.4-0.95c0.16-1.03-0.08-2.36-0.66-3.23c-1.58-2.31-5.84-2.96-7.77-0.93   C316.17,99.86,315.28,102.18,314.09,104.2z"></path>		<path d="M79.12,105.96c-1.21,3.66-1.41,7.67,1.39,11.38c2.03,2.69,4.32,3.1,7.45,1.77c1.42-0.6,2.94-1.08,4.47-1.31   c0.7-0.11,1.88,0.3,2.15,0.84c0.29,0.57,0.04,1.98-0.44,2.28c-1.87,1.15-3.83,2.38-5.93,2.91c-7.79,1.97-13.61-2.49-13.97-10.49   c-0.34-7.46,0.99-14.33,6.56-19.92c2.62-2.63,5.63-3.1,8.81-2.03c3.43,1.15,6.23,3.43,7.28,7.07c0.95,3.3-1.7,7.2-5.17,7.44   C87.68,106.17,83.62,105.96,79.12,105.96z M79.59,101.76c3.88,0,6.69,0.16,9.46-0.06c1.6-0.12,3.51-0.59,3.15-2.93   c-0.46-2.97-5.7-5.17-7.89-3.17C82.62,97.15,81.46,99.26,79.59,101.76z"></path>		<path d="M345.97,98.36c2.85-1.44,5.27-2.88,7.85-3.9c1.67-0.66,3.57-0.92,5.38-0.96c0.81-0.02,1.63,0.97,2.45,1.5   c-0.58,0.76-1,1.88-1.77,2.23c-3.71,1.68-7.47,3.24-11.29,4.65c-1.78,0.66-2.3,1.62-2.23,3.48c0.16,4.94,0.11,9.89,0.08,14.83   c-0.01,0.95-0.28,1.9-0.46,2.84c-0.26,1.37-0.55,3.14-2.39,2.37c-0.91-0.38-1.74-2.07-1.77-3.2c-0.09-3,0.49-6.02,0.42-9.02   c-0.12-5.17-0.66-10.32-0.76-15.49c-0.03-1.77,0.58-5.02,1.15-5.07c2.69-0.27,2.55,2.52,3.32,4.26   C346.09,97.2,345.97,97.64,345.97,98.36z"></path>		<path d="M145.22,99.87c-5.5-0.04-10.98-0.3-15.37,4.09c-0.58,0.58-2.06,0.25-3.12,0.34c0.07-1.09-0.25-2.45,0.28-3.23   c1.87-2.75,4.58-4.82,7.9-5.02c6.11-0.37,12.26-0.3,18.39-0.18c1.05,0.02,2.09,1.22,3.13,1.88c-1,0.71-1.95,1.91-3.02,2.02   C150.71,100.07,147.95,99.87,145.22,99.87z"></path>		<g class="st2">			<path class="st3" d="M255.19,139.06c0.67,0.16,1.2,0.46,1.59,0.92c0.38,0.45,0.57,1,0.57,1.62c0,0.92-0.33,1.65-1,2.2    c-0.67,0.55-1.47,0.82-2.41,0.82h-2.88v-10.13h2.81c0.98,0,1.74,0.21,2.29,0.64c0.55,0.43,0.83,1.03,0.83,1.81    c0,0.48-0.16,0.9-0.48,1.28c-0.32,0.37-0.76,0.64-1.32,0.81V139.06z M252.24,138.51h1.38c1.44,0,2.16-0.51,2.16-1.54    c0-0.47-0.18-0.83-0.53-1.08c-0.35-0.25-0.87-0.38-1.56-0.38h-1.45V138.51z M252.24,143.59h1.34c0.78,0,1.4-0.18,1.86-0.53    c0.46-0.35,0.69-0.84,0.69-1.46c0-0.66-0.23-1.16-0.68-1.52s-1.1-0.54-1.95-0.54h-1.25V143.59z"></path>			<path class="st3" d="M274.79,144.62h-1.24l-1.12-3.55h-3.32l-1.13,3.55h-1.22l3.31-10.13h1.41L274.79,144.62z M272.09,140.04    l-1.33-4.19l-1.32,4.19H272.09z"></path>			<path class="st3" d="M291.55,144.62h-1.47l-2.97-4.6h-1.31v4.6h-1.18v-10.13h2.87c0.96,0,1.72,0.23,2.28,0.7s0.84,1.12,0.84,1.95    c0,0.62-0.2,1.17-0.61,1.65c-0.41,0.48-0.97,0.81-1.68,0.98L291.55,144.62z M285.8,138.99h1.49c0.62,0,1.13-0.17,1.52-0.51    c0.39-0.34,0.58-0.76,0.58-1.27c0-1.13-0.69-1.69-2.07-1.69h-1.52V138.99z"></path>			<path class="st3" d="M307.36,144.62h-1.31l-3.63-8v8h-1.18v-10.13h1.31l3.65,7.93v-7.93h1.16V144.62z"></path>			<path class="st3" d="M323.8,144.62h-5.29v-10.13h5.25v1.03h-4.07v3.14h3.91v1.03h-3.91v3.91h4.11V144.62z"></path>			<path class="st3" d="M341.86,134.49l-3.3,10.13h-1.41l-3.31-10.13h1.24l2.78,8.77l2.79-8.77H341.86z"></path>			<path class="st3" d="M357.36,144.62h-5.29v-10.13h5.25v1.03h-4.07v3.14h3.91v1.03h-3.91v3.91h4.11V144.62z"></path>			<path class="st3" d="M374.36,144.62h-5.51v-10.13h1.18v9.11h4.34V144.62z"></path>			<path class="st3" d="M385.28,134.49h2c1.33,0,2.39,0.45,3.19,1.35c0.8,0.9,1.2,2.14,1.2,3.72c0,1.61-0.41,2.85-1.22,3.74    c-0.81,0.88-1.85,1.32-3.12,1.32h-2.05V134.49z M386.46,143.59h0.83c0.96,0,1.72-0.36,2.28-1.07c0.56-0.71,0.84-1.7,0.84-2.97    c0-1.25-0.28-2.24-0.84-2.96c-0.56-0.72-1.32-1.08-2.28-1.08h-0.83V143.59z"></path>		</g>	</g></g><g class="st2">	<g class="st4">		<g>			<g>				<path class="st0" d="M170.51,37.8c0.78-0.03,1.72,0.19,2.29-0.17c0.49-0.31,0.57-1.28,0.82-1.96c0.07-0.19,0.07-0.48,0.2-0.56     c0.72-0.45,1.08-0.95,0.54-1.78c-0.05-0.07,0.12-0.32,0.22-0.45c0.51-0.66,0.22-1.04-0.21-1.29c-0.54,0.45-0.97,0.81-1.49,1.25     c0.16,0.28,0.34,0.63,0.59,1.09c-0.53,0.26-1.02,0.5-1.58,0.77c0.51,0.63,1.13,1.23-0.1,1.62c-0.1,0.03-0.06,0.5-0.06,0.53     c-0.49,0.4-0.85,0.69-1.2,0.97c-0.44-0.23-0.88-0.45-1.32-0.68c0.08-0.72,0.88-1.36,0.21-2.17c-0.05-0.06,0.05-0.3,0.13-0.43     c0.4-0.71,0.83-1.41,1.21-2.13c0.07-0.14,0.02-0.36-0.01-0.54c-0.16-0.95,0.28-1.52,1.19-1.96c-0.23,1.07,0.38,1.25,1.11,1.25     c0.68,0,1.48,0.14,1.37-1.01c-0.02-0.26,0.21-0.58,0.4-0.81c0.93-1.15,1.89-2.28,2.81-3.44c1.26-1.57,1.55-3.35,0.99-5.26     c-0.08-0.28-0.32-0.51-0.48-0.76c-0.25,0.22-0.58,0.39-0.73,0.66c-0.69,1.24-1.33,2.51-2.01,3.76     c-0.93,1.71-1.87,3.41-2.79,5.09c-1.42-0.39-2.77,0.59-2.9,1.88c-0.08,0.81-0.12,1.81-0.6,2.36c-0.85,0.96-0.26,1.99-0.48,2.95     c-0.03,0.13,0.4,0.37,0.62,0.56c-0.21,0.18-0.54,0.33-0.59,0.55c-0.09,0.37-0.12,1.06,0.04,1.13c0.38,0.17,0.96,0.2,1.33,0.02     C170.28,38.7,170.35,38.16,170.51,37.8z M197.25,20.25c1.03-0.03,2.07-0.03,3.1-0.09c0.74-0.05,1.48-0.17,2.11-0.25     c0.2-0.26,0.35-0.55,0.58-0.76c0.45-0.4,1.1-0.63,1.1-1.49c-3.23,2.63-6.65,2.16-10.25,0.8c1.47,0.65,1.53,1.77,1.29,3.01     c-1.16,0.05-1.28-0.89-1.64-1.69c-0.07,0.63-0.02,1.22,0.07,1.81c0.31,2.14,0.92,4.18,2.23,5.94c1.95,2.63,5.73,3.07,7.99,0.02     c2.02-2.74,2.4-5.95,1.73-9.27c-0.03-0.16-0.21-0.3-0.32-0.45c-0.13,0.53-0.02,0.99-0.07,1.43c-0.04,0.39-0.15,0.96-0.42,1.11     c-1.1,0.62-2.28,1.12-3.41,1.65c-0.18-0.57-0.28-0.91-0.39-1.26c-0.1,0.03-0.21,0.05-0.31,0.08c0.02,0.38,0.04,0.76,0.06,1.2     c-0.46,0.04-0.88,0.07-1.29,0.11c-0.07-0.39-0.13-0.67-0.18-0.95c-0.06,0-0.11-0.01-0.17-0.01c-0.08,0.3-0.16,0.6-0.23,0.87     c-0.57,0-1.09,0-1.63,0c0-0.63,0-1.18,0-1.74L197.25,20.25z M176.77,41.79c0.05,0.05,0.1,0.09,0.15,0.14     c0.14-0.05,0.3-0.07,0.43-0.15c2.39-1.5,4.97-1.61,7.65-1.05c3.36,0.7,6.34,2.31,9.21,4.09c3.97,2.46,8.14,4.26,12.85,4.65     c2.18,0.18,4.28-0.1,6.33-0.84c0.44-0.16,0.8-0.34,0.64-0.95c-0.67-2.52-1.29-5.05-1.97-7.56c-0.75-2.77-0.6-5.53,0.25-8.2     c0.81-2.54,1.88-5,2.79-7.52c0.34-0.94,0.61-1.92,0.78-2.9c0.21-1.2-0.59-2.05-2.3-2.62c0-0.28,0.01-0.56,0-0.84     c-0.07-2.5-0.89-3.63-3.27-4.44c-0.47-0.16-0.51-0.41-0.44-0.86c0.46-2.75-0.37-5.11-2.24-7.13c-0.15-0.16-0.35-0.27-0.53-0.41     c-0.06,0.05-0.13,0.1-0.19,0.16c0.2,0.33,0.45,0.64,0.6,0.99c0.54,1.23,1.22,2.44,1.53,3.73c0.3,1.27,0.37,2.66-0.97,3.71     c0.37,0.06,0.58,0.09,0.79,0.13c2.5,0.44,3.43,1.51,3.68,4.03c0.16,1.53-0.41,2.87-0.95,4.19c-1.29,3.13-3.3,5.6-6.71,6.87     c0.29-0.56,0.51-1,0.73-1.44c-0.08-0.09-0.15-0.17-0.23-0.26c-1.72,1.94-3.81,3.16-6.36,3.16c-2.49,0-4.75-0.88-6.62-2.67     c-0.06,0.08-0.11,0.16-0.17,0.25c0.27,0.35,0.53,0.71,0.97,1.29c-1.29-0.31-2.23-0.75-3.06-1.4c-2.21-1.74-3.33-4.12-3.69-6.82     c-0.37-2.75-0.06-5.33,2.71-6.9c0.1-0.06,0.17-0.18,0.16-0.17c-0.18-0.54-0.4-0.98-0.45-1.43c-0.28-2.43,0.9-4.17,2.7-5.6     c0.4-0.32,0.81-0.62,1.21-0.94c-0.04-0.08-0.09-0.16-0.13-0.24c-0.36,0.14-0.76,0.21-1.07,0.42c-3.34,2.23-3.96,3.88-3.62,7.36     c0.1,0.99-0.46,1.29-1.03,1.68c-0.19,0.13-0.57-0.03-0.81,0.06c-2.88,1.1-4.62,4-3,6.98c0.49,0.9,0.95,1.84,1.26,2.82     c0.86,2.67,0.6,5.28-0.65,7.79c-1.57,3.15-3.93,5.7-6.35,8.19C177.17,41.31,176.98,41.56,176.77,41.79z M223.68,31.94     c-0.62,0.5-1.18,0.95-1.68,1.35c0.09,0.84,0.1,1.67,0.29,2.46c0.18,0.74-0.07,1.3-0.28,1.98c-0.34,1.08-0.33,2.26-0.54,3.39     c-0.18,0.93-0.46,1.85-0.71,2.77c-0.02,0.08-0.2,0.14-0.32,0.18c-0.72,0.25-1.03,0.69-0.82,1.43c-0.28,0.45-0.43,0.93-0.57,1.42     c-0.06,0.23-0.04,0.51-0.17,0.68c-0.37,0.48-0.31,0.88-0.16,1.46c0.17,0.66,0.2,1.32,0.67,1.87c0.22,0.27,0.39,0.85,0.57,0.84     c0.44-0.01,0.89-0.26,1.31-0.45c0.28-0.12,0.51-0.38,0.8-0.44c0.54-0.12,2.15-1.75,2.18-2.28c0-0.03-0.01-0.07-0.01-0.09     c0.08-0.3,0.17-0.59,0.23-0.89c0.07-0.29,0.11-0.58,0.17-0.87c0.05-0.26,0.02-0.55,0.15-0.77c0.66-1.12,0.09-2.57-1.36-3.09     c0.28,0.67,0.73,1.26,0.71,1.85c-0.01,0.55-0.52,1.1-0.85,1.73c0.06,0.1,0.2,0.32,0.37,0.6c-0.21,0.12-0.37,0.22-0.52,0.3     c-0.18,0.1-0.37,0.19-0.6,0.3c0.2,0.32,0.36,0.58,0.51,0.83c-0.32,0.25-0.72,0.41-0.87,0.7c-0.54,1.03-1.09,1.22-2.23,0.59     c0.71-0.66,0.01-0.97-0.44-1.38c0.64-0.48,1.33-0.92,0.34-1.72c0.56-0.29,1.03-0.54,1.51-0.79c-0.29-0.4-0.5-0.7-0.83-1.15     c0.75-0.07,1.34-0.09,1.93-0.18c0.87-0.13,0.93-0.51,0.59-1.29c-0.33-0.75-0.47-1.63-0.51-2.45c-0.06-1.23,0.81-2.07,1.51-2.96     C225.22,36.35,224.97,33.16,223.68,31.94z M216.84,20.6c-0.04,0.08-0.08,0.17-0.11,0.25c0.18,0.1,0.35,0.23,0.54,0.31     c3.78,1.56,6.5,4.26,8.35,7.86c1.59,3.09,2.4,6.4,2.53,9.87c0.01,0.32,0.18,0.64,0.34,1.16c1.36-3.43-0.25-10.18-3.61-14.48     C222.86,22.97,220.08,21.32,216.84,20.6z M167.16,37.45c0.04-0.13,0.09-0.2,0.07-0.25c-0.05-0.14-0.13-0.28-0.19-0.42     c-0.94-1.89-1.57-3.81-1.14-5.99c0.43-2.18,1.23-4.14,3.09-5.46c1.02-0.72,2.19-1.23,3.29-1.84c0.3-0.17,0.57-0.37,0.98-0.63     c-2.63-0.58-6.48,1.98-7.89,6.06C164.17,32.38,164.84,36.03,167.16,37.45z M199.55,11.42c-0.36-0.54-0.73-1.36-1.33-1.95     c-0.65-0.65-1.33-0.3-1.4,0.6c-0.04,0.47-0.18,1.01-0.01,1.4c0.39,0.86,0.88,1.7,1.48,2.42c0.12,0.14,0.92-0.29,1.44-0.48     c0.57,0.91,1.34,0.94,2.03-0.14c0.62-0.98,0.79-2.11,0.56-3.25c-0.21-1.04-1-1.31-1.71-0.52     C200.09,10.08,199.84,10.89,199.55,11.42z M169.55,22.7c0.08,0.07,0.16,0.14,0.25,0.2c0.1-0.06,0.23-0.1,0.31-0.19     c2.92-3.02,6.55-4.61,10.63-5.28c0.24-0.04,0.44-0.35,0.66-0.53c-0.25-0.14-0.51-0.44-0.73-0.4c-0.98,0.15-1.97,0.33-2.93,0.6     c-2.71,0.75-5.18,1.93-7.1,4.06C170.22,21.62,169.91,22.18,169.55,22.7z M225.26,52.73c1.92-1.89,3.2-4.15,3.37-6.87     c0.15-2.35-0.63-4.44-2.53-6c0.89,2.09,1.58,4.21,1.49,6.52C227.49,48.77,226.3,50.71,225.26,52.73z M204.44,0.51     c-0.36-0.56-1.09-0.74-1.61-0.12c-0.91,1.08-2.14,0.63-3.22,0.87c-0.99,0.22-2.01,0.35-3.01,0.53     c-0.08,0.01-0.14,0.13-0.23,0.17c-0.42,0.16-0.85,0.28-1.26,0.46c-0.24,0.1-0.45,0.28-0.68,0.43c0.23,0.1,0.47,0.32,0.68,0.3     c1.02-0.12,2.04-0.3,3.06-0.47c0.12-0.02,0.24-0.09,0.34-0.16c0.85-0.61,1.87-0.28,2.79-0.5c0.46-0.11,0.95-0.18,1.37-0.39     C203.27,1.33,203.81,0.92,204.44,0.51z M203.65,6.83c-0.13,0.13-0.27,0.25-0.4,0.38c1.12,0.8,1.22,1.9,1.21,3.05     c0,0.15,0.33,0.46,0.47,0.44c0.22-0.03,0.57-0.25,0.6-0.43c0.12-0.98,0.13-1.99-0.6-2.76C204.61,7.18,204.08,7.05,203.65,6.83z      M195.5,8.03c-0.22,0.04-0.64,0.02-0.94,0.2c-1.01,0.63-0.91,1.73-0.97,2.72c-0.01,0.2,0.33,0.41,0.51,0.62     c0.21-0.22,0.53-0.41,0.62-0.67C195.01,10.01,195.22,9.1,195.5,8.03z M198.85,14.52c-0.91-0.02-1.18,0.51-1.32,1.15     c-0.16,0.71,0.01,1.39,0.7,1.68c0.35,0.14,0.85-0.08,1.28-0.14C198.12,16.21,198.12,16.21,198.85,14.52z M193.39,17.7     c-0.62,0.05-1.13,0.14-1.14,0.78c0,0.3,0.29,0.6,0.52,1.03C193.03,18.76,193.18,18.31,193.39,17.7z M204.1,16.49     c0.04,0.1,0.08,0.21,0.13,0.31c0.44-0.02,0.88-0.05,1.58-0.09c-0.31-0.31-0.47-0.6-0.59-0.58     C204.83,16.19,204.47,16.36,204.1,16.49z"></path>			</g>			<g>				<path d="M176.77,41.79c0.2-0.23,0.39-0.48,0.61-0.7c2.42-2.49,4.78-5.04,6.35-8.19c1.25-2.51,1.52-5.12,0.65-7.79     c-0.31-0.97-0.77-1.92-1.26-2.82c-1.62-2.98,0.12-5.87,3-6.98c0.24-0.09,0.62,0.07,0.81-0.06c0.57-0.39,1.13-0.69,1.03-1.68     c-0.33-3.48,0.28-5.13,3.62-7.36c0.31-0.21,0.71-0.28,1.07-0.42c0.04,0.08,0.09,0.16,0.13,0.24c-0.4,0.31-0.81,0.62-1.21,0.94     c-1.81,1.43-2.99,3.18-2.7,5.6c0.05,0.46,0.28,0.89,0.45,1.43c0.01-0.01-0.05,0.11-0.16,0.17c-2.76,1.57-3.08,4.14-2.71,6.9     c0.36,2.71,1.48,5.08,3.69,6.82c0.83,0.66,1.78,1.09,3.06,1.4c-0.44-0.58-0.71-0.94-0.97-1.29c0.06-0.08,0.11-0.16,0.17-0.25     c1.87,1.79,4.13,2.67,6.62,2.67c2.55,0,4.65-1.22,6.36-3.16c0.08,0.09,0.15,0.17,0.23,0.26c-0.22,0.44-0.45,0.88-0.73,1.44     c3.41-1.28,5.42-3.75,6.71-6.87c0.55-1.33,1.11-2.66,0.95-4.19c-0.26-2.52-1.18-3.6-3.68-4.03c-0.21-0.04-0.42-0.07-0.79-0.13     c1.34-1.04,1.27-2.44,0.97-3.71c-0.31-1.29-0.99-2.5-1.53-3.73c-0.15-0.35-0.4-0.66-0.6-0.99c0.06-0.05,0.13-0.1,0.19-0.16     c0.18,0.13,0.38,0.25,0.53,0.41c1.87,2.02,2.7,4.38,2.24,7.13c-0.07,0.45-0.03,0.7,0.44,0.86c2.37,0.81,3.19,1.94,3.27,4.44     c0.01,0.28,0,0.56,0,0.84c1.71,0.57,2.51,1.42,2.3,2.62c-0.17,0.98-0.44,1.96-0.78,2.9c-0.91,2.52-1.98,4.98-2.79,7.52     c-0.85,2.68-1,5.44-0.25,8.2c0.68,2.51,1.3,5.04,1.97,7.56c0.16,0.61-0.2,0.8-0.64,0.95c-2.05,0.75-4.16,1.02-6.33,0.84     c-4.71-0.38-8.89-2.18-12.85-4.65c-2.87-1.78-5.85-3.39-9.21-4.09c-2.68-0.56-5.26-0.45-7.65,1.05     c-0.12,0.08-0.28,0.1-0.43,0.15C176.88,41.88,176.83,41.84,176.77,41.79z M179.58,39.78c0.49,0,0.76,0.07,0.98-0.01     c1.7-0.58,3.43-0.23,5.04,0.13c3.02,0.67,5.85,1.89,8.47,3.6c4.05,2.65,8.39,4.61,13.29,4.96c1.9,0.14,3.81,0.1,5.48-0.57     c-0.65-2.54-1.38-4.94-1.86-7.4c-0.33-1.68-0.58-3.46-0.42-5.15c0.35-3.73,1.52-7.25,3.26-10.59c0.51-0.97,0.88-2.03,1.16-3.09     c0.32-1.17-0.31-2.06-1.39-2.25c-0.46,1.21-0.86,2.43-1.38,3.6c-1.18,2.64-2.82,4.96-5.64,5.94c-1.58,0.55-3.14,1.12-4.69,1.75     c-2.57,1.03-5.13,0.48-7.55-0.8c-0.24-0.12-0.53-0.31-0.75-0.25c-1.79,0.43-3.13-0.45-4.34-1.54c-1.69-1.52-2.58-3.56-3.34-5.65     c-0.73-2-0.63-3.96,0.31-5.87c0.09-0.18,0.15-0.38,0.26-0.66c-2.53,1.4-3.51,3.9-2.01,6.47c1.83,3.12,2.23,6.38,0.51,9.74     c-1.27,2.49-2.83,4.76-4.69,6.83C180.08,39.19,179.91,39.4,179.58,39.78z"></path>			</g>			<g>				<path d="M197.19,20.31c0,0.55,0,1.11,0,1.74c0.54,0,1.06,0,1.63,0c0.07-0.27,0.15-0.57,0.23-0.87c0.06,0,0.11,0.01,0.17,0.01     c0.05,0.28,0.11,0.56,0.18,0.95c0.41-0.03,0.84-0.07,1.29-0.11c-0.02-0.44-0.04-0.82-0.06-1.2c0.1-0.03,0.21-0.05,0.31-0.08     c0.11,0.35,0.22,0.7,0.39,1.26c1.13-0.53,2.31-1.03,3.41-1.65c0.27-0.15,0.37-0.72,0.42-1.11c0.05-0.45-0.06-0.91,0.07-1.43     c0.11,0.15,0.29,0.28,0.32,0.45c0.68,3.32,0.3,6.54-1.73,9.27c-2.26,3.05-6.04,2.61-7.99-0.02c-1.3-1.76-1.91-3.8-2.23-5.94     c-0.09-0.59-0.14-1.18-0.07-1.81c0.36,0.8,0.49,1.74,1.64,1.69c0.24-1.24,0.18-2.36-1.29-3.01c3.6,1.36,7.02,1.83,10.25-0.8     c0,0.86-0.65,1.09-1.1,1.49c-0.23,0.2-0.39,0.5-0.58,0.76c-0.63,0.08-1.37,0.2-2.11,0.25c-1.03,0.06-2.07,0.07-3.1,0.09     c-0.46-0.18-0.93-0.37-1.5-0.6c0,0.79,0,1.36,0,2.06c0.3,0.03,0.63,0.07,0.97,0.11c-0.06-0.08-0.12-0.16-0.18-0.24     C196.75,21.15,196.97,20.73,197.19,20.31z M199.84,25.79c1.09,0,1.88-0.35,1.92-0.87c0.04-0.57-0.83-1.04-1.9-1.02     c-0.98,0.02-1.85,0.49-1.7,0.98C198.4,25.68,199.1,25.81,199.84,25.79z M196.88,27.27c-0.07,0.12-0.14,0.24-0.2,0.36     c0.7,0.4,1.38,0.86,2.12,1.18c0.33,0.14,1,0.18,1.11,0c0.21-0.32,0.12-0.84,0.16-1.27c-0.09-0.07-0.18-0.14-0.27-0.2     c-0.46,0.24-0.93,0.49-1.38,0.72C198.38,27.08,197.53,27.37,196.88,27.27z M203.07,27.4c-0.08-0.14-0.17-0.29-0.25-0.43     c-0.42,0.24-0.84,0.49-1.17,0.67c-0.3-0.07-0.63-0.16-0.96-0.24c-0.07,0.45-0.13,0.9-0.2,1.35c0.11,0.06,0.22,0.12,0.33,0.18     C201.57,28.42,202.32,27.91,203.07,27.4z"></path>			</g>			<g>				<path d="M223.68,31.94c1.29,1.23,1.54,4.41,0.36,5.92c-0.7,0.89-1.57,1.73-1.51,2.96c0.04,0.83,0.18,1.7,0.51,2.45     c0.34,0.78,0.28,1.16-0.59,1.29c-0.58,0.08-1.17,0.11-1.93,0.18c0.32,0.45,0.54,0.74,0.83,1.15c-0.48,0.25-0.95,0.5-1.51,0.79     c0.99,0.8,0.3,1.25-0.34,1.72c0.46,0.41,1.15,0.72,0.44,1.38c1.14,0.64,1.69,0.45,2.23-0.59c0.15-0.29,0.55-0.45,0.87-0.7     c-0.15-0.25-0.31-0.51-0.51-0.83c0.23-0.12,0.42-0.2,0.6-0.3c0.16-0.09,0.31-0.18,0.52-0.3c-0.17-0.28-0.31-0.5-0.37-0.6     c0.34-0.64,0.84-1.18,0.85-1.73c0.02-0.58-0.43-1.18-0.71-1.85c1.45,0.51,2.02,1.96,1.36,3.09c-0.12,0.21-0.1,0.51-0.15,0.77     c-0.05,0.29-0.1,0.58-0.17,0.87c-0.07,0.3-0.16,0.59-0.23,0.89c-0.01,0.03,0.01,0.06,0.01,0.09c-0.02,0.54-1.64,2.16-2.18,2.28     c-0.28,0.06-0.52,0.32-0.8,0.44c-0.43,0.19-0.87,0.44-1.31,0.45c-0.18,0-0.34-0.57-0.57-0.84c-0.46-0.55-0.5-1.21-0.67-1.87     c-0.15-0.59-0.21-0.98,0.16-1.46c0.13-0.17,0.1-0.45,0.17-0.68c0.14-0.49,0.29-0.98,0.57-1.42c-0.22-0.74,0.1-1.18,0.82-1.43     c0.12-0.04,0.29-0.1,0.32-0.18c0.26-0.92,0.54-1.83,0.71-2.77c0.21-1.13,0.2-2.31,0.54-3.39c0.21-0.67,0.46-1.24,0.28-1.98     c-0.19-0.78-0.2-1.61-0.29-2.46C222.51,32.88,223.06,32.44,223.68,31.94z M222.64,37.79c0.09,0.05,0.19,0.1,0.28,0.16     c0.31-0.5,0.62-1,1.05-1.7C222.61,36.32,223.11,37.38,222.64,37.79z"></path>			</g>			<g>				<path d="M169.24,37.12c-0.22-0.19-0.65-0.43-0.62-0.56c0.22-0.96-0.36-1.98,0.48-2.95c0.48-0.55,0.52-1.54,0.6-2.36     c0.13-1.29,1.48-2.26,2.9-1.88c0.92-1.68,1.86-3.38,2.79-5.09c0.68-1.25,1.31-2.52,2.01-3.76c0.15-0.27,0.48-0.44,0.73-0.66     c0.17,0.25,0.4,0.48,0.48,0.76c0.55,1.91,0.26,3.69-0.99,5.26c-0.92,1.16-1.89,2.28-2.81,3.44c-0.19,0.23-0.42,0.55-0.4,0.81     c0.11,1.15-0.69,1.01-1.37,1.01c-0.73,0-1.34-0.18-1.11-1.25c-0.91,0.45-1.36,1.01-1.19,1.96c0.03,0.18,0.08,0.4,0.01,0.54     c-0.38,0.72-0.81,1.42-1.21,2.13c-0.07,0.13-0.18,0.37-0.13,0.43c0.67,0.8-0.12,1.45-0.21,2.17L169.24,37.12z M177.79,21.44     c-1.6,2.79-3.33,5.27-4.74,8.21C175.1,29.04,178.3,23.45,177.79,21.44z"></path>			</g>			<g>				<path d="M216.84,20.6c3.24,0.72,6.02,2.38,8.04,4.97c3.35,4.3,4.97,11.05,3.61,14.48c-0.16-0.52-0.33-0.84-0.34-1.16     c-0.13-3.48-0.94-6.78-2.53-9.87c-1.85-3.59-4.57-6.3-8.35-7.86c-0.19-0.08-0.36-0.21-0.54-0.31     C216.77,20.77,216.8,20.68,216.84,20.6z"></path>			</g>			<g>				<path d="M167.16,37.45c-2.32-1.42-2.99-5.07-1.79-8.53c1.41-4.08,5.26-6.64,7.89-6.06c-0.41,0.27-0.69,0.47-0.98,0.63     c-1.1,0.61-2.27,1.12-3.29,1.84c-1.85,1.32-2.66,3.28-3.09,5.46c-0.43,2.17,0.2,4.1,1.14,5.99c0.07,0.14,0.14,0.28,0.19,0.42     C167.25,37.25,167.2,37.32,167.16,37.45z"></path>			</g>			<g>				<path d="M199.55,11.42c0.29-0.54,0.54-1.35,1.06-1.92c0.71-0.78,1.49-0.51,1.71,0.52c0.23,1.13,0.07,2.26-0.56,3.25     c-0.69,1.08-1.46,1.05-2.03,0.14c-0.53,0.18-1.33,0.62-1.44,0.48c-0.6-0.72-1.1-1.56-1.48-2.42c-0.17-0.39-0.03-0.93,0.01-1.4     c0.08-0.91,0.76-1.25,1.4-0.6C198.82,10.07,199.2,10.88,199.55,11.42z M201.95,11.95c0-0.79,0.04-1.35-0.02-1.89     c-0.02-0.2-0.27-0.51-0.43-0.52c-0.24-0.02-0.58,0.13-0.7,0.32c-0.11,0.16-0.06,0.53,0.06,0.73     C201.12,11,201.47,11.36,201.95,11.95z M197.65,9.43c-0.11,0.02-0.22,0.04-0.33,0.07c-0.09,0.66-0.17,1.32-0.26,1.98     c0.1,0.02,0.2,0.04,0.3,0.06c0.35-0.37,0.7-0.74,1.14-1.2C198.21,10.02,197.93,9.72,197.65,9.43z"></path>			</g>			<g>				<path d="M169.55,22.7c0.36-0.52,0.68-1.07,1.09-1.54c1.92-2.13,4.39-3.31,7.1-4.06c0.96-0.26,1.94-0.45,2.93-0.6     c0.22-0.03,0.49,0.26,0.73,0.4c-0.22,0.18-0.42,0.49-0.66,0.53c-4.09,0.67-7.72,2.25-10.63,5.28c-0.08,0.08-0.2,0.13-0.31,0.19     C169.71,22.83,169.63,22.76,169.55,22.7z"></path>			</g>			<g>				<path d="M225.26,52.73c1.04-2.03,2.23-3.96,2.33-6.35c0.09-2.32-0.6-4.43-1.49-6.52c1.9,1.57,2.68,3.65,2.53,6     C228.46,48.58,227.18,50.84,225.26,52.73z"></path>			</g>			<g>				<path d="M170.53,37.82c0.35-0.29,0.71-0.58,1.2-0.97c0-0.03-0.04-0.5,0.06-0.53c1.23-0.4,0.61-0.99,0.1-1.62     c0.56-0.27,1.06-0.52,1.58-0.77c-0.25-0.46-0.44-0.81-0.59-1.09c0.52-0.43,0.95-0.79,1.49-1.25c0.44,0.24,0.72,0.63,0.21,1.29     c-0.1,0.14-0.27,0.38-0.22,0.45c0.55,0.83,0.18,1.33-0.54,1.78c-0.13,0.08-0.13,0.37-0.2,0.56c-0.26,0.68-0.33,1.65-0.82,1.96     c-0.57,0.36-1.51,0.14-2.29,0.16C170.5,37.79,170.53,37.82,170.53,37.82z"></path>			</g>			<g>				<path d="M204.44,0.51c-0.63,0.41-1.17,0.82-1.76,1.12c-0.42,0.21-0.91,0.29-1.37,0.39c-0.92,0.21-1.94-0.11-2.79,0.5     c-0.1,0.07-0.22,0.14-0.34,0.16c-1.02,0.17-2.04,0.35-3.06,0.47c-0.21,0.02-0.45-0.19-0.68-0.3c0.22-0.15,0.43-0.32,0.68-0.43     c0.41-0.18,0.84-0.3,1.26-0.46c0.08-0.03,0.14-0.15,0.23-0.17c1-0.18,2.02-0.31,3.01-0.53c1.08-0.24,2.31,0.21,3.22-0.87     C203.35-0.23,204.08-0.05,204.44,0.51z"></path>			</g>			<g>				<path d="M203.65,6.83c0.43,0.22,0.96,0.35,1.28,0.68c0.73,0.77,0.72,1.78,0.6,2.76c-0.02,0.18-0.37,0.4-0.6,0.43     c-0.14,0.02-0.47-0.28-0.47-0.44c0.01-1.15-0.09-2.25-1.21-3.05C203.38,7.09,203.52,6.96,203.65,6.83z"></path>			</g>			<g>				<path d="M195.5,8.03c-0.28,1.07-0.49,1.98-0.77,2.87c-0.09,0.26-0.41,0.45-0.62,0.67c-0.18-0.21-0.52-0.42-0.51-0.62     c0.06-0.99-0.04-2.09,0.97-2.72C194.86,8.05,195.28,8.07,195.5,8.03z"></path>			</g>			<g>				<path d="M198.85,14.52c-0.73,1.69-0.73,1.69,0.66,2.69c-0.43,0.06-0.93,0.28-1.28,0.14c-0.69-0.29-0.86-0.97-0.7-1.68     C197.67,15.03,197.95,14.5,198.85,14.52z"></path>			</g>			<g>				<path d="M169.21,37.13c0.44,0.23,0.88,0.45,1.32,0.68c0,0-0.02-0.02-0.02-0.02c-0.16,0.36-0.23,0.91-0.5,1.04     c-0.37,0.18-0.95,0.15-1.33-0.02c-0.16-0.07-0.13-0.76-0.04-1.13c0.05-0.22,0.39-0.37,0.6-0.55     C169.24,37.12,169.21,37.13,169.21,37.13z"></path>			</g>			<g>				<path d="M193.39,17.7c-0.21,0.61-0.36,1.06-0.61,1.81c-0.23-0.44-0.53-0.74-0.52-1.03C192.27,17.85,192.77,17.75,193.39,17.7z"></path>			</g>			<g>				<path d="M204.1,16.49c0.37-0.13,0.73-0.3,1.11-0.36c0.12-0.02,0.29,0.27,0.59,0.58c-0.7,0.04-1.14,0.06-1.58,0.09     C204.18,16.7,204.14,16.6,204.1,16.49z"></path>			</g>			<g>				<path class="st0" d="M179.58,39.78c0.33-0.38,0.5-0.6,0.69-0.8c1.86-2.07,3.42-4.35,4.69-6.83c1.72-3.37,1.32-6.62-0.51-9.74     c-1.51-2.58-0.53-5.08,2.01-6.47c-0.11,0.28-0.17,0.48-0.26,0.66c-0.94,1.91-1.05,3.87-0.31,5.87c0.77,2.09,1.65,4.13,3.34,5.65     c1.21,1.09,2.55,1.96,4.34,1.54c0.22-0.05,0.52,0.13,0.75,0.25c2.41,1.28,4.98,1.83,7.55,0.8c1.56-0.63,3.11-1.2,4.69-1.75     c2.82-0.97,4.46-3.3,5.64-5.94c0.52-1.17,0.92-2.39,1.38-3.6c1.08,0.2,1.71,1.08,1.39,2.25c-0.29,1.06-0.66,2.12-1.16,3.09     c-1.75,3.33-2.91,6.86-3.26,10.59c-0.16,1.69,0.09,3.47,0.42,5.15c0.48,2.46,1.21,4.86,1.86,7.4c-1.67,0.67-3.58,0.71-5.48,0.57     c-4.9-0.35-9.24-2.31-13.29-4.96c-2.62-1.71-5.45-2.93-8.47-3.6c-1.62-0.36-3.34-0.72-5.04-0.13     C180.33,39.85,180.06,39.78,179.58,39.78z"></path>			</g>			<g>				<path class="st0" d="M199.84,25.79c-0.74,0.02-1.44-0.11-1.68-0.91c-0.15-0.49,0.72-0.97,1.7-0.98c1.06-0.02,1.94,0.45,1.9,1.02     C201.72,25.44,200.93,25.79,199.84,25.79z"></path>			</g>			<g>				<path class="st0" d="M196.88,27.27c0.64,0.1,1.49-0.19,1.53,0.78c0.45-0.23,0.91-0.48,1.38-0.72c0.09,0.07,0.18,0.14,0.27,0.2     c-0.04,0.44,0.05,0.95-0.16,1.27c-0.11,0.18-0.78,0.14-1.11,0c-0.74-0.32-1.41-0.78-2.12-1.18     C196.75,27.51,196.81,27.39,196.88,27.27z"></path>			</g>			<g>				<path class="st0" d="M203.07,27.4c-0.75,0.51-1.5,1.02-2.25,1.53c-0.11-0.06-0.22-0.12-0.33-0.18c0.07-0.45,0.13-0.9,0.2-1.35     c0.33,0.08,0.66,0.17,0.96,0.24c0.32-0.19,0.75-0.43,1.17-0.67C202.91,27.11,202.99,27.26,203.07,27.4z"></path>			</g>			<g>				<path class="st0" d="M197.19,20.31c-0.22,0.42-0.44,0.84-0.66,1.26c0.06,0.08,0.12,0.16,0.18,0.24     c-0.34-0.04-0.67-0.07-0.97-0.11c0-0.69,0-1.27,0-2.06c0.57,0.23,1.04,0.41,1.5,0.6L197.19,20.31z"></path>			</g>			<g>				<path class="st0" d="M222.64,37.79c0.46-0.41-0.04-1.47,1.33-1.54c-0.43,0.69-0.74,1.2-1.05,1.7     C222.83,37.89,222.74,37.84,222.64,37.79z"></path>			</g>			<g>				<path class="st0" d="M177.79,21.44c0.51,2.01-2.69,7.6-4.74,8.21C174.47,26.71,176.19,24.23,177.79,21.44z"></path>			</g>			<g>				<path class="st0" d="M201.95,11.95c-0.48-0.59-0.83-0.95-1.09-1.37c-0.12-0.19-0.17-0.56-0.06-0.73     c0.13-0.19,0.47-0.34,0.7-0.32c0.16,0.01,0.4,0.32,0.43,0.52C201.99,10.6,201.95,11.16,201.95,11.95z"></path>			</g>			<g>				<path class="st0" d="M197.65,9.43c0.28,0.29,0.56,0.59,0.86,0.9c-0.44,0.46-0.79,0.83-1.14,1.2c-0.1-0.02-0.2-0.04-0.3-0.06     c0.09-0.66,0.17-1.32,0.26-1.98C197.43,9.47,197.54,9.45,197.65,9.43z"></path>			</g>		</g>		<g>			<path class="st1" d="M99.28,30.28h-0.74l-0.67-2.12h-1.99l-0.68,2.12h-0.73l1.98-6.05h0.85L99.28,30.28z M97.67,27.55l-0.79-2.51    l-0.79,2.51H97.67z"></path>			<path class="st1" d="M116.31,30.28h-0.78l-2.17-4.78v4.78h-0.7v-6.05h0.79l2.18,4.74v-4.74h0.69V30.28z"></path>			<path class="st1" d="M133.92,30.28h-0.78l-2.17-4.78v4.78h-0.7v-6.05h0.79l2.18,4.74v-4.74h0.69V30.28z"></path>			<path class="st1" d="M149.7,24.11c0.68,0,1.2,0.27,1.55,0.8c0.36,0.54,0.53,1.32,0.53,2.34c0,1.02-0.18,1.8-0.53,2.33    s-0.87,0.81-1.55,0.81c-0.68,0-1.19-0.27-1.55-0.8s-0.53-1.32-0.53-2.34c0-1.02,0.18-1.8,0.53-2.34S149.03,24.11,149.7,24.11z     M149.7,29.78c0.89,0,1.34-0.84,1.34-2.52c0-1.68-0.45-2.53-1.34-2.53c-0.43,0-0.77,0.22-0.99,0.65    c-0.23,0.44-0.34,1.06-0.34,1.87c0,0.82,0.11,1.45,0.34,1.88C148.93,29.57,149.27,29.78,149.7,29.78z"></path>		</g>		<g>			<path class="st1" d="M244.65,30.28h-3.18v-0.61h1.28v-4.7l-1.21,0.61v-0.7l1.31-0.67h0.61v5.48h1.2V30.28z"></path>			<path class="st1" d="M261.69,27.37c-0.35,0.31-0.76,0.46-1.23,0.46c-0.51,0-0.94-0.16-1.28-0.49c-0.34-0.33-0.51-0.75-0.51-1.27    c0-0.55,0.16-1.02,0.49-1.4s0.75-0.57,1.27-0.57c0.63,0,1.13,0.29,1.48,0.87c0.35,0.58,0.53,1.31,0.53,2.2s-0.21,1.65-0.62,2.28    c-0.42,0.63-0.97,0.94-1.67,0.94c-0.47,0-0.88-0.07-1.22-0.21l0.11-0.62c0.39,0.15,0.76,0.22,1.09,0.22    c0.47,0,0.85-0.23,1.14-0.69S261.69,28.05,261.69,27.37z M261.67,26.77c0-0.54-0.11-1.02-0.33-1.43s-0.51-0.62-0.87-0.62    c-0.32,0-0.58,0.12-0.77,0.36c-0.19,0.24-0.29,0.55-0.29,0.93c0,0.35,0.1,0.64,0.29,0.86s0.45,0.34,0.77,0.34    c0.44,0,0.82-0.13,1.14-0.4L261.67,26.77z"></path>			<path class="st1" d="M279.3,27.37c-0.35,0.31-0.76,0.46-1.23,0.46c-0.51,0-0.94-0.16-1.28-0.49c-0.34-0.33-0.51-0.75-0.51-1.27    c0-0.55,0.16-1.02,0.49-1.4s0.75-0.57,1.27-0.57c0.63,0,1.13,0.29,1.48,0.87c0.35,0.58,0.53,1.31,0.53,2.2s-0.21,1.65-0.62,2.28    c-0.42,0.63-0.97,0.94-1.67,0.94c-0.47,0-0.88-0.07-1.22-0.21l0.11-0.62c0.39,0.15,0.76,0.22,1.09,0.22    c0.47,0,0.85-0.23,1.14-0.69S279.3,28.05,279.3,27.37z M279.28,26.77c0-0.54-0.11-1.02-0.33-1.43c-0.22-0.41-0.51-0.62-0.87-0.62    c-0.32,0-0.58,0.12-0.77,0.36c-0.19,0.24-0.29,0.55-0.29,0.93c0,0.35,0.1,0.64,0.29,0.86c0.2,0.22,0.45,0.34,0.77,0.34    c0.44,0,0.82-0.13,1.14-0.4L279.28,26.77z"></path>			<path class="st1" d="M296.92,27.37c-0.35,0.31-0.76,0.46-1.23,0.46c-0.51,0-0.94-0.16-1.28-0.49c-0.34-0.33-0.51-0.75-0.51-1.27    c0-0.55,0.16-1.02,0.49-1.4s0.75-0.57,1.27-0.57c0.63,0,1.13,0.29,1.48,0.87c0.35,0.58,0.53,1.31,0.53,2.2s-0.21,1.65-0.62,2.28    c-0.42,0.63-0.97,0.94-1.67,0.94c-0.47,0-0.88-0.07-1.22-0.21l0.11-0.62c0.39,0.15,0.76,0.22,1.09,0.22    c0.47,0,0.85-0.23,1.14-0.69S296.92,28.05,296.92,27.37z M296.9,26.77c0-0.54-0.11-1.02-0.33-1.43    c-0.22-0.41-0.51-0.62-0.87-0.62c-0.32,0-0.58,0.12-0.77,0.36c-0.19,0.24-0.29,0.55-0.29,0.93c0,0.35,0.1,0.64,0.29,0.86    c0.2,0.22,0.45,0.34,0.77,0.34c0.44,0,0.82-0.13,1.14-0.4L296.9,26.77z"></path>		</g>	</g>	<g class="st4">		<path d="M170.2,67.92c3.42,2,3.74,3.57,2.17,7.01c-2.76,6.03-5.5,12.07-8.2,18.13c-0.5,1.11-0.77,2.32-1.28,3.89   c4.65,0,8.82-0.18,12.98,0.04c5.59,0.3,10.82-0.79,15.96-2.92c1.73-0.72,3.73-0.81,6.42-1.35c1.08-3.02,2.52-7.02,3.94-11.04   c1.4-3.96,2.69-7.96,4.2-11.87c0.33-0.84,1.38-1.41,2.11-2.1c0.61,0.9,1.57,1.74,1.74,2.72c0.19,1.08-0.2,2.33-0.58,3.42   c-3.11,8.84-6.55,17.58-9.36,26.51c-2.97,9.45-5.43,19.07-7.97,28.66c-1.09,4.13-1.86,8.35-2.69,12.54   c-0.94,4.76,1.52,6.15,5.31,4.73c8.51-3.19,17.07-6.28,25.7-9.14c6.78-2.25,13.78-3.36,20.94-2.11c0.92,0.16,1.68,1.21,2.51,1.85   c-0.85,0.72-1.63,1.96-2.56,2.07c-4.24,0.53-8.6,0.32-12.75,1.18c-4.63,0.96-9.09,2.77-13.61,4.26c-4.22,1.4-8.41,2.91-12.64,4.28   c-3.05,1-6.1,2.11-9.24,2.68c-1.8,0.33-3.96,0.06-5.61-0.69c-1.13-0.52-3.01-3.51-2.78-6.07c0.85-9.86,1.26-7.62,2.44-12.5   c2.79-11.45,6.02-22.79,9.18-34.56c-11.36,4.68-22.93,5.04-35.16,2.8c-1.27,2.93-2.75,6.17-4.09,9.48   c-2.71,6.68-5.26,13.43-8.07,20.07c-0.44,1.04-1.86,1.66-2.83,2.48c-0.41-1.18-1.4-2.52-1.13-3.52c0.81-3.1,2.03-6.1,3.23-9.08   c5.95-14.84,11.9-29.67,17.94-44.48C167.43,72.82,168.86,70.51,170.2,67.92z"></path>		<path d="M27.58,123.7c12.78-1.71,24.67-6.22,32.34-18.37c5.4-8.56,3.82-19.65-3.75-26.4c-11.11-9.9-24.16-14.2-38.9-13.04   c-4.54,0.36-9,1.75-13.5,2.63c-1.44,0.28-3.52,1.31-3.77-1c-0.1-0.96,1.71-2.65,2.99-3.15c12.55-4.89,25.16-3.25,37.62,0.31   c8.19,2.34,15.8,6.23,21.22,12.96c10.68,13.27,8.61,28.12-4.96,38.38c-9.58,7.25-20.23,11.8-32.5,11.74   c-0.98,0-1.98,0.06-2.93-0.09c-5.26-0.84-8.56-2.36-6.83-8.6c1.65-5.92,3.37-11.86,5.67-17.54c3.37-8.32,7.23-16.44,11-24.59   c0.94-2.03,2.08-4.04,3.54-5.71c0.78-0.9,2.41-1.07,3.66-1.56c0.22,1.23,0.79,2.53,0.57,3.68c-0.26,1.39-1.1,2.69-1.84,3.95   c-7.17,12.27-13.27,25.02-17.63,38.57c-0.3,0.93-0.5,1.89-0.67,2.86c-0.56,3.19,0.1,4.11,3.25,4.49   C23.72,123.4,25.29,123.5,27.58,123.7z"></path>		<path d="M240.89,101.13c-0.21-5.64-0.67-11.28-0.88-16.92c-0.04-1.2,0.57-2.42,0.88-3.63c1.08,0.86,2.73,1.51,3.12,2.61   c0.82,2.35,1.34,4.93,1.34,7.41c0,7.47-0.36,14.94-0.47,22.41c-0.03,1.84,0.04,3.79,0.59,5.51c1.45,4.55,3.75,6.26,8.21,3.54   c2.04-1.25,4.16-3.44,4.84-5.64c1.09-3.53,1.65-7.48,1.26-11.13c-0.59-5.51-4.47-8.39-10.07-8.69c-1.39-0.08-3.46,0.34-3.19-1.84   c0.12-1,1.71-2.28,2.86-2.61c3.99-1.13,11.3,1.36,12.65,4.92c2.01,5.31,3.76,10.8,2.14,16.81c-1.12,4.17-2.71,7.83-5.96,10.73   c-4.27,3.82-10.62,4.19-15.18,0.79c-1.84-1.37-2.87-3.08-2.72-5.5c0.15-2.34,0.03-4.7,0.03-7.05"></path>		<path d="M385.91,93.09c0.67-3.5,1.08-6.71,1.98-9.78c0.32-1.07,1.84-1.79,2.82-2.67c0.5,1.12,1.61,2.36,1.4,3.33   c-2.02,9.49-2.24,19.1-2.14,28.73c0.03,3.11,0.41,6.22,0.76,9.32c0.31,2.78-0.25,3.37-2.91,3.01c-0.89-0.12-1.94-0.02-2.75,0.34   c-10.22,4.56-17.53,0.41-18.37-10.86c-0.31-4.19,0.06-8.58,0.97-12.69c2.05-9.28,8.42-11.19,16.94-9.17   C384.97,92.73,385.31,92.88,385.91,93.09z M385.13,96.89c-7.5-1.16-10.99-0.15-13.54,5.79c-2.11,4.91-2.24,10.37,0.18,15.38   c0.83,1.72,2.5,3.28,4.16,4.31c2.98,1.84,6.02,0.38,8.53-1.21c0.97-0.61,1.15-2.92,1.19-4.47c0.13-5.47,0.08-10.95,0.02-16.42   C385.65,99.12,385.31,97.98,385.13,96.89z"></path>		<path d="M299,108.12c-0.73,7.5-1.99,13.74-7.94,17.76c-4.19,2.83-10.56,2.53-14.16-0.97c-1.25-1.21-2.14-3.41-2.15-5.17   c-0.04-7.02,0.49-14.04,0.49-21.05c0-3.97-0.64-7.94-0.98-11.91c-0.11-1.26-0.38-2.54-0.21-3.77c0.12-0.87,0.85-1.66,1.31-2.49   c0.78,0.65,2.09,1.2,2.24,1.97c0.84,4.23,1.69,8.49,1.98,12.78c0.31,4.53,0.07,9.1-0.08,13.65c-0.09,2.92-0.58,5.82-0.64,8.74   c-0.09,4.78,4.48,7.37,8.57,4.83c3.52-2.18,5.39-5.57,6.17-9.58c0.86-4.37,0.3-8.55-1.73-12.54c-1.29-2.54-3.33-3.73-6.12-3.76   c-0.29,0-0.59,0.03-0.88-0.01c-1.51-0.25-3.92,0.46-3.7-2c0.08-0.89,2.36-2.14,3.71-2.25c6.05-0.49,11.25,3.53,12.77,9.57   C298.24,104.23,298.68,106.6,299,108.12z"></path>		<path d="M214.3,106.26c-1.82,3.66-1.65,7.14,0.03,10.59c1.82,3.74,6.09,5.11,9.87,3.22c0.87-0.44,1.77-1.07,2.69-1.11   c1.15-0.06,2.33,0.39,3.49,0.62c-0.46,1.12-0.62,2.52-1.41,3.3c-5.26,5.2-16.38,2.87-18.7-4.09c-2.54-7.62-1.66-15.12,2.66-21.95   c4.46-7.04,13.96-5.38,18.04,0.72c2.35,3.51,0.37,8.42-3.76,9.38C222.98,107.93,218.68,108.03,214.3,106.26z M214.97,102.22   c0.18,0.25,0.37,0.51,0.55,0.76c2.78,0,5.57,0.13,8.34-0.07c0.99-0.07,2.54-0.73,2.74-1.44c0.27-0.97-0.18-2.48-0.87-3.32   c-1.71-2.1-4.68-2.42-6.76-0.65C217.43,98.83,216.29,100.63,214.97,102.22z"></path>		<path d="M314.09,104.2c-1.42,3.76-2.32,7.38-0.76,11.52c2.02,5.34,5.4,7.12,10.59,4.8c1.82-0.82,4.36-2.35,5.45,0.03   c1.07,2.33-1.71,3.28-3.51,4.1c-9.3,4.23-17.75-1.22-17.73-11.45c0.02-6.09,0.98-11.97,5.38-16.6c2.37-2.49,5.03-4.8,8.98-3.69   c4.02,1.13,7.51,2.93,8.82,7.3c0.92,3.06-0.83,6.58-3.99,6.91c-3.94,0.42-7.96,0.17-11.93-0.1c-0.52-0.03-0.91-1.88-1.37-2.88   c3.26-0.27,6.52-0.48,9.77-0.83c0.87-0.09,2.33-0.51,2.4-0.95c0.16-1.03-0.08-2.36-0.66-3.23c-1.58-2.31-5.84-2.96-7.77-0.93   C316.17,99.86,315.28,102.18,314.09,104.2z"></path>		<path d="M79.12,105.96c-1.21,3.66-1.41,7.67,1.39,11.38c2.03,2.69,4.32,3.1,7.45,1.77c1.42-0.6,2.94-1.08,4.47-1.31   c0.7-0.11,1.88,0.3,2.15,0.84c0.29,0.57,0.04,1.98-0.44,2.28c-1.87,1.15-3.83,2.38-5.93,2.91c-7.79,1.97-13.61-2.49-13.97-10.49   c-0.34-7.46,0.99-14.33,6.56-19.92c2.62-2.63,5.63-3.1,8.81-2.03c3.43,1.15,6.23,3.43,7.28,7.07c0.95,3.3-1.7,7.2-5.17,7.44   C87.68,106.17,83.62,105.96,79.12,105.96z M79.59,101.76c3.88,0,6.69,0.16,9.46-0.06c1.6-0.12,3.51-0.59,3.15-2.93   c-0.46-2.97-5.7-5.17-7.89-3.17C82.62,97.15,81.46,99.26,79.59,101.76z"></path>		<path d="M345.97,98.36c2.85-1.44,5.27-2.88,7.85-3.9c1.67-0.66,3.57-0.92,5.38-0.96c0.81-0.02,1.63,0.97,2.45,1.5   c-0.58,0.76-1,1.88-1.77,2.23c-3.71,1.68-7.47,3.24-11.29,4.65c-1.78,0.66-2.3,1.62-2.23,3.48c0.16,4.94,0.11,9.89,0.08,14.83   c-0.01,0.95-0.28,1.9-0.46,2.84c-0.26,1.37-0.55,3.14-2.39,2.37c-0.91-0.38-1.74-2.07-1.77-3.2c-0.09-3,0.49-6.02,0.42-9.02   c-0.12-5.17-0.66-10.32-0.76-15.49c-0.03-1.77,0.58-5.02,1.15-5.07c2.69-0.27,2.55,2.52,3.32,4.26   C346.09,97.2,345.97,97.64,345.97,98.36z"></path>		<path d="M145.22,99.87c-5.5-0.04-10.98-0.3-15.37,4.09c-0.58,0.58-2.06,0.25-3.12,0.34c0.07-1.09-0.25-2.45,0.28-3.23   c1.87-2.75,4.58-4.82,7.9-5.02c6.11-0.37,12.26-0.3,18.39-0.18c1.05,0.02,2.09,1.22,3.13,1.88c-1,0.71-1.95,1.91-3.02,2.02   C150.71,100.07,147.95,99.87,145.22,99.87z"></path>		<g>			<path class="st1" d="M255.19,139.06c0.67,0.16,1.2,0.46,1.59,0.92c0.38,0.45,0.57,1,0.57,1.62c0,0.92-0.33,1.65-1,2.2    s-1.47,0.82-2.41,0.82h-2.88v-10.13h2.81c0.98,0,1.74,0.21,2.29,0.64c0.55,0.43,0.83,1.03,0.83,1.81c0,0.48-0.16,0.9-0.48,1.28    c-0.32,0.37-0.76,0.64-1.32,0.81V139.06z M252.24,138.51h1.38c1.44,0,2.16-0.51,2.16-1.54c0-0.47-0.18-0.83-0.53-1.08    s-0.87-0.38-1.56-0.38h-1.45V138.51z M252.24,143.59h1.34c0.78,0,1.4-0.18,1.86-0.53c0.46-0.35,0.69-0.84,0.69-1.46    c0-0.66-0.23-1.16-0.68-1.52s-1.1-0.54-1.95-0.54h-1.25V143.59z"></path>			<path class="st1" d="M274.79,144.62h-1.24l-1.12-3.55h-3.32l-1.13,3.55h-1.22l3.31-10.13h1.41L274.79,144.62z M272.09,140.04    l-1.33-4.19l-1.32,4.19H272.09z"></path>			<path class="st1" d="M291.55,144.62h-1.47l-2.97-4.6h-1.31v4.6h-1.18v-10.13h2.87c0.96,0,1.72,0.23,2.28,0.7    c0.56,0.47,0.84,1.12,0.84,1.95c0,0.62-0.2,1.17-0.61,1.65c-0.41,0.48-0.97,0.81-1.68,0.98L291.55,144.62z M285.8,138.99h1.49    c0.62,0,1.13-0.17,1.52-0.51c0.39-0.34,0.58-0.76,0.58-1.27c0-1.13-0.69-1.69-2.07-1.69h-1.52V138.99z"></path>			<path class="st1" d="M307.36,144.62h-1.31l-3.63-8v8h-1.18v-10.13h1.31l3.65,7.93v-7.93h1.16V144.62z"></path>			<path class="st1" d="M323.8,144.62h-5.29v-10.13h5.25v1.03h-4.07v3.14h3.91v1.03h-3.91v3.91h4.11V144.62z"></path>			<path class="st1" d="M341.86,134.49l-3.3,10.13h-1.41l-3.31-10.13h1.24l2.78,8.77l2.79-8.77H341.86z"></path>			<path class="st1" d="M357.36,144.62h-5.29v-10.13h5.25v1.03h-4.07v3.14h3.91v1.03h-3.91v3.91h4.11V144.62z"></path>			<path class="st1" d="M374.36,144.62h-5.51v-10.13h1.18v9.11h4.34V144.62z"></path>			<path class="st1" d="M385.28,134.49h2c1.33,0,2.39,0.45,3.19,1.35c0.8,0.9,1.2,2.14,1.2,3.72c0,1.61-0.41,2.85-1.22,3.74    c-0.81,0.88-1.85,1.32-3.12,1.32h-2.05V134.49z M386.46,143.59h0.83c0.96,0,1.72-0.36,2.28-1.07c0.56-0.71,0.84-1.7,0.84-2.97    c0-1.25-0.28-2.24-0.84-2.96c-0.56-0.72-1.32-1.08-2.28-1.08h-0.83V143.59z"></path>		</g>	</g></g></svg>